<svg fill="none" height="130" viewBox="0 0 400 130" width="400" xmlns="http://www.w3.org/2000/svg" xmlns:xlink="http://www.w3.org/1999/xlink"><clipPath id="a"><path d="m8 0h156v124h-156z"/></clipPath><g fill="#2e3137"><g clip-path="url(#a)"><path d="m110.493 90.6731c-7.41-7.3335-10.8416-16.2214-10.8416-26.7035 0-10.542 3.4126-19.4697 10.8416-26.863 3.547-3.6072 7.768-6.4487 12.411-8.3556s9.613-2.8401 14.616-2.7443c9.434-.1582 18.578 3.3292 25.604 9.7647 1.073.9964 1.092 1.9928.117 2.9494l-8.249 8.5092c-.916.837-1.813.837-2.652 0-3.947-3.5393-9.042-5.4502-14.293-5.3606-5.928 0-10.862 2.1124-14.82 6.377-1.886 2.0302-3.357 4.4238-4.328 7.0412s-1.422 5.4062-1.327 8.2037c0 5.8987 1.755 10.9205 5.733 15.0855 1.918 2.0364 4.229 3.6426 6.787 4.7165 2.558 1.0738 5.307 1.5918 8.072 1.521 5.165.1191 10.199-1.6712 14.176-5.0418.975-.837 1.892-.7971 2.73.0996l8.269 8.7285c.916.9167.877 1.8533-.098 2.8298-6.92 6.7347-16.167 10.3956-25.721 10.1836-4.991.099-9.952-.819-14.593-2.7008-4.64-1.8818-8.867-4.6899-12.434-8.26z"/><path clip-rule="evenodd" d="m8.00113 28.0793c-.00894-.271.0386-.5408.13945-.7916.10086-.2508.25273-.4769.44556-.6631.16282-.1899.36385-.3416.58933-.4448.22549-.1032.47012-.1554.71717-.1531h25.48656c10.452.7971 18.252 3.7863 25.4281 11.1597 7.215 7.3734 10.0815 15.7431 10.998 26.5043.8775 10.3625-3.354 19.3301-10.53 26.7035-3.3383 3.571-7.3603 6.4012-11.8156 8.3143-4.4553 1.9135-9.2483 2.8685-14.0805 2.8055h-25.48656c-.24646-.001-.48992-.055-.71486-.158s-.42644-.253-.59164-.44c-.19334-.19-.34535-.419-.44614-.673-.10079-.2546-.14811-.5275-.13887-.8015zm16.30207 57.4525h10.023c5.85 0 10.725-2.1124 14.586-6.3172 3.861-4.1979 5.9426-9.7848 5.7915-15.5439 0-6.1179-1.95-11.2792-5.7915-15.484-1.8502-2.0545-4.1089-3.681-6.6245-4.7705-2.5157-1.0896-5.2301-1.6169-7.9615-1.5467h-10.023z" fill-rule="evenodd"/><path d="m102.717 85.9436c.403.5994.483 1.3647.181 2.0207l-15.1027 32.8597c-.4095.797-.9945 1.176-1.7745 1.176h-1.053c-.78 0-1.365-.399-1.794-1.196l-14.8217-32.4601c-.3062-.6707-.2145-1.4533.2126-2.0543 4.3799-6.1636 6.4568-13.1819 6.2491-20.605-.016-.5723.862-.7963 1.0946-.2731l9.3519 21.0369h.6435l9.7084-21.8026c.2265-.5088 1.0401-.3194 1.0401.2376.0005 7.4521 1.88 14.8296 6.0647 21.0602z"/></g><path d="m204 35.1697h23.844c4.739 0 8.968.6598 12.687 1.9795 3.719 1.2597 6.868 3.1492 9.447 5.6686 2.58 2.5193 4.559 5.6685 5.939 9.4476 1.379 3.779 2.069 8.1279 2.069 13.0467v1.7995c0 5.0387-.72 9.5076-2.159 13.4066-1.38 3.839-3.419 7.0782-6.119 9.7175-2.639 2.5794-5.878 4.5589-9.717 5.9385-3.839 1.3197-8.188 1.9795-13.047 1.9795h-22.944zm22.044 49.6674c2.04 0 3.959-.2999 5.759-.8998 1.859-.6598 3.479-1.6795 4.859-3.0592 1.439-1.3796 2.549-3.2092 3.329-5.4886.84-2.2794 1.26-5.0387 1.26-8.2779v-1.7995c0-3.0593-.39-5.6386-1.17-7.7381-.72-2.1594-1.74-3.899-3.059-5.2187-1.26-1.3796-2.76-2.3694-4.499-2.9692-1.74-.5999-3.599-.8998-5.579-.8998h-6.748v36.3508z"/><path d="m261.603 35.1697h17.995l14.217 42.2893 13.676-42.2893h16.196l-22.494 62.984h-16.196z"/><path d="m356.557 99.3234c-4.319 0-8.278-.5698-11.877-1.7095-3.599-1.1997-6.688-3.0893-9.268-5.6686-2.519-2.5794-4.499-5.9085-5.938-9.9875-1.44-4.0789-2.16-9.0577-2.16-14.9362v-1.7095c0-5.5186.75-10.2574 2.25-14.2164 1.499-3.959 3.569-7.1982 6.208-9.7176 2.64-2.5193 5.729-4.3789 9.268-5.5786 3.599-1.1997 7.438-1.7995 11.517-1.7995 3.659 0 7.078.4199 10.257 1.2597 3.24.8398 6.059 2.1594 8.458 3.959 2.46 1.7995 4.439 4.1389 5.939 7.0182 1.559 2.8793 2.489 6.3884 2.789 10.5273h-16.736c-.3-1.6795-.78-3.0892-1.439-4.2289-.66-1.1997-1.47-2.1595-2.43-2.8793-.96-.7798-2.039-1.3196-3.239-1.6196-1.14-.3599-2.339-.5398-3.599-.5398-1.8 0-3.479.3299-5.039.9897-1.499.5999-2.819 1.6196-3.959 3.0593-1.079 1.3796-1.949 3.2091-2.609 5.4886-.6 2.2794-.9 5.0387-.9 8.2779v1.8895c0 3.4791.33 6.4183.99 8.8177.72 2.3394 1.649 4.259 2.789 5.7586 1.14 1.4396 2.46 2.4893 3.959 3.1492 1.5.5998 3.089.8998 4.769.8998 3.059 0 5.489-.7199 7.288-2.1595 1.86-1.4996 2.999-3.869 3.419-7.1082h16.736c-.24 4.1989-1.11 7.738-2.609 10.6173-1.44 2.8793-3.389 5.2187-5.849 7.0182-2.399 1.7996-5.219 3.1192-8.458 3.959-3.239.7798-6.748 1.1697-10.527 1.1697z"/></g></svg>