<svg width="400" height="128" viewBox="0 0 400 128" fill="none" xmlns="http://www.w3.org/2000/svg"><g clip-path="url(#clip0_63_481)"><path d="M110.493 88.6732C103.083 81.3397 99.6514 72.4518 99.6514 61.9696C99.6514 51.4277 103.064 42.5 110.493 35.1067C114.04 31.4994 118.261 28.6579 122.904 26.7511C127.547 24.8442 132.517 23.9109 137.52 24.0068C146.954 23.8486 156.098 27.336 163.124 33.7715C164.197 34.7679 164.216 35.7643 163.241 36.7208L154.992 45.2301C154.076 46.0671 153.179 46.0671 152.34 45.2301C148.393 41.6908 143.298 39.7798 138.047 39.8695C132.119 39.8695 127.185 41.9818 123.227 46.2464C121.341 48.2767 119.87 50.6703 118.899 53.2877C117.928 55.9051 117.477 58.6939 117.572 61.4914C117.572 67.39 119.327 72.4119 123.305 76.5769C125.223 78.6133 127.534 80.2195 130.092 81.2933C132.65 82.3672 135.399 82.8852 138.164 82.8143C143.329 82.9334 148.363 81.1432 152.34 77.7725C153.315 76.9356 154.232 76.9754 155.07 77.8722L163.339 86.6007C164.255 87.5173 164.216 88.454 163.241 89.4304C156.321 96.1652 147.074 99.8264 137.52 99.6137C132.529 99.7132 127.568 98.7952 122.927 96.9133C118.287 95.0314 114.06 92.2234 110.493 88.6532V88.6732V88.6732Z" fill="url(#paint0_linear_63_481)"/><path d="M8.00113 97.4217V26.0794C7.99219 25.8084 8.03973 25.5385 8.14058 25.2877C8.24144 25.0369 8.39331 24.8109 8.58614 24.6246C8.74896 24.4348 8.94999 24.283 9.17547 24.1799C9.40096 24.0767 9.64559 24.0245 9.89264 24.0268H35.3792C45.8312 24.8239 53.6312 27.8131 60.8073 35.1865C68.0223 42.5599 70.8888 50.9296 71.8053 61.6908C72.6828 72.0533 68.4513 81.0209 61.2753 88.3943C57.937 91.9653 53.915 94.7955 49.4597 96.7086C45.0044 98.6217 40.2114 99.5767 35.3792 99.5141H9.89264C9.64618 99.5127 9.40272 99.4587 9.17778 99.3558C8.95284 99.2529 8.75134 99.1032 8.58614 98.9163C8.3928 98.7262 8.24079 98.4967 8.14 98.2426C8.03921 97.9885 7.99189 97.7156 8.00113 97.4416V97.4217ZM24.3032 43.4168V83.5319H34.3262C40.1762 83.5319 45.0512 81.4195 48.9122 77.2147C52.7732 73.0168 54.8548 67.4299 54.7037 61.6708C54.7037 55.5529 52.7537 50.3916 48.9122 46.1868C47.062 44.1323 44.8033 42.5058 42.2877 41.4162C39.772 40.3267 37.0576 39.7994 34.3262 39.8696H24.3032V43.4168Z" fill="url(#paint1_linear_63_481)"/><path d="M101.699 48.9766L85.9037 84.4485H85.2602L68.3927 46.5055C70.3037 51.0491 71.3177 56.0311 71.8052 61.6707C72.4487 69.2434 70.3622 76.0588 66.4037 82.077L83.1737 118.804C83.6027 119.602 84.1877 120 84.9677 120H86.0207C86.8007 120 87.3857 119.621 87.7952 118.824L104.877 81.6585C101.322 75.7369 99.5082 68.8955 99.6513 61.9497C99.6513 57.3264 100.314 52.9821 101.699 48.9766Z" fill="url(#paint2_linear_63_481)"/></g><path d="M204 33.1698H227.844C232.583 33.1698 236.812 33.8296 240.531 35.1493C244.25 36.4089 247.399 38.2985 249.978 40.8178C252.558 43.3372 254.537 46.4864 255.917 50.2654C257.296 54.0445 257.986 58.3934 257.986 63.3121V65.1117C257.986 70.1504 257.266 74.6192 255.827 78.5183C254.447 82.3573 252.408 85.5965 249.708 88.2358C247.069 90.8151 243.83 92.7946 239.991 94.1743C236.152 95.4939 231.803 96.1538 226.944 96.1538H204V33.1698ZM226.044 82.8372C228.084 82.8372 230.003 82.5372 231.803 81.9374C233.662 81.2776 235.282 80.2578 236.662 78.8782C238.101 77.4985 239.211 75.669 239.991 73.3896C240.831 71.1101 241.251 68.3508 241.251 65.1117V63.3121C241.251 60.2529 240.861 57.6735 240.081 55.5741C239.361 53.4146 238.341 51.6751 237.022 50.3554C235.762 48.9758 234.262 47.986 232.523 47.3862C230.783 46.7863 228.924 46.4864 226.944 46.4864H220.196V82.8372H226.044Z" fill="#2E3137"/><path d="M261.603 33.1698H279.598L293.815 75.459L307.491 33.1698H323.687L301.193 96.1538H284.997L261.603 33.1698Z" fill="#2E3137"/><path d="M356.557 97.3235C352.238 97.3235 348.279 96.7536 344.68 95.6139C341.081 94.4142 337.992 92.5247 335.412 89.9454C332.893 87.366 330.913 84.0369 329.474 79.9579C328.034 75.8789 327.314 70.9002 327.314 65.0217V63.3121C327.314 57.7935 328.064 53.0547 329.564 49.0957C331.063 45.1367 333.133 41.8975 335.772 39.3782C338.412 36.8588 341.501 34.9993 345.04 33.7996C348.639 32.5999 352.478 32.0001 356.557 32.0001C360.216 32.0001 363.635 32.42 366.814 33.2597C370.054 34.0995 372.873 35.4192 375.272 37.2187C377.732 39.0183 379.711 41.3577 381.211 44.237C382.77 47.1162 383.7 50.6253 384 54.7643H367.264C366.964 53.0847 366.484 51.6751 365.825 50.5354C365.165 49.3357 364.355 48.3759 363.395 47.6561C362.435 46.8763 361.356 46.3364 360.156 46.0365C359.016 45.6766 357.817 45.4966 356.557 45.4966C354.757 45.4966 353.078 45.8266 351.518 46.4864C350.019 47.0862 348.699 48.106 347.559 49.5456C346.48 50.9253 345.61 52.7548 344.95 55.0342C344.35 57.3136 344.05 60.0729 344.05 63.3121V65.2016C344.05 68.6808 344.38 71.62 345.04 74.0194C345.76 76.3588 346.689 78.2783 347.829 79.7779C348.969 81.2176 350.289 82.2673 351.788 82.9271C353.288 83.527 354.877 83.8269 356.557 83.8269C359.616 83.8269 362.046 83.1071 363.845 81.6675C365.705 80.1678 366.844 77.7984 367.264 74.5593H384C383.76 78.7582 382.89 82.2973 381.391 85.1766C379.951 88.0558 378.002 90.3952 375.542 92.1948C373.143 93.9943 370.323 95.314 367.084 96.1538C363.845 96.9336 360.336 97.3235 356.557 97.3235Z" fill="#2E3137"/><defs><linearGradient id="paint0_linear_63_481" x1="131.826" y1="61.863" x2="131.826" y2="99.622" gradientUnits="userSpaceOnUse"><stop stop-color="#F46837"/><stop offset="1" stop-color="#DD5236"/></linearGradient><linearGradient id="paint1_linear_63_481" x1="39.96" y1="61.863" x2="39.96" y2="99.517" gradientUnits="userSpaceOnUse"><stop stop-color="#13ADC7"/><stop offset="1" stop-color="#1497B8"/></linearGradient><linearGradient id="paint2_linear_63_481" x1="71.375" y1="83.784" x2="71.375" y2="119.655" gradientUnits="userSpaceOnUse"><stop stop-color="#7E51C2"/><stop offset="1" stop-color="#945DD6"/></linearGradient><clipPath id="clip0_63_481"><rect width="156" height="124" fill="#fff" transform="translate(8 2.00006)"/></clipPath></defs></svg>