<svg width="400" height="130" viewBox="0 0 400 130" fill="none" xmlns="http://www.w3.org/2000/svg"><g clip-path="url(#clip0_97_688)"><path d="M110.493 90.6731C103.083 83.3396 99.6514 74.4517 99.6514 63.9696C99.6514 53.4276 103.064 44.4999 110.493 37.1066C114.04 33.4994 118.261 30.6579 122.904 28.751C127.547 26.8441 132.517 25.9109 137.52 26.0067C146.954 25.8485 156.098 29.3359 163.124 35.7714C164.197 36.7678 164.216 37.7642 163.241 38.7208L154.992 47.23C154.076 48.067 153.179 48.067 152.34 47.23C148.393 43.6907 143.298 41.7798 138.047 41.8694C132.119 41.8694 127.185 43.9818 123.227 48.2464C121.341 50.2766 119.87 52.6702 118.899 55.2876C117.928 57.905 117.477 60.6938 117.572 63.4913C117.572 69.39 119.327 74.4118 123.305 78.5768C125.223 80.6132 127.534 82.2194 130.092 83.2933C132.65 84.3671 135.399 84.8851 138.164 84.8143C143.329 84.9334 148.363 83.1431 152.34 79.7725C153.315 78.9355 154.232 78.9754 155.07 79.8721L163.339 88.6006C164.255 89.5173 164.216 90.4539 163.241 91.4304C156.321 98.1651 147.074 101.826 137.52 101.614C132.529 101.713 127.568 100.795 122.927 98.9132C118.287 97.0314 114.06 94.2233 110.493 90.6532V90.6731Z" fill="#fff"/><path fill-rule="evenodd" clip-rule="evenodd" d="M8.00113 28.0793C7.99219 27.8083 8.03973 27.5385 8.14058 27.2877C8.24144 27.0369 8.39331 26.8108 8.58614 26.6246C8.74896 26.4347 8.94999 26.283 9.17547 26.1798C9.40096 26.0766 9.64559 26.0244 9.89264 26.0267H35.3792C45.8312 26.8238 53.6312 29.813 60.8073 37.1864C68.0223 44.5598 70.8888 52.9295 71.8053 63.6907C72.6828 74.0532 68.4513 83.0208 61.2753 90.3942C57.937 93.9652 53.915 96.7954 49.4597 98.7085C45.0044 100.622 40.2114 101.577 35.3792 101.514H9.89264C9.64618 101.513 9.40272 101.459 9.17778 101.356C8.95284 101.253 8.75134 101.103 8.58614 100.916C8.3928 100.726 8.24079 100.497 8.14 100.243C8.03921 99.9884 7.99189 99.7155 8.00113 99.4415V28.0793ZM24.3032 85.5318H34.3262C40.1762 85.5318 45.0512 83.4194 48.9122 79.2146C52.7732 75.0167 54.8548 69.4298 54.7037 63.6707C54.7037 57.5528 52.7537 52.3915 48.9122 48.1867C47.062 46.1322 44.8033 44.5057 42.2877 43.4162C39.772 42.3266 37.0576 41.7993 34.3262 41.8695H24.3032V85.5318Z" fill="#fff"/><path d="M102.717 85.9436C103.12 86.543 103.2 87.3083 102.898 87.9643L87.7953 120.824C87.3858 121.621 86.8008 122 86.0208 122H84.9678C84.1878 122 83.6028 121.601 83.1738 120.804L68.3521 88.3439C68.0459 87.6732 68.1376 86.8906 68.5647 86.2896C72.9446 80.126 75.0215 73.1077 74.8138 65.6846C74.7978 65.1123 75.6758 64.8883 75.9084 65.4115L85.2603 86.4484H85.9038L95.6122 64.6458C95.8387 64.137 96.6523 64.3264 96.6523 64.8834C96.6528 72.3355 98.5323 79.713 102.717 85.9436Z" fill="#fff"/></g><path d="M204 35.1697H227.844C232.583 35.1697 236.812 35.8295 240.531 37.1492C244.25 38.4089 247.399 40.2984 249.978 42.8178C252.558 45.3371 254.537 48.4863 255.917 52.2654C257.296 56.0444 257.986 60.3933 257.986 65.3121V67.1116C257.986 72.1503 257.266 76.6192 255.827 80.5182C254.447 84.3572 252.408 87.5964 249.708 90.2357C247.069 92.8151 243.83 94.7946 239.991 96.1742C236.152 97.4939 231.803 98.1537 226.944 98.1537H204V35.1697ZM226.044 84.8371C228.084 84.8371 230.003 84.5372 231.803 83.9373C233.662 83.2775 235.282 82.2578 236.662 80.8781C238.101 79.4985 239.211 77.6689 239.991 75.3895C240.831 73.1101 241.251 70.3508 241.251 67.1116V65.3121C241.251 62.2528 240.861 59.6735 240.081 57.574C239.361 55.4146 238.341 53.675 237.022 52.3553C235.762 50.9757 234.262 49.9859 232.523 49.3861C230.783 48.7862 228.924 48.4863 226.944 48.4863H220.196V84.8371H226.044Z" fill="#fff"/><path d="M261.603 35.1697H279.598L293.815 77.459L307.491 35.1697H323.687L301.193 98.1537H284.997L261.603 35.1697Z" fill="#fff"/><path d="M356.557 99.3234C352.238 99.3234 348.279 98.7536 344.68 97.6139C341.081 96.4142 337.992 94.5246 335.412 91.9453C332.893 89.3659 330.913 86.0368 329.474 81.9578C328.034 77.8789 327.314 72.9001 327.314 67.0216V65.3121C327.314 59.7935 328.064 55.0547 329.564 51.0957C331.063 47.1367 333.133 43.8975 335.772 41.3781C338.412 38.8588 341.501 36.9992 345.04 35.7995C348.639 34.5998 352.478 34 356.557 34C360.216 34 363.635 34.4199 366.814 35.2597C370.054 36.0995 372.873 37.4191 375.272 39.2187C377.732 41.0182 379.711 43.3576 381.211 46.2369C382.77 49.1162 383.7 52.6253 384 56.7642H367.264C366.964 55.0847 366.484 53.675 365.825 52.5353C365.165 51.3356 364.355 50.3758 363.395 49.656C362.435 48.8762 361.356 48.3364 360.156 48.0364C359.016 47.6765 357.817 47.4966 356.557 47.4966C354.757 47.4966 353.078 47.8265 351.518 48.4863C350.019 49.0862 348.699 50.1059 347.559 51.5456C346.48 52.9252 345.61 54.7547 344.95 57.0342C344.35 59.3136 344.05 62.0729 344.05 65.3121V67.2016C344.05 70.6807 344.38 73.6199 345.04 76.0193C345.76 78.3587 346.689 80.2783 347.829 81.7779C348.969 83.2175 350.289 84.2672 351.788 84.9271C353.288 85.5269 354.877 85.8269 356.557 85.8269C359.616 85.8269 362.046 85.107 363.845 83.6674C365.705 82.1678 366.844 79.7984 367.264 76.5592H384C383.76 80.7581 382.89 84.2972 381.391 87.1765C379.951 90.0558 378.002 92.3952 375.542 94.1947C373.143 95.9943 370.323 97.3139 367.084 98.1537C363.845 98.9335 360.336 99.3234 356.557 99.3234Z" fill="#fff"/><defs><clipPath id="clip0_97_688"><rect width="156" height="124" fill="#fff" transform="translate(8)"/></clipPath></defs></svg>