<svg width="256" height="257" fill="none" xmlns="http://www.w3.org/2000/svg"><path d="m198.463 57.784-36.901-17.87a11.109 11.109 0 0 0-12.728 2.176l-120.8 110.779c-3.249 2.979-3.245 8.124.009 11.099l9.867 9.022a7.428 7.428 0 0 0 9.53.426L192.91 62.42c4.88-3.724 11.89-.223 11.89 5.939v-.431c0-4.325-2.463-8.267-6.337-10.144Z" fill="url(#a)"/><path d="m198.463 199.017-36.901 17.87a11.107 11.107 0 0 1-12.728-2.176l-120.8-110.778c-3.249-2.98-3.245-8.125.009-11.1l9.867-9.022a7.43 7.43 0 0 1 9.53-.426L192.91 194.38c4.88 3.724 11.89.223 11.89-5.938v.431c0 4.324-2.463 8.267-6.337 10.143Z" fill="url(#b)"/><path d="M161.564 216.89a11.112 11.112 0 0 1-12.73-2.179c4.131 4.155 11.194 1.212 11.194-4.663V46.752c0-5.876-7.063-8.818-11.194-4.664a11.115 11.115 0 0 1 12.73-2.179l36.894 17.846A11.263 11.263 0 0 1 204.8 67.9V188.9c0 4.327-2.465 8.27-6.342 10.146l-36.894 17.844Z" fill="#945DD6"/><defs><linearGradient id="a" x1="25.6" y1="176.4" x2="167.116" y2="52.417" gradientUnits="userSpaceOnUse"><stop offset=".791" stop-color="#13ADC7"/><stop offset="1" stop-color="#1497B8"/></linearGradient><linearGradient id="b" x1="1.423" y1="103.562" x2="133.899" y2="235.275" gradientUnits="userSpaceOnUse"><stop offset=".848" stop-color="#F46837"/><stop offset="1" stop-color="#DD5236"/></linearGradient></defs></svg>