<svg width="392" height="129" fill="none" xmlns="http://www.w3.org/2000/svg"><g clip-path="url(#a)"><path d="M102.9 52.116C90.745 40.053 73.365 22.8 51.43 22.8 27.55 22.8 8.171 41.204 8 65.353v1.013h19c0-.13-.002-.884 0-1.013.205-13.482 11.066-23.303 24.43-23.303 12.183 0 18.964 6.356 45.493 31.224A3477.89 3477.89 0 0 0 109.02 84.54c6.251 5.803 11.5 10.676 22.933 10.676 15.49 0 28.047-13.158 28.047-28.851v-1.013h-19v1.013c0 2.43-.953 5.197-2.65 6.916a8.989 8.989 0 0 1-6.397 2.685c-6.294 0-15.02-9.31-21.166-15.865-2.562-2.735-5.23-5.347-7.887-7.986Z" fill="url(#b)"/><path d="M117.269 66.8c-2.315-2.253-4.528-4.614-6.482-6.698-2.12-2.262-4.312-4.44-6.509-6.62l1.889-1.807c.988-.882 1.931-1.76 2.854-2.615 6.25-5.804 11.499-10.677 22.932-10.677 14.986 0 28.047 12.785 28.047 26.97v1.013h-19v-1.013c0-6.08-6.471-7.718-9.047-7.718-4.294 0-9.719 4.33-14.684 9.166Z" fill="url(#c)"/><path d="M90.007 66.8c2.147 2.004 4.446 4.159 6.916 6.473a2569.49 2569.49 0 0 0 7.345 6.853l-1.368 1.358C90.747 93.547 73.365 110.8 51.43 110.8 27.442 110.8 8 90.664 8 66.366v-1.013h19v1.013C27 80.033 37.938 91.55 51.43 91.55c11.05 0 17.653-5.23 38.577-24.75Z" fill="url(#d)"/></g><path d="M228.965 94.8c-4.22 0-8.118-.604-11.693-1.812-3.505-1.208-6.544-3.02-9.119-5.436-2.575-2.417-4.577-5.437-6.007-9.06C200.715 74.866 200 70.602 200 65.7v-2.132c0-4.476.751-8.456 2.253-11.938 1.573-3.482 3.647-6.395 6.222-8.74 2.646-2.416 5.721-4.229 9.226-5.437 3.504-1.279 7.259-1.918 11.264-1.918 4.291 0 8.045.568 11.264 1.705 3.289 1.137 6.043 2.7 8.26 4.69a20.075 20.075 0 0 1 5.149 6.822c1.216 2.63 1.931 5.436 2.146 8.42h-16.95c-.572-2.557-1.645-4.511-3.218-5.862-1.502-1.42-3.719-2.132-6.651-2.132-3.505 0-6.401 1.209-8.69 3.625-2.217 2.345-3.325 5.933-3.325 10.765V65.7c0 5.259 1.072 9.132 3.218 11.619 2.217 2.487 5.149 3.73 8.797 3.73 2.503 0 4.613-.64 6.329-1.918 1.788-1.35 2.968-3.34 3.54-5.97h16.95c-.215 3.34-1.002 6.36-2.36 9.061a20.252 20.252 0 0 1-5.579 6.715c-2.288 1.848-5.042 3.305-8.26 4.37-3.147.995-6.687 1.493-10.62 1.493ZM262.778 36.92h15.555v8.101c1.287-2.487 3.29-4.69 6.007-6.608 2.718-1.919 6.079-2.878 10.084-2.878 4.506 0 7.974.853 10.406 2.558 2.503 1.705 4.327 4.015 5.471 6.928 1.43-2.7 3.612-4.938 6.544-6.715 3.004-1.847 6.58-2.771 10.728-2.771 6.15 0 10.835 1.74 14.053 5.223 3.218 3.41 4.827 8.527 4.827 15.349v37.307h-16.52V60.157c0-3.979-.644-6.786-1.931-8.42-1.216-1.706-3.219-2.559-6.008-2.559-2.503 0-4.648.995-6.436 2.985-1.788 1.919-2.682 4.584-2.682 7.995v33.256h-16.521V60.157c0-3.979-.643-6.786-1.931-8.42-1.216-1.706-3.218-2.559-6.007-2.559-2.575 0-4.756.995-6.544 2.985-1.717 1.919-2.575 4.584-2.575 7.995v33.256h-16.52V36.92ZM375.954 94.054c-3.433 0-6.401-.285-8.904-.853-2.503-.569-4.577-1.599-6.222-3.091-1.573-1.564-2.753-3.66-3.54-6.29-.787-2.7-1.18-6.146-1.18-10.339V18.8h16.521v52.23c0 1.776.107 3.269.322 4.477.214 1.208.572 2.167 1.072 2.878.572.71 1.359 1.243 2.36 1.599 1.002.284 2.253.426 3.755.426h2.146l1.716-.213v13.537c-2.146.213-4.827.32-8.046.32Z" fill="#2E3137"/><defs><linearGradient id="b" x1="64" y1="35.971" x2="116.68" y2="87.966" gradientUnits="userSpaceOnUse"><stop stop-color="#F46837"/><stop offset=".458" stop-color="#945DD6"/><stop offset="1" stop-color="#13ADC7"/></linearGradient><linearGradient id="c" x1="110.917" y1="60.498" x2="130.249" y2="41.416" gradientUnits="userSpaceOnUse"><stop stop-color="#1497B8"/><stop offset=".453" stop-color="#13ADC7"/></linearGradient><linearGradient id="d" x1="52" y1="67.379" x2="86.445" y2="101.376" gradientUnits="userSpaceOnUse"><stop stop-color="#F46837"/><stop offset=".583" stop-color="#945DD6"/><stop offset="1" stop-color="#7E51C2"/></linearGradient><clipPath id="a"><path fill="#fff" transform="translate(8 18.8)" d="M0 0h152v92H0z"/></clipPath></defs></svg>