<svg width="80" height="80" fill="none" xmlns="http://www.w3.org/2000/svg"><path d="M52.247 52.642c-3.705-3.588-5.421-7.937-5.421-13.065 0-5.158 1.706-9.526 5.42-13.143a18.662 18.662 0 0 1 13.514-5.43 18.72 18.72 0 0 1 12.802 4.777c.536.487.546.975.059 1.443l-4.125 4.163c-.458.41-.906.41-1.326 0a10.569 10.569 0 0 0-7.147-2.623c-2.963 0-5.43 1.034-7.41 3.12a10.313 10.313 0 0 0-2.827 7.459c0 2.886.877 5.343 2.867 7.38a9.964 9.964 0 0 0 7.429 3.053c2.583.058 5.1-.818 7.088-2.467.488-.41.946-.39 1.365.049l4.134 4.27c.459.449.439.907-.048 1.385a18.076 18.076 0 0 1-12.86 4.982 18.787 18.787 0 0 1-13.514-5.363v.01Z" fill="url(#a)"/><path d="M1 56.923V22.018a.937.937 0 0 1 .293-.712.858.858 0 0 1 .653-.293H14.69c5.226.39 9.126 1.853 12.714 5.46 3.607 3.608 5.04 7.703 5.499 12.968.438 5.07-1.677 9.457-5.265 13.065a17.598 17.598 0 0 1-12.948 5.44H1.946a.886.886 0 0 1-.653-.292.956.956 0 0 1-.292-.722v-.01ZM9.153 30.5v19.627h5.011c2.925 0 5.363-1.034 7.293-3.09a10.686 10.686 0 0 0 2.896-7.606c0-2.993-.975-5.518-2.896-7.576a9.585 9.585 0 0 0-7.293-3.09H9.152V30.5Z" fill="url(#b)"/><path d="m47.85 33.22-7.898 17.355h-.322l-8.434-18.564c.956 2.223 1.463 4.66 1.707 7.42.321 3.705-.722 7.04-2.701 9.984l8.385 17.97c.214.39.507.584.897.584h.526c.39 0 .683-.185.888-.575l8.54-18.184a17.725 17.725 0 0 1-2.612-9.643c0-2.262.331-4.387 1.023-6.347Z" fill="url(#c)"/><defs><linearGradient id="a" x1="62.913" y1="39.525" x2="62.913" y2="57.999" gradientUnits="userSpaceOnUse"><stop stop-color="#F46837"/><stop offset="1" stop-color="#DD5236"/></linearGradient><linearGradient id="b" x1="16.98" y1="39.525" x2="16.98" y2="57.948" gradientUnits="userSpaceOnUse"><stop stop-color="#13ADC7"/><stop offset="1" stop-color="#1497B8"/></linearGradient><linearGradient id="c" x1="32.688" y1="50.25" x2="32.688" y2="67.8" gradientUnits="userSpaceOnUse"><stop stop-color="#7E51C2"/><stop offset="1" stop-color="#945DD6"/></linearGradient></defs></svg>