<svg width="396" height="129" fill="none" xmlns="http://www.w3.org/2000/svg"><g clip-path="url(#a)"><path d="M110.493 91.473c-7.41-7.334-10.842-16.222-10.842-26.704 0-10.542 3.413-19.47 10.842-26.863a37.272 37.272 0 0 1 12.411-8.355 36.612 36.612 0 0 1 14.616-2.744c9.434-.159 18.578 3.329 25.604 9.764 1.073.997 1.092 1.993.117 2.95l-8.249 8.509c-.916.837-1.813.837-2.652 0-3.947-3.54-9.042-5.45-14.293-5.36-5.928 0-10.862 2.112-14.82 6.376a21.151 21.151 0 0 0-4.328 7.041 21.497 21.497 0 0 0-1.327 8.204c0 5.899 1.755 10.92 5.733 15.086a19.92 19.92 0 0 0 6.787 4.716 19.554 19.554 0 0 0 8.072 1.521c5.165.12 10.199-1.671 14.176-5.042.975-.837 1.892-.797 2.73.1l8.269 8.728c.916.917.877 1.854-.098 2.83-6.92 6.735-16.167 10.396-25.721 10.183-4.991.1-9.952-.818-14.593-2.7a37.515 37.515 0 0 1-12.434-8.26v.02Z" fill="url(#b)"/><path d="M8.001 100.221V28.879a1.95 1.95 0 0 1 .14-.792c.1-.25.252-.476.445-.663a1.72 1.72 0 0 1 .59-.444c.225-.104.47-.156.717-.154h25.486c10.452.798 18.252 3.787 25.428 11.16C68.022 45.36 70.89 53.73 71.805 64.49c.878 10.363-3.354 19.33-10.53 26.704a35.189 35.189 0 0 1-11.815 8.314 34.557 34.557 0 0 1-14.08 2.806H9.892a1.766 1.766 0 0 1-1.307-.598 1.99 1.99 0 0 1-.585-1.475v-.02Zm16.302-54.005v40.116h10.023c5.85 0 10.725-2.113 14.586-6.318 3.861-4.197 5.943-9.784 5.792-15.543 0-6.118-1.95-11.28-5.792-15.485a19.176 19.176 0 0 0-6.624-4.77 18.81 18.81 0 0 0-7.962-1.547H24.303v3.548Z" fill="url(#c)"/><path d="M101.699 51.776 85.904 87.248h-.644L68.393 49.305c1.91 4.544 2.925 9.526 3.412 15.165.644 7.573-1.443 14.388-5.401 20.407l16.77 36.727c.429.797 1.014 1.196 1.794 1.196h1.053c.78 0 1.365-.379 1.774-1.176l17.082-37.166a36.836 36.836 0 0 1-5.226-19.709c0-4.623.663-8.967 2.048-12.973Z" fill="url(#d)"/></g><path d="M227.939 96.8c-3.64 0-6.93-.604-9.87-1.812a20.991 20.991 0 0 1-7.559-5.543c-2.1-2.416-3.71-5.436-4.83-9.06C204.56 76.76 204 72.532 204 67.7v-2.132c0-9.095 2.065-16.024 6.195-20.785 4.2-4.832 10.114-7.248 17.744-7.248 3.15 0 6.125.746 8.925 2.238 2.869 1.421 5.249 3.518 7.139 6.29V20.8h16.17v74.614h-14.91V87.74c-.7 1.136-1.61 2.273-2.73 3.41-1.05 1.066-2.31 2.026-3.78 2.878-1.469.853-3.114 1.528-4.934 2.026-1.82.497-3.78.746-5.88.746Zm3.885-13.537c3.43 0 6.3-1.208 8.609-3.625 2.38-2.416 3.57-5.862 3.57-10.339v-5.33c0-4.263-1.19-7.46-3.57-9.593-2.309-2.203-5.179-3.304-8.609-3.304-3.36 0-6.09 1.208-8.19 3.624-2.03 2.345-3.045 5.97-3.045 10.872V67.7c0 5.117 1.05 8.99 3.15 11.619 2.17 2.629 4.865 3.944 8.085 3.944ZM265.447 38.92h17.849l14.07 37.627 12.809-37.627h16.169L305.03 95.414h-16.169L265.447 38.92ZM355.751 96.8c-4.13 0-7.944-.604-11.444-1.812-3.43-1.208-6.405-3.02-8.925-5.436-2.52-2.417-4.48-5.437-5.88-9.06-1.4-3.625-2.1-7.889-2.1-12.792v-2.132c0-4.476.735-8.456 2.205-11.938 1.54-3.482 3.57-6.395 6.09-8.74 2.59-2.416 5.6-4.229 9.03-5.437 3.429-1.279 7.104-1.918 11.024-1.918 4.2 0 7.875.568 11.025 1.705 3.22 1.137 5.914 2.7 8.084 4.69a20.038 20.038 0 0 1 5.04 6.822c1.19 2.63 1.89 5.436 2.1 8.42h-16.589c-.56-2.557-1.61-4.511-3.15-5.862-1.47-1.42-3.64-2.132-6.51-2.132-3.43 0-6.265 1.209-8.504 3.625-2.17 2.345-3.255 5.933-3.255 10.765V67.7c0 5.259 1.05 9.132 3.15 11.619 2.169 2.487 5.039 3.73 8.609 3.73 2.45 0 4.515-.64 6.195-1.918 1.75-1.35 2.905-3.34 3.465-5.97H382c-.21 3.34-.98 6.36-2.31 9.061a20.155 20.155 0 0 1-5.46 6.715c-2.24 1.848-4.934 3.305-8.084 4.37-3.08.995-6.545 1.493-10.395 1.493Z" fill="#2E3137"/><defs><linearGradient id="b" x1="131.826" y1="64.663" x2="131.826" y2="102.422" gradientUnits="userSpaceOnUse"><stop stop-color="#F46837"/><stop offset="1" stop-color="#DD5236"/></linearGradient><linearGradient id="c" x1="39.96" y1="64.663" x2="39.96" y2="102.317" gradientUnits="userSpaceOnUse"><stop stop-color="#13ADC7"/><stop offset="1" stop-color="#1497B8"/></linearGradient><linearGradient id="d" x1="71.375" y1="86.584" x2="71.375" y2="122.454" gradientUnits="userSpaceOnUse"><stop stop-color="#7E51C2"/><stop offset="1" stop-color="#945DD6"/></linearGradient><clipPath id="a"><path fill="#fff" transform="translate(8 2.8)" d="M0 0h156v124H0z"/></clipPath></defs></svg>