<svg width="80" height="80" fill="none" xmlns="http://www.w3.org/2000/svg"><path d="M49.45 33.468C43.372 27.514 34.682 19 23.715 19 11.775 19 2.086 28.083 2 40v.5h9.5V40c.102-6.654 5.533-11.5 12.215-11.5 6.091 0 9.482 3.137 22.747 15.409 2.01 1.86 4.03 3.71 6.048 5.56 3.125 2.864 5.75 5.27 11.466 5.27C71.721 54.738 78 48.244 78 40.5V40h-9.5v.5c0 1.2-.477 2.565-1.325 3.413a4.523 4.523 0 0 1-3.199 1.325c-3.146 0-7.51-4.594-10.583-7.83-1.28-1.35-2.614-2.638-3.943-3.94Z" fill="url(#a)"/><path d="M56.635 40.715c-1.158-1.113-2.265-2.278-3.242-3.307a125.457 125.457 0 0 0-3.254-3.266l.944-.892c.494-.435.966-.868 1.428-1.29 3.124-2.865 5.749-5.27 11.465-5.27C71.47 26.69 78 33 78 40v.5h-9.5V40c0-3-3.236-3.809-4.524-3.809-2.147 0-4.859 2.137-7.341 4.523Z" fill="url(#b)"/><path d="M43.004 40.715c1.073.988 2.223 2.052 3.458 3.194a1224.98 1224.98 0 0 0 3.672 3.382l-.684.67c-6.077 5.953-14.768 14.467-25.735 14.467C11.722 62.428 2 52.491 2 40.5V40h9.5v.5c0 6.745 5.469 12.43 12.215 12.43 5.525 0 8.827-2.582 19.289-12.215Z" fill="url(#c)"/><defs><linearGradient id="a" x1="30" y1="25.5" x2="56" y2="51.5" gradientUnits="userSpaceOnUse"><stop stop-color="#F46837"/><stop offset=".458" stop-color="#945DD6"/><stop offset="1" stop-color="#13ADC7"/></linearGradient><linearGradient id="b" x1="53.458" y1="37.604" x2="63" y2="28.062" gradientUnits="userSpaceOnUse"><stop stop-color="#1497B8"/><stop offset=".453" stop-color="#13ADC7"/></linearGradient><linearGradient id="c" x1="24" y1="41" x2="41" y2="58" gradientUnits="userSpaceOnUse"><stop stop-color="#F46837"/><stop offset=".583" stop-color="#945DD6"/><stop offset="1" stop-color="#7E51C2"/></linearGradient></defs></svg>