<svg width="730" height="129" fill="none" xmlns="http://www.w3.org/2000/svg"><g clip-path="url(#a)"><path d="M118.039 22.665 94.976 11.496a6.942 6.942 0 0 0-7.955 1.36l-75.5 69.237a4.709 4.709 0 0 0 .006 6.937l6.167 5.639a4.643 4.643 0 0 0 5.956.266l90.919-69.373c3.05-2.327 7.431-.139 7.431 3.712v-.27a7.04 7.04 0 0 0-3.961-6.34Z" fill="url(#b)"/><path d="m118.039 110.935-23.063 11.169a6.942 6.942 0 0 1-7.955-1.359l-75.5-69.237a4.71 4.71 0 0 1 .006-6.938l6.167-5.638a4.643 4.643 0 0 1 5.956-.267l90.919 69.373c3.05 2.327 7.431.139 7.431-3.711v.269a7.039 7.039 0 0 1-3.961 6.339Z" fill="url(#c)"/><path d="M94.977 122.106a6.944 6.944 0 0 1-7.956-1.362c2.582 2.597 6.996.758 6.996-2.914V15.77c0-3.673-4.414-5.511-6.995-2.915a6.946 6.946 0 0 1 7.955-1.362l23.059 11.154a7.04 7.04 0 0 1 3.964 6.34v75.625a7.04 7.04 0 0 1-3.964 6.341l-23.059 11.153Z" fill="#945DD6"/></g><path d="M194.319 96.8c-3.697 0-7.039-.604-10.026-1.812a21.298 21.298 0 0 1-7.68-5.543c-2.133-2.416-3.769-5.436-4.906-9.06C170.569 76.76 170 72.532 170 67.7v-2.132c0-9.095 2.098-16.024 6.293-20.785 4.267-4.832 10.276-7.248 18.026-7.248 3.2 0 6.223.746 9.067 2.238 2.915 1.421 5.333 3.518 7.253 6.29V20.8h16.426v74.614h-15.146V87.74c-.711 1.136-1.635 2.273-2.773 3.41-1.067 1.066-2.347 2.026-3.84 2.878-1.493.853-3.165 1.528-5.013 2.026-1.849.497-3.84.746-5.974.746Zm3.947-13.537c3.484 0 6.4-1.208 8.746-3.625 2.418-2.416 3.627-5.862 3.627-10.339v-5.33c0-4.263-1.209-7.46-3.627-9.593-2.346-2.203-5.262-3.304-8.746-3.304-3.413 0-6.186 1.208-8.32 3.624-2.062 2.345-3.093 5.97-3.093 10.872V67.7c0 5.117 1.067 8.99 3.2 11.619 2.204 2.629 4.942 3.944 8.213 3.944ZM232.424 38.92h18.133l14.293 37.627 13.013-37.627h16.426l-21.653 56.494H256.21L232.424 38.92ZM324.163 96.8c-4.195 0-8.071-.604-11.626-1.812-3.485-1.208-6.507-3.02-9.067-5.436-2.56-2.417-4.551-5.437-5.973-9.06-1.422-3.625-2.133-7.889-2.133-12.792v-2.132c0-4.476.746-8.456 2.24-11.938 1.564-3.482 3.626-6.395 6.186-8.74 2.631-2.416 5.689-4.229 9.173-5.437 3.485-1.279 7.218-1.918 11.2-1.918 4.267 0 8 .568 11.2 1.705 3.271 1.137 6.009 2.7 8.213 4.69a20.07 20.07 0 0 1 5.12 6.822c1.209 2.63 1.92 5.436 2.133 8.42h-16.853c-.569-2.557-1.635-4.511-3.2-5.862-1.493-1.42-3.697-2.132-6.613-2.132-3.484 0-6.364 1.209-8.64 3.625-2.204 2.345-3.306 5.933-3.306 10.765V67.7c0 5.259 1.066 9.132 3.2 11.619 2.204 2.487 5.12 3.73 8.746 3.73 2.489 0 4.587-.64 6.293-1.918 1.778-1.35 2.951-3.34 3.52-5.97h16.853c-.213 3.34-.995 6.36-2.346 9.061a20.217 20.217 0 0 1-5.547 6.715c-2.275 1.848-5.013 3.305-8.213 4.37-3.129.995-6.649 1.493-10.56 1.493ZM368.45 38.92h10.453l18.346 46.9 16.64-46.9h10.026l-21.333 56.494h-10.666L368.45 38.92ZM453.202 96.48c-3.769 0-7.04-.426-9.813-1.28-2.702-.923-5.013-2.13-6.933-3.623-1.92-1.492-3.414-3.233-4.48-5.223a22.03 22.03 0 0 1-2.24-6.396h9.386c.498 2.274 1.814 4.264 3.947 5.97 2.204 1.634 5.582 2.451 10.133 2.451 2.631 0 4.835-.213 6.613-.64 1.778-.497 3.2-1.1 4.267-1.812 1.137-.781 1.955-1.67 2.453-2.664a7.723 7.723 0 0 0 .747-3.305c0-1.208-.249-2.274-.747-3.198-.427-.923-1.244-1.74-2.453-2.451-1.138-.782-2.738-1.457-4.8-2.025-1.991-.64-4.516-1.173-7.573-1.6-3.129-.426-5.974-1.03-8.534-1.811-2.488-.853-4.622-1.954-6.399-3.305-1.707-1.35-3.058-2.949-4.054-4.796-.924-1.919-1.386-4.228-1.386-6.929 0-2.132.462-4.157 1.386-6.076.925-1.918 2.311-3.624 4.16-5.116 1.849-1.492 4.125-2.665 6.827-3.517 2.702-.853 5.866-1.28 9.493-1.28 3.342 0 6.258.462 8.746 1.386 2.489.853 4.587 2.025 6.294 3.518 1.777 1.492 3.164 3.233 4.16 5.223a24.212 24.212 0 0 1 2.133 6.395h-9.387c-.569-2.487-1.777-4.512-3.626-6.075-1.849-1.564-4.622-2.346-8.32-2.346-4.622 0-7.858.782-9.707 2.346-1.848 1.492-2.773 3.34-2.773 5.542 0 1.28.214 2.38.64 3.305.498.923 1.28 1.74 2.347 2.451 1.138.71 2.595 1.315 4.373 1.812 1.849.427 4.124.817 6.827 1.173 3.484.426 6.577 1.066 9.279 1.918 2.703.782 4.978 1.884 6.827 3.305 1.849 1.35 3.235 3.02 4.16 5.01.995 1.99 1.493 4.37 1.493 7.141 0 2.274-.498 4.406-1.493 6.396-.925 1.99-2.347 3.73-4.267 5.223-1.92 1.492-4.373 2.7-7.36 3.624-2.915.853-6.364 1.279-10.346 1.279ZM510.83 96.48c-3.627 0-7.004-.569-10.133-1.705-3.129-1.209-5.831-2.985-8.107-5.33-2.275-2.416-4.089-5.436-5.44-9.06-1.28-3.625-1.92-7.853-1.92-12.685v-2.132c0-4.547.711-8.563 2.134-12.044 1.422-3.483 3.306-6.36 5.653-8.634 2.346-2.346 5.049-4.087 8.106-5.223a26.727 26.727 0 0 1 9.707-1.813c3.342 0 6.329.462 8.96 1.386 2.702.924 5.013 2.203 6.933 3.837a19.59 19.59 0 0 1 4.8 5.757 24.868 24.868 0 0 1 2.773 7.141h-9.6a20.846 20.846 0 0 0-2.026-3.73 10.478 10.478 0 0 0-2.774-3.092c-1.066-.852-2.346-1.528-3.84-2.025-1.493-.497-3.235-.746-5.226-.746-2.062 0-4.053.39-5.973 1.172-1.92.711-3.627 1.848-5.12 3.411-1.494 1.493-2.702 3.447-3.627 5.863-.853 2.416-1.28 5.33-1.28 8.74V67.7c0 3.624.427 6.751 1.28 9.38.925 2.558 2.133 4.655 3.627 6.29 1.493 1.563 3.2 2.735 5.12 3.517 1.92.71 3.911 1.066 5.973 1.066 3.484 0 6.4-.853 8.746-2.559 2.418-1.705 4.125-4.05 5.12-7.035h9.6c-1.351 5.614-4.124 10.056-8.32 13.324-4.195 3.198-9.244 4.797-15.146 4.797ZM569.487 96.48c-3.627 0-7.076-.569-10.347-1.705-3.271-1.209-6.151-2.985-8.639-5.33-2.489-2.416-4.48-5.436-5.974-9.06-1.493-3.625-2.24-7.853-2.24-12.685v-2.132c0-4.547.747-8.563 2.24-12.044 1.494-3.483 3.485-6.36 5.974-8.634 2.488-2.346 5.368-4.087 8.639-5.223 3.271-1.209 6.72-1.813 10.347-1.813 3.626 0 7.075.605 10.346 1.813a23.889 23.889 0 0 1 8.64 5.223c2.489 2.273 4.48 5.151 5.973 8.633 1.494 3.482 2.24 7.497 2.24 12.045V67.7c0 4.832-.746 9.06-2.24 12.685-1.493 3.624-3.484 6.644-5.973 9.06-2.489 2.345-5.369 4.122-8.64 5.33-3.271 1.136-6.72 1.705-10.346 1.705Zm0-8.527c2.133 0 4.266-.356 6.4-1.066a16.126 16.126 0 0 0 5.653-3.518c1.635-1.634 2.951-3.73 3.946-6.289 1.067-2.558 1.6-5.685 1.6-9.38v-2.132c0-3.41-.533-6.324-1.6-8.74-.995-2.416-2.311-4.406-3.946-5.97a14.909 14.909 0 0 0-5.653-3.41c-2.134-.71-4.267-1.066-6.4-1.066s-4.267.355-6.4 1.066a14.901 14.901 0 0 0-5.653 3.41c-1.636 1.564-2.987 3.554-4.053 5.97-.996 2.416-1.494 5.33-1.494 8.74V67.7c0 3.695.498 6.822 1.494 9.38 1.066 2.558 2.417 4.655 4.053 6.29a16.117 16.117 0 0 0 5.653 3.517c2.133.71 4.267 1.066 6.4 1.066ZM628.644 96.48c-3.485 0-6.684-.604-9.6-1.812a20.212 20.212 0 0 1-7.36-5.33c-2.062-2.416-3.662-5.4-4.8-8.953-1.137-3.625-1.706-7.853-1.706-12.685v-2.132c0-4.476.569-8.42 1.706-11.831 1.209-3.482 2.845-6.396 4.907-8.74a20.2 20.2 0 0 1 7.36-5.33c2.915-1.209 6.08-1.813 9.493-1.813 4.551 0 8.497.995 11.84 2.985 3.413 1.99 5.937 4.726 7.573 8.208V20.8h9.386v74.614h-8.746v-10.66c-1.422 3.483-3.911 6.325-7.467 8.528-3.555 2.132-7.751 3.198-12.586 3.198Zm2.133-8.314c2.56 0 4.907-.426 7.04-1.28 2.133-.852 3.947-2.024 5.44-3.517 1.493-1.492 2.666-3.304 3.52-5.436.853-2.132 1.28-4.477 1.28-7.035v-8.527c0-2.274-.427-4.406-1.28-6.396-.854-1.99-2.027-3.695-3.52-5.116-1.493-1.493-3.307-2.63-5.44-3.411-2.133-.853-4.48-1.28-7.04-1.28-2.275 0-4.409.427-6.4 1.28-1.991.852-3.733 2.132-5.226 3.837-1.423 1.635-2.56 3.66-3.414 6.076-.782 2.416-1.173 5.152-1.173 8.207V67.7c0 3.34.391 6.29 1.173 8.847.854 2.559 1.991 4.69 3.414 6.396 1.493 1.705 3.235 3.02 5.226 3.944 1.991.853 4.125 1.279 6.4 1.279ZM696.934 96.48c-3.627 0-7.075-.569-10.347-1.705a23.887 23.887 0 0 1-8.639-5.223c-2.489-2.417-4.48-5.437-5.974-9.06-1.493-3.625-2.239-7.889-2.239-12.792v-2.132c0-4.69.711-8.74 2.133-12.151 1.422-3.482 3.306-6.36 5.653-8.634a23.22 23.22 0 0 1 8.32-5.223c3.2-1.137 6.542-1.706 10.026-1.706 8.32 0 14.755 2.275 19.307 6.822C719.725 49.224 722 55.656 722 63.97v5.97h-42.879c0 3.34.533 6.147 1.6 8.42 1.067 2.274 2.453 4.122 4.16 5.543a16.314 16.314 0 0 0 5.653 3.091c2.133.64 4.267.96 6.4.96 4.267 0 7.538-.71 9.813-2.132 2.347-1.421 4.018-3.376 5.013-5.863h9.173c-.569 2.7-1.6 5.081-3.093 7.142a19.64 19.64 0 0 1-5.333 5.223c-2.062 1.35-4.444 2.38-7.147 3.091-2.631.71-5.439 1.066-8.426 1.066Zm-.533-50.098c-2.205 0-4.338.32-6.4.96a14.792 14.792 0 0 0-5.547 2.877c-1.564 1.28-2.844 2.914-3.84 4.903-.995 1.99-1.493 4.37-1.493 7.142h34.026c-.071-2.914-.569-5.365-1.493-7.355-.854-2.06-2.027-3.695-3.52-4.903-1.494-1.28-3.271-2.203-5.334-2.771-1.991-.569-4.124-.853-6.399-.853Z" fill="#2E3137"/><defs><linearGradient id="b" x1="10" y1="96.8" x2="98.448" y2="19.311" gradientUnits="userSpaceOnUse"><stop offset=".791" stop-color="#13ADC7"/><stop offset="1" stop-color="#1497B8"/></linearGradient><linearGradient id="c" x1="-5.111" y1="51.276" x2="77.687" y2="133.597" gradientUnits="userSpaceOnUse"><stop offset=".848" stop-color="#F46837"/><stop offset="1" stop-color="#DD5236"/></linearGradient><clipPath id="a"><path fill="#fff" transform="translate(10 6.8)" d="M0 0h120v116H0z"/></clipPath></defs></svg>