<svg width="400" height="129" fill="none" xmlns="http://www.w3.org/2000/svg"><g clip-path="url(#a)"><path d="M110.493 93.473c-7.41-7.334-10.842-16.222-10.842-26.704 0-10.542 3.413-19.47 10.842-26.863a37.272 37.272 0 0 1 12.411-8.355 36.612 36.612 0 0 1 14.616-2.744c9.434-.159 18.578 3.329 25.604 9.764 1.073.997 1.092 1.993.117 2.95l-8.249 8.509c-.916.837-1.813.837-2.652 0-3.947-3.54-9.042-5.45-14.293-5.36-5.928 0-10.862 2.112-14.82 6.376a21.151 21.151 0 0 0-4.328 7.041 21.497 21.497 0 0 0-1.327 8.204c0 5.899 1.755 10.92 5.733 15.086a19.92 19.92 0 0 0 6.787 4.716 19.554 19.554 0 0 0 8.072 1.521c5.165.12 10.199-1.671 14.176-5.042.975-.837 1.892-.797 2.73.1l8.269 8.728c.916.917.877 1.854-.098 2.83-6.92 6.735-16.167 10.396-25.721 10.183-4.991.1-9.952-.818-14.593-2.7a37.513 37.513 0 0 1-12.434-8.26v.02Z" fill="url(#b)"/><path d="M8.001 102.221V30.879a1.95 1.95 0 0 1 .14-.792c.1-.25.252-.476.445-.663a1.72 1.72 0 0 1 .59-.444c.225-.104.47-.156.717-.154h25.486c10.452.798 18.252 3.787 25.428 11.16C68.022 47.36 70.89 55.73 71.805 66.49c.878 10.363-3.354 19.33-10.53 26.704a35.183 35.183 0 0 1-11.815 8.314 34.552 34.552 0 0 1-14.08 2.806H9.892a1.766 1.766 0 0 1-1.307-.598 1.99 1.99 0 0 1-.585-1.475v-.02Zm16.302-54.005v40.116h10.023c5.85 0 10.725-2.113 14.586-6.318 3.861-4.197 5.943-9.784 5.792-15.543 0-6.118-1.95-11.28-5.792-15.485a19.176 19.176 0 0 0-6.624-4.77 18.81 18.81 0 0 0-7.962-1.547H24.303v3.548Z" fill="url(#c)"/><path d="M101.699 53.776 85.904 89.248h-.644L68.393 51.305c1.91 4.544 2.925 9.526 3.412 15.165.644 7.573-1.443 14.388-5.401 20.407l16.77 36.727c.429.797 1.014 1.196 1.794 1.196h1.053c.78 0 1.365-.379 1.774-1.176l17.082-37.166a36.836 36.836 0 0 1-5.226-19.709c0-4.623.663-8.967 2.048-12.973Z" fill="url(#d)"/></g><path d="M204 33.97h23.844c4.739 0 8.968.66 12.687 1.979 3.719 1.26 6.868 3.15 9.447 5.669 2.58 2.519 4.559 5.668 5.939 9.447 1.379 3.78 2.069 8.128 2.069 13.047v1.8c0 5.038-.72 9.507-2.159 13.406-1.38 3.839-3.419 7.078-6.119 9.718-2.639 2.579-5.878 4.558-9.717 5.938-3.839 1.32-8.188 1.98-13.047 1.98H204V33.97Zm22.044 49.667c2.04 0 3.959-.3 5.759-.9a12.875 12.875 0 0 0 4.859-3.06c1.439-1.379 2.549-3.208 3.329-5.488.84-2.28 1.26-5.038 1.26-8.278v-1.8c0-3.058-.39-5.638-1.17-7.737-.72-2.16-1.74-3.9-3.059-5.219a10.761 10.761 0 0 0-4.499-2.97c-1.74-.599-3.599-.899-5.579-.899h-6.748v36.35h5.848ZM261.603 33.97h17.995l14.217 42.289 13.676-42.29h16.196l-22.494 62.985h-16.196L261.603 33.97ZM356.557 98.123c-4.319 0-8.278-.57-11.877-1.71-3.599-1.199-6.688-3.089-9.268-5.668-2.519-2.58-4.499-5.908-5.938-9.987-1.44-4.08-2.16-9.058-2.16-14.937v-1.71c0-5.518.75-10.257 2.25-14.216 1.499-3.959 3.569-7.198 6.208-9.717 2.64-2.52 5.729-4.379 9.268-5.579 3.599-1.2 7.438-1.8 11.517-1.8 3.659 0 7.078.42 10.257 1.26 3.24.84 6.059 2.16 8.458 3.96 2.46 1.799 4.439 4.138 5.939 7.018 1.559 2.879 2.489 6.388 2.789 10.527h-16.736c-.3-1.68-.78-3.09-1.439-4.229-.66-1.2-1.47-2.16-2.43-2.88a8.249 8.249 0 0 0-3.239-1.619 11.88 11.88 0 0 0-3.599-.54c-1.8 0-3.479.33-5.039.99-1.499.6-2.819 1.62-3.959 3.06-1.079 1.379-1.949 3.209-2.609 5.488-.6 2.28-.9 5.039-.9 8.278v1.89c0 3.479.33 6.418.99 8.817.72 2.34 1.649 4.26 2.789 5.759 1.14 1.44 2.46 2.49 3.959 3.149 1.5.6 3.089.9 4.769.9 3.059 0 5.489-.72 7.288-2.16 1.86-1.5 2.999-3.869 3.419-7.108H384c-.24 4.199-1.11 7.738-2.609 10.617-1.44 2.88-3.389 5.219-5.849 7.019-2.399 1.8-5.219 3.119-8.458 3.959-3.239.78-6.748 1.17-10.527 1.17Z" fill="#2E3137"/><defs><linearGradient id="b" x1="131.826" y1="66.663" x2="131.826" y2="104.422" gradientUnits="userSpaceOnUse"><stop stop-color="#F46837"/><stop offset="1" stop-color="#DD5236"/></linearGradient><linearGradient id="c" x1="39.96" y1="66.663" x2="39.96" y2="104.317" gradientUnits="userSpaceOnUse"><stop stop-color="#13ADC7"/><stop offset="1" stop-color="#1497B8"/></linearGradient><linearGradient id="d" x1="71.375" y1="88.584" x2="71.375" y2="124.454" gradientUnits="userSpaceOnUse"><stop stop-color="#7E51C2"/><stop offset="1" stop-color="#945DD6"/></linearGradient><clipPath id="a"><path fill="#fff" transform="translate(8 2.8)" d="M0 0h156v124H0z"/></clipPath></defs></svg>