<svg width="520" height="129" fill="none" xmlns="http://www.w3.org/2000/svg"><g clip-path="url(#a)"><path d="M92.1 98.808c-3.424 5.097-10.241 7.23-14.236 2.589a23.799 23.799 0 0 0 8.735 6.345 23.212 23.212 0 0 0 10.56 1.769 23.321 23.321 0 0 0 10.245-3.164 24.039 24.039 0 0 0 7.859-7.457l43.217-65.022a9.99 9.99 0 0 0 1.331-7.235c-.492-2.497-1.914-4.698-3.963-6.134a9.312 9.312 0 0 0-7.007-1.552c-2.443.441-4.622 1.845-6.072 3.913A23771.579 23771.579 0 0 1 92.1 98.792v.016Z" fill="url(#b)"/><path d="M49.818 67.901 57.19 56.78c3.393-5.097 10.147-7.279 14.19-2.703a24.212 24.212 0 0 1 2.805 3.908l17.36 29.653c.367.63.867 1.168 1.463 1.573a4.638 4.638 0 0 0 4.092.57 4.733 4.733 0 0 0 1.817-1.117L92.1 98.808c-3.424 5.097-10.241 7.23-14.236 2.589a24.955 24.955 0 0 1-2.616-3.696L57.872 68.064a4.82 4.82 0 0 0-1.696-1.721 4.655 4.655 0 0 0-4.614-.093 4.806 4.806 0 0 0-1.76 1.651h.016Z" fill="url(#c)"/><path d="m49.945 67.722-.127.18-24.4 38.56c-1.39 2.135-3.543 3.622-5.994 4.138-2.45.517-5 .021-7.096-1.379-2.097-1.4-3.573-3.593-4.108-6.102a9.994 9.994 0 0 1 1.25-7.307l24.399-38.56a24.094 24.094 0 0 1 7.751-7.664 23.36 23.36 0 0 1 10.246-3.374 23.224 23.224 0 0 1 10.645 1.605 23.787 23.787 0 0 1 8.868 6.257c-4.043-4.56-10.796-2.394-14.189 2.703l-7.245 10.943Z" fill="url(#d)"/></g><g clip-path="url(#e)" fill="#2E3137"><path d="M226.626 96.8c-4.615 0-8.591-.46-11.928-1.381-3.267-.992-5.965-2.302-8.095-3.931-2.13-1.7-3.727-3.648-4.792-5.844A19.358 19.358 0 0 1 200 78.42h16.402c.426 1.629 1.349 3.01 2.769 4.143 1.42 1.134 3.905 1.7 7.455 1.7 3.621 0 6.213-.496 7.775-1.487 1.633-.992 2.45-2.302 2.45-3.931 0-.638-.178-1.204-.533-1.7-.355-.566-1.029-1.062-2.024-1.487-.923-.496-2.201-.957-3.834-1.381-1.633-.425-3.727-.85-6.283-1.275a77.45 77.45 0 0 1-8.84-1.913c-2.769-.779-5.184-1.806-7.243-3.08a15.682 15.682 0 0 1-4.792-5.1c-1.136-2.054-1.704-4.64-1.704-7.756 0-2.479.568-4.78 1.704-6.906 1.136-2.124 2.769-3.966 4.899-5.524 2.201-1.558 4.828-2.762 7.881-3.612 3.124-.921 6.639-1.382 10.544-1.382 4.402 0 8.094.532 11.077 1.594 3.053 1.063 5.538 2.479 7.455 4.25 1.917 1.7 3.337 3.647 4.26 5.843.923 2.196 1.491 4.427 1.704 6.693H234.72c-.426-1.841-1.349-3.258-2.769-4.25-1.42-1.062-3.195-1.593-5.325-1.593-3.266 0-5.538.496-6.816 1.487-1.207.992-1.811 2.16-1.811 3.506 0 1.488.994 2.656 2.982 3.506 1.988.78 5.148 1.452 9.479 2.019a65.627 65.627 0 0 1 8.734 1.806c2.769.78 5.183 1.877 7.242 3.293 2.13 1.346 3.799 3.082 5.006 5.206 1.207 2.054 1.81 4.569 1.81 7.543 0 5.383-2.272 9.775-6.816 13.174-4.473 3.33-11.076 4.994-19.81 4.994ZM284.105 96.056c-3.55 0-6.603-.319-9.159-.956-2.556-.708-4.651-1.842-6.284-3.4-1.633-1.558-2.84-3.577-3.621-6.056-.781-2.55-1.172-5.666-1.172-9.349V52.497h-6.922V39.111h6.922V26.36h16.402v12.75h12.887v13.386h-12.887v21.142c0 3.187.497 5.454 1.491 6.8 1.065 1.345 3.089 2.018 6.071 2.018 2.13 0 4.26-.106 6.39-.319v13.387a74.798 74.798 0 0 1-4.26.319c-1.491.141-3.444.212-5.858.212ZM321.104 96.8c-6.461 0-11.396-1.842-14.804-5.525-3.408-3.683-5.112-9.278-5.112-16.786V39.111h16.401v32.828c0 3.683.746 6.481 2.237 8.393 1.562 1.913 4.047 2.869 7.455 2.869 3.692 0 6.391-1.063 8.095-3.187 1.775-2.196 2.662-4.888 2.662-8.075V39.111h16.402v56.308h-15.124v-7.65c-1.42 2.48-3.656 4.604-6.71 6.375-3.053 1.77-6.887 2.656-11.502 2.656ZM386.149 96.8c-3.692 0-7.029-.602-10.011-1.806a21.273 21.273 0 0 1-7.669-5.525c-2.13-2.408-3.763-5.418-4.899-9.03-1.136-3.613-1.704-7.827-1.704-12.643V65.67c0-9.066 2.095-15.972 6.284-20.717 4.26-4.816 10.26-7.225 17.999-7.225 3.195 0 6.213.744 9.053 2.232 2.911 1.416 5.325 3.506 7.242 6.268v-25.18h16.402v74.37h-15.124v-7.65c-.71 1.133-1.633 2.267-2.769 3.4-1.065 1.062-2.343 2.019-3.834 2.868-1.491.85-3.16 1.523-5.006 2.02-1.846.495-3.834.743-5.964.743Zm3.941-13.493c3.479 0 6.39-1.204 8.733-3.612 2.414-2.408 3.621-5.843 3.621-10.306v-5.312c0-4.25-1.207-7.437-3.621-9.561-2.343-2.196-5.254-3.294-8.733-3.294-3.408 0-6.177 1.204-8.308 3.612-2.059 2.338-3.088 5.95-3.088 10.837v2.125c0 5.1 1.065 8.96 3.195 11.58 2.201 2.62 4.935 3.931 8.201 3.931ZM429.521 39.11h16.402V95.42h-16.402V39.11Zm8.201-5.312c-3.053 0-5.431-.779-7.136-2.337-1.633-1.629-2.449-3.683-2.449-6.162s.816-4.497 2.449-6.056c1.705-1.629 4.083-2.443 7.136-2.443s5.396.814 7.03 2.443c1.704 1.559 2.556 3.577 2.556 6.056 0 2.48-.852 4.533-2.556 6.162-1.634 1.558-3.977 2.337-7.03 2.337ZM483.244 96.8c-3.976 0-7.704-.567-11.183-1.7-3.479-1.204-6.532-3.01-9.16-5.418-2.627-2.409-4.686-5.419-6.177-9.03-1.491-3.684-2.236-7.97-2.236-12.856V65.67c0-4.604.745-8.641 2.236-12.112 1.491-3.47 3.55-6.374 6.177-8.711 2.628-2.338 5.681-4.108 9.16-5.313 3.479-1.203 7.207-1.806 11.183-1.806s7.704.602 11.183 1.806c3.479 1.205 6.532 2.975 9.159 5.313 2.627 2.337 4.686 5.24 6.177 8.711C511.254 57.03 512 61.067 512 65.671v2.125c0 4.816-.746 9.066-2.237 12.749-1.491 3.612-3.55 6.622-6.177 9.03-2.627 2.409-5.68 4.215-9.159 5.419-3.479 1.204-7.207 1.806-11.183 1.806Zm0-13.6c3.834 0 6.781-1.38 8.84-4.143 2.059-2.762 3.088-6.516 3.088-11.261V65.67c0-4.25-1.029-7.685-3.088-10.306-2.059-2.69-5.006-4.037-8.84-4.037-3.834 0-6.781 1.346-8.84 4.037-2.059 2.621-3.089 6.056-3.089 10.306v2.125c0 4.887 1.03 8.676 3.089 11.368 2.059 2.691 5.006 4.037 8.84 4.037Z"/></g><defs><linearGradient id="b" x1="118.932" y1="63.993" x2="118.932" y2="109.563" gradientUnits="userSpaceOnUse"><stop stop-color="#F46837"/><stop offset="1" stop-color="#DD5236"/></linearGradient><linearGradient id="c" x1="74.36" y1="51.576" x2="99.316" y2="91.484" gradientUnits="userSpaceOnUse"><stop stop-color="#7E51C2"/><stop offset=".223" stop-color="#945DD6"/><stop offset=".76" stop-color="#945DD6"/><stop offset="1" stop-color="#7E51C2"/></linearGradient><linearGradient id="d" x1="39.69" y1="78.373" x2="39.69" y2="110.8" gradientUnits="userSpaceOnUse"><stop stop-color="#13ADC7"/><stop offset="1" stop-color="#1497B8"/></linearGradient><clipPath id="a"><path fill="#fff" transform="translate(8 18.8)" d="M0 0h152v92H0z"/></clipPath><clipPath id="e"><path fill="#fff" transform="translate(200 16.8)" d="M0 0h312v96H0z"/></clipPath></defs></svg>