<svg width="80" height="80" fill="none" xmlns="http://www.w3.org/2000/svg"><path d="M44.05 55.947c-1.712 2.482-5.12 3.52-7.118 1.26a11.891 11.891 0 0 0 18.7-1.22L77.24 24.335a4.757 4.757 0 0 0-7.855-5.359A11574.402 11574.402 0 0 1 44.05 55.94v.008Z" fill="url(#a)"/><path d="m22.909 40.902 3.686-5.414c1.696-2.481 5.073-3.543 7.095-1.316a11.8 11.8 0 0 1 1.403 1.903l8.68 14.435a2.38 2.38 0 0 0 3.686.499l-3.409 4.938c-1.712 2.482-5.12 3.52-7.118 1.26a12.175 12.175 0 0 1-1.308-1.799l-8.688-14.427a2.378 2.378 0 0 0-4.035-.079h.008Z" fill="url(#b)"/><path d="m22.972 40.815-.063.087-12.2 18.771a4.756 4.756 0 0 1-7.974-5.184l12.2-18.771a11.897 11.897 0 0 1 18.755-1.546c-2.022-2.22-5.399-1.165-7.095 1.316l-3.623 5.327Z" fill="url(#c)"/><defs><linearGradient id="a" x1="57.466" y1="39" x2="57.466" y2="61.183" gradientUnits="userSpaceOnUse"><stop stop-color="#F46837"/><stop offset="1" stop-color="#DD5236"/></linearGradient><linearGradient id="b" x1="35.18" y1="32.955" x2="47.184" y2="52.671" gradientUnits="userSpaceOnUse"><stop stop-color="#7E51C2"/><stop offset=".223" stop-color="#945DD6"/><stop offset=".76" stop-color="#945DD6"/><stop offset="1" stop-color="#7E51C2"/></linearGradient><linearGradient id="c" x1="17.845" y1="46" x2="17.845" y2="61.785" gradientUnits="userSpaceOnUse"><stop stop-color="#13ADC7"/><stop offset="1" stop-color="#1497B8"/></linearGradient></defs></svg>