<svg width="494" height="129" fill="none" xmlns="http://www.w3.org/2000/svg"><g clip-path="url(#a)"><path d="M92.1 88.808c-3.424 5.097-10.241 7.23-14.236 2.59a23.797 23.797 0 0 0 8.735 6.344 23.217 23.217 0 0 0 20.805-1.395 24.04 24.04 0 0 0 7.859-7.457l43.217-65.022a9.99 9.99 0 0 0 1.331-7.235c-.492-2.497-1.914-4.698-3.963-6.134a9.312 9.312 0 0 0-7.007-1.552c-2.443.441-4.622 1.845-6.072 3.913A23771.579 23771.579 0 0 1 92.1 88.792v.016Z" fill="url(#b)"/><path d="M49.818 57.901 57.19 46.78c3.393-5.097 10.147-7.279 14.19-2.703a24.212 24.212 0 0 1 2.805 3.908l17.36 29.653c.367.63.867 1.168 1.463 1.573a4.638 4.638 0 0 0 4.091.57 4.732 4.732 0 0 0 1.818-1.117L92.1 88.808c-3.424 5.097-10.241 7.23-14.236 2.59a24.98 24.98 0 0 1-2.616-3.697L57.872 58.064a4.82 4.82 0 0 0-1.696-1.721 4.655 4.655 0 0 0-4.614-.093 4.806 4.806 0 0 0-1.76 1.651h.016Z" fill="url(#c)"/><path d="m49.945 57.722-.127.18-24.4 38.56c-1.39 2.135-3.543 3.622-5.994 4.138-2.45.517-5 .021-7.096-1.379-2.097-1.4-3.573-3.593-4.108-6.102a9.993 9.993 0 0 1 1.25-7.307l24.399-38.56a24.094 24.094 0 0 1 7.751-7.664 23.36 23.36 0 0 1 10.246-3.374 23.224 23.224 0 0 1 10.645 1.605 23.787 23.787 0 0 1 8.868 6.257c-4.043-4.56-10.796-2.394-14.189 2.703l-7.245 10.943Z" fill="url(#d)"/></g><g clip-path="url(#e)" fill="#2E3137"><path d="M226.551 92.575c-8.821 0-15.421-1.71-19.801-5.13-4.32-3.42-6.57-8.101-6.75-14.042h16.2c.48 2.28 1.53 3.96 3.15 5.04 1.621 1.02 4.021 1.53 7.201 1.53 6.9 0 10.35-1.92 10.35-5.76 0-1.26-.33-2.28-.99-3.06-.66-.84-1.62-1.56-2.88-2.16-1.26-.66-2.82-1.23-4.68-1.71a185.3 185.3 0 0 0-6.48-1.53c-3.121-.72-5.941-1.56-8.461-2.52-2.46-1.02-4.56-2.31-6.3-3.87-1.68-1.56-3-3.42-3.96-5.581-.9-2.22-1.35-4.86-1.35-7.92 0-2.94.57-5.551 1.71-7.831 1.14-2.34 2.79-4.29 4.95-5.85 2.16-1.62 4.77-2.85 7.83-3.69 3.06-.841 6.481-1.261 10.261-1.261 8.28 0 14.43 1.59 18.45 4.77 4.08 3.18 6.33 7.68 6.75 13.501h-16.2c-.36-1.92-1.23-3.33-2.61-4.23-1.38-.96-3.51-1.44-6.39-1.44-3.18 0-5.4.51-6.66 1.53-1.261 1.02-1.891 2.34-1.891 3.96 0 2.22 1.14 3.84 3.421 4.86 2.34 1.02 5.7 1.95 10.08 2.79 3.24.66 6.18 1.471 8.82 2.431 2.7.9 4.98 2.13 6.84 3.69 1.92 1.5 3.39 3.36 4.41 5.58 1.02 2.16 1.53 4.831 1.53 8.011 0 6.24-2.34 11.131-7.02 14.671-4.68 3.48-11.19 5.22-19.53 5.22ZM280.566 91.945c-3 0-5.58-.27-7.74-.81-2.16-.6-3.93-1.56-5.31-2.88-1.38-1.32-2.4-3.03-3.06-5.13-.66-2.161-.99-4.801-.99-7.921V55.042h-5.85v-11.34h5.85V32.9h13.86v10.801h10.89v11.341h-10.89v17.911c0 2.7.42 4.62 1.26 5.76.9 1.14 2.61 1.71 5.13 1.71 1.8 0 3.6-.09 5.4-.27v11.342c-1.14.12-2.34.21-3.6.27-1.26.12-2.91.18-4.95.18ZM312.732 92.575c-5.46 0-9.63-1.56-12.51-4.68-2.88-3.12-4.32-7.861-4.32-14.222V43.701h13.86v27.812c0 3.12.63 5.49 1.89 7.11 1.32 1.62 3.42 2.431 6.3 2.431 3.12 0 5.4-.9 6.84-2.7 1.5-1.86 2.25-4.14 2.25-6.84V43.7h13.861v47.704h-12.781v-6.48c-1.2 2.1-3.09 3.9-5.67 5.4-2.58 1.5-5.82 2.25-9.72 2.25ZM368.599 92.575c-3.12 0-5.94-.51-8.46-1.53a17.976 17.976 0 0 1-6.48-4.68c-1.801-2.04-3.181-4.591-4.141-7.651-.96-3.06-1.44-6.63-1.44-10.711v-1.8c0-7.68 1.77-13.531 5.31-17.551 3.601-4.08 8.671-6.12 15.211-6.12 2.7 0 5.25.63 7.65 1.89 2.46 1.2 4.5 2.97 6.12 5.31V28.4h13.861v63.005h-12.781v-6.48c-.6.96-1.38 1.92-2.34 2.88-.9.9-1.98 1.71-3.24 2.43-1.26.72-2.67 1.29-4.23 1.71-1.56.42-3.24.63-5.04.63Zm3.33-11.431c2.94 0 5.4-1.02 7.38-3.06 2.04-2.04 3.06-4.95 3.06-8.73v-4.501c0-3.6-1.02-6.3-3.06-8.1-1.98-1.861-4.44-2.791-7.38-2.791-2.88 0-5.22 1.02-7.02 3.06-1.74 1.98-2.61 5.04-2.61 9.18v1.801c0 4.32.9 7.59 2.7 9.81 1.86 2.22 4.17 3.331 6.93 3.331ZM406.151 43.701h13.86v47.704h-13.86V43.7Zm6.93-4.5c-2.58 0-4.59-.66-6.03-1.98-1.38-1.38-2.07-3.12-2.07-5.22 0-2.1.69-3.81 2.07-5.131 1.44-1.38 3.45-2.07 6.03-2.07s4.56.69 5.94 2.07c1.44 1.32 2.16 3.03 2.16 5.13s-.72 3.84-2.16 5.22c-1.38 1.32-3.36 1.98-5.94 1.98ZM452.449 92.575c-3.36 0-6.51-.48-9.45-1.44-2.94-1.02-5.52-2.55-7.74-4.59-2.22-2.04-3.96-4.591-5.22-7.651-1.26-3.12-1.89-6.75-1.89-10.891v-1.8c0-3.9.63-7.32 1.89-10.26 1.26-2.941 3-5.401 5.22-7.381 2.22-1.98 4.8-3.48 7.74-4.5 2.94-1.02 6.09-1.53 9.45-1.53 3.36 0 6.511.51 9.451 1.53 2.94 1.02 5.52 2.52 7.74 4.5 2.22 1.98 3.96 4.44 5.22 7.38 1.26 2.94 1.89 6.36 1.89 10.26v1.801c0 4.08-.63 7.68-1.89 10.8-1.26 3.061-3 5.611-5.22 7.651-2.22 2.04-4.8 3.57-7.74 4.59-2.94 1.02-6.091 1.53-9.451 1.53Zm0-11.521c3.24 0 5.731-1.17 7.471-3.51 1.74-2.34 2.61-5.52 2.61-9.541v-1.8c0-3.6-.87-6.51-2.61-8.73-1.74-2.281-4.231-3.421-7.471-3.421s-5.73 1.14-7.47 3.42c-1.74 2.22-2.61 5.13-2.61 8.73v1.801c0 4.14.87 7.35 2.61 9.63 1.74 2.28 4.23 3.421 7.47 3.421Z"/></g><defs><linearGradient id="b" x1="118.932" y1="53.993" x2="118.932" y2="99.563" gradientUnits="userSpaceOnUse"><stop stop-color="#F46837"/><stop offset="1" stop-color="#DD5236"/></linearGradient><linearGradient id="c" x1="74.36" y1="41.576" x2="99.316" y2="81.484" gradientUnits="userSpaceOnUse"><stop stop-color="#7E51C2"/><stop offset=".223" stop-color="#945DD6"/><stop offset=".76" stop-color="#945DD6"/><stop offset="1" stop-color="#7E51C2"/></linearGradient><linearGradient id="d" x1="39.69" y1="68.373" x2="39.69" y2="100.8" gradientUnits="userSpaceOnUse"><stop stop-color="#13ADC7"/><stop offset="1" stop-color="#1497B8"/></linearGradient><clipPath id="a"><path fill="#fff" transform="translate(8 .8)" d="M0 0h152v128H0z"/></clipPath><clipPath id="e"><path fill="#fff" transform="translate(200 24.8)" d="M0 0h278v80H0z"/></clipPath></defs></svg>