<svg width="596" height="129" fill="none" xmlns="http://www.w3.org/2000/svg"><g clip-path="url(#a)"><path d="M48.058 19.766c.505.21.964.516 1.35.903l8.814 8.814.044-.023 11.76 11.781-.023.022 23.54 23.54 11.78-11.781L61.167 8.888a20.815 20.815 0 0 0-29.407 0L14.089 26.56a20.815 20.815 0 0 0 0 29.407l8.835 8.835 11.759-11.78-8.813-8.814a4.165 4.165 0 0 1 0-5.89l17.649-17.649a4.163 4.163 0 0 1 4.539-.903Z" fill="url(#b)"/><path d="m90.597 108.936-8.813-8.814-.045.022-11.758-11.78.022-.022-23.54-23.54-11.78 11.781 44.155 44.133a20.814 20.814 0 0 0 29.408 0l17.671-17.671a20.816 20.816 0 0 0 0-29.407l-8.836-8.836-11.758 11.781 8.813 8.814a4.172 4.172 0 0 1 1.221 2.945 4.171 4.171 0 0 1-1.221 2.945l-17.649 17.649a4.155 4.155 0 0 1-2.945 1.22 4.153 4.153 0 0 1-2.945-1.22Z" fill="url(#c)"/><path fill-rule="evenodd" clip-rule="evenodd" d="M115.059 42.828c-.221.51-.509.952-.886 1.329l-44.2 44.2 11.76 11.78L125.91 55.96a20.817 20.817 0 0 0 0-29.408l-17.671-17.67a20.817 20.817 0 0 0-29.408 0l-8.813 8.768 11.78 11.781 8.792-8.791a4.165 4.165 0 0 1 5.89 0l17.649 17.649a4.16 4.16 0 0 1 .908 4.54h.022Zm-65.635 66.078 8.791-8.791 11.803 11.759-8.858 8.813a20.813 20.813 0 0 1-29.407 0l-17.671-17.671a20.815 20.815 0 0 1 0-29.407l44.2-44.178 11.736 11.78-44.133 44.156a4.163 4.163 0 0 0 0 5.89l17.648 17.649a4.174 4.174 0 0 0 2.946 1.221 4.172 4.172 0 0 0 2.945-1.221Z" fill="url(#d)"/></g><g clip-path="url(#e)" fill="#2E3137"><path d="M173.391 39.11h16.473V95.42h-16.473V39.11Zm8.236-5.312c-3.066 0-5.455-.779-7.167-2.337-1.64-1.629-2.46-3.683-2.46-6.162s.82-4.497 2.46-6.056c1.712-1.629 4.101-2.443 7.167-2.443 3.067 0 5.42.814 7.06 2.443 1.712 1.559 2.568 3.577 2.568 6.056 0 2.48-.856 4.533-2.568 6.162-1.64 1.558-3.993 2.337-7.06 2.337ZM224.674 96.056c-3.566 0-6.632-.319-9.2-.956-2.567-.708-4.671-1.842-6.311-3.4-1.64-1.558-2.852-3.577-3.637-6.056-.784-2.55-1.177-5.666-1.177-9.349V52.497h-6.953V39.111h6.953V26.36h16.474v12.75h12.943v13.386h-12.943v21.142c0 3.187.499 5.454 1.498 6.8 1.069 1.345 3.102 2.018 6.097 2.018 2.139 0 4.279-.106 6.418-.319v13.387a75.436 75.436 0 0 1-4.279.319c-1.497.141-3.458.212-5.883.212ZM269.643 96.8c-4.136 0-8.022-.567-11.659-1.7-3.566-1.204-6.668-3.01-9.307-5.418-2.638-2.409-4.707-5.419-6.204-9.03-1.498-3.684-2.247-7.97-2.247-12.856V65.67c0-4.675.714-8.747 2.14-12.218 1.497-3.47 3.494-6.374 5.99-8.712 2.568-2.337 5.563-4.072 8.986-5.206 3.494-1.203 7.238-1.806 11.232-1.806 9.342 0 16.402 2.409 21.18 7.225 4.778 4.745 7.167 11.651 7.167 20.717v5.843h-39.793c.071 2.196.463 4.073 1.177 5.631.713 1.487 1.64 2.727 2.781 3.719a11.643 11.643 0 0 0 3.851 2.23c1.497.426 3.066.638 4.706.638 3.138 0 5.599-.46 7.381-1.381 1.855-.992 3.067-2.302 3.637-3.931h15.19c-1.141 6.162-3.958 10.766-8.45 13.811-4.493 3.046-10.412 4.569-17.758 4.569Zm-.534-46.11c-1.498 0-2.96.178-4.386.532a10.778 10.778 0 0 0-3.744 1.806c-1.07.78-1.961 1.806-2.674 3.081-.642 1.275-.999 2.833-1.07 4.675h23.533c0-1.983-.321-3.612-.962-4.887-.642-1.275-1.498-2.302-2.568-3.081-.998-.78-2.21-1.31-3.637-1.594a18.58 18.58 0 0 0-4.492-.531ZM304.392 39.11h15.19v7.65c.428-.92 1.07-1.912 1.926-2.975a21.445 21.445 0 0 1 3.209-2.975 16.079 16.079 0 0 1 4.065-2.23c1.568-.567 3.244-.85 5.027-.85 1.213 0 2.175.07 2.888.212.714.142 1.355.283 1.926.425v14.13c-.357-.212-1.177-.46-2.46-.744-1.284-.283-2.782-.425-4.493-.425-3.78 0-6.525 1.098-8.237 3.294-1.712 2.196-2.567 4.852-2.567 7.968v32.829h-16.474V39.11ZM361.087 96.8c-3.067 0-5.812-.46-8.237-1.381-2.353-.921-4.35-2.16-5.99-3.719a16.58 16.58 0 0 1-3.744-5.63c-.856-2.196-1.284-4.569-1.284-7.119 0-5.595 1.712-9.88 5.135-12.855 3.494-2.975 8.736-4.462 15.724-4.462h16.153v-2.337c0-3.4-.82-5.738-2.46-7.012-1.641-1.346-3.887-2.02-6.74-2.02-2.71 0-4.706.426-5.99 1.276-1.284.85-1.997 2.196-2.139 4.037h-16.474c.143-2.55.785-4.887 1.926-7.012 1.141-2.196 2.745-4.073 4.813-5.63 2.14-1.63 4.743-2.905 7.809-3.825 3.067-.921 6.597-1.382 10.59-1.382 3.709 0 7.096.425 10.162 1.275 3.138.78 5.813 2.09 8.023 3.931 2.211 1.771 3.923 4.108 5.135 7.012 1.212 2.833 1.818 6.304 1.818 10.412v20.717c0 2.975.072 5.595.214 7.862.143 2.196.357 4.356.642 6.48h-15.618a91.25 91.25 0 0 0-.427-3.187 44.817 44.817 0 0 1-.107-3.4c-1.712 2.267-4.101 4.18-7.167 5.738-2.996 1.487-6.918 2.23-11.767 2.23Zm5.348-11.474c3.495 0 6.419-.992 8.772-2.975 2.425-1.983 3.637-4.71 3.637-8.18v-2.338H365.9c-2.424 0-4.243.638-5.455 1.912-1.141 1.275-1.712 2.763-1.712 4.462 0 2.055.571 3.754 1.712 5.1 1.212 1.346 3.209 2.019 5.99 2.019ZM428.487 96.056c-3.566 0-6.633-.319-9.2-.956-2.567-.708-4.671-1.842-6.311-3.4-1.64-1.558-2.853-3.577-3.637-6.056-.785-2.55-1.177-5.666-1.177-9.349V52.497h-6.953V39.111h6.953V26.36h16.474v12.75h12.943v13.386h-12.943v21.142c0 3.187.499 5.454 1.497 6.8 1.07 1.345 3.102 2.018 6.098 2.018 2.139 0 4.278-.106 6.418-.319v13.387a75.436 75.436 0 0 1-4.279.319c-1.498.141-3.459.212-5.883.212ZM447.248 39.11h16.474V95.42h-16.474V39.11Zm8.237-5.312c-3.066 0-5.455-.779-7.167-2.337-1.64-1.629-2.46-3.683-2.46-6.162s.82-4.497 2.46-6.056c1.712-1.629 4.101-2.443 7.167-2.443 3.067 0 5.42.814 7.06 2.443 1.712 1.559 2.567 3.577 2.567 6.056 0 2.48-.855 4.533-2.567 6.162-1.64 1.558-3.993 2.337-7.06 2.337ZM470.184 39.11h18.185l14.334 37.504 13.051-37.503h16.473l-21.715 56.308h-16.473L470.184 39.11ZM560.722 96.8c-4.136 0-8.022-.567-11.659-1.7-3.566-1.204-6.668-3.01-9.307-5.418-2.638-2.409-4.707-5.419-6.204-9.03-1.498-3.684-2.246-7.97-2.246-12.856V65.67c0-4.675.713-8.747 2.139-12.218 1.498-3.47 3.494-6.374 5.99-8.712 2.568-2.337 5.563-4.072 8.986-5.206 3.494-1.203 7.238-1.806 11.232-1.806 9.342 0 16.402 2.409 21.18 7.225C585.611 49.699 588 56.605 588 65.67v5.843h-39.793c.071 2.196.463 4.073 1.177 5.631.713 1.487 1.64 2.727 2.781 3.719a11.643 11.643 0 0 0 3.851 2.23c1.497.426 3.066.638 4.706.638 3.138 0 5.599-.46 7.381-1.381 1.855-.992 3.067-2.302 3.637-3.931h15.19c-1.141 6.162-3.958 10.766-8.45 13.811-4.493 3.046-10.412 4.569-17.758 4.569Zm-.534-46.11c-1.498 0-2.96.178-4.386.532a10.778 10.778 0 0 0-3.744 1.806c-1.07.78-1.961 1.806-2.674 3.081-.642 1.275-.999 2.833-1.07 4.675h23.533c0-1.983-.32-3.612-.962-4.887-.642-1.275-1.498-2.302-2.568-3.081-.998-.78-2.21-1.31-3.637-1.594a18.58 18.58 0 0 0-4.492-.531Z"/></g><defs><linearGradient id="b" x1="37.894" y1="50.409" x2="96.576" y2="109.091" gradientUnits="userSpaceOnUse"><stop stop-color="#13ADC7"/><stop offset="1" stop-color="#945DD6"/></linearGradient><linearGradient id="c" x1="37.894" y1="50.409" x2="96.576" y2="109.091" gradientUnits="userSpaceOnUse"><stop stop-color="#13ADC7"/><stop offset="1" stop-color="#945DD6"/></linearGradient><linearGradient id="d" x1="93.239" y1="39.337" x2="33.466" y2="99.111" gradientUnits="userSpaceOnUse"><stop stop-color="#F46837"/><stop offset="1" stop-color="#945DD6"/></linearGradient><clipPath id="a"><path fill="#fff" transform="translate(8 2.8)" d="M0 0h124v124H0z"/></clipPath><clipPath id="e"><path fill="#fff" transform="translate(172 16.8)" d="M0 0h424v96H0z"/></clipPath></defs></svg>