<svg width="540" height="129" fill="none" xmlns="http://www.w3.org/2000/svg"><g clip-path="url(#a)"><path d="M45.473 22.671c.473.196.903.483 1.264.845l8.245 8.245.041-.02 11 11.02-.02.02 22.02 22.021 11.021-11.02-41.307-41.286a19.472 19.472 0 0 0-27.51 0l-16.531 16.53a19.473 19.473 0 0 0 0 27.51l8.266 8.266 11-11.02-8.245-8.245a3.893 3.893 0 0 1 0-5.51l16.51-16.51a3.894 3.894 0 0 1 4.246-.846Z" fill="url(#b)"/><path d="m85.268 106.088-8.245-8.245-.041.021-11-11.02.02-.021-22.02-22.02-11.02 11.02 41.306 41.286a19.473 19.473 0 0 0 27.51 0l16.531-16.531a19.47 19.47 0 0 0 0-27.51l-8.265-8.266-11 11.02 8.245 8.246a3.895 3.895 0 0 1 0 5.51l-16.51 16.51a3.895 3.895 0 0 1-5.51 0Z" fill="url(#c)"/><path fill-rule="evenodd" clip-rule="evenodd" d="M108.152 44.246c-.207.476-.476.89-.829 1.243L65.975 86.837l11 11.02 41.328-41.327a19.473 19.473 0 0 0 0-27.51l-16.531-16.531a19.473 19.473 0 0 0-27.51 0l-8.245 8.203 11.02 11.02 8.224-8.223a3.894 3.894 0 0 1 5.51 0l16.511 16.51a3.892 3.892 0 0 1 .849 4.247h.021Zm-61.4 61.815 8.223-8.224 11.042 11-8.286 8.244a19.47 19.47 0 0 1-27.51 0L13.688 100.55a19.47 19.47 0 0 1 0-27.51l41.349-41.327 10.979 11.02L24.73 84.04a3.893 3.893 0 0 0 0 5.51l16.51 16.511a3.894 3.894 0 0 0 5.51 0Z" fill="url(#d)"/></g><g clip-path="url(#e)" fill="#2E3137"><path d="M165.174 43.764h13.903v47.862h-13.903V43.764Zm6.951-4.515c-2.588 0-4.604-.663-6.049-1.987-1.384-1.385-2.076-3.13-2.076-5.238 0-2.107.692-3.823 2.076-5.147 1.445-1.385 3.461-2.077 6.049-2.077 2.588 0 4.574.692 5.959 2.077 1.444 1.324 2.166 3.04 2.166 5.147s-.722 3.853-2.166 5.238c-1.385 1.324-3.371 1.987-5.959 1.987ZM209.358 92.168c-3.01 0-5.598-.271-7.764-.813-2.167-.602-3.942-1.565-5.327-2.89-1.384-1.324-2.407-3.04-3.069-5.147-.662-2.168-.993-4.817-.993-7.947V55.142h-5.869V43.764h5.869V32.927h13.903v10.837h10.924v11.378h-10.924v17.971c0 2.71.421 4.636 1.264 5.78.902 1.144 2.618 1.716 5.146 1.716 1.805 0 3.611-.09 5.416-.271v11.378c-1.143.12-2.347.21-3.611.271-1.264.12-2.919.18-4.965.18ZM248.213 92.8c-3.491 0-6.771-.482-9.84-1.445-3.01-1.023-5.628-2.559-7.855-4.606-2.226-2.047-3.972-4.605-5.236-7.676-1.264-3.13-1.896-6.772-1.896-10.927V66.34c0-3.973.602-7.435 1.806-10.385 1.264-2.95 2.949-5.418 5.056-7.405 2.166-1.987 4.694-3.462 7.583-4.425 2.949-1.023 6.109-1.535 9.479-1.535 7.885 0 13.843 2.047 17.876 6.14 4.032 4.034 6.049 9.904 6.049 17.61v4.967h-33.584c.06 1.866.391 3.462.993 4.786.602 1.265 1.384 2.318 2.347 3.161a9.814 9.814 0 0 0 3.25 1.896c1.264.362 2.588.542 3.972.542 2.648 0 4.725-.391 6.23-1.174 1.564-.843 2.588-1.956 3.069-3.341h12.82c-.963 5.238-3.341 9.15-7.132 11.74-3.792 2.588-8.788 3.883-14.987 3.883Zm-.451-39.193c-1.264 0-2.498.15-3.702.452a9.068 9.068 0 0 0-3.159 1.535c-.903.662-1.655 1.535-2.257 2.619-.542 1.084-.843 2.408-.903 3.973h19.861c0-1.685-.27-3.07-.812-4.154-.542-1.083-1.264-1.956-2.167-2.619-.842-.662-1.866-1.113-3.069-1.354a15.581 15.581 0 0 0-3.792-.452ZM278.443 43.764h12.82v6.502c.361-.783.902-1.626 1.625-2.529a18.164 18.164 0 0 1 2.708-2.528 13.55 13.55 0 0 1 3.431-1.897c1.324-.481 2.738-.722 4.243-.722 1.023 0 1.835.06 2.437.18.602.121 1.144.241 1.625.362v12.01c-.301-.18-.993-.39-2.076-.632-1.083-.24-2.347-.36-3.792-.36-3.19 0-5.507.932-6.951 2.799-1.445 1.866-2.167 4.123-2.167 6.773v27.904h-13.903V43.764ZM327.194 92.8c-2.588 0-4.905-.391-6.952-1.174-1.986-.783-3.671-1.836-5.055-3.16a14.105 14.105 0 0 1-3.16-4.787c-.722-1.866-1.083-3.883-1.083-6.05 0-4.757 1.444-8.399 4.333-10.928 2.949-2.528 7.373-3.792 13.271-3.792h13.632v-1.987c0-2.89-.692-4.877-2.076-5.96-1.384-1.144-3.28-1.716-5.688-1.716-2.287 0-3.972.361-5.055 1.084-1.084.722-1.686 1.866-1.806 3.431h-13.903c.12-2.167.662-4.154 1.625-5.96.963-1.866 2.317-3.462 4.063-4.786 1.805-1.385 4.002-2.468 6.59-3.251 2.588-.783 5.567-1.174 8.938-1.174 3.129 0 5.988.361 8.576 1.084 2.648.662 4.905 1.776 6.771 3.34 1.866 1.506 3.31 3.493 4.334 5.961 1.023 2.408 1.534 5.358 1.534 8.85v17.61c0 2.528.061 4.756.181 6.682.12 1.867.301 3.703.542 5.509h-13.181a80.458 80.458 0 0 0-.361-2.71 38.199 38.199 0 0 1-.091-2.89c-1.444 1.927-3.46 3.553-6.048 4.877-2.528 1.265-5.838 1.897-9.931 1.897Zm4.514-9.753c2.949 0 5.417-.843 7.403-2.529 2.046-1.685 3.069-4.003 3.069-6.953v-1.987h-10.924c-2.046 0-3.581.542-4.604 1.626-.963 1.083-1.444 2.348-1.444 3.792 0 1.746.481 3.191 1.444 4.335 1.023 1.144 2.709 1.716 5.056 1.716ZM384.98 92.168c-3.009 0-5.597-.271-7.764-.813-2.167-.602-3.942-1.565-5.327-2.89-1.384-1.324-2.407-3.04-3.069-5.147-.662-2.168-.993-4.817-.993-7.947V55.142h-5.868V43.764h5.868V32.927h13.903v10.837h10.924v11.378H381.73v17.971c0 2.71.421 4.636 1.264 5.78.903 1.144 2.618 1.716 5.146 1.716 1.805 0 3.611-.09 5.417-.271v11.378a63.35 63.35 0 0 1-3.612.271c-1.264.12-2.919.18-4.965.18ZM401.717 43.764h13.903v47.862h-13.903V43.764Zm6.951-4.515c-2.588 0-4.604-.663-6.048-1.987-1.385-1.385-2.077-3.13-2.077-5.238 0-2.107.692-3.823 2.077-5.147 1.444-1.385 3.46-2.077 6.048-2.077 2.589 0 4.575.692 5.959 2.077 1.444 1.324 2.167 3.04 2.167 5.147s-.723 3.853-2.167 5.238c-1.384 1.324-3.37 1.987-5.959 1.987ZM421.977 43.764h15.348l12.097 31.878 11.014-31.878h13.903l-18.327 47.862h-13.903l-20.132-47.862ZM500.979 92.8c-3.491 0-6.771-.482-9.841-1.445-3.009-1.023-5.627-2.559-7.854-4.606-2.227-2.047-3.972-4.605-5.236-7.676-1.264-3.13-1.896-6.772-1.896-10.927V66.34c0-3.973.602-7.435 1.805-10.385 1.264-2.95 2.95-5.418 5.056-7.405 2.167-1.987 4.695-3.462 7.584-4.425 2.949-1.023 6.108-1.535 9.479-1.535 7.884 0 13.843 2.047 17.875 6.14 4.033 4.034 6.049 9.904 6.049 17.61v4.967h-33.584c.06 1.866.391 3.462.993 4.786.602 1.265 1.384 2.318 2.347 3.161a9.824 9.824 0 0 0 3.25 1.896c1.264.362 2.588.542 3.973.542 2.648 0 4.724-.391 6.229-1.174 1.565-.843 2.588-1.956 3.07-3.341h12.819c-.963 5.238-3.34 9.15-7.132 11.74-3.792 2.588-8.787 3.883-14.986 3.883Zm-.452-39.193c-1.264 0-2.497.15-3.701.452a9.064 9.064 0 0 0-3.16 1.535c-.903.662-1.655 1.535-2.257 2.619-.542 1.084-.843 2.408-.903 3.973h19.862c0-1.685-.271-3.07-.813-4.154-.541-1.083-1.264-1.956-2.166-2.619-.843-.662-1.866-1.113-3.07-1.354a15.581 15.581 0 0 0-3.792-.452Z"/></g><defs><linearGradient id="b" x1="35.965" y1="51.337" x2="90.861" y2="106.233" gradientUnits="userSpaceOnUse"><stop stop-color="#13ADC7"/><stop offset="1" stop-color="#945DD6"/></linearGradient><linearGradient id="c" x1="35.965" y1="51.337" x2="90.861" y2="106.233" gradientUnits="userSpaceOnUse"><stop stop-color="#13ADC7"/><stop offset="1" stop-color="#945DD6"/></linearGradient><linearGradient id="d" x1="87.74" y1="40.98" x2="31.823" y2="96.897" gradientUnits="userSpaceOnUse"><stop stop-color="#F46837"/><stop offset="1" stop-color="#945DD6"/></linearGradient><clipPath id="a"><path fill="#fff" transform="translate(8 6.8)" d="M0 0h116v116H0z"/></clipPath><clipPath id="e"><path fill="#fff" transform="translate(164 24.8)" d="M0 0h360v80H0z"/></clipPath></defs></svg>