<svg width="752" height="129" fill="none" xmlns="http://www.w3.org/2000/svg"><g clip-path="url(#a)"><path d="M116.039 20.665 92.976 9.496a6.943 6.943 0 0 0-7.955 1.36l-75.5 69.237a4.71 4.71 0 0 0 .006 6.937l6.167 5.639a4.643 4.643 0 0 0 5.956.266l90.919-69.373c3.05-2.327 7.431-.139 7.431 3.712v-.27a7.04 7.04 0 0 0-3.961-6.34Z" fill="url(#b)"/><path d="m116.039 108.935-23.063 11.169a6.941 6.941 0 0 1-7.955-1.36l-75.5-69.236a4.71 4.71 0 0 1 .006-6.938l6.167-5.638a4.643 4.643 0 0 1 5.956-.267l90.919 69.373c3.05 2.327 7.431.139 7.431-3.711v.269a7.039 7.039 0 0 1-3.961 6.339Z" fill="url(#c)"/><path d="M92.977 120.106a6.944 6.944 0 0 1-7.956-1.362c2.582 2.597 6.996.758 6.996-2.914V13.77c0-3.673-4.414-5.512-6.995-2.915a6.946 6.946 0 0 1 7.955-1.362l23.059 11.154a7.04 7.04 0 0 1 3.964 6.34v75.625a7.04 7.04 0 0 1-3.964 6.341l-23.059 11.153Z" fill="#945DD6"/></g><path d="M191.522 91.306c19.389 0 31.414-11.963 31.414-31.85 0-19.854-12.025-31.786-31.445-31.786H168v63.636h23.522Zm-8.141-13.112V40.782h7.333c10.937 0 16.81 4.972 16.81 18.675 0 13.765-5.873 18.737-16.593 18.737h-7.55ZM241.73 27.67h-17.214l21.471 63.636h20.477l21.471-63.636h-17.214l-14.232 46.608h-.528L241.73 27.67ZM347.915 50.726C346.361 35.5 335.02 26.8 319.639 26.8c-16.965 0-30.171 11.652-30.171 32.688 0 20.943 12.895 32.688 30.171 32.688 17.463 0 27.126-11.87 28.276-23.149l-15.536-.093c-1.088 6.121-5.686 9.757-12.429 9.757-9.073 0-14.791-6.556-14.791-19.203 0-12.15 5.593-19.203 14.884-19.203 6.991 0 11.559 4.07 12.336 10.44h15.536ZM388.214 27.67H371l21.471 63.636h20.476l21.472-63.636h-17.215l-14.231 46.608h-.528L388.214 27.67ZM474.792 46.748h14.729c-.125-11.9-9.602-19.948-24.392-19.948-14.542 0-25.014 7.923-24.92 19.762-.031 9.663 6.742 15.101 17.742 17.618l6.649 1.554c6.992 1.615 10.13 3.51 10.192 7.084-.062 3.884-3.697 6.587-9.881 6.587-6.805 0-11.279-3.169-11.621-9.29h-14.728c.186 14.884 10.533 22 26.536 22 15.847 0 25.23-7.179 25.293-19.266-.063-10.16-6.93-16.375-19.483-19.14l-5.469-1.243c-5.779-1.243-9.446-3.17-9.321-6.96.031-3.48 3.014-5.998 8.98-5.998 5.997 0 9.29 2.704 9.694 7.24ZM572.971 50.726C571.418 35.5 560.076 26.8 544.695 26.8c-16.965 0-30.171 11.652-30.171 32.688 0 20.943 12.895 32.688 30.171 32.688 17.463 0 27.127-11.87 28.276-23.149l-15.536-.093c-1.088 6.121-5.686 9.757-12.429 9.757-9.073 0-14.791-6.556-14.791-19.203 0-12.15 5.594-19.203 14.884-19.203 6.991 0 11.559 4.07 12.336 10.44h15.536ZM603.176 92.207c15.008 0 24.113-9.912 24.113-24.61 0-14.727-9.105-24.64-24.113-24.64s-24.112 9.913-24.112 24.64c0 14.698 9.104 24.61 24.112 24.61Zm.094-11.465c-5.625 0-8.732-5.345-8.732-13.237 0-7.924 3.107-13.3 8.732-13.3 5.437 0 8.545 5.376 8.545 13.3 0 7.892-3.108 13.237-8.545 13.237ZM651.629 91.99c7.209 0 11.497-4.009 13.423-8.42h.466v7.736h15.039V27.67h-15.194V51.75h-.311c-1.802-4.381-5.966-8.793-13.485-8.793-9.975 0-19.017 7.674-19.017 24.516 0 16.25 8.545 24.516 19.079 24.516Zm5.282-11.839c-5.624 0-8.762-5.002-8.762-12.708 0-7.675 3.107-12.616 8.762-12.616 5.562 0 8.794 4.816 8.794 12.616 0 7.737-3.263 12.708-8.794 12.708ZM711.601 92.207c12.523 0 20.757-6.059 22.497-15.443l-13.952-.404c-1.18 3.17-4.288 4.879-8.265 4.879-5.841 0-9.446-3.884-9.446-9.726v-.404h31.818v-3.79c0-15.723-9.57-24.361-23.118-24.361-14.417 0-23.677 9.88-23.677 24.671 0 15.288 9.136 24.578 24.143 24.578Zm-9.166-29.922c.218-4.755 3.977-8.359 9.011-8.359 5.003 0 8.607 3.48 8.669 8.358h-17.68Z" fill="#2E3137"/><defs><linearGradient id="b" x1="8" y1="94.8" x2="96.448" y2="17.311" gradientUnits="userSpaceOnUse"><stop offset=".791" stop-color="#13ADC7"/><stop offset="1" stop-color="#1497B8"/></linearGradient><linearGradient id="c" x1="-7.111" y1="49.276" x2="75.687" y2="131.597" gradientUnits="userSpaceOnUse"><stop offset=".848" stop-color="#F46837"/><stop offset="1" stop-color="#DD5236"/></linearGradient><clipPath id="a"><path fill="#fff" transform="translate(8 6.8)" d="M0 0h120v116H0z"/></clipPath></defs></svg>