<svg width="80" height="80" fill="none" xmlns="http://www.w3.org/2000/svg"><path d="M29.029 17.483c.253.105.482.258.675.452l4.407 4.406.022-.01 5.88 5.89-.011.01 11.77 11.77 5.89-5.89-22.078-22.067a10.408 10.408 0 0 0-14.704 0l-8.836 8.836a10.408 10.408 0 0 0 0 14.704L16.462 40l5.88-5.89-4.407-4.407a2.084 2.084 0 0 1 0-2.945l8.824-8.824a2.082 2.082 0 0 1 2.27-.452Z" fill="url(#a)"/><path d="m50.298 62.068-4.406-4.407-.022.011-5.88-5.89.011-.011-11.77-11.77-5.89 5.89L44.42 67.959a10.408 10.408 0 0 0 14.704 0l8.836-8.835a10.408 10.408 0 0 0 0-14.704l-4.418-4.418-5.88 5.89 4.407 4.407a2.083 2.083 0 0 1 0 2.946l-8.824 8.824a2.081 2.081 0 0 1-2.946 0Z" fill="url(#b)"/><path fill-rule="evenodd" clip-rule="evenodd" d="M62.53 29.014c-.111.255-.255.476-.443.665l-22.1 22.1 5.88 5.89L67.954 35.58a10.408 10.408 0 0 0 0-14.704l-8.836-8.835a10.408 10.408 0 0 0-14.703 0l-4.407 4.384 5.89 5.89 4.396-4.395a2.083 2.083 0 0 1 2.945 0l8.825 8.824a2.081 2.081 0 0 1 .454 2.27h.01Zm-32.818 33.04 4.396-4.396 5.9 5.879-4.428 4.407a10.407 10.407 0 0 1-14.704 0l-8.835-8.836a10.408 10.408 0 0 1 0-14.703l22.1-22.09 5.868 5.891-22.067 22.078a2.082 2.082 0 0 0 0 2.945l8.825 8.824a2.08 2.08 0 0 0 2.945 0Z" fill="url(#c)"/><defs><linearGradient id="a" x1="23.947" y1="32.804" x2="53.288" y2="62.146" gradientUnits="userSpaceOnUse"><stop stop-color="#13ADC7"/><stop offset="1" stop-color="#945DD6"/></linearGradient><linearGradient id="b" x1="23.947" y1="32.804" x2="53.288" y2="62.146" gradientUnits="userSpaceOnUse"><stop stop-color="#13ADC7"/><stop offset="1" stop-color="#945DD6"/></linearGradient><linearGradient id="c" x1="51.62" y1="27.269" x2="21.733" y2="57.156" gradientUnits="userSpaceOnUse"><stop stop-color="#F46837"/><stop offset="1" stop-color="#945DD6"/></linearGradient></defs></svg>