<svg width="256" height="206" fill="none" xmlns="http://www.w3.org/2000/svg"><path d="M140.96 154.514c-5.479 8.202-16.386 11.636-22.778 4.167 3.847 4.456 8.627 7.948 13.977 10.211a36.963 36.963 0 0 0 16.895 2.847 37.161 37.161 0 0 0 16.393-5.093c5.019-2.962 9.319-7.066 12.573-12.001L247.169 50a16.156 16.156 0 0 0 2.129-11.643c-.787-4.02-3.062-7.562-6.341-9.873-3.279-2.31-7.302-3.206-11.211-2.497-3.909.71-7.395 2.97-9.715 6.297a38238.008 38238.008 0 0 1-81.071 122.203v.027z" fill="url(#paint0_linear)"/><path d="M73.309 104.773l11.795-17.9c5.428-8.203 16.234-11.714 22.703-4.35a38.953 38.953 0 0 1 4.49 6.29l27.776 47.722a7.753 7.753 0 0 0 2.34 2.531 7.393 7.393 0 0 0 6.547.917 7.583 7.583 0 0 0 2.908-1.797l-10.908 16.327c-5.479 8.203-16.386 11.636-22.778 4.167-1.522-1.808-2.943-3.773-4.186-5.949l-27.801-47.696a7.728 7.728 0 0 0-2.713-2.77 7.428 7.428 0 0 0-3.673-1.062 7.42 7.42 0 0 0-3.71.912 7.708 7.708 0 0 0-2.816 2.658h.026z" fill="url(#paint1_linear)"/><path d="M73.512 104.484l-.203.289-39.039 62.058c-2.225 3.437-5.67 5.829-9.59 6.661-3.921.831-8 .033-11.356-2.22-3.355-2.254-5.716-5.782-6.572-9.821a16.162 16.162 0 0 1 2-11.759L47.79 87.633c3.169-5.035 7.411-9.255 12.403-12.334a37.228 37.228 0 0 1 16.392-5.43c5.794-.493 11.62.39 17.032 2.584 5.412 2.194 10.266 5.638 14.19 10.07-6.469-7.338-17.275-3.853-22.703 4.35l-11.592 17.611z" fill="url(#paint2_linear)"/><defs><linearGradient id="paint0_linear" x1="183.891" y1="98.484" x2="183.891" y2="171.822" gradientUnits="userSpaceOnUse"><stop stop-color="#F46837"/><stop offset="1" stop-color="#DD5236"/></linearGradient><linearGradient id="paint1_linear" x1="112.576" y1="78.5" x2="152.842" y2="142.515" gradientUnits="userSpaceOnUse"><stop stop-color="#7E51C2"/><stop offset=".223" stop-color="#945DD6"/><stop offset=".76" stop-color="#945DD6"/><stop offset="1" stop-color="#7E51C2"/></linearGradient><linearGradient id="paint2_linear" x1="57.103" y1="121.626" x2="57.103" y2="173.813" gradientUnits="userSpaceOnUse"><stop stop-color="#13ADC7"/><stop offset="1" stop-color="#1497B8"/></linearGradient></defs></svg>