<svg width="160" height="160" viewBox="0 0 160 160" fill="none" xmlns="http://www.w3.org/2000/svg">
<path d="M88.1003 112.008C84.6758 117.105 77.8587 119.239 73.8635 114.598C76.2684 117.367 79.2559 119.536 82.5991 120.942C85.9424 122.348 89.5536 122.953 93.1585 122.712C96.7635 122.47 100.267 121.388 103.404 119.547C106.541 117.707 109.229 115.156 111.263 112.09L154.48 47.0679C155.825 44.9269 156.303 42.331 155.811 39.8336C155.319 37.3362 153.897 35.1349 151.848 33.6991C149.799 32.2632 147.284 31.7065 144.841 32.1475C142.398 32.5885 140.219 33.9924 138.769 36.0599C121.927 61.4042 105.038 86.715 88.1003 111.992V112.008Z" fill="url(#paint0_linear_61_111)"/>
<path d="M45.8179 81.1013L53.1899 69.9793C56.5827 64.8824 63.3364 62.7004 67.3792 67.2762C68.4097 68.4486 69.3609 69.7513 70.1853 71.1843L87.5453 100.837C87.9117 101.468 88.4117 102.005 89.0082 102.41C89.6047 102.815 90.2823 103.076 90.9907 103.175C91.6991 103.273 92.42 103.206 93.0998 102.979C93.7796 102.752 94.4008 102.371 94.9173 101.863L88.1002 112.008C84.6757 117.105 77.8586 119.238 73.8634 114.597C72.9122 113.474 72.0243 112.252 71.2475 110.901L53.8717 81.2641C53.4579 80.5519 52.8744 79.9597 52.1762 79.5431C51.4781 79.1266 50.6881 78.8995 49.8808 78.8832C49.0736 78.8669 48.2755 79.0619 47.5619 79.45C46.8484 79.8381 46.2427 80.4063 45.802 81.1013H45.8179Z" fill="url(#paint1_linear_61_111)"/>
<path d="M45.9448 80.9224L45.8179 81.1015L21.4188 119.662C20.0281 121.797 17.8746 123.284 15.4245 123.801C12.9743 124.317 10.4247 123.821 8.3277 122.421C6.23067 121.021 4.75497 118.829 4.22009 116.319C3.6852 113.809 4.13418 111.184 5.46982 109.012L29.8689 70.4518C31.8493 67.3228 34.5008 64.7012 37.6204 62.7879C40.74 60.8746 44.2447 59.7204 47.8658 59.4139C51.4869 59.1074 55.1283 59.6566 58.5107 61.0195C61.8932 62.3823 64.9269 64.5227 67.3792 67.2764C63.3365 62.7169 56.5827 64.8826 53.19 69.9795L45.9448 80.9224V80.9224Z" fill="url(#paint2_linear_61_111)"/>
<defs>
<linearGradient id="paint0_linear_61_111" x1="114.932" y1="77.1937" x2="114.932" y2="122.763" gradientUnits="userSpaceOnUse">
<stop stop-color="#F46837"/>
<stop offset="1" stop-color="#DD5236"/>
</linearGradient>
<linearGradient id="paint1_linear_61_111" x1="70.3597" y1="64.7764" x2="95.3162" y2="104.684" gradientUnits="userSpaceOnUse">
<stop stop-color="#7E51C2"/>
<stop offset="0.22332" stop-color="#945DD6"/>
<stop offset="0.759788" stop-color="#945DD6"/>
<stop offset="1" stop-color="#7E51C2"/>
</linearGradient>
<linearGradient id="paint2_linear_61_111" x1="35.6896" y1="91.5736" x2="35.6896" y2="124" gradientUnits="userSpaceOnUse">
<stop stop-color="#13ADC7"/>
<stop offset="1" stop-color="#1497B8"/>
</linearGradient>
</defs>
</svg>
