<svg width="160" height="128" viewBox="0 0 160 128" fill="none" xmlns="http://www.w3.org/2000/svg"><path d="M88.1003 96.0084C85.4293 99.9839 80.6944 102.156 76.8444 100.718C76.2987 100.514 75.8454 100.974 76.3021 101.335C78.1142 102.771 80.5312 104.073 82.5992 104.942C85.9424 106.348 89.5536 106.953 93.1586 106.712C96.7635 106.47 100.267 105.388 103.404 103.547C106.541 101.707 109.229 99.1565 111.263 96.0899L154.48 31.0679C155.825 28.9269 156.303 26.331 155.811 23.8336C155.319 21.3362 153.897 19.1349 151.848 17.6991C149.799 16.2632 147.284 15.7065 144.841 16.1475C142.398 16.5885 140.219 17.9924 138.769 20.0599C121.927 45.4042 105.038 70.715 88.1003 95.9922V96.0084Z" fill="#fff"/><path d="M49.5619 65.4501C49.4288 65.5225 49.067 65.2169 49.1507 65.0906L55.1899 55.9794C58.5827 50.8825 65.3364 48.7005 69.3792 53.2763C70.4097 54.4487 71.3609 55.7514 72.1853 57.1844L85.5453 82.8376C85.9117 83.468 86.4117 84.0055 87.0082 84.4102C87.6047 84.8148 88.2823 85.0761 88.9907 85.1747C89.6991 85.2733 90.42 85.2066 91.0998 84.9796C91.3494 84.8962 91.8642 85.4306 91.7174 85.6491L86.1002 94.0084C82.6757 99.1052 75.8586 101.238 71.8634 96.5975C70.9122 95.4739 70.0243 94.2526 69.2475 92.901L55.8716 67.2642C55.4579 66.552 54.8744 65.9598 54.1762 65.5432C53.478 65.1267 52.6881 64.8996 51.8808 64.8833C51.0735 64.867 50.2755 65.0621 49.5619 65.4501Z" fill="#fff"/><path d="M45.8179 65.1014L45.9448 64.9223L53.19 53.9795C55.4371 50.6037 59.1585 48.5137 62.5901 48.8119C63.1969 48.8646 63.8507 47.903 63.3422 47.5677C61.8057 46.5544 60.0802 45.6518 58.5107 45.0194C55.1283 43.6565 51.4869 43.1073 47.8658 43.4138C44.2447 43.7204 40.74 44.8745 37.6204 46.7878C34.5008 48.7011 31.8493 51.3228 29.8689 54.4517L5.46982 93.0122C4.13418 95.1843 3.6852 97.8093 4.22009 100.319C4.75497 102.829 6.23067 105.021 8.3277 106.421C10.4247 107.821 12.9743 108.317 15.4245 107.801C17.8746 107.284 20.0281 105.797 21.4188 103.662L45.8179 65.1014Z" fill="#fff"/></svg>