<svg width="160" height="128" viewBox="0 0 160 128" fill="none" xmlns="http://www.w3.org/2000/svg">
<path d="M88.1002 96.0084C84.6758 101.105 77.8586 103.239 73.8635 98.5976C76.2684 101.367 79.2558 103.536 82.5991 104.942C85.9424 106.348 89.5535 106.953 93.1585 106.712C96.7634 106.47 100.267 105.388 103.404 103.547C106.541 101.707 109.229 99.1565 111.263 96.0899L154.48 31.0679C155.825 28.9269 156.303 26.331 155.811 23.8336C155.319 21.3362 153.897 19.1349 151.848 17.6991C149.799 16.2632 147.284 15.7065 144.841 16.1475C142.398 16.5885 140.219 17.9924 138.769 20.0599C121.927 45.4042 105.038 70.715 88.1002 95.9922V96.0084Z" fill="url(#paint0_linear_61_172)"/>
<path d="M45.8179 65.1014L53.19 53.9794C56.5827 48.8825 63.3365 46.7005 67.3792 51.2763C68.4097 52.4487 69.3609 53.7514 70.1853 55.1844L87.5453 84.8375C87.9117 85.468 88.4117 86.0055 89.0082 86.4102C89.6047 86.8148 90.2824 87.0761 90.9907 87.1747C91.6991 87.2733 92.42 87.2066 93.0998 86.9795C93.7796 86.7525 94.4009 86.371 94.9174 85.8634L88.1002 96.0084C84.6758 101.105 77.8586 103.238 73.8634 98.5975C72.9122 97.4739 72.0244 96.2526 71.2475 94.901L53.8717 65.2642C53.4579 64.552 52.8745 63.9598 52.1763 63.5432C51.4781 63.1267 50.6881 62.8996 49.8809 62.8833C49.0736 62.867 48.2756 63.0621 47.562 63.4501C46.8484 63.8382 46.2427 64.4064 45.8021 65.1014H45.8179Z" fill="url(#paint1_linear_61_172)"/>
<path d="M45.9448 64.9224L45.8179 65.1015L21.4188 103.662C20.0281 105.797 17.8746 107.284 15.4245 107.801C12.9743 108.317 10.4247 107.821 8.3277 106.421C6.23067 105.021 4.75497 102.829 4.22009 100.319C3.6852 97.8094 4.13418 95.1844 5.46982 93.0122L29.8689 54.4517C31.8493 51.3228 34.5008 48.7012 37.6204 46.7879C40.74 44.8746 44.2447 43.7204 47.8658 43.4139C51.4869 43.1074 55.1283 43.6566 58.5107 45.0195C61.8932 46.3823 64.9269 48.5227 67.3792 51.2764C63.3365 46.7169 56.5827 48.8826 53.19 53.9795L45.9448 64.9224V64.9224Z" fill="url(#paint2_linear_61_172)"/>
<defs>
<linearGradient id="paint0_linear_61_172" x1="114.932" y1="61.1937" x2="114.932" y2="106.763" gradientUnits="userSpaceOnUse">
<stop stop-color="#F46837"/>
<stop offset="1" stop-color="#DD5236"/>
</linearGradient>
<linearGradient id="paint1_linear_61_172" x1="70.3597" y1="48.7765" x2="95.3162" y2="88.6844" gradientUnits="userSpaceOnUse">
<stop stop-color="#7E51C2"/>
<stop offset="0.22332" stop-color="#945DD6"/>
<stop offset="0.759788" stop-color="#945DD6"/>
<stop offset="1" stop-color="#7E51C2"/>
</linearGradient>
<linearGradient id="paint2_linear_61_172" x1="35.6896" y1="75.5736" x2="35.6896" y2="108" gradientUnits="userSpaceOnUse">
<stop stop-color="#13ADC7"/>
<stop offset="1" stop-color="#1497B8"/>
</linearGradient>
</defs>
</svg>
