<svg width="160" height="160" viewBox="0 0 160 160" fill="none" xmlns="http://www.w3.org/2000/svg">
<path d="M88.1003 112.008C85.4293 115.984 80.6944 118.156 76.8444 116.718C76.2987 116.514 75.8454 116.974 76.3021 117.335C78.1142 118.771 80.5312 120.073 82.5992 120.942C85.9424 122.348 89.5536 122.953 93.1586 122.712C96.7635 122.47 100.267 121.388 103.404 119.547C106.541 117.707 109.229 115.156 111.263 112.09L154.48 47.0679C155.825 44.9269 156.303 42.331 155.811 39.8336C155.319 37.3362 153.897 35.1349 151.848 33.6991C149.799 32.2632 147.284 31.7065 144.841 32.1475C142.398 32.5885 140.219 33.9924 138.769 36.0599C121.927 61.4042 105.038 86.715 88.1003 111.992V112.008Z" fill="white"/>
<path d="M49.5619 81.4501C49.4288 81.5225 49.067 81.2169 49.1507 81.0906L55.1899 71.9794C58.5827 66.8825 65.3364 64.7005 69.3792 69.2763C70.4097 70.4487 71.3609 71.7514 72.1853 73.1844L85.5453 98.8376C85.9117 99.468 86.4117 100.006 87.0082 100.41C87.6047 100.815 88.2823 101.076 88.9907 101.175C89.6991 101.273 90.42 101.207 91.0998 100.98C91.3494 100.896 91.8642 101.431 91.7174 101.649L86.1002 110.008C82.6757 115.105 75.8586 117.238 71.8634 112.598C70.9122 111.474 70.0243 110.253 69.2475 108.901L55.8716 83.2642C55.4579 82.552 54.8744 81.9598 54.1762 81.5432C53.478 81.1267 52.6881 80.8996 51.8808 80.8833C51.0735 80.867 50.2755 81.0621 49.5619 81.4501Z" fill="white"/>
<path d="M45.8179 81.1014L45.9448 80.9223L53.19 69.9795C55.4371 66.6037 59.1585 64.5137 62.5901 64.8119C63.1969 64.8646 63.8507 63.903 63.3422 63.5677C61.8057 62.5544 60.0802 61.6518 58.5107 61.0194C55.1283 59.6565 51.4869 59.1073 47.8658 59.4138C44.2447 59.7204 40.74 60.8745 37.6204 62.7878C34.5008 64.7011 31.8493 67.3228 29.8689 70.4517L5.46982 109.012C4.13418 111.184 3.6852 113.809 4.22009 116.319C4.75497 118.829 6.23067 121.021 8.3277 122.421C10.4247 123.821 12.9743 124.317 15.4245 123.801C17.8746 123.284 20.0281 121.797 21.4188 119.662L45.8179 81.1014Z" fill="white"/>
</svg>
