<svg fill="none" height="48" viewBox="0 0 81 48" width="81" xmlns="http://www.w3.org/2000/svg" xmlns:xlink="http://www.w3.org/1999/xlink"><linearGradient id="a" gradientUnits="userSpaceOnUse" x1="31.008" x2="57.3479" y1="8.5856" y2="34.5834"><stop offset="0" stop-color="#f46837"/><stop offset=".5202" stop-color="#945dd6"/><stop offset="1" stop-color="#13adc7"/></linearGradient><linearGradient id="b" gradientUnits="userSpaceOnUse" x1="25.0078" x2="42.2301" y1="24.2896" y2="41.2881"><stop offset="0" stop-color="#f46837"/><stop offset=".5827" stop-color="#945dd6"/><stop offset="1" stop-color="#7e51c2"/></linearGradient><linearGradient id="c" gradientUnits="userSpaceOnUse" x1="54.4664" x2="64.1328" y1="20.8491" y2="11.3082"><stop offset="0" stop-color="#1497b8"/><stop offset=".4525" stop-color="#13adc7"/></linearGradient><path d="m50.4581 16.6582c-6.0776-6.0317-14.7677-14.6582-25.7355-14.6582-11.9396 0-21.62861 9.2023-21.71461 21.2764-.0004.054 0 .4525 0 .5066h9.50001c0-.0648-.001-.442 0-.5066.1023-6.741 5.5328-11.6513 12.2146-11.6513 6.0919 0 9.4826 3.1778 22.747 15.6118 2.0108 1.8849 4.0295 3.7593 6.0483 5.6338 3.1255 2.9012 5.7499 5.3379 11.4665 5.3379 7.7449 0 14.0236-6.5788 14.0236-14.4256v-.5066h-9.5v.5066c0 1.2155-.4766 2.5987-1.325 3.4582-.8483.8595-1.9989 1.3424-3.1986 1.3424-3.1469 0-7.5098-4.6545-10.583-7.9327-1.2809-1.3675-2.6149-2.6733-3.9433-3.9927z" fill="url(#a)"/><path d="m44.0114 24.0004c1.0735 1.0018 2.223 2.079 3.458 3.2364 1.2218 1.1446 2.446 2.2868 3.6725 3.4265l-.684.6786c-6.0768 6.0317-14.7677 14.6581-25.7355 14.6581-11.993 0-21.71459-10.0678-21.71459-22.217v-.5066h9.49999v.5066c0 6.8338 5.4688 12.5928 12.2146 12.5928 5.5251 0 8.8271-2.6148 19.289-12.3754z" fill="url(#b)"/><path d="m57.6426 24.0005c-1.1574-1.127-2.2642-2.3076-3.2411-3.3495-1.06-1.131-2.1557-2.2202-3.2545-3.3094l.9444-.904c.494-.4411.9659-.8799 1.4274-1.3074 3.1247-2.9019 5.7491-5.3387 11.4657-5.3387 7.4932 0 14.0236 6.3928 14.0236 13.485v.5065h-9.5v-.5065c0-3.0395-3.2357-3.8591-4.5236-3.8591-2.147 0-4.8592 2.1648-7.3419 4.5831z" fill="url(#c)"/></svg>