<svg fill="none" height="50" viewBox="0 0 79 50" width="79" xmlns="http://www.w3.org/2000/svg" xmlns:xlink="http://www.w3.org/1999/xlink"><linearGradient id="a" gradientUnits="userSpaceOnUse" x1="31.5897" x2="31.5897" y1="30.7524" y2="47.8381"><stop offset="0" stop-color="#7e51c2"/><stop offset="1" stop-color="#945dd6"/></linearGradient><linearGradient id="b" gradientUnits="userSpaceOnUse" x1="61.2454" x2="61.2454" y1="20.0237" y2="37.996"><stop offset="0" stop-color="#f46837"/><stop offset="1" stop-color="#dd5236"/></linearGradient><linearGradient id="c" gradientUnits="userSpaceOnUse" x1="17.2533" x2="17.2533" y1="20.0507" y2="38.0118"><stop offset="0" stop-color="#13adc7"/><stop offset="1" stop-color="#1497b8"/></linearGradient><path d="m47.3567 14.181-8.2163 16.8857h-.3328l-8.7676-18.0667c1.0004 2.3095 1.5971 4.749 1.7681 7.2286.3328 3.6-.7488 6.8476-2.8081 9.7143l8.7363 17.4857c.2185.3809.5201.5714.9361.5714h.52c.4056 0 .7072-.181.9256-.5619l8.882-17.6952c-1.8521-2.8338-2.793-6.0888-2.7145-9.3905 0-2.1905.3432-4.2667 1.0608-6.1714z" fill="url(#a)"/><path d="m51.1393 32.789c-3.5077-3.4936-5.1383-7.7201-5.1383-12.7177 0-5.0167 1.6116-9.2623 5.1383-12.78438 1.6593-1.71639 3.6528-3.07128 5.8564-3.98022 2.2035-.90895 4.5699-1.35248 6.9516-1.30297 4.4894-.06609 8.8329 1.60007 12.1349 4.65492.5119.47596.5214.95192.0569 1.39933l-3.9059 4.05522c-.4361.3903-.8628.3903-1.2609 0-1.8562-1.6828-4.278-2.59766-6.7785-2.5607-1.3187-.02831-2.628.22914-3.8386.7548-1.2106.5257-2.2942 1.3072-3.1769 2.2914-.9014.9717-1.6024 2.1129-2.0629 3.3578-.4604 1.2448-.6712 2.5689-.62 3.8958-.0654 1.9872.4655 3.9482 1.5238 5.6286 1.0582 1.6805 2.595 3.0028 4.4109 3.7955 1.2085.509 2.5105.7555 3.8206.7234 2.4459.0572 4.835-.7996 6.7216-2.3988.4645-.3998.9006-.3808 1.2988.0476l3.9154 4.1504c.4361.4379.4171.8853-.0474 1.3517-1.6093 1.581-3.5164 2.8238-5.6098 3.6558-2.0934.8319-4.3311 1.2363-6.582 1.1895-2.376.0508-4.7373-.3856-6.9395-1.2825-2.2023-.897-4.1991-2.2356-5.8685-3.934z" fill="url(#b)"/><path d="m2.0025 37.0103v-34.02416c-.00318-.12956.02063-.25837.06992-.37824s.12298-.22819.21639-.31808c.07677-.08943.17192-.16128.27896-.21066.10705-.04938.22349-.07513.34138-.0755h12.15865c4.9914.38155 8.7134 1.81233 12.1301 5.32253 3.4453 3.51971 4.81 7.50691 5.249 12.64811.42 4.941-1.5938 9.2143-5.02 12.7341-1.5861 1.6949-3.5066 3.0428-5.6403 3.9585-2.1213.9105-4.4103 1.3654-6.7188 1.3354h-12.15865c-.1194.0003-.23748-.025-.34618-.0744-.10871-.0494-.20547-.1216-.2837-.2118-.09169-.0907-.16361-.1994-.21124-.3192-.04763-.1199-.06994-.2482-.06553-.3771zm7.77812-25.7542v19.1344h4.78138c1.3103.0307 2.6116-.2229 3.8143-.7432 1.2028-.5204 2.2783-1.2952 3.1526-2.271 1.8461-2.0203 2.8379-4.6764 2.7677-7.4115 0-2.9188-.9353-5.3798-2.7677-7.3924-.8779-.9714-1.9541-1.7431-3.156-2.2631-1.2019-.51999-2.5014-.77612-3.8109-.75108h-4.77183v1.69788z" fill="url(#c)"/></svg>