<svg fill="none" height="58" viewBox="0 0 65 58" width="65" xmlns="http://www.w3.org/2000/svg" xmlns:xlink="http://www.w3.org/1999/xlink"><linearGradient id="a" gradientUnits="userSpaceOnUse" x1="26.7913" x2="12.407" y1="50.8502" y2="26.496"><stop offset="0" stop-color="#7e51c2"/><stop offset=".176" stop-color="#945dd6"/><stop offset="1" stop-color="#13adc7"/></linearGradient><linearGradient id="b" gradientUnits="userSpaceOnUse" x1="34.388" x2="40.304" y1="42.8969" y2="49.7336"><stop offset="0" stop-color="#f46837"/><stop offset="1" stop-color="#dd5236"/></linearGradient><path d="m55.2101 6.10109c-1.0742-4.03372-5.979-5.457454-8.9825-2.60592l-12.051 11.43463c-.5773.5476-1.3367.8519-2.1254.8519s-1.5481-.3043-2.1254-.8519l-12.051-11.43565c-3.0035-2.850514-7.90736-1.42577-8.98254 2.60694l-5.05986 18.98341c-2.77047 10.3931 1.61027 21.3916 10.7088 26.8919 4.1154 2.487 8.7819 3.8712 13.5643 4.0235 3.039.0915 9.9812-6.1953 9.9827-9.2598-.0005-.0659-.0149-.1309-.0423-.1905-.0274-.0597-.0671-.1126-.1163-.1553-.0493-.0426-.1069-.074-.1691-.0919s-.1275-.0219-.1914-.0118c-.9331.1407-1.8783.212-2.8284.212h-5.747c-3.4052-.0001-6.7477-.934-9.6767-2.7038-2.6701-1.6121-4.7479-4.0719-5.9149-7.0024-1.167-2.9304-1.3588-6.17-.5462-9.2222l2.6915-10.1006c.0705-.264.2068-.5049.3955-.6995.1888-.1946.4237-.3362.6819-.4111.2583-.075.5311-.0807.7922-.0166.261.064.5014.1957.6978.3822l5.4349 5.1568c4.7879 4.5433 12.2151 4.5433 17.0029 0l5.436-5.1568c.1964-.1863.4366-.3177.6974-.3817.2609-.064.5335-.0583.7916.0165s.4928.2162.6816.4105c.1887.1943.325.435.3958.6987l2.5974 9.746c.1601.6002.2801 1.2035.3641 1.8069.0499.3376.1887.6551.4016.9187.213.2637.4921.4635.8076.5784 1.691.6273 3.2037 1.6705 4.4038 3.037 1.0691 1.2179 3.6756 1.0823 3.8036-.5452.2188-2.7858-.0377-5.5891-.7581-8.2856l-4.9649-18.62669z" fill="url(#a)"/><path d="m41.5574 41.3857c0-3.1786 2.9829-6.1555 6.8941-6.1555 2.9485 0 5.3629 2.3519 5.3629 5.7698 0 3.417-2.4144 5.7688-5.3629 5.7688-.6032-.0005-1.2006.1184-1.7581.3501s-1.0641.5716-1.491 1.0002c-.4268.4286-.7655.9376-.9968 1.4978-.2312.5603-.3504 1.1609-.3508 1.7675.0005.6065.1198 1.207.3511 1.7671.2313.5602.57 1.0691.9969 1.4976.4268.4285.9334.7682 1.4909.9999.5574.2316 1.1547.3505 1.7578.35 8.4746 0 14.5553-6.9466 14.5553-14.999 0-8.0533-6.0807-15-14.5553-15-8.0546 0-16.0875 6.2207-16.0875 15.3847v8.4608c-.0005 1.3006-.4106 2.5676-1.1713 3.6194-.7608 1.0518-1.8332 1.8344-3.0635 2.2354-.1721.0554-.1603.2997.0206.2997h1.9158c6.3463 0 11.4909-5.1665 11.4909-11.5385v-3.0768z" fill="url(#b)"/></svg>