<svg fill="none" height="50" viewBox="0 0 80 50" width="80" xmlns="http://www.w3.org/2000/svg" xmlns:xlink="http://www.w3.org/1999/xlink"><linearGradient id="a" gradientUnits="userSpaceOnUse" x1="57.4661" x2="57.4661" y1="24.5972" y2="47.3822"><stop offset="0" stop-color="#f46837"/><stop offset="1" stop-color="#dd5236"/></linearGradient><linearGradient id="b" gradientUnits="userSpaceOnUse" x1="35.1804" x2="47.6584" y1="18.3879" y2="38.3419"><stop offset="0" stop-color="#7e51c2"/><stop offset=".223" stop-color="#945dd6"/><stop offset=".76" stop-color="#945dd6"/><stop offset="1" stop-color="#7e51c2"/></linearGradient><linearGradient id="c" gradientUnits="userSpaceOnUse" x1="17.8454" x2="17.8454" y1="31.787" y2="48"><stop offset="0" stop-color="#13adc7"/><stop offset="1" stop-color="#1497b8"/></linearGradient><path d="m44.0501 42.0042c-1.712 2.549-5.12 3.615-7.118 1.295 1.1935 1.3779 2.6876 2.4631 4.367 3.172 1.6683.703 3.4779 1.0061 5.2842.8851 1.8063-.1211 3.5592-.6629 5.1188-1.5821 1.5768-.9281 2.921-2.2038 3.93-3.73l21.608-32.50902c.674-1.07709.9121-2.37051.666-3.617-.2401-1.24009-.9502-2.33936-1.982-3.068-.5036-.35473-1.0727-.60598-1.6742-.73918-.6015-.13321-1.2234-.14572-1.8298-.03682-1.23.22636-2.3207.92936-3.035 1.956-8.4207 12.67152-16.8657 25.32682-25.335 37.96602z" fill="url(#a)"/><path d="m22.9094 26.5499 3.686-5.56c1.696-2.549 5.073-3.64 7.094-1.352.516.586.991 1.238 1.404 1.954l8.68 14.827c.183.315.433.584.731.786.2958.2024.6345.3334.9895.3829.355.0494.7166.0159 1.0565-.0979.34-.114.65-.304.909-.558l-3.409 5.072c-1.712 2.549-5.12 3.615-7.118 1.295-.4911-.5751-.9289-1.1937-1.308-1.848l-8.688-14.819c-.2051-.354-.497-.65-.848-.86-.3474-.2075-.7428-.3209-1.1473-.3292-.4045-.0082-.8042.089-1.1597.2822-.357.194-.66.478-.88.826h.008z" fill="url(#b)"/><path d="m22.9724 26.461-.063.09-12.2 19.28c-.3389.5251-.77805.9782-1.29232 1.3334s-1.09354.6055-1.70466.7366c-1.225.257-2.5.01-3.548-.69-1.05576-.7108-1.79265-1.8054-2.054-3.051-.26787-1.2531-.04413-2.5612.625-3.654l12.19998-19.28c.982-1.5566 2.3076-2.8675 3.875-3.832 1.5499-.9559 3.3027-1.5339 5.1171-1.6875 1.8144-.1535 3.6395.1217 5.3279.8035 1.6996.6869 3.2175 1.7575 4.435 3.128-2.022-2.28-5.399-1.197-7.095 1.352z" fill="url(#c)"/></svg>