<svg fill="none" height="64" viewBox="0 0 182 64" width="182" xmlns="http://www.w3.org/2000/svg" xmlns:xlink="http://www.w3.org/1999/xlink"><linearGradient id="a" gradientUnits="userSpaceOnUse" x1="32.008" x2="58.3479" y1="16.4438" y2="42.4416"><stop offset="0" stop-color="#f46837"/><stop offset=".5202" stop-color="#945dd6"/><stop offset="1" stop-color="#13adc7"/></linearGradient><linearGradient id="b" gradientUnits="userSpaceOnUse" x1="26.0078" x2="43.2301" y1="32.1477" y2="49.1462"><stop offset="0" stop-color="#f46837"/><stop offset=".5827" stop-color="#945dd6"/><stop offset="1" stop-color="#7e51c2"/></linearGradient><linearGradient id="c" gradientUnits="userSpaceOnUse" x1="55.4664" x2="65.1328" y1="28.7073" y2="19.1664"><stop offset="0" stop-color="#1497b8"/><stop offset=".4525" stop-color="#13adc7"/></linearGradient><path d="m51.4581 24.5164c-6.0776-6.0317-14.7677-14.65825-25.7355-14.65825-11.9396 0-21.62861 9.20235-21.71461 21.27645-.0004.054 0 .4525 0 .5066h9.50001c0-.0648-.001-.442 0-.5066.1023-6.741 5.5328-11.6513 12.2146-11.6513 6.0919 0 9.4826 3.1778 22.747 15.6118 2.0108 1.8849 4.0295 3.7593 6.0483 5.6338 3.1255 2.9012 5.7499 5.3379 11.4665 5.3379 7.7449 0 14.0236-6.5788 14.0236-14.4256v-.5066h-9.5v.5066c0 1.2155-.4766 2.5987-1.325 3.4582-.8483.8595-1.9989 1.3424-3.1986 1.3424-3.1469 0-7.5098-4.6545-10.583-7.9327-1.2809-1.3675-2.6149-2.6733-3.9433-3.9927z" fill="url(#a)"/><path d="m45.0114 31.8585c1.0735 1.0018 2.223 2.079 3.458 3.2364 1.2218 1.1447 2.446 2.2869 3.6725 3.4265l-.684.6786c-6.0768 6.0317-14.7677 14.6581-25.7355 14.6581-11.993 0-21.71459-10.0678-21.71459-22.217v-.5066h9.49999v.5066c0 6.8338 5.4688 12.5928 12.2146 12.5928 5.5251 0 8.8271-2.6148 19.289-12.3754z" fill="url(#b)"/><path d="m58.6426 31.8587c-1.1574-1.127-2.2642-2.3076-3.2411-3.3495-1.06-1.131-2.1557-2.2202-3.2545-3.3094l.9444-.904c.494-.4411.9659-.8799 1.4274-1.3074 3.1247-2.9019 5.7491-5.3387 11.4657-5.3387 7.4932 0 14.0236 6.3928 14.0236 13.485v.5065h-9.5v-.5065c0-3.0395-3.2357-3.8591-4.5236-3.8591-2.147 0-4.8592 2.1648-7.3419 4.5831z" fill="url(#c)"/><path d="m108.543 45.8582c-1.852 0-3.549-.2411-5.092-.7329-1.497-.4861-2.858-1.3187-3.9728-2.4301-1.08-1.1089-1.9286-2.5361-2.5458-4.2815-.6655-2.0673-.9784-4.2319-.9257-6.403v-.7329c0-2.3626.3182-4.3972.9643-6.0944s1.5332-3.0858 2.6615-4.1658c1.1315-1.0805 2.4885-1.8971 3.9725-2.3915 3.031-.9383 6.262-1.0184 9.335-.2315 1.389.3568 2.604.9258 3.626 1.6972 1.06.7715 1.899 1.7743 2.546 3.0087.678 1.3223 1.078 2.7696 1.176 4.2526.01.1446-.096.2603-.241.2603h-6.712c-.056-.0006-.11-.0199-.153-.0549-.044-.0349-.075-.0835-.088-.1379-.104-.5677-.299-1.1148-.578-1.6201-.29-.5111-.627-.9257-1.042-1.2343-.858-.6032-1.882-.9266-2.931-.9257-.772 0-1.495.1446-2.16.4243-.646.2603-1.206.6943-1.698 1.3114-.518.7064-.898 1.5048-1.118 2.3529-.261.974-.386 2.1601-.386 3.5487v.81c0 1.4947.145 2.7483.424 3.7801.309 1.0029.704 1.8322 1.196 2.4686.482.6172 1.061 1.0608 1.697 1.3501.646.2603 1.321.3857 2.045.3857 1.311 0 2.353-.3086 3.124-.9257.82-.7293 1.334-1.7424 1.437-2.8351.009-.058.038-.111.082-.1497.044-.0388.1-.0609.159-.0625h6.712c.135 0 .241.1158.231.2508-.116 1.6972-.482 3.1243-1.099 4.3008-.581 1.1907-1.441 2.2231-2.508 3.0086-1.031.7715-2.237 1.3404-3.625 1.6972-1.389.3375-2.893.5015-4.513.5015zm15.814-27.2611c0-.135.106-.241.241-.241h6.712c.096 0 .174.0482.212.1253l7.204 13.1821c.096.164.327.164.424 0l7.126-13.1821c.021-.038.052-.0697.089-.0918s.08-.0337.123-.0335h6.558c.135 0 .241.106.241.241v26.5185c0 .135-.106.2411-.241.2411h-6.461c-.064 0-.126-.0254-.171-.0706s-.07-.1065-.07-.1705v-14.2717c0-.2604-.338-.3472-.454-.1254l-5.072 9.3152c-.021.0381-.051.0698-.089.0919-.037.022-.08.0336-.123.0335h-3.568c-.043.0001-.086-.0115-.123-.0335-.038-.0221-.068-.0538-.089-.0919l-5.072-9.3056c-.126-.2217-.454-.135-.454.1158v14.2814c0 .135-.106.2411-.241.2411h-6.461c-.064 0-.125-.0254-.17-.0707-.045-.0452-.071-.1065-.071-.1704zm34.31 0c0-.135.116-.241.242-.241h6.46c.135 0 .241.106.241.241v20.8098c0 .135.116.2411.242.2411h11.089c.135 0 .241.1061.241.2411v5.2265c0 .135-.096.2411-.241.2411h-18.032c-.064 0-.126-.0254-.171-.0706s-.071-.1065-.071-.1705z" fill="#2e3137"/></svg>