<svg width="40" height="40" viewBox="0 0 24 24" fill="none" xmlns="http://www.w3.org/2000/svg"><path d="M19.398 4.394c-.358-1.371-1.993-1.855-2.994-.886l-4.016 3.888a1.011 1.011 0 0 1-1.417 0L6.955 3.508c-1.001-.969-2.636-.485-2.994.886l-1.686 6.455c-.924 3.534.536 7.273 3.569 9.143a9.177 9.177 0 0 0 4.52 1.368.08.08 0 0 0 .081-.082c0-.03.016-.057.04-.071l1.72-1.02a.584.584 0 0 1 .121-.054c.81-.26 1.365-1.037 1.365-1.921a.152.152 0 0 0-.173-.153 6.205 6.205 0 0 1-.943.072H10.66a6.14 6.14 0 0 1-3.225-.92c-1.83-1.128-2.71-3.384-2.153-5.516l.897-3.434a.513.513 0 0 1 .855-.253L8.846 9.76a4.044 4.044 0 0 0 5.667 0l1.811-1.753a.513.513 0 0 1 .855.253l.866 3.313c.053.204.094.41.122.615.031.233.19.428.402.509a3.637 3.637 0 0 1 1.468 1.032c.357.414 1.225.368 1.268-.185a8.54 8.54 0 0 0-.253-2.817l-1.654-6.334Z" fill="url(#a)"/><path d="M14.73 16.244c0-1.113 1.011-2.156 2.337-2.156.999 0 1.817.824 1.817 2.022 0 1.197-.818 2.021-1.817 2.021-.86 0-1.558.724-1.558 1.617s.697 1.617 1.558 1.617c2.872 0 4.933-2.434 4.933-5.255 0-2.822-2.061-5.256-4.933-5.256-2.73 0-5.453 2.18-5.453 5.39v2.965c0 .958-.602 1.77-1.435 2.051-.059.02-.055.105.007.105h.649c2.15 0 3.895-1.81 3.895-4.042v-1.079Z" fill="url(#b)"/><defs><linearGradient id="a" x1="9.926" y1="19.609" x2="4.989" y2="11.415" gradientUnits="userSpaceOnUse"><stop stop-color="#7E51C2"/><stop offset=".176" stop-color="#945DD6"/><stop offset="1" stop-color="#13ADC7"/></linearGradient><linearGradient id="b" x1="16.152" y1="14.088" x2="14.875" y2="19.176" gradientUnits="userSpaceOnUse"><stop stop-color="#F46837"/><stop offset="1" stop-color="#DD5236"/></linearGradient></defs></svg>