<svg fill="none" height="64" viewBox="0 0 226 64" width="226" xmlns="http://www.w3.org/2000/svg" xmlns:xlink="http://www.w3.org/1999/xlink"><linearGradient id="a" gradientUnits="userSpaceOnUse" x1="59.4661" x2="59.4661" y1="31.4675" y2="53.7677"><stop offset="0" stop-color="#f46837"/><stop offset="1" stop-color="#dd5236"/></linearGradient><linearGradient id="b" gradientUnits="userSpaceOnUse" x1="37.1804" x2="49.2762" y1="25.3903" y2="45.1537"><stop offset="0" stop-color="#7e51c2"/><stop offset=".223" stop-color="#945dd6"/><stop offset=".76" stop-color="#945dd6"/><stop offset="1" stop-color="#7e51c2"/></linearGradient><linearGradient id="c" gradientUnits="userSpaceOnUse" x1="19.8454" x2="19.8454" y1="38.5042" y2="54.3723"><stop offset="0" stop-color="#13adc7"/><stop offset="1" stop-color="#1497b8"/></linearGradient><path d="m46.0501 48.5041c-1.712 2.4948-5.12 3.5381-7.118 1.2675 1.1935 1.3486 2.6876 2.4107 4.367 3.1045 1.6683.688 3.4779.9847 5.2842.8662 1.8063-.1184 3.5592-.6487 5.1188-1.5484 1.5768-.9083 2.921-2.1569 3.93-3.6506l21.608-31.8174c.674-1.0541.9121-2.32.666-3.54-.2401-1.2137-.9502-2.2896-1.982-3.0027-.5036-.3472-1.0727-.5931-1.6742-.72347s-1.2234-.14262-1.8298-.03604c-1.23.22155-2.3207.90961-3.035 1.91441-8.4207 12.4019-16.8657 24.788-25.335 37.1582z" fill="url(#a)"/><path d="m24.9094 33.3787 3.686-5.4417c1.696-2.4948 5.073-3.5626 7.094-1.3233.516.5736.991 1.2117 1.404 1.9125l8.68 14.5115c.183.3083.433.5716.731.7693.2958.1981.6345.3263.9895.3747s.7166.0156 1.0565-.0958c.34-.1116.65-.2975.909-.5461l-3.409 4.9641c-1.712 2.4947-5.12 3.538-7.118 1.2674-.4911-.5629-.9289-1.1683-1.308-1.8087l-8.688-14.5037c-.2051-.3464-.497-.6361-.848-.8417-.3474-.203-.7428-.314-1.1473-.3221s-.8042.0871-1.1597.2761c-.357.1899-.66.4679-.88.8085h.008z" fill="url(#b)"/><path d="m24.9724 33.2916-.063.088-12.2 18.8698c-.3389.514-.7781.9575-1.2923 1.3051-.5143.3477-1.0936.5926-1.70468.7209-1.225.2515-2.5.0098-3.548-.6753-1.05576-.6957-1.79265-1.767-2.054-2.9861-.26787-1.2264-.04413-2.5067.625-3.5763l12.19998-18.8698c.982-1.5234 2.3076-2.8064 3.875-3.7504 1.5499-.9355 3.3027-1.5012 5.1171-1.6515s3.6395.119 5.3279.7863c1.6996.6724 3.2175 1.7201 4.435 3.0614-2.022-2.2315-5.399-1.1715-7.095 1.3233z" fill="url(#c)"/><path d="m106.6 47.5061c-1.84 0-3.426-.1755-4.757-.5358-1.161-.3185-2.2539-.8378-3.2278-1.5334-.7678-.5818-1.3987-1.3186-1.8498-2.1602-.4511-.8415-.7119-1.7683-.7646-2.7173-.0027-.0314.0015-.063.0122-.0927.0108-.0298.0279-.0569.0502-.0796.0224-.0228.0494-.0406.0793-.0523s.0621-.017.0943-.0155h6.1062c.104 0 .199.0739.236.1755.189.5542.538 1.0438 1.048 1.4503.566.4434 1.557.6558 2.973.6558 1.444 0 2.482-.1847 3.105-.5819.652-.388.972-.8961.972-1.5335 0-.2494-.066-.4711-.207-.6651-.205-.2693-.488-.4721-.812-.5819-.368-.194-.878-.3695-1.529-.545-.651-.1663-1.482-.3326-2.501-.4989-1.19-.1786-2.369-.4254-3.53-.739-1.016-.2689-1.988-.6763-2.8881-1.2101-.7807-.5164-1.4324-1.1984-1.9066-1.9953-.4856-.9405-.7195-1.9861-.6796-3.0392 0-.9607.2266-1.8659.6796-2.6973.4752-.8563 1.1433-1.5955 1.9537-2.1616.878-.6097 1.925-1.0808 3.143-1.4134 1.246-.3602 2.643-.5357 4.2-.5357 1.756 0 3.228.2032 4.417.6189 1.098.3478 2.11.9139 2.973 1.6627.736.625 1.317 1.4052 1.699 2.2817.34.7852.557 1.5704.661 2.3741.009.1293-.094.2494-.236.2494h-6.097c-.055-.0006-.108-.0192-.151-.0526-.042-.0335-.073-.08-.085-.1322-.164-.5988-.539-1.122-1.057-1.478-.619-.4302-1.366-.6478-2.124-.6189-1.302 0-2.208.1848-2.718.582-.472.3787-.717.8406-.717 1.3671 0 .582.396 1.0439 1.189 1.3672.793.3141 2.048.5727 3.775.7944 1.227.1663 2.379.4065 3.492.7113 1.095.3048 2.058.7298 2.879 1.284.849.5266 1.51 1.2009 2.001 2.0323.472.8129.717 1.7921.717 2.956 0 2.1062-.906 3.8243-2.718 5.1546-1.784 1.3024-4.417 1.9491-7.9 1.9491zm23.351-.2864c-1.416 0-2.643-.1201-3.653-.3695-.938-.2342-1.801-.6947-2.511-1.3394-.679-.655-1.176-1.469-1.444-2.3648-.339-1.1903-.498-2.4227-.472-3.6581v-9.0805c0-.0597-.023-.1171-.065-.1601-.043-.0431-.1-.0685-.161-.0709h-2.294c-.062 0-.122-.0243-.167-.0676-.044-.0433-.069-.1021-.069-.1633v-4.7758c0-.1293.114-.231.236-.231h2.294c.132 0 .236-.1016.236-.2309v-4.5264c0-.1293.104-.2309.236-.2309h6.069c.132 0 .236.1016.236.2309v4.5264c0 .1293.103.2309.236.2309h4.662c.132 0 .236.1017.236.231v4.7758c0 .1293-.094.2309-.236.2309h-4.662c-.063 0-.123.0244-.167.0677-.045.0433-.069.102-.069.1633v8.0366c0 1.2563.188 2.1432.594 2.6605.425.5265 1.227.7944 2.416.7944.765 0 1.529-.037 2.294-.0924.142-.0185.255.0924.255.2217v4.7758c0 .1201-.095.2217-.208.231-.472.0461-.972.0739-1.491.1016-.595.0554-1.369.0831-2.331.0831zm15.176.2864c-2.576 0-4.539-.7206-5.898-2.1616-1.36-1.4318-2.039-3.6304-2.039-6.5587v-13.6161c0-.1293.094-.231.236-.231h6.069c.122 0 .236.1017.236.231v12.6185c0 1.4318.292 2.5311.887 3.2793.623.7482 1.614 1.1177 2.973 1.1177 1.472 0 2.548-.4156 3.228-1.247.721-.8954 1.099-2.0102 1.066-3.15v-12.6185c0-.1293.095-.231.236-.231h6.069c.123 0 .236.1017.236.231v21.5697c0 .1293-.113.2309-.236.2309h-5.568c-.061-.0024-.119-.0278-.161-.0708-.042-.0431-.066-.1005-.066-.1601v-1.8937c0-.231-.349-.3326-.5-.1478-.605.7177-1.341 1.3191-2.171 1.7736-1.41.7412-2.997 1.1015-4.597 1.0438zm26.362 0c-1.473 0-2.803-.231-3.993-.7021-1.172-.4868-2.217-1.2256-3.058-2.1616-.899-1.0312-1.564-2.2369-1.953-3.5379-.48-1.6044-.71-3.2706-.68-4.9421v-.8314c0-3.5472.84-6.2446 2.511-8.1013 1.699-1.8845 4.087-2.8267 7.173-2.8267 1.274 0 2.482.2863 3.615.8683.944.4526 1.746 1.0716 2.425 1.866.151.1755.463.0739.463-.1571v-8.8772c0-.1294.104-.231.236-.231h6.069c.132 0 .236.1016.236.231v28.6364c0 .1293-.104.2309-.236.2309h-5.569c-.061-.0024-.118-.0278-.161-.0708-.042-.0431-.065-.1005-.065-.1601v-1.9584c0-.2309-.331-.3326-.472-.1478-.589.7341-1.32 1.3464-2.152 1.8013-1.342.7126-2.844 1.0842-4.37 1.0808zm1.576-5.2747c1.387 0 2.548-.4711 3.483-1.4133.963-.9422 1.444-2.2909 1.444-4.0368v-2.0785c0-1.6627-.481-2.9006-1.444-3.7319-.944-.8663-2.199-1.3314-3.492-1.2933-1.35 0-2.454.4711-3.304 1.4134-.821.9145-1.227 2.3278-1.227 4.24v.8314c0 1.9953.415 3.5102 1.265 4.5264.388.4864.885.8787 1.453 1.1463s1.192.4032 1.822.3963zm16.149-17.0617c0-.1293.104-.231.236-.231h6.069c.132 0 .236.1017.236.231v21.5697c0 .1293-.104.2309-.236.2309h-6.078c-.063 0-.123-.0243-.167-.0676-.044-.0434-.069-.1021-.069-.1633v-21.5697zm3.266-2.3094c-1.032.0602-2.048-.2669-2.841-.9145-.323-.3151-.577-.6915-.746-1.1061-.169-.4147-.249-.8588-.236-1.3049 0-.97.331-1.7552.982-2.3741.782-.6712 1.803-1.0132 2.841-.9514 1.227 0 2.152.314 2.803.9514.336.2998.601.6673.777 1.0773.176.4099.258.8524.242 1.2968 0 .9699-.339 1.7736-1.019 2.411-.651.6097-1.586.9145-2.803.9145zm17.631 24.6458c-1.577 0-3.068-.2125-4.455-.6651-1.379-.4496-2.641-1.1884-3.697-2.1649s-1.882-2.1671-2.419-3.4885c-.623-1.6038-.924-3.31-.888-5.0252v-.8314c0-1.8013.293-3.381.888-4.7389.553-1.3007 1.394-2.4649 2.463-3.4086 1.048-.9145 2.265-1.6074 3.653-2.0785 1.387-.4711 2.878-.7113 4.464-.7113s3.068.2402 4.455.7113 2.605 1.164 3.653 2.0785c1.068.9437 1.91 2.1079 2.463 3.4086.595 1.3579.897 2.9376.897 4.7389v.8314c0 1.8844-.302 3.5472-.897 4.9882-.537 1.3214-1.363 2.512-2.419 3.4885-1.057.9765-2.318 1.7154-3.697 2.1649-1.387.4711-2.869.7113-4.455.7113zm0-5.3209c1.538 0 2.708-.5357 3.53-1.6165.821-1.0808 1.227-2.5496 1.227-4.4063v-.8314c0-1.6628-.406-3.0022-1.227-4.0276-.413-.5222-.949-.9387-1.562-1.2139-.613-.2751-1.285-.4006-1.959-.3657-1.529 0-2.709.5173-3.53 1.5704-.866 1.1696-1.299 2.5937-1.227 4.0368v.8314c0 1.9121.406 3.3901 1.227 4.4432.414.5236.951.9409 1.566 1.2161s1.289.3999 1.964.3635z" fill="#2e3137"/></svg>