<svg width="180" height="64" viewBox="0 0 180 64" fill="none" xmlns="http://www.w3.org/2000/svg"><path d="M49.3567 19.181L41.1404 36.0667H40.8076L32.04 18C33.0404 20.3095 33.6371 22.749 33.8081 25.2286C34.1409 28.8286 33.0593 32.0762 31 34.9429L39.7363 52.4286C39.9548 52.8095 40.2564 53 40.6724 53H41.1924C41.598 53 41.8996 52.819 42.118 52.4381L51 34.7429C49.1479 31.9091 48.207 28.6541 48.2855 25.3524C48.2855 23.1619 48.6287 21.0857 49.3463 19.181H49.3567Z" fill="url(#paint0_linear_522_619)"/><path d="M53.1393 37.789C49.6316 34.2954 48.001 30.0689 48.001 25.0713C48.001 20.0546 49.6126 15.809 53.1393 12.2869C54.7986 10.5705 56.7921 9.21564 58.9957 8.3067C61.1992 7.39775 63.5656 6.95422 65.9473 7.00373C70.4367 6.93764 74.7802 8.6038 78.0822 11.6586C78.5941 12.1346 78.6036 12.6106 78.1391 13.058L74.2332 17.1132C73.7971 17.5035 73.3704 17.5035 72.9723 17.1132C71.1161 15.4304 68.6943 14.5155 66.1938 14.5525C64.8751 14.5242 63.5658 14.7816 62.3552 15.3073C61.1446 15.833 60.061 16.6145 59.1783 17.5987C58.2769 18.5704 57.5759 19.7116 57.1154 20.9565C56.655 22.2013 56.4442 23.5254 56.4954 24.8523C56.43 26.8395 56.9609 28.8005 58.0192 30.4809C59.0774 32.1614 60.6142 33.4837 62.4301 34.2764C63.6386 34.7854 64.9406 35.0319 66.2507 34.9998C68.6966 35.057 71.0857 34.2002 72.9723 32.601C73.4368 32.2012 73.8729 32.2202 74.2711 32.6486L78.1865 36.799C78.6226 37.2369 78.6036 37.6843 78.1391 38.1507C76.5298 39.7317 74.6227 40.9745 72.5293 41.8065C70.4359 42.6384 68.1982 43.0428 65.9473 42.996C63.5713 43.0468 61.21 42.6104 59.0078 41.7135C56.8055 40.8165 54.8087 39.4779 53.1393 37.7795V37.789Z" fill="url(#paint1_linear_522_619)"/><path d="M4.0025 42.0103V7.98614C3.99932 7.85658 4.02313 7.72777 4.07242 7.6079C4.12171 7.48803 4.1954 7.37971 4.28881 7.28982C4.36558 7.20039 4.46073 7.12854 4.56777 7.07916C4.67482 7.02978 4.79126 7.00403 4.90915 7.00366H17.0678C22.0592 7.38521 25.7812 8.81599 29.1979 12.3262C32.6432 15.8459 34.0079 19.8331 34.4469 24.9743C34.8669 29.9153 32.8531 34.1886 29.4269 37.7084C27.8408 39.4033 25.9203 40.7512 23.7866 41.6669C21.6653 42.5774 19.3763 43.0323 17.0678 43.0023H4.90915C4.78975 43.0026 4.67167 42.9773 4.56297 42.9279C4.45426 42.8785 4.3575 42.8063 4.27927 42.7161C4.18758 42.6254 4.11566 42.5167 4.06803 42.3969C4.0204 42.277 3.99809 42.1487 4.0025 42.0198V42.0103ZM11.7806 16.2561V35.3905H16.562C17.8723 35.4212 19.1736 35.1676 20.3763 34.6473C21.5791 34.1269 22.6546 33.3521 23.5289 32.3763C25.375 30.356 26.3668 27.6999 26.2966 24.9648C26.2966 22.046 25.3613 19.585 23.5289 17.5724C22.651 16.601 21.5748 15.8293 20.3729 15.3093C19.171 14.7893 17.8715 14.5332 16.562 14.5582H11.7902V16.2561H11.7806Z" fill="url(#paint2_linear_522_619)"/><path d="M98 16.739C98 16.604 98.1061 16.4979 98.2411 16.4979H108.222C110.069 16.4722 111.908 16.7591 113.66 17.3465C115.251 17.8865 116.602 18.6965 117.71 19.7766C118.855 20.9166 119.725 22.3014 120.256 23.8267C120.844 25.4467 121.143 27.3078 121.143 29.4196V30.1911C121.143 32.3511 120.835 34.2701 120.218 35.9384C119.674 37.5093 118.776 38.9345 117.595 40.1042C116.407 41.2447 114.986 42.1133 113.429 42.65C111.79 43.2189 109.919 43.4986 107.836 43.4986H98.2411C98.1771 43.4986 98.1158 43.4732 98.0706 43.4279C98.0254 43.3827 98 43.3214 98 43.2575V16.739ZM107.45 37.7899C108.318 37.7899 109.147 37.6645 109.919 37.4041C110.744 37.1002 111.489 36.6122 112.097 35.9773C112.705 35.3423 113.161 34.5771 113.429 33.7398C113.786 32.7658 113.969 31.5797 113.969 30.1911V29.4196C113.969 28.1082 113.805 27.0089 113.468 26.1024C113.211 25.2645 112.762 24.4984 112.156 23.8652C111.632 23.2841 110.968 22.846 110.227 22.5923C109.485 22.332 108.685 22.2066 107.836 22.2066H105.184C105.12 22.2066 105.059 22.232 105.014 22.2772C104.968 22.3224 104.943 22.3838 104.943 22.4477V37.5488C104.943 37.6838 105.049 37.7899 105.184 37.7899H107.45V37.7899ZM122.812 16.8258C122.797 16.7887 122.792 16.7487 122.797 16.7093C122.802 16.6699 122.817 16.6323 122.84 16.5999C122.862 16.5674 122.893 16.5411 122.929 16.5234C122.964 16.5056 123.003 16.4968 123.043 16.4979H130.237C130.333 16.4979 130.43 16.5654 130.468 16.6618L136.273 33.9326C136.341 34.1544 136.659 34.1544 136.727 33.9326L142.32 16.6715C142.331 16.6213 142.359 16.5766 142.399 16.545C142.44 16.5133 142.49 16.4967 142.541 16.4979H148.964C149.137 16.4979 149.253 16.6618 149.195 16.8161L139.726 43.3346C139.709 43.3829 139.678 43.4248 139.637 43.4542C139.595 43.4837 139.545 43.4992 139.494 43.4986H132.889C132.792 43.4986 132.696 43.4311 132.667 43.3443L122.812 16.8258ZM163.399 44C161.548 44 159.851 43.7589 158.308 43.2671C156.811 42.7811 155.45 41.9485 154.335 40.8371C153.255 39.7281 152.406 38.3009 151.789 36.5555C151.124 34.4882 150.811 32.3237 150.863 30.1525V29.4196C150.863 27.0571 151.182 25.0224 151.828 23.3252C152.474 21.628 153.361 20.2394 154.489 19.1594C155.621 18.079 156.978 17.2623 158.462 16.7679C161.493 15.8297 164.724 15.7496 167.797 16.5365C169.185 16.8933 170.4 17.4622 171.422 18.2337C172.483 19.0051 173.322 20.008 173.968 21.2423C174.647 22.5647 175.047 24.0119 175.145 25.4949C175.154 25.6396 175.048 25.7553 174.904 25.7553H168.202C168.146 25.7546 168.092 25.7353 168.048 25.7004C168.004 25.6654 167.974 25.6168 167.961 25.5624C167.856 24.9948 167.661 24.4477 167.382 23.9424C167.093 23.4313 166.755 23.0166 166.341 22.7081C165.479 22.1029 164.452 21.7795 163.399 21.7823C162.628 21.7823 161.905 21.927 161.239 22.2066C160.593 22.467 160.034 22.9009 159.542 23.5181C159.024 24.2244 158.644 25.0229 158.424 25.871C158.163 26.8449 158.038 28.031 158.038 29.4196V30.2297C158.012 31.5029 158.155 32.7739 158.462 34.0098C158.771 35.0126 159.166 35.8419 159.658 36.4784C160.14 37.0955 160.719 37.5391 161.355 37.8284C162.001 38.0888 162.676 38.2141 163.399 38.2141C164.711 38.2141 165.752 37.9056 166.524 37.2884C167.344 36.5591 167.857 35.5461 167.961 34.4533C167.97 34.3954 167.999 34.3424 168.043 34.3036C168.087 34.2648 168.143 34.2428 168.202 34.2412H174.913C175.048 34.2412 175.154 34.3569 175.145 34.4919C175.029 36.1891 174.663 37.6163 174.045 38.7927C173.465 39.9835 172.605 41.0158 171.538 41.8014C170.506 42.5728 169.301 43.1418 167.912 43.4986C166.524 43.8361 165.019 44 163.399 44V44Z" fill="#2E3137"/><defs><linearGradient id="paint0_linear_522_619" x1="33.59" y1="32.997" x2="33.59" y2="43.473" gradientUnits="userSpaceOnUse"><stop stop-color="#7E51C2"/><stop offset="1" stop-color="#945DD6"/></linearGradient><linearGradient id="paint1_linear_522_619" x1="63.245" y1="25.024" x2="63.245" y2="42.996" gradientUnits="userSpaceOnUse"><stop stop-color="#F46837"/><stop offset="1" stop-color="#DD5236"/></linearGradient><linearGradient id="paint2_linear_522_619" x1="19.253" y1="25.051" x2="19.253" y2="43.012" gradientUnits="userSpaceOnUse"><stop stop-color="#13ADC7"/><stop offset="1" stop-color="#1497B8"/></linearGradient></defs></svg>