<svg fill="none" height="64" viewBox="0 0 198 64" width="198" xmlns="http://www.w3.org/2000/svg" xmlns:xlink="http://www.w3.org/1999/xlink"><linearGradient id="a" gradientUnits="userSpaceOnUse" x1="27.7913" x2="13.407" y1="53.2091" y2="28.8549"><stop offset="0" stop-color="#7e51c2"/><stop offset=".176" stop-color="#945dd6"/><stop offset="1" stop-color="#13adc7"/></linearGradient><linearGradient id="b" gradientUnits="userSpaceOnUse" x1="35.388" x2="41.304" y1="45.2558" y2="52.0925"><stop offset="0" stop-color="#f46837"/><stop offset="1" stop-color="#dd5236"/></linearGradient><path d="m56.2101 8.45998c-1.0742-4.03373-5.979-5.45746-8.9825-2.60592l-12.051 11.43464c-.5773.5475-1.3367.8519-2.1254.8519s-1.5481-.3044-2.1254-.8519l-12.051-11.43566c-3.0035-2.85052-7.9074-1.42577-8.98254 2.60694l-5.05986 18.98342c-2.77047 10.3931 1.61027 21.3916 10.7088 26.8918 4.1154 2.4871 8.7819 3.8713 13.5643 4.0236 3.039.0915 9.9812-6.1953 9.9827-9.2599-.0005-.0658-.0149-.1308-.0423-.1904-.0274-.0597-.0671-.1127-.1163-.1553-.0493-.0426-.1069-.074-.1691-.0919s-.1275-.0219-.1914-.0118c-.9331.1406-1.8783.212-2.8284.212h-5.747c-3.4052-.0001-6.7477-.934-9.6767-2.7038-2.6701-1.6121-4.7479-4.0719-5.9149-7.0024-1.167-2.9304-1.3588-6.17-.5462-9.2222l2.6915-10.1006c.0705-.264.2068-.5049.3955-.6995.1888-.1946.4237-.3362.6819-.4111.2583-.075.5311-.0807.7922-.0166.261.064.5014.1957.6978.3822l5.4349 5.1568c4.7879 4.5433 12.2151 4.5433 17.0029 0l5.436-5.1568c.1964-.1863.4366-.3177.6974-.3817.2609-.064.5335-.0583.7916.0165s.4928.2162.6816.4105c.1887.1943.325.435.3958.6987l2.5974 9.7459c.1601.6003.2801 1.2036.3641 1.807.0499.3376.1887.6551.4016.9187.213.2636.4921.4635.8076.5784 1.691.6272 3.2037 1.6705 4.4038 3.037 1.0691 1.2179 3.6756 1.0823 3.8036-.5452.2188-2.7858-.0377-5.5891-.7581-8.2856l-4.9649-18.6267z" fill="url(#a)"/><path d="m42.5574 43.7446c0-3.1786 2.9829-6.1555 6.8941-6.1555 2.9485 0 5.3629 2.3518 5.3629 5.7698 0 3.4169-2.4144 5.7688-5.3629 5.7688-.6032-.0006-1.2006.1184-1.7581.3501s-1.0641.5716-1.491 1.0002c-.4268.4286-.7655.9375-.9968 1.4978-.2312.5603-.3504 1.1609-.3508 1.7675.0005.6065.1198 1.207.3511 1.7671.2313.5602.57 1.069.9969 1.4975.4268.4286.9334.7683 1.4909.9999.5574.2317 1.1547.3506 1.7578.3501 8.4746 0 14.5553-6.9467 14.5553-14.999 0-8.0534-6.0807-15-14.5553-15-8.0546 0-16.0875 6.2207-16.0875 15.3847v8.4608c-.0005 1.3006-.4106 2.5676-1.1713 3.6194-.7608 1.0518-1.8332 1.8343-3.0635 2.2354-.1721.0554-.1603.2997.0206.2997h1.9158c6.3463 0 11.4909-5.1665 11.4909-11.5386v-3.0767z" fill="url(#b)"/><path d="m80.0005 17.6089c0-.14.11-.25.25-.25h6.96c.1 0 .18.05.22.13l7.47 13.67c.1.17.34.17.44 0l7.3895-13.67c.022-.0395.054-.0724.093-.0952.038-.0229.083-.0349.127-.0348h6.8c.14 0 .25.11.25.25v27.5c0 .14-.11.25-.25.25h-6.7c-.066 0-.129-.0264-.176-.0732-.047-.0469-.074-.1105-.074-.1768v-14.8c0-.27-.35-.36-.47-.13l-5.2595 9.65c-.0216.0394-.0534.0723-.0921.0952-.0388.0229-.0829.0349-.1279.0348h-3.7c-.045.0001-.0892-.0119-.1279-.0348s-.0705-.0558-.0921-.0952l-5.26-9.65c-.12-.23-.47-.14-.47.12v14.81c0 .14-.11.25-.25.25h-6.7c-.0663 0-.1299-.0264-.1768-.0732-.0469-.0469-.0732-.1105-.0732-.1768zm35.5895 0c0-.14.1-.25.25-.25h6.7c.13 0 .25.11.25.25v21.58c0 .14.1.25.25.25h11.5c.13 0 .25.11.25.25v5.42c0 .14-.12.25-.25.25h-18.7c-.066 0-.129-.0264-.176-.0732-.047-.0469-.074-.1105-.074-.1768zm22.81 0c0-.14.11-.25.25-.25h19.901c.14 0 .25.11.25.25v5.02c0 .14-.11.25-.25.25h-12.701c-.066 0-.129.0263-.176.0732s-.074.1105-.074.1768v4.98c0 .14.11.25.25.25h11.5c.14 0 .25.11.25.25v4.7c0 .14-.11.25-.25.25h-11.5c-.066 0-.129.0263-.176.0732s-.074.1105-.074.1768v5.78c0 .14.11.25.25.25h12.701c.14 0 .25.11.25.25v5.02c0 .14-.11.25-.25.25h-19.901c-.066 0-.129-.0264-.176-.0732-.047-.0469-.074-.1105-.074-.1768zm25 0c0-.14.11-.25.25-.25h6.96c.1 0 .181.05.221.13l7.47 13.67c.1.17.339.17.439 0l7.39-13.67c.022-.0395.054-.0724.093-.0952.038-.0229.083-.0349.127-.0348h6.801c.14 0 .25.11.25.25v27.5c0 .14-.11.25-.25.25h-6.701c-.066 0-.129-.0264-.176-.0732-.047-.0469-.074-.1105-.074-.1768v-14.8c0-.27-.349-.36-.469-.13l-5.26 9.65c-.022.0394-.054.0723-.093.0952-.038.0229-.083.0349-.127.0348h-3.7c-.045.0001-.09-.0119-.128-.0348-.039-.0229-.071-.0558-.092-.0952l-5.261-9.65c-.13-.23-.47-.14-.47.12v14.81c0 .14-.11.25-.25.25h-6.7c-.066 0-.129-.0264-.176-.0732-.047-.0469-.074-.1105-.074-.1768z" fill="#2e3137"/></svg>