<svg width="256" height="206" fill="none" xmlns="http://www.w3.org/2000/svg"><path d="M92.892 30.524a6.66 6.66 0 0 1 2.162 1.454l14.102 14.184.07-.036 18.814 18.96-.035.035 37.662 37.884 18.85-18.96-70.649-71.027A33.207 33.207 0 0 0 90.342 3.23a33.207 33.207 0 0 0-23.526 9.788l-28.274 28.44a33.6 33.6 0 0 0-9.73 23.663 33.6 33.6 0 0 0 9.73 23.664l14.137 14.22 18.814-18.96L57.39 69.861a6.733 6.733 0 0 1 0-9.48L85.63 31.978a6.628 6.628 0 0 1 7.263-1.454z" fill="url(#paint0_linear)"/><path d="M160.955 174.032l-14.101-14.184-.071.035-18.814-18.959.036-.036-37.663-37.883-18.85 18.959 70.65 71.027a33.202 33.202 0 0 0 23.526 9.788c8.821 0 17.282-3.52 23.525-9.788l28.274-28.439a33.6 33.6 0 0 0 9.731-23.664c0-8.873-3.5-17.383-9.731-23.664l-14.137-14.219-18.813 18.959 14.101 14.184a6.724 6.724 0 0 1 0 9.48l-28.238 28.404a6.655 6.655 0 0 1-4.712 1.964 6.63 6.63 0 0 1-4.713-1.964z" fill="url(#paint1_linear)"/><path fill-rule="evenodd" clip-rule="evenodd" d="M200.095 67.64c-.355.82-.815 1.532-1.418 2.138l-70.719 71.134 18.813 18.96 70.685-71.099a33.6 33.6 0 0 0 9.73-23.663 33.6 33.6 0 0 0-9.73-23.664l-28.274-28.44a33.207 33.207 0 0 0-23.526-9.787 33.207 33.207 0 0 0-23.526 9.787L128.029 27.12l18.849 18.96 14.066-14.149a6.632 6.632 0 0 1 9.424 0l28.239 28.404a6.721 6.721 0 0 1 1.452 7.306h.036zM95.078 173.985l14.066-14.149 18.885 18.924-14.173 14.184a33.205 33.205 0 0 1-23.526 9.788 33.205 33.205 0 0 1-23.526-9.788l-28.273-28.439a33.6 33.6 0 0 1-9.731-23.664 33.6 33.6 0 0 1 9.73-23.664l70.72-71.098 18.779 18.96L57.415 136.1a6.7 6.7 0 0 0-1.445 2.174 6.74 6.74 0 0 0 0 5.131 6.694 6.694 0 0 0 1.445 2.175l28.238 28.404a6.63 6.63 0 0 0 9.425 0z" fill="url(#paint2_linear)"/><defs><linearGradient id="paint0_linear" x1="76.63" y1="79.84" x2="171.07" y2="173.73" gradientUnits="userSpaceOnUse"><stop stop-color="#13ADC7"/><stop offset="1" stop-color="#945DD6"/></linearGradient><linearGradient id="paint1_linear" x1="76.63" y1="79.84" x2="171.07" y2="173.73" gradientUnits="userSpaceOnUse"><stop stop-color="#13ADC7"/><stop offset="1" stop-color="#945DD6"/></linearGradient><linearGradient id="paint2_linear" x1="165.183" y1="62.022" x2="68.987" y2="157.658" gradientUnits="userSpaceOnUse"><stop stop-color="#F46837"/><stop offset="1" stop-color="#945DD6"/></linearGradient></defs></svg>