<svg width="160" height="160" viewBox="0 0 160 160" fill="none" xmlns="http://www.w3.org/2000/svg">
<path d="M124.173 59.3573C124.55 58.9809 124.838 58.538 125.059 58.0287H125.037C125.352 57.2671 125.434 56.4292 125.272 55.621C125.111 54.8129 124.713 54.0709 124.129 53.4891L106.48 35.8402C106.094 35.4532 105.634 35.1462 105.129 34.9367C104.624 34.7273 104.082 34.6195 103.535 34.6195C102.988 34.6195 102.446 34.7273 101.941 34.9367C101.436 35.1462 100.976 35.4532 100.59 35.8402L95.2128 41.2172C94.4318 41.9983 93.1654 41.9983 92.3844 41.2172L83.4367 32.2696C82.6539 31.4867 82.6559 30.2169 83.4413 29.4366L88.8313 24.0817C92.7337 20.1872 98.0218 18 103.535 18C109.048 18 114.336 20.1872 118.239 24.0817L135.91 41.7527C139.804 45.6551 141.991 50.9432 141.991 56.4564C141.991 61.9697 139.804 67.2577 135.91 71.1601L95.1477 111.922C94.3661 112.704 93.0988 112.703 92.318 111.921L83.3852 102.971C82.6054 102.19 82.606 100.925 83.3865 100.144L124.173 59.3573Z" fill="white"/>
<path d="M64.8035 118.727L59.4238 124.107C59.0372 124.494 58.578 124.801 58.0727 125.01C57.5673 125.22 57.0257 125.328 56.4786 125.328C55.9316 125.328 55.3899 125.22 54.8845 125.01C54.3792 124.801 53.9201 124.494 53.5334 124.107L35.8845 106.458C35.4975 106.071 35.1905 105.612 34.981 105.107C34.7716 104.601 34.6638 104.06 34.6638 103.513C34.6638 102.966 34.7716 102.424 34.981 101.919C35.1905 101.413 35.4975 100.954 35.8845 100.568L76.6071 59.8237C77.3867 59.0436 77.3878 57.7796 76.6094 56.9983L67.6953 48.0506C66.9148 47.2672 65.6467 47.2658 64.8646 48.0476L24.0817 88.809C20.1872 92.7115 18 97.9995 18 103.513C18 109.026 20.1872 114.314 24.0817 118.216L41.7527 135.888C45.6552 139.782 50.9432 141.969 56.4565 141.969C61.9697 141.969 67.2578 139.782 71.1602 135.888L76.5918 130.491C77.3782 129.71 77.3791 128.438 76.5937 127.655L67.6292 118.724C66.8478 117.946 65.5835 117.947 64.8035 118.727Z" fill="white"/>
<path d="M59.4088 35.8696C59.0222 35.4826 58.5631 35.1755 58.0577 34.9661C57.5524 34.7566 57.0107 34.6488 56.4637 34.6488C55.9166 34.6488 55.3749 34.7566 54.8696 34.9661C54.3642 35.1755 53.9051 35.4826 53.5185 35.8696L35.8696 53.5184C35.4826 53.9051 35.1756 54.3642 34.9661 54.8695C34.7566 55.3749 34.6488 55.9166 34.6488 56.4636C34.6488 57.0107 34.7566 57.5523 34.9661 58.0577C35.1756 58.563 35.4826 59.0222 35.8696 59.4088L41.2701 64.8093C42.0506 65.5898 42.0512 66.8551 41.2714 67.6364L32.3386 76.586C31.5578 77.3683 30.2904 77.3689 29.5089 76.5873L24.0889 71.1673C20.1944 67.2649 18.0072 61.9769 18.0072 56.4636C18.0072 50.9504 20.1944 45.6623 24.0889 41.7599L41.7599 24.0889C45.6624 20.1944 50.9504 18.0072 56.4637 18.0072C61.9769 18.0072 67.265 20.1944 71.1674 24.0889L111.908 64.808C112.689 65.5889 112.689 66.8556 111.908 67.6368L102.956 76.5886C102.175 77.3697 100.909 77.3697 100.128 76.5886L59.4088 35.8696Z" fill="white"/>
<path d="M59.8779 83.4171L100.597 124.136C100.984 124.523 101.443 124.83 101.948 125.04C102.453 125.249 102.995 125.357 103.542 125.357C104.089 125.357 104.631 125.249 105.136 125.04C105.642 124.83 106.101 124.523 106.487 124.136L124.136 106.487C124.523 106.101 124.83 105.642 125.04 105.136C125.249 104.631 125.357 104.089 125.357 103.542C125.357 102.995 125.249 102.453 125.04 101.948C124.83 101.443 124.523 100.984 124.136 100.597L118.736 95.1964C117.955 94.4159 117.955 93.1506 118.734 92.3693L127.667 83.4197C128.448 82.6374 129.715 82.6368 130.497 83.4184L135.917 88.8384C139.811 92.7408 141.999 98.0289 141.999 103.542C141.999 109.055 139.811 114.343 135.917 118.246L118.246 135.917C114.343 139.811 109.055 141.999 103.542 141.999C98.0289 141.999 92.7409 139.811 88.8384 135.917L48.0979 95.1978C47.3165 94.4168 47.3164 93.1502 48.0975 92.369L57.0495 83.4171C57.8305 82.636 59.0968 82.636 59.8779 83.4171Z" fill="white"/>
</svg>
