<svg width="160" height="128" fill="none" xmlns="http://www.w3.org/2000/svg"><path d="M58.058 18.966c.505.21.964.517 1.35.904l8.814 8.813.044-.022 11.76 11.78-.023.023 23.539 23.539 11.781-11.78L71.167 8.088a20.815 20.815 0 0 0-29.407 0l-17.671 17.67a20.815 20.815 0 0 0 0 29.408l8.835 8.836 11.759-11.78-8.813-8.814a4.163 4.163 0 0 1 0-5.89l17.649-17.65a4.161 4.161 0 0 1 4.539-.903z" fill="url(#paint0_linear)"/><path d="M100.597 108.136l-8.813-8.813-.045.022-11.758-11.78.022-.023-23.54-23.54-11.78 11.782 44.155 44.133a20.818 20.818 0 0 0 29.408 0l17.671-17.671a20.819 20.819 0 0 0 0-29.408l-8.836-8.835-11.758 11.78 8.813 8.814a4.174 4.174 0 0 1 1.221 2.945 4.172 4.172 0 0 1-1.221 2.945l-17.649 17.649a4.16 4.16 0 0 1-5.89 0z" fill="url(#paint1_linear)"/><path fill-rule="evenodd" clip-rule="evenodd" d="M125.059 42.029c-.221.509-.509.952-.886 1.328l-44.2 44.2 11.76 11.78L135.91 55.16a20.817 20.817 0 0 0 0-29.407L118.239 8.082a20.818 20.818 0 0 0-29.408 0l-8.813 8.769 11.78 11.78 8.792-8.79a4.16 4.16 0 0 1 5.89 0l17.649 17.648a4.16 4.16 0 0 1 .908 4.54h.022zm-65.635 66.078l8.791-8.791 11.803 11.758-8.858 8.814a20.817 20.817 0 0 1-29.407 0l-17.671-17.672a20.813 20.813 0 0 1 0-29.407l44.2-44.178 11.736 11.781-44.133 44.156a4.163 4.163 0 0 0 0 5.89l17.648 17.649a4.156 4.156 0 0 0 2.946 1.221 4.154 4.154 0 0 0 2.945-1.221z" fill="url(#paint2_linear)"/><defs><linearGradient id="paint0_linear" x1="47.894" y1="49.609" x2="106.576" y2="108.291" gradientUnits="userSpaceOnUse"><stop stop-color="#13ADC7"/><stop offset="1" stop-color="#945DD6"/></linearGradient><linearGradient id="paint1_linear" x1="47.894" y1="49.609" x2="106.576" y2="108.291" gradientUnits="userSpaceOnUse"><stop stop-color="#13ADC7"/><stop offset="1" stop-color="#945DD6"/></linearGradient><linearGradient id="paint2_linear" x1="103.239" y1="38.538" x2="43.466" y2="98.311" gradientUnits="userSpaceOnUse"><stop stop-color="#F46837"/><stop offset="1" stop-color="#945DD6"/></linearGradient></defs></svg>