<svg width="160" height="160" viewBox="0 0 160 160" fill="none" xmlns="http://www.w3.org/2000/svg"><path d="M58.0577 34.966C58.5631 35.1754 59.0222 35.4824 59.4088 35.8694L68.2222 44.6828L68.2665 44.6607L80.0251 56.4414L80.0029 56.4635L103.542 80.0027L115.323 68.2221L71.1674 24.0887C67.265 20.1943 61.9769 18.0071 56.4637 18.0071C50.9504 18.0071 45.6624 20.1943 41.7599 24.0887L24.0889 41.7598C20.1944 45.6622 18.0072 50.9503 18.0072 56.4635C18.0072 61.9767 20.1944 67.2648 24.0889 71.1672L32.9244 80.0027L44.683 68.2221L35.8696 59.4087C35.4826 59.0221 35.1756 58.5629 34.9661 58.0576C34.7566 57.5522 34.6488 57.0106 34.6488 56.4635C34.6488 55.9165 34.7566 55.3748 34.9661 54.8694C35.1756 54.3641 35.4826 53.905 35.8696 53.5183L53.5185 35.8694C53.9051 35.4824 54.3642 35.1754 54.8696 34.966C55.3749 34.7565 55.9166 34.6487 56.4637 34.6487C57.0107 34.6487 57.5524 34.7565 58.0577 34.966Z" fill="url(#paint0_linear_61_114)"/><path d="M100.597 124.136L91.7836 115.323L91.7393 115.345L79.9808 103.564L80.0029 103.542L56.4637 80.0027L44.683 91.7834L88.8384 135.917C92.7409 139.811 98.0289 141.998 103.542 141.998C109.055 141.998 114.343 139.811 118.246 135.917L135.917 118.246C139.811 114.343 141.999 109.055 141.999 103.542C141.999 98.0287 139.811 92.7407 135.917 88.8383L127.081 80.0027L115.323 91.7834L124.136 100.597C124.523 100.983 124.83 101.443 125.04 101.948C125.249 102.453 125.357 102.995 125.357 103.542C125.357 104.089 125.249 104.631 125.04 105.136C124.83 105.641 124.523 106.101 124.136 106.487L106.487 124.136C106.101 124.523 105.642 124.83 105.136 125.04C104.631 125.249 104.089 125.357 103.542 125.357C102.995 125.357 102.453 125.249 101.948 125.04C101.443 124.83 100.984 124.523 100.597 124.136Z" fill="url(#paint1_linear_61_114)"/><path fill-rule="evenodd" clip-rule="evenodd" d="M125.059 58.0287C124.838 58.538 124.55 58.9809 124.173 59.3573L79.9736 103.557L91.7322 115.338L135.91 71.1601C139.804 67.2577 141.991 61.9697 141.991 56.4564C141.991 50.9432 139.804 45.6551 135.91 41.7527L118.239 24.0817C114.336 20.1872 109.048 18 103.535 18C98.0218 18 92.7337 20.1872 88.8313 24.0817L80.0179 32.8508L91.7986 44.6314L100.59 35.8402C100.976 35.4532 101.436 35.1462 101.941 34.9367C102.446 34.7273 102.988 34.6195 103.535 34.6195C104.082 34.6195 104.624 34.7273 105.129 34.9367C105.634 35.1462 106.094 35.4532 106.48 35.8402L124.129 53.4891C124.713 54.0709 125.111 54.8129 125.272 55.621C125.434 56.4292 125.352 57.2671 125.037 58.0287H125.059ZM59.4238 124.107L68.215 115.316L80.0179 127.074L71.1602 135.888C67.2578 139.782 61.9697 141.969 56.4565 141.969C50.9432 141.969 45.6552 139.782 41.7527 135.888L24.0817 118.216C20.1872 114.314 18 109.026 18 103.513C18 97.9995 20.1872 92.7115 24.0817 88.809L68.2815 44.6314L80.0179 56.4121L35.8845 100.568C35.4975 100.954 35.1905 101.413 34.981 101.919C34.7716 102.424 34.6638 102.966 34.6638 103.513C34.6638 104.06 34.7716 104.601 34.981 105.107C35.1905 105.612 35.4975 106.071 35.8845 106.458L53.5334 124.107C53.9201 124.494 54.3792 124.801 54.8845 125.01C55.3899 125.22 55.9316 125.328 56.4786 125.328C57.0257 125.328 57.5673 125.22 58.0727 125.01C58.578 124.801 59.0372 124.494 59.4238 124.107V124.107Z" fill="url(#paint2_linear_61_114)"/><defs><linearGradient id="paint0_linear_61_114" x1="47.894" y1="65.609" x2="106.576" y2="124.291" gradientUnits="userSpaceOnUse"><stop stop-color="#13ADC7"/><stop offset="1" stop-color="#945DD6"/></linearGradient><linearGradient id="paint1_linear_61_114" x1="47.894" y1="65.609" x2="106.576" y2="124.291" gradientUnits="userSpaceOnUse"><stop stop-color="#13ADC7"/><stop offset="1" stop-color="#945DD6"/></linearGradient><linearGradient id="paint2_linear_61_114" x1="103.239" y1="54.538" x2="43.466" y2="114.311" gradientUnits="userSpaceOnUse"><stop stop-color="#F46837"/><stop offset="1" stop-color="#945DD6"/></linearGradient></defs></svg>