<svg width="160" height="128" viewBox="0 0 160 128" fill="none" xmlns="http://www.w3.org/2000/svg"><path d="M124.173 43.3573C124.55 42.9809 124.838 42.538 125.059 42.0287H125.037C125.352 41.2671 125.434 40.4292 125.272 39.621C125.111 38.8129 124.713 38.0709 124.129 37.4891L106.48 19.8402C106.094 19.4532 105.634 19.1462 105.129 18.9367C104.624 18.7273 104.082 18.6195 103.535 18.6195C102.988 18.6195 102.446 18.7273 101.941 18.9367C101.436 19.1462 100.976 19.4532 100.59 19.8402L95.2128 25.2172C94.4318 25.9983 93.1654 25.9983 92.3844 25.2172L83.4367 16.2696C82.6539 15.4867 82.6559 14.2169 83.4413 13.4366L88.8313 8.08167C92.7337 4.18721 98.0218 2 103.535 2C109.048 2 114.336 4.18721 118.239 8.08167L135.91 25.7527C139.804 29.6551 141.991 34.9432 141.991 40.4564C141.991 45.9697 139.804 51.2577 135.91 55.1601L95.1477 95.9222C94.3661 96.7038 93.0988 96.7032 92.318 95.9209L83.3852 86.9713C82.6054 86.19 82.606 84.9247 83.3865 84.1442L124.173 43.3573Z" fill="#2E3137"/><path d="M64.8035 102.727L59.4238 108.107C59.0372 108.494 58.578 108.801 58.0727 109.01C57.5673 109.22 57.0257 109.328 56.4786 109.328C55.9316 109.328 55.3899 109.22 54.8845 109.01C54.3792 108.801 53.9201 108.494 53.5334 108.107L35.8845 90.4579C35.4975 90.0713 35.1905 89.6122 34.981 89.1068C34.7716 88.6015 34.6638 88.0598 34.6638 87.5128C34.6638 86.9657 34.7716 86.424 34.981 85.9187C35.1905 85.4133 35.4975 84.9542 35.8845 84.5676L76.6071 43.8237C77.3867 43.0436 77.3878 41.7796 76.6094 40.9983L67.6953 32.0506C66.9148 31.2672 65.6467 31.2658 64.8646 32.0476L24.0817 72.809C20.1872 76.7115 18 81.9995 18 87.5128C18 93.026 20.1872 98.3141 24.0817 102.216L41.7527 119.888C45.6552 123.782 50.9432 125.969 56.4565 125.969C61.9697 125.969 67.2578 123.782 71.1602 119.888L76.5918 114.491C77.3782 113.71 77.3791 112.438 76.5937 111.655L67.6292 102.724C66.8478 101.946 65.5835 101.947 64.8035 102.727Z" fill="#2E3137"/><path d="M59.4088 19.8696C59.0222 19.4826 58.5631 19.1755 58.0577 18.9661C57.5524 18.7566 57.0107 18.6488 56.4637 18.6488C55.9166 18.6488 55.3749 18.7566 54.8696 18.9661C54.3642 19.1755 53.9051 19.4826 53.5185 19.8696L35.8696 37.5184C35.4826 37.9051 35.1756 38.3642 34.9661 38.8695C34.7566 39.3749 34.6488 39.9166 34.6488 40.4636C34.6488 41.0107 34.7566 41.5523 34.9661 42.0577C35.1756 42.563 35.4826 43.0222 35.8696 43.4088L41.2701 48.8093C42.0506 49.5898 42.0512 50.8551 41.2714 51.6364L32.3386 60.586C31.5578 61.3683 30.2904 61.3689 29.5089 60.5873L24.0889 55.1673C20.1944 51.2649 18.0072 45.9769 18.0072 40.4636C18.0072 34.9504 20.1944 29.6623 24.0889 25.7599L41.7599 8.08886C45.6624 4.19441 50.9504 2.00719 56.4637 2.00719C61.9769 2.00719 67.265 4.19441 71.1674 8.08886L111.908 48.808C112.689 49.5889 112.689 50.8556 111.908 51.6368L102.956 60.5886C102.175 61.3697 100.909 61.3697 100.128 60.5886L59.4088 19.8696Z" fill="#2E3137"/><path d="M59.8779 67.4171L100.597 108.136C100.984 108.523 101.443 108.83 101.948 109.04C102.453 109.249 102.995 109.357 103.542 109.357C104.089 109.357 104.631 109.249 105.136 109.04C105.642 108.83 106.101 108.523 106.487 108.136L124.136 90.4873C124.523 90.1006 124.83 89.6415 125.04 89.1362C125.249 88.6308 125.357 88.0891 125.357 87.5421C125.357 86.9951 125.249 86.4534 125.04 85.948C124.83 85.4427 124.523 84.9836 124.136 84.5969L118.736 79.1964C117.955 78.4159 117.955 77.1506 118.734 76.3693L127.667 67.4197C128.448 66.6374 129.715 66.6368 130.497 67.4184L135.917 72.8384C139.811 76.7408 141.999 82.0289 141.999 87.5421C141.999 93.0553 139.811 98.3434 135.917 102.246L118.246 119.917C114.343 123.811 109.055 125.999 103.542 125.999C98.0289 125.999 92.7409 123.811 88.8384 119.917L48.0979 79.1978C47.3165 78.4168 47.3164 77.1502 48.0975 76.369L57.0495 67.4171C57.8305 66.636 59.0968 66.636 59.8779 67.4171Z" fill="#2E3137"/></svg>