<svg width="160" height="128" viewBox="0 0 160 128" fill="none" xmlns="http://www.w3.org/2000/svg"><path d="M58.0577 18.9661C58.5631 19.1755 59.0222 19.4826 59.4088 19.8696L68.2222 28.6829L68.2665 28.6608L80.0251 40.4415L80.0029 40.4636L103.542 64.0029L115.323 52.2222L71.1674 8.08887C67.265 4.19442 61.9769 2.0072 56.4637 2.0072C50.9504 2.0072 45.6624 4.19442 41.7599 8.08887L24.0889 25.7599C20.1944 29.6623 18.0072 34.9504 18.0072 40.4636C18.0072 45.9769 20.1944 51.2649 24.0889 55.1673L32.9244 64.0029L44.683 52.2222L35.8696 43.4088C35.4826 43.0222 35.1756 42.5631 34.9661 42.0577C34.7566 41.5524 34.6488 41.0107 34.6488 40.4636C34.6488 39.9166 34.7566 39.3749 34.9661 38.8696C35.1756 38.3642 35.4826 37.9051 35.8696 37.5185L53.5185 19.8696C53.9051 19.4826 54.3642 19.1755 54.8696 18.9661C55.3749 18.7566 55.9166 18.6488 56.4637 18.6488C57.0107 18.6488 57.5524 18.7566 58.0577 18.9661Z" fill="url(#paint0_linear_61_169)"/><path d="M100.597 108.136L91.7836 99.3228L91.7393 99.3449L79.9808 87.5642L80.0029 87.5421L56.4637 64.0029L44.683 75.7836L88.8384 119.917C92.7409 123.811 98.0289 125.999 103.542 125.999C109.055 125.999 114.343 123.811 118.246 119.917L135.917 102.246C139.811 98.3434 141.999 93.0553 141.999 87.5421C141.999 82.0289 139.811 76.7408 135.917 72.8384L127.081 64.0029L115.323 75.7836L124.136 84.5969C124.523 84.9836 124.83 85.4427 125.04 85.948C125.249 86.4534 125.357 86.9951 125.357 87.5421C125.357 88.0891 125.249 88.6308 125.04 89.1362C124.83 89.6415 124.523 90.1006 124.136 90.4873L106.487 108.136C106.101 108.523 105.642 108.83 105.136 109.04C104.631 109.249 104.089 109.357 103.542 109.357C102.995 109.357 102.453 109.249 101.948 109.04C101.443 108.83 100.984 108.523 100.597 108.136Z" fill="url(#paint1_linear_61_169)"/><path fill-rule="evenodd" clip-rule="evenodd" d="M125.059 42.0287C124.838 42.538 124.55 42.9809 124.173 43.3573L79.9736 87.5571L91.7322 99.3378L135.91 55.1601C139.804 51.2577 141.991 45.9697 141.991 40.4564C141.991 34.9432 139.804 29.6551 135.91 25.7527L118.239 8.08167C114.336 4.18721 109.048 2 103.535 2C98.0218 2 92.7337 4.18721 88.8313 8.08167L80.0179 16.8508L91.7986 28.6314L100.59 19.8402C100.976 19.4532 101.436 19.1462 101.941 18.9367C102.446 18.7273 102.988 18.6195 103.535 18.6195C104.082 18.6195 104.624 18.7273 105.129 18.9367C105.634 19.1462 106.094 19.4532 106.48 19.8402L124.129 37.4891C124.713 38.0709 125.111 38.8129 125.272 39.621C125.434 40.4292 125.352 41.2671 125.037 42.0287H125.059ZM59.4238 108.107L68.215 99.3156L80.0179 111.074L71.1602 119.888C67.2578 123.782 61.9697 125.969 56.4565 125.969C50.9432 125.969 45.6552 123.782 41.7527 119.888L24.0817 102.216C20.1872 98.3141 18 93.026 18 87.5128C18 81.9995 20.1872 76.7115 24.0817 72.809L68.2815 28.6314L80.0179 40.4121L35.8845 84.5676C35.4975 84.9542 35.1905 85.4133 34.981 85.9187C34.7716 86.424 34.6638 86.9657 34.6638 87.5128C34.6638 88.0598 34.7716 88.6015 34.981 89.1068C35.1905 89.6122 35.4975 90.0713 35.8845 90.4579L53.5334 108.107C53.9201 108.494 54.3792 108.801 54.8845 109.01C55.3899 109.22 55.9316 109.328 56.4786 109.328C57.0257 109.328 57.5673 109.22 58.0727 109.01C58.578 108.801 59.0372 108.494 59.4238 108.107V108.107Z" fill="url(#paint2_linear_61_169)"/><defs><linearGradient id="paint0_linear_61_169" x1="47.894" y1="49.609" x2="106.576" y2="108.291" gradientUnits="userSpaceOnUse"><stop stop-color="#13ADC7"/><stop offset="1" stop-color="#945DD6"/></linearGradient><linearGradient id="paint1_linear_61_169" x1="47.894" y1="49.609" x2="106.576" y2="108.291" gradientUnits="userSpaceOnUse"><stop stop-color="#13ADC7"/><stop offset="1" stop-color="#945DD6"/></linearGradient><linearGradient id="paint2_linear_61_169" x1="103.239" y1="38.538" x2="43.466" y2="98.311" gradientUnits="userSpaceOnUse"><stop stop-color="#F46837"/><stop offset="1" stop-color="#945DD6"/></linearGradient></defs></svg>