<svg width="404" height="128" viewBox="0 0 404 128" fill="none" xmlns="http://www.w3.org/2000/svg"><g clip-path="url(#clip0_97_653)"><path d="M102.9 51.3162L102.894 51.3096C90.7387 39.2465 73.3608 22 51.4293 22C27.5502 22 8.17221 40.4044 8.00008 64.5528C7.99767 64.8905 7.99987 65.2282 8.00006 65.5659C8.00006 89.8643 27.4434 110 51.4293 110C72.8406 110 87.3462 96.1189 101.529 82.0597C101.933 81.6597 101.922 81.0046 101.506 80.6175C97.2263 76.6324 92.9635 72.6289 88.6893 68.6375C88.3053 68.2789 87.6981 68.2893 87.3136 68.6475C66.9801 87.5936 62.3563 90.7516 51.4293 90.7516C37.9378 90.7516 27.0001 79.2335 27.0001 65.566L27.0001 64.5528C27.2048 51.0707 38.0657 41.2501 51.4293 41.2501C63.6131 41.2501 70.3945 47.6058 96.9232 72.4737C100.944 76.2423 104.98 79.9901 109.016 83.7379L109.02 83.7414L109.023 83.7438C115.272 89.545 120.521 94.4171 131.953 94.4171C147.443 94.4171 160 81.2596 160 65.5659V64.5528C160 50.3685 146.939 37.5829 131.953 37.5829C121.532 37.5829 114.173 43.2141 107.022 49.9752C106.613 50.3617 106.608 51.0095 107.005 51.408C110.912 55.3289 114.635 59.4317 118.574 63.319C118.959 63.6997 119.579 63.6974 119.972 63.3235C124.564 58.9465 127.864 56.8345 131.953 56.8345C134.529 56.8345 141 58.4738 141 64.5527L141 65.5659C141 67.997 140.047 70.7633 138.35 72.4823C136.654 74.2013 134.352 75.1671 131.953 75.1671C125.661 75.1671 116.937 65.8624 110.791 59.3064L110.787 59.3018C108.225 56.5668 105.557 53.955 102.9 51.3162Z" fill="#2E3137"/></g><path d="M229.248 97.3366C224.929 97.3366 220.969 96.7666 217.369 95.6267C213.769 94.4268 210.679 92.5369 208.1 89.957C205.58 87.3771 203.6 84.0473 202.16 79.9675C200.72 75.8877 200 70.908 200 65.0283V63.3184C200 57.7987 200.75 53.0589 202.25 49.0991C203.75 45.1393 205.82 41.8995 208.46 39.3796C211.099 36.8597 214.189 34.9998 217.729 33.7999C221.329 32.6 225.169 32 229.248 32C232.908 32 236.328 32.42 239.508 33.2599C242.748 34.0999 245.568 35.4198 247.968 37.2197C250.427 39.0196 252.407 41.3595 253.907 44.2394C255.467 47.1192 256.397 50.629 256.697 54.7688H239.958C239.658 53.0889 239.178 51.679 238.518 50.539C237.858 49.3391 237.048 48.3792 236.088 47.6592C235.128 46.8792 234.048 46.3393 232.848 46.0393C231.708 45.6793 230.508 45.4993 229.248 45.4993C227.449 45.4993 225.769 45.8293 224.209 46.4892C222.709 47.0892 221.389 48.1092 220.249 49.5491C219.169 50.929 218.299 52.7589 217.639 55.0388C217.039 57.3187 216.739 60.0785 216.739 63.3184V65.2083C216.739 68.6881 217.069 71.6279 217.729 74.0278C218.449 76.3677 219.379 78.2876 220.519 79.7875C221.659 81.2274 222.979 82.2774 224.479 82.9374C225.979 83.5373 227.569 83.8373 229.248 83.8373C232.308 83.8373 234.738 83.1173 236.538 81.6774C238.398 80.1775 239.538 77.8076 239.958 74.5678H256.697C256.457 78.7676 255.587 82.3074 254.087 85.1872C252.647 88.0671 250.697 90.407 248.238 92.2069C245.838 94.0068 243.018 95.3267 239.778 96.1667C236.538 96.9466 233.028 97.3366 229.248 97.3366Z" fill="#2E3137"/><path d="M266.143 33.1699H282.702L300.161 65.1183L317.44 33.1699H333.64V96.1667H317.44V60.0785L304.391 84.0173H295.392L282.342 60.0785V96.1667H266.143V33.1699Z" fill="#2E3137"/><path d="M346.207 33.1699H362.406V82.8474H389.405V96.1667H346.207V33.1699Z" fill="#2E3137"/><defs><clipPath id="clip0_97_653"><rect width="152" height="92" fill="#fff" transform="translate(8 18)"/></clipPath></defs></svg>