<svg width="404" height="128" fill="none" xmlns="http://www.w3.org/2000/svg"><g clip-path="url(#clip0)"><path d="M102.9 51.316l-.006-.006C90.739 39.246 73.361 22 51.429 22 27.55 22 8.172 40.404 8 64.553c-.002.338 0 .675 0 1.013C8 89.864 27.443 110 51.43 110c21.41 0 35.916-13.881 50.099-27.94a1 1 0 0 0-.023-1.442c-4.28-3.986-8.543-7.99-12.817-11.98a1.015 1.015 0 0 0-1.375.01C66.98 87.593 62.356 90.751 51.429 90.751 37.938 90.752 27 79.234 27 65.566v-1.013C27.205 51.07 38.066 41.25 51.43 41.25c12.183 0 18.964 6.356 45.493 31.224 4.021 3.768 8.057 7.516 12.093 11.264l.004.003.003.003c6.249 5.801 11.498 10.673 22.93 10.673 15.49 0 28.047-13.157 28.047-28.851v-1.013c0-14.184-13.061-26.97-28.047-26.97-10.421 0-17.78 5.631-24.931 12.392a1 1 0 0 0-.017 1.433c3.907 3.92 7.63 8.024 11.569 11.911.385.38 1.005.378 1.398.005 4.592-4.377 7.892-6.49 11.981-6.49 2.576 0 9.047 1.64 9.047 7.719v1.013c0 2.431-.953 5.197-2.65 6.916a8.987 8.987 0 0 1-6.397 2.685c-6.292 0-15.016-9.305-21.162-15.86l-.004-.005c-2.562-2.735-5.23-5.347-7.887-7.986z" fill="#2E3137"/></g><path d="M229.248 97.337c-4.319 0-8.279-.57-11.879-1.71-3.6-1.2-6.69-3.09-9.269-5.67-2.52-2.58-4.5-5.91-5.94-9.99-1.44-4.08-2.16-9.059-2.16-14.939v-1.71c0-5.52.75-10.26 2.25-14.219 1.5-3.96 3.57-7.2 6.21-9.72 2.639-2.52 5.729-4.38 9.269-5.58 3.6-1.199 7.44-1.799 11.519-1.799 3.66 0 7.08.42 10.26 1.26 3.24.84 6.06 2.16 8.46 3.96 2.459 1.8 4.439 4.14 5.939 7.02 1.56 2.88 2.49 6.389 2.79 10.529h-16.739c-.3-1.68-.78-3.09-1.44-4.23-.66-1.2-1.47-2.16-2.43-2.88a8.25 8.25 0 0 0-3.24-1.62c-1.14-.36-2.34-.54-3.6-.54-1.799 0-3.479.33-5.039.99-1.5.6-2.82 1.62-3.96 3.06-1.08 1.38-1.95 3.21-2.61 5.49-.6 2.28-.9 5.04-.9 8.28v1.89c0 3.48.33 6.419.99 8.819.72 2.34 1.65 4.26 2.79 5.76 1.14 1.44 2.46 2.49 3.96 3.15 1.5.6 3.09.9 4.769.9 3.06 0 5.49-.72 7.29-2.16 1.86-1.5 3-3.87 3.42-7.11h16.739c-.24 4.2-1.11 7.74-2.61 10.62-1.44 2.88-3.39 5.219-5.849 7.019-2.4 1.8-5.22 3.12-8.46 3.96-3.24.78-6.75 1.17-10.53 1.17zm36.895-64.167h16.559l17.459 31.948L317.44 33.17h16.2v62.997h-16.2V60.078l-13.049 23.94h-8.999l-13.05-23.94v36.089h-16.199V33.17zm80.064 0h16.199v49.677h26.999v13.32h-43.198V33.17z" fill="#2E3137"/><defs><clipPath id="clip0"><path fill="#fff" transform="translate(8 18)" d="M0 0H152V92H0z"/></clipPath></defs></svg>