<svg fill="none" height="128" viewBox="0 0 404 128" width="404" xmlns="http://www.w3.org/2000/svg" xmlns:xlink="http://www.w3.org/1999/xlink"><linearGradient id="a" gradientUnits="userSpaceOnUse" x1="64" x2="116.68" y1="35.1711" y2="87.1667"><stop offset="0" stop-color="#f46837"/><stop offset=".520201" stop-color="#945dd6"/><stop offset="1" stop-color="#13adc7"/></linearGradient><linearGradient id="b" gradientUnits="userSpaceOnUse" x1="110.917" x2="130.249" y1="59.698" y2="40.6163"><stop offset="0" stop-color="#1497b8"/><stop offset=".452509" stop-color="#13adc7"/></linearGradient><linearGradient id="c" gradientUnits="userSpaceOnUse" x1="52" x2="86.4445" y1="66.5792" y2="100.576"><stop offset="0" stop-color="#f46837"/><stop offset=".582702" stop-color="#945dd6"/><stop offset="1" stop-color="#7e51c2"/></linearGradient><clipPath id="d"><path d="m8 18.0001h152v92h-152z"/></clipPath><g clip-path="url(#d)"><path d="m102.9 51.3163c-12.155-12.0634-29.5353-29.3162-51.4708-29.3162-23.8791 0-43.25707 18.4043-43.4292 42.5527-.00077.1081-.00002.905-.00002 1.0132h19.00002c0-.1296-.002-.8841 0-1.0132.2047-13.482 11.0656-23.3027 24.4292-23.3027 12.1838 0 18.9652 6.3558 45.4939 31.2236 4.0219 3.7698 8.0589 7.5188 12.0969 11.2677 6.251 5.8023 11.5 10.6758 22.933 10.6758 15.49 0 28.047-13.1576 28.047-28.8512v-1.0132h-19v1.0132c0 2.431-.953 5.1974-2.65 6.9164s-3.998 2.6847-6.397 2.6847c-6.294 0-15.02-9.309-21.166-15.8652-2.562-2.7351-5.23-5.3467-7.887-7.9856z" fill="url(#a)"/><path d="m117.269 66.0008c-2.315-2.2538-4.528-4.6152-6.482-6.699-2.12-2.2619-4.312-4.4403-6.509-6.6188l1.889-1.8079c.988-.8823 1.931-1.7598 2.854-2.6148 6.25-5.8039 11.499-10.6774 22.932-10.6774 14.986 0 28.047 12.7856 28.047 26.9699v1.0132h-19s0 6.0789 0-1.0132c0-6.079-6.471-7.7182-9.047-7.7182-4.294 0-9.719 4.3297-14.684 9.1662z" fill="url(#b)"/><path d="m90.0072 66.0009c2.147 2.0036 4.446 4.158 6.916 6.4728 2.4431 2.2908 4.8928 4.5719 7.3448 6.853l-1.368 1.3572c-12.1534 12.0633-29.5352 29.3161-51.4707 29.3161-23.986 0-43.4293-20.1356-43.4293-44.434v-1.0131h19v1.0131c0 13.6676 10.9377 25.1856 24.4293 25.1856 11.05 0 17.6541-5.2296 38.5779-24.7507z" fill="url(#c)"/></g><g fill="#2e3137"><path d="m229.248 97.3367c-4.319 0-8.279-.57-11.879-1.7099-3.6-1.2-6.69-3.0899-9.269-5.6698-2.52-2.5798-4.5-5.9096-5.94-9.9894s-2.16-9.0596-2.16-14.9393v-1.7099c0-5.5197.75-10.2594 2.25-14.2192s3.57-7.1997 6.21-9.7195c2.639-2.5199 5.729-4.3798 9.269-5.5797 3.6-1.2 7.44-1.7999 11.519-1.7999 3.66 0 7.08.4199 10.26 1.2599 3.24.84 6.06 2.1599 8.46 3.9598 2.459 1.7999 4.439 4.1398 5.939 7.0196 1.56 2.8799 2.49 6.3897 2.79 10.5295h-16.739c-.3-1.6799-.78-3.0899-1.44-4.2298-.66-1.1999-1.47-2.1599-2.43-2.8799-.96-.7799-2.04-1.3199-3.24-1.6199-1.14-.3599-2.34-.5399-3.6-.5399-1.799 0-3.479.3299-5.039.9899-1.5.6-2.82 1.6199-3.96 3.0599-1.08 1.3799-1.95 3.2098-2.61 5.4897-.6 2.2798-.9 5.0397-.9 8.2795v1.8899c0 3.4799.33 6.4197.99 8.8196.72 2.3399 1.65 4.2598 2.79 5.7597 1.14 1.4399 2.46 2.4899 3.96 3.1498 1.5.6 3.09.9 4.769.9 3.06 0 5.49-.72 7.29-2.1599 1.86-1.4999 3-3.8698 3.42-7.1096h16.739c-.24 4.1997-1.11 7.7395-2.61 10.6194-1.44 2.8798-3.39 5.2197-5.849 7.0196-2.4 1.7999-5.22 3.1199-8.46 3.9598-3.24.78-6.75 1.17-10.53 1.17z"/><path d="m266.143 33.17h16.559l17.459 31.9483 17.279-31.9483h16.2v62.9967h-16.2v-36.0881l-13.049 23.9388h-8.999l-13.05-23.9388v36.0881h-16.199z"/><path d="m346.207 33.17h16.199v49.6774h26.999v13.3193h-43.198z"/></g></svg>