<svg fill="none" height="128" viewBox="0 0 404 128" width="404" xmlns="http://www.w3.org/2000/svg" xmlns:xlink="http://www.w3.org/1999/xlink"><clipPath id="a"><path d="m8 18h152v92h-152z"/></clipPath><g clip-path="url(#a)"><path d="m102.9 51.3162-.006-.0066c-12.1553-12.0631-29.5332-29.3096-51.4647-29.3096-23.8791 0-43.25709 18.4044-43.42922 42.5528-.00241.3377-.00021.6754-.00002 1.0131 0 24.2984 19.44334 44.4341 43.42924 44.4341 21.4113 0 35.9169-13.8811 50.0997-27.9403.404-.4.393-1.0551-.023-1.4422-4.2797-3.9851-8.5425-7.9886-12.8167-11.98-.384-.3586-.9912-.3482-1.3757.01-20.3335 18.9461-24.9573 22.1041-35.8843 22.1041-13.4915 0-24.4292-11.5181-24.4292-25.1856v-1.0132c.2047-13.4821 11.0656-23.3027 24.4292-23.3027 12.1838 0 18.9652 6.3557 45.4939 31.2236 4.0208 3.7686 8.0568 7.5164 12.0928 11.2642l.004.0035.003.0024c6.249 5.8012 11.498 10.6733 22.93 10.6733 15.49 0 28.047-13.1575 28.047-28.8512v-1.0131c0-14.1843-13.061-26.9699-28.047-26.9699-10.421 0-17.78 5.6312-24.931 12.3923-.409.3865-.414 1.0343-.017 1.4328 3.907 3.9209 7.63 8.0237 11.569 11.911.385.3807 1.005.3784 1.398.0045 4.592-4.377 7.892-6.489 11.981-6.489 2.576 0 9.047 1.6393 9.047 7.7182v1.0132c0 2.4311-.953 5.1974-2.65 6.9164-1.696 1.719-3.998 2.6848-6.397 2.6848-6.292 0-15.016-9.3047-21.162-15.8607l-.004-.0046c-2.562-2.735-5.23-5.3468-7.887-7.9856z" fill="#fff"/></g><g fill="#fff"><path d="m229.248 97.3366c-4.319 0-8.279-.57-11.879-1.7099-3.6-1.1999-6.69-3.0898-9.269-5.6697-2.52-2.5799-4.5-5.9097-5.94-9.9895s-2.16-9.0595-2.16-14.9392v-1.7099c0-5.5197.75-10.2595 2.25-14.2193s3.57-7.1996 6.21-9.7195c2.639-2.5199 5.729-4.3798 9.269-5.5797 3.6-1.1999 7.44-1.7999 11.519-1.7999 3.66 0 7.08.42 10.26 1.2599 3.24.84 6.06 2.1599 8.46 3.9598 2.459 1.7999 4.439 4.1398 5.939 7.0197 1.56 2.8798 2.49 6.3896 2.79 10.5294h-16.739c-.3-1.6799-.78-3.0898-1.44-4.2298-.66-1.1999-1.47-2.1598-2.43-2.8798-.96-.78-2.04-1.3199-3.24-1.6199-1.14-.36-2.34-.54-3.6-.54-1.799 0-3.479.33-5.039.9899-1.5.6-2.82 1.62-3.96 3.0599-1.08 1.3799-1.95 3.2098-2.61 5.4897-.6 2.2799-.9 5.0397-.9 8.2796v1.8899c0 3.4798.33 6.4196.99 8.8195.72 2.3399 1.65 4.2598 2.79 5.7597 1.14 1.4399 2.46 2.4899 3.96 3.1499 1.5.5999 3.09.8999 4.769.8999 3.06 0 5.49-.72 7.29-2.1599 1.86-1.4999 3-3.8698 3.42-7.1096h16.739c-.24 4.1998-1.11 7.7396-2.61 10.6194-1.44 2.8799-3.39 5.2198-5.849 7.0197-2.4 1.7999-5.22 3.1198-8.46 3.9598-3.24.7799-6.75 1.1699-10.53 1.1699z"/><path d="m266.143 33.1699h16.559l17.459 31.9484 17.279-31.9484h16.2v62.9968h-16.2v-36.0882l-13.049 23.9388h-8.999l-13.05-23.9388v36.0882h-16.199z"/><path d="m346.207 33.1699h16.199v49.6775h26.999v13.3193h-43.198z"/></g></svg>