<svg width="404" height="128" fill="none" xmlns="http://www.w3.org/2000/svg"><g clip-path="url(#clip0)"><path d="M102.9 51.316C90.745 39.253 73.365 22 51.43 22 27.55 22 8.171 40.404 8 64.553v1.013h19c0-.13-.002-.884 0-1.013.205-13.482 11.066-23.303 24.43-23.303 12.183 0 18.964 6.356 45.493 31.224 4.022 3.77 8.059 7.519 12.097 11.267 6.251 5.803 11.5 10.676 22.933 10.676 15.49 0 28.047-13.157 28.047-28.851v-1.013h-19v1.013c0 2.431-.953 5.197-2.65 6.916a8.989 8.989 0 0 1-6.397 2.685c-6.294 0-15.02-9.309-21.166-15.865-2.562-2.735-5.23-5.347-7.887-7.986z" fill="url(#paint0_linear)"/><path d="M117.269 66c-2.315-2.253-4.528-4.614-6.482-6.698-2.12-2.262-4.312-4.44-6.509-6.619l1.889-1.808c.988-.882 1.931-1.76 2.854-2.615 6.25-5.804 11.499-10.677 22.932-10.677 14.986 0 28.047 12.785 28.047 26.97v1.013h-19v-1.013c0-6.08-6.471-7.718-9.047-7.718-4.294 0-9.719 4.33-14.684 9.166z" fill="url(#paint1_linear)"/><path d="M90.007 66c2.147 2.004 4.446 4.159 6.916 6.474 2.443 2.29 4.893 4.572 7.345 6.853l-1.368 1.357C90.747 92.747 73.365 110 51.43 110 27.442 110 8 89.864 8 65.566v-1.013h19v1.013c0 13.668 10.938 25.186 24.43 25.186 11.05 0 17.653-5.23 38.577-24.751z" fill="url(#paint2_linear)"/></g><path d="M229.248 97.337c-4.319 0-8.279-.57-11.879-1.71-3.6-1.2-6.69-3.09-9.269-5.67-2.52-2.58-4.5-5.91-5.94-9.99-1.44-4.08-2.16-9.059-2.16-14.939v-1.71c0-5.52.75-10.259 2.25-14.219 1.5-3.96 3.57-7.2 6.21-9.72 2.639-2.52 5.729-4.38 9.269-5.579 3.6-1.2 7.44-1.8 11.519-1.8 3.66 0 7.08.42 10.26 1.26 3.24.84 6.06 2.16 8.46 3.96 2.459 1.8 4.439 4.14 5.939 7.02 1.56 2.88 2.49 6.39 2.79 10.529h-16.739c-.3-1.68-.78-3.09-1.44-4.23-.66-1.2-1.47-2.16-2.43-2.88a8.252 8.252 0 0 0-3.24-1.62c-1.14-.36-2.34-.54-3.6-.54-1.799 0-3.479.33-5.039.99-1.5.6-2.82 1.62-3.96 3.06-1.08 1.38-1.95 3.21-2.61 5.49-.6 2.28-.9 5.04-.9 8.28v1.89c0 3.48.33 6.419.99 8.819.72 2.34 1.65 4.26 2.79 5.76 1.14 1.44 2.46 2.49 3.96 3.15 1.5.6 3.09.9 4.769.9 3.06 0 5.49-.72 7.29-2.16 1.86-1.5 3-3.87 3.42-7.11h16.739c-.24 4.2-1.11 7.74-2.61 10.62-1.44 2.88-3.39 5.219-5.849 7.019-2.4 1.8-5.22 3.12-8.46 3.96-3.24.78-6.75 1.17-10.53 1.17zm36.895-64.167h16.559l17.459 31.948L317.44 33.17h16.2v62.997h-16.2V60.079l-13.049 23.938h-8.999l-13.05-23.938v36.088h-16.199V33.17zm80.064 0h16.199v49.677h26.999v13.32h-43.198V33.17z" fill="#2E3137"/><defs><linearGradient id="paint0_linear" x1="64" y1="35.171" x2="116.68" y2="87.167" gradientUnits="userSpaceOnUse"><stop stop-color="#F46837"/><stop offset=".52" stop-color="#945DD6"/><stop offset="1" stop-color="#13ADC7"/></linearGradient><linearGradient id="paint1_linear" x1="110.917" y1="59.698" x2="130.249" y2="40.616" gradientUnits="userSpaceOnUse"><stop stop-color="#1497B8"/><stop offset=".453" stop-color="#13ADC7"/></linearGradient><linearGradient id="paint2_linear" x1="52" y1="66.579" x2="86.445" y2="100.576" gradientUnits="userSpaceOnUse"><stop stop-color="#F46837"/><stop offset=".583" stop-color="#945DD6"/><stop offset="1" stop-color="#7E51C2"/></linearGradient><clipPath id="clip0"><path fill="#fff" transform="translate(8 18)" d="M0 0H152V92H0z"/></clipPath></defs></svg>