<svg width="160" height="160" viewBox="0 0 160 160" fill="none" xmlns="http://www.w3.org/2000/svg"><path d="M98.9004 67.3162L98.8937 67.3096C86.7388 55.2465 69.3608 38 47.4294 38C23.5503 38 4.17227 56.4044 4.00014 80.5528C3.99773 80.8905 3.99994 81.2282 4.00012 81.5659C4.00012 105.864 23.4435 126 47.4294 126C68.8407 126 83.3462 112.119 97.5293 98.0597C97.9327 97.6597 97.9221 97.0046 97.5063 96.6175C93.2263 92.6324 88.9636 88.6289 84.6894 84.6375C84.3054 84.2789 83.6981 84.2893 83.3137 84.6475C62.9801 103.594 58.3563 106.752 47.4294 106.752C33.9378 106.752 23.0001 95.2335 23.0001 81.566L23.0001 80.5528C23.2049 67.0707 34.0657 57.2501 47.4294 57.2501C59.6131 57.2501 66.3945 63.6058 92.9233 88.4737C96.9437 92.2423 100.98 95.9901 105.016 99.7379L105.02 99.7414L105.023 99.7438C111.272 105.545 116.521 110.417 127.953 110.417C143.443 110.417 156 97.2596 156 81.5659V80.5528C156 66.3685 142.939 53.5829 127.953 53.5829C117.532 53.5829 110.173 59.2141 103.022 65.9752C102.613 66.3617 102.608 67.0095 103.005 67.408C106.912 71.3289 110.635 75.4317 114.574 79.319C114.959 79.6997 115.579 79.6974 115.972 79.3235C120.564 74.9465 123.864 72.8345 127.953 72.8345C130.529 72.8345 137 74.4738 137 80.5527L137 81.5659C137 83.997 136.047 86.7633 134.35 88.4823C132.654 90.2013 130.352 91.1671 127.953 91.1671C121.661 91.1671 112.937 81.8624 106.791 75.3064L106.787 75.3018C104.225 72.5668 101.557 69.955 98.9004 67.3162Z" fill="#fff"/></svg>