<svg width="160" height="160" viewBox="0 0 160 160" fill="none" xmlns="http://www.w3.org/2000/svg"><path d="M98.9003 67.3162C86.7451 55.2529 69.3648 38 47.4293 38C23.5502 38 4.17221 56.4044 4.00008 80.5528C3.99931 80.6608 4.00005 81.4577 4.00005 81.5659H23.0001C23.0001 81.4363 22.9981 80.6819 23.0001 80.5528C23.2048 67.0707 34.0657 57.2501 47.4293 57.2501C59.6131 57.2501 66.3945 63.6058 92.9232 88.4737C96.9449 92.2435 100.982 95.9924 105.02 99.7414C111.271 105.544 116.52 110.417 127.953 110.417C143.443 110.417 156 97.2596 156 81.5659V80.5528H137L137 81.5659C137 83.997 136.047 86.7633 134.35 88.4823C132.654 90.2013 130.352 91.1671 127.953 91.1671C121.659 91.1671 112.933 81.8581 106.787 75.3018C104.225 72.5667 101.557 69.9551 98.9003 67.3162Z" fill="url(#paint0_linear_61_112)"/><path d="M113.269 82.0009C110.954 79.747 108.741 77.3857 106.787 75.3019C104.667 73.04 102.475 70.8615 100.278 68.6831L102.167 66.8752C103.155 65.9929 104.098 65.1154 105.021 64.2604C111.271 58.4565 116.52 53.583 127.953 53.583C142.939 53.583 156 66.3686 156 80.5529C156 80.5529 156 81.056 156 81.566H137C137 81.566 137 87.645 137 80.5529C137 74.4739 130.529 72.8347 127.953 72.8347C123.659 72.8347 118.234 77.1643 113.269 82.0009Z" fill="url(#paint1_linear_61_112)"/><path d="M86.0072 82.0007C88.1542 84.0044 90.4532 86.1588 92.9232 88.4736C95.3663 90.7643 97.8157 93.0455 100.268 95.3266L98.9003 96.6837C86.7466 108.747 69.3648 126 47.4293 126C23.4433 126 4 105.864 4 81.5659V80.5527H23L23 81.5659C23 95.2334 33.9377 106.752 47.4293 106.752C58.4793 106.752 65.0834 101.522 86.0072 82.0007Z" fill="url(#paint2_linear_61_112)"/><defs><linearGradient id="paint0_linear_61_112" x1="60" y1="51.171" x2="112.68" y2="103.167" gradientUnits="userSpaceOnUse"><stop stop-color="#F46837"/><stop offset=".52" stop-color="#945DD6"/><stop offset="1" stop-color="#13ADC7"/></linearGradient><linearGradient id="paint1_linear_61_112" x1="106.917" y1="75.698" x2="126.25" y2="56.616" gradientUnits="userSpaceOnUse"><stop stop-color="#1497B8"/><stop offset=".453" stop-color="#13ADC7"/></linearGradient><linearGradient id="paint2_linear_61_112" x1="48" y1="82.579" x2="82.445" y2="116.576" gradientUnits="userSpaceOnUse"><stop stop-color="#F46837"/><stop offset=".583" stop-color="#945DD6"/><stop offset="1" stop-color="#7E51C2"/></linearGradient></defs></svg>