<svg width="160" height="128" viewBox="0 0 160 128" fill="none" xmlns="http://www.w3.org/2000/svg"><path d="M98.9004 51.3162L98.8937 51.3096C86.7388 39.2465 69.3608 22 47.4294 22C23.5503 22 4.17227 40.4044 4.00014 64.5528C3.99773 64.8905 3.99994 65.2282 4.00012 65.5659C4.00012 89.8643 23.4435 110 47.4294 110C68.8407 110 83.3462 96.1189 97.5293 82.0597C97.9327 81.6597 97.9221 81.0046 97.5063 80.6175C93.2263 76.6324 88.9636 72.6289 84.6894 68.6375C84.3054 68.2789 83.6981 68.2893 83.3137 68.6475C62.9801 87.5936 58.3563 90.7516 47.4294 90.7516C33.9378 90.7516 23.0001 79.2335 23.0001 65.566L23.0001 64.5528C23.2049 51.0707 34.0657 41.2501 47.4294 41.2501C59.6131 41.2501 66.3945 47.6058 92.9233 72.4737C96.9437 76.2423 100.98 79.9901 105.016 83.7379L105.02 83.7414L105.023 83.7438C111.272 89.545 116.521 94.4171 127.953 94.4171C143.443 94.4171 156 81.2596 156 65.5659V64.5528C156 50.3685 142.939 37.5829 127.953 37.5829C117.532 37.5829 110.173 43.2141 103.022 49.9752C102.613 50.3617 102.608 51.0095 103.005 51.408C106.912 55.3289 110.635 59.4317 114.574 63.319C114.959 63.6997 115.579 63.6974 115.972 63.3235C120.564 58.9465 123.864 56.8345 127.953 56.8345C130.529 56.8345 137 58.4738 137 64.5527L137 65.5659C137 67.997 136.047 70.7633 134.35 72.4823C132.654 74.2013 130.352 75.1671 127.953 75.1671C121.661 75.1671 112.937 65.8624 106.791 59.3064L106.787 59.3018C104.225 56.5668 101.557 53.955 98.9004 51.3162Z" fill="#2E3137"/></svg>