<svg width="160" height="128" viewBox="0 0 160 128" fill="none" xmlns="http://www.w3.org/2000/svg"><path d="M98.9003 51.3162C86.7451 39.2529 69.3648 22 47.4293 22C23.5502 22 4.17221 40.4044 4.00008 64.5528C3.99931 64.6608 4.00005 65.4577 4.00005 65.5659H23.0001C23.0001 65.4363 22.9981 64.6819 23.0001 64.5528C23.2048 51.0707 34.0657 41.2501 47.4293 41.2501C59.6131 41.2501 66.3945 47.6058 92.9232 72.4737C96.9449 76.2435 100.982 79.9924 105.02 83.7414C111.271 89.5437 116.52 94.4171 127.953 94.4171C143.443 94.4171 156 81.2596 156 65.5659V64.5528H137L137 65.5659C137 67.997 136.047 70.7633 134.35 72.4823C132.654 74.2013 130.352 75.1671 127.953 75.1671C121.659 75.1671 112.933 65.8581 106.787 59.3018C104.225 56.5667 101.557 53.9551 98.9003 51.3162Z" fill="url(#paint0_linear_61_171)"/><path d="M113.269 66.0008C110.954 63.7469 108.741 61.3856 106.787 59.3018C104.667 57.0399 102.475 54.8614 100.278 52.6829L102.167 50.875C103.155 49.9927 104.098 49.1153 105.021 48.2602C111.271 42.4564 116.52 37.5829 127.953 37.5829C142.939 37.5829 156 50.3685 156 64.5527C156 64.5527 156 65.0559 156 65.5659H137C137 65.5659 137 71.6449 137 64.5527C137 58.4738 130.529 56.8345 127.953 56.8345C123.659 56.8345 118.234 61.1642 113.269 66.0008Z" fill="url(#paint1_linear_61_171)"/><path d="M86.0072 66.0007C88.1542 68.0044 90.4532 70.1588 92.9232 72.4736C95.3663 74.7643 97.8157 77.0455 100.268 79.3266L98.9003 80.6837C86.7466 92.7471 69.3648 110 47.4293 110C23.4433 110 4 89.8643 4 65.5659V64.5527H23L23 65.5659C23 79.2334 33.9377 90.7515 47.4293 90.7515C58.4793 90.7515 65.0834 85.5219 86.0072 66.0007Z" fill="url(#paint2_linear_61_171)"/><defs><linearGradient id="paint0_linear_61_171" x1="60" y1="35.171" x2="112.68" y2="87.167" gradientUnits="userSpaceOnUse"><stop stop-color="#F46837"/><stop offset=".52" stop-color="#945DD6"/><stop offset="1" stop-color="#13ADC7"/></linearGradient><linearGradient id="paint1_linear_61_171" x1="106.917" y1="59.698" x2="126.25" y2="40.616" gradientUnits="userSpaceOnUse"><stop stop-color="#1497B8"/><stop offset=".453" stop-color="#13ADC7"/></linearGradient><linearGradient id="paint2_linear_61_171" x1="48" y1="66.579" x2="82.445" y2="100.576" gradientUnits="userSpaceOnUse"><stop stop-color="#F46837"/><stop offset=".583" stop-color="#945DD6"/><stop offset="1" stop-color="#7E51C2"/></linearGradient></defs></svg>