<svg width="256" height="206" fill="none" xmlns="http://www.w3.org/2000/svg"><path d="M158.24 82.587c-19.448-19.414-47.256-47.18-82.353-47.18-38.207 0-69.212 29.619-69.487 68.483v1.63h30.4c0-.208-.003-1.423 0-1.63.328-21.698 17.705-37.503 39.087-37.503 19.494 0 30.344 10.229 72.79 50.25a5595.751 5595.751 0 0 0 19.355 18.134c10.001 9.338 18.399 17.182 36.693 17.182 24.783 0 44.875-21.176 44.875-46.433v-1.63h-30.4v1.63c0 3.913-1.525 8.365-4.24 11.131a14.335 14.335 0 0 1-10.235 4.321c-10.07 0-24.032-14.982-33.866-25.533-4.099-4.402-8.368-8.605-12.619-12.852z" fill="url(#paint0_linear)"/><path d="M181.23 106.22c-3.703-3.627-7.245-7.427-10.371-10.781-3.392-3.64-6.898-7.146-10.415-10.652l3.023-2.91c1.58-1.42 3.09-2.832 4.567-4.208 9.999-9.34 18.397-17.184 36.691-17.184 23.978 0 44.875 20.577 44.875 43.405v1.63h-30.4v-1.63c0-9.784-10.354-12.422-14.475-12.422-6.871 0-15.55 6.968-23.495 14.752z" fill="url(#paint1_linear)"/><path d="M137.611 106.22c3.436 3.225 7.114 6.692 11.066 10.417a3947.84 3947.84 0 0 0 11.752 11.029l-2.189 2.184c-19.445 19.415-47.256 47.181-82.353 47.181-38.378 0-69.487-32.406-69.487-71.511v-1.63h30.4v1.63c0 21.996 17.5 40.533 39.087 40.533 17.68 0 28.246-8.416 61.724-39.833z" fill="url(#paint2_linear)"/><defs><linearGradient id="paint0_linear" x1="96" y1="56.603" x2="180.774" y2="139.789" gradientUnits="userSpaceOnUse"><stop stop-color="#F46837"/><stop offset=".458" stop-color="#945DD6"/><stop offset="1" stop-color="#13ADC7"/></linearGradient><linearGradient id="paint1_linear" x1="171.067" y1="96.076" x2="202.178" y2="65.549" gradientUnits="userSpaceOnUse"><stop stop-color="#1497B8"/><stop offset=".453" stop-color="#13ADC7"/></linearGradient><linearGradient id="paint2_linear" x1="76.8" y1="107.151" x2="132.229" y2="161.541" gradientUnits="userSpaceOnUse"><stop stop-color="#F46837"/><stop offset=".583" stop-color="#945DD6"/><stop offset="1" stop-color="#7E51C2"/></linearGradient></defs></svg>