<svg width="512" height="512" viewBox="0 0 512 512" fill="none" xmlns="http://www.w3.org/2000/svg">
<path fill-rule="evenodd" clip-rule="evenodd" d="M283.867 332.931L306.196 310.599L336.137 340.494L313.656 362.826C303.76 372.713 290.344 378.267 276.356 378.267C262.369 378.267 248.953 372.713 239.057 362.826L194.196 318.009C184.311 308.111 178.758 294.693 178.758 280.703C178.758 266.713 184.311 253.296 194.196 243.398L239.597 197.979L269.386 227.924L224.137 273.192C223.151 274.173 222.368 275.339 221.833 276.624C221.299 277.909 221.024 279.287 221.024 280.678C221.024 282.07 221.299 283.447 221.833 284.732C222.368 286.017 223.151 287.183 224.137 288.165L268.947 332.931C270.926 334.909 273.61 336.019 276.407 336.019C279.205 336.019 281.888 334.909 283.867 332.931Z" fill="url(#paint0_linear_5680_131)"/>
<path fill-rule="evenodd" clip-rule="evenodd" d="M414.833 200.573C414.275 201.893 413.514 203.01 412.6 203.974L305.356 311.236L335.196 341.131L442.338 233.92C452.224 224.022 457.776 210.604 457.776 196.614C457.776 182.624 452.224 169.207 442.338 159.309L397.528 114.441C387.632 104.554 374.216 99 360.229 99C346.241 99 332.825 104.554 322.929 114.441L291.664 145.557L321.554 175.452L352.718 144.285C354.697 142.308 357.38 141.197 360.178 141.197C362.975 141.197 365.659 142.308 367.638 144.285L412.397 189.052C413.884 190.525 414.9 192.406 415.316 194.458C415.732 196.509 415.528 198.638 414.731 200.573H414.782H414.833Z" fill="url(#paint1_linear_5680_131)"/>
<path d="M289.039 239.43L266.707 261.759L266.707 261.911L243.772 284.679L273.718 314.569L318.934 269.27C328.822 259.374 334.375 245.958 334.375 231.97C334.375 217.983 328.822 204.567 318.934 194.671L274.066 149.81C264.169 139.924 250.751 134.372 236.761 134.372C222.771 134.372 209.353 139.924 199.455 149.81L142.664 206.598L172.61 236.437L229.3 179.751C231.279 177.774 233.963 176.663 236.761 176.663C239.559 176.663 242.242 177.774 244.222 179.751L289.039 224.51C291.017 226.49 292.127 229.173 292.127 231.97C292.127 234.768 291.017 237.451 289.039 239.43Z" fill="url(#paint2_linear_5680_131)"/>
<path d="M98.052 311.972C98.5595 310.704 99.3716 309.537 100.336 308.572L122.719 286.193L122.669 286.091L152.614 256.252L173.089 235.889L143.194 205.948L70.4408 278.784C60.5537 288.68 55 302.095 55 316.083C55 330.071 60.5537 343.486 70.4408 353.382L115.309 398.243C125.207 408.129 138.624 413.682 152.614 413.682C166.604 413.682 180.022 408.129 189.92 398.243L220.207 367.909L190.312 338.07L160.126 368.252C159.145 369.238 157.979 370.021 156.694 370.555C155.409 371.09 154.031 371.365 152.64 371.365C151.248 371.365 149.871 371.09 148.586 370.555C147.301 370.021 146.134 369.238 145.153 368.252L100.336 323.492C98.857 322.014 97.8504 320.13 97.4438 318.079C97.0371 316.028 97.2488 313.903 98.052 311.972Z" fill="url(#paint3_linear_5680_131)"/>
<defs>
<linearGradient id="paint0_linear_5680_131" x1="398.643" y1="150.535" x2="227.321" y2="318.857" gradientUnits="userSpaceOnUse">
<stop stop-color="#F46837"/>
<stop offset="1" stop-color="#945DD6"/>
</linearGradient>
<linearGradient id="paint1_linear_5680_131" x1="398.732" y1="152.477" x2="227.289" y2="321.802" gradientUnits="userSpaceOnUse">
<stop stop-color="#F46837"/>
<stop offset="1" stop-color="#945DD6"/>
</linearGradient>
<linearGradient id="paint2_linear_5680_131" x1="111.501" y1="360.637" x2="282.769" y2="196.677" gradientUnits="userSpaceOnUse">
<stop stop-color="#13ADC7"/>
<stop offset="1" stop-color="#945DD6"/>
</linearGradient>
<linearGradient id="paint3_linear_5680_131" x1="110.023" y1="362.051" x2="279.817" y2="192.201" gradientUnits="userSpaceOnUse">
<stop stop-color="#13ADC7"/>
<stop offset="1" stop-color="#945DD6"/>
</linearGradient>
</defs>
</svg>
