<svg width="40" height="40" viewBox="0 0 40 40" fill="none" xmlns="http://www.w3.org/2000/svg">
<path d="M26.365 19.9459L20.5006 32.9043C20.4023 33.0889 20.2649 33.1793 20.0881 33.1793H19.8446C19.6678 33.1793 19.5303 33.0889 19.4321 32.9043L13.3242 19.3213L15.5003 15.4169C15.7124 15.4169 15.8498 15.5073 15.9127 15.6919L19.9153 24.8245H20.0646L24.0671 15.6919C24.13 15.5073 24.2675 15.4169 24.4795 15.4169L26.365 19.9459Z" fill="#8262AA"/>
<path d="M15.8695 24.9815L13.3242 19.3213L15.5003 15.4169C15.7124 15.4169 15.8499 15.5073 15.9127 15.6919L17.4407 19.18C17.4485 19.2625 17.4564 19.341 17.4643 19.4235C17.641 21.4975 17.0204 23.367 15.8695 24.9815ZM26.365 19.9459L24.134 24.8754C23.0892 23.3161 22.6059 21.5328 22.6059 19.5491C22.6059 19.3645 22.6098 19.18 22.6177 18.9953L24.0672 15.6919C24.13 15.5073 24.2675 15.4169 24.4796 15.4169L26.365 19.9459Z" fill="#71548F"/>
<path d="M25.7499 25.8261C24.0294 24.1056 23.2438 22.016 23.2438 19.5491C23.2438 17.0864 24.0294 14.985 25.7499 13.2488C27.4703 11.5165 29.556 10.6484 32.003 10.6484C34.2853 10.6484 36.2611 11.4143 37.9226 12.9424C38.17 13.1741 38.1779 13.402 37.9501 13.6336L36.0411 15.6291C35.829 15.8254 35.6247 15.8254 35.4283 15.6291C34.4973 14.7924 33.3976 14.3721 32.1249 14.3721C30.754 14.3721 29.611 14.871 28.6997 15.8648C27.7845 16.8585 27.3839 18.0527 27.3839 19.451C27.3839 20.8335 27.7884 22.0119 28.7115 22.99C29.6345 23.9682 30.7776 24.4552 32.1484 24.4552C33.4211 24.4552 34.5131 24.0623 35.4283 23.2728C35.6561 23.0764 35.8683 23.0843 36.0646 23.2964L37.9736 25.3429C38.1858 25.559 38.1779 25.7789 37.9501 26.0107C36.316 27.6053 34.3363 28.4028 32.003 28.4028C29.556 28.4028 27.4703 27.5425 25.7499 25.8261Z" fill="#F16937"/>
<path d="M5.81384 15.2009V20.7315V24.6162H8.13137C9.48648 24.6162 10.6098 24.1253 11.5055 23.1354C12.3971 22.1494 12.8449 20.9318 12.8449 19.4824C12.8449 18.0486 12.3971 16.8349 11.5055 15.8491C10.6098 14.8632 9.48648 14.3681 8.13137 14.3681H5.81384V14.3721V15.2009ZM2.04303 27.8803V20.7315V15.0752V14.2269V12.6792V11.1315C2.04303 10.9941 2.0862 10.8801 2.17658 10.7899C2.26299 10.6955 2.3651 10.6484 2.47905 10.6484H8.37487C10.7945 10.8252 12.5974 11.5322 14.2589 13.2605C15.9166 14.9928 16.5882 16.9528 16.8003 19.4824C17.0046 21.9099 16.0265 24.0191 14.3689 25.7554C12.7074 27.4954 10.7081 28.3635 8.37487 28.3635H2.47905C2.3651 28.3635 2.26299 28.3163 2.17658 28.2221C2.0862 28.1317 2.04303 28.0178 2.04303 27.8803Z" fill="#0DADC7"/>
<path d="M39.4464 3.20776C37.9101 5.23899 36.2993 5.84413 35.1873 6.07986C35.3523 5.89127 35.5449 5.72625 35.6548 5.36477C35.7138 5.16441 35.6273 5.01116 35.3838 5.10543C34.759 5.3569 34.1461 5.41981 33.2071 5.60053C28.4765 6.50031 28.4136 6.84992 26.0405 11.5216C28.5786 10.0286 30.5942 9.74176 32.9242 9.8085C37.7766 9.8085 40.1026 6.8971 39.9965 3.4788C39.9888 3.21273 39.8912 2.99997 39.7372 3C39.6547 3 39.556 3.06111 39.4464 3.20776Z" fill="url(#paint0_linear)"/>
<path d="M0.00346373 3.47875C-0.102616 6.89715 2.22731 9.80845 7.07576 9.80845C9.40573 9.74171 11.4253 10.0285 13.9595 11.5216C11.5903 6.84991 11.5234 6.5003 6.79286 5.60039C5.85781 5.41983 5.2448 5.35689 4.61622 5.10539C4.37655 5.01101 4.28614 5.16439 4.34901 5.36469C4.45506 5.72627 4.64762 5.89115 4.81261 6.07985C3.70463 5.84405 2.0898 5.23897 0.557534 3.20775C0.446487 3.06113 0.346907 3.00005 0.26383 3.00002C0.108744 3.00002 0.0111314 3.21275 0.00346373 3.47875Z" fill="url(#paint1_linear)"/>
<defs>
<linearGradient id="paint0_linear" x1="26.0405" y1="7.26081" x2="40" y2="7.26081" gradientUnits="userSpaceOnUse">
<stop stop-color="#A06A95"/>
<stop offset="1" stop-color="#E26540"/>
</linearGradient>
<linearGradient id="paint1_linear" x1="6.62205e-06" y1="7.2608" x2="13.9595" y2="7.2608" gradientUnits="userSpaceOnUse">
<stop stop-color="#1EAEC7"/>
<stop offset="0.0414707" stop-color="#1EAEC7"/>
<stop offset="0.994382" stop-color="#8669AC"/>
<stop offset="1" stop-color="#8669AC"/>
</linearGradient>
</defs>
</svg>
