<svg width="40" height="40" viewBox="0 0 40 40" fill="none" xmlns="http://www.w3.org/2000/svg">
<path d="M28.3759 31.3173C28.3759 31.5097 28.4428 31.6747 28.5724 31.8122C28.702 31.9497 28.8631 32.0165 29.0516 32.0165C29.2401 32.0165 29.4011 31.9497 29.5308 31.8122C29.6643 31.6747 29.7273 31.5097 29.7273 31.3173C29.7273 31.1288 29.6643 30.9678 29.5308 30.8341C29.4011 30.6967 29.2401 30.6299 29.0516 30.6299C28.8631 30.6299 28.702 30.6967 28.5724 30.8341C28.4428 30.9678 28.3759 31.1288 28.3759 31.3173ZM27.2723 31.3173C27.2723 30.8303 27.449 30.41 27.7985 30.0564C28.1482 29.7029 28.5685 29.5262 29.0516 29.5262C29.5386 29.5262 29.955 29.7029 30.3047 30.0564C30.6581 30.41 30.831 30.8303 30.831 31.3173C30.831 31.8083 30.6581 32.2286 30.3047 32.586C29.955 32.9435 29.5386 33.1202 29.0516 33.1202C28.5685 33.1202 28.1482 32.9435 27.7985 32.586C27.449 32.2286 27.2723 31.8083 27.2723 31.3173ZM31.318 32.8729V29.7775C31.318 29.7304 31.3337 29.6911 31.3652 29.6597C31.3966 29.6282 31.4358 29.6125 31.4831 29.6125H31.8836C31.9544 29.6125 32.0054 29.6478 32.0368 29.7147L32.1939 30.0917C32.4532 29.7147 32.7674 29.5262 33.1249 29.5262C33.2781 29.5262 33.4156 29.5458 33.5372 29.5772C33.6551 29.6125 33.7416 29.6597 33.7926 29.7147C33.8438 29.7736 33.8477 29.8326 33.8083 29.8954L33.3919 30.5789C33.3448 30.6613 33.282 30.6849 33.2034 30.6573C33.1328 30.6299 33.0659 30.6142 32.9953 30.6142C32.8656 30.6142 32.7556 30.6613 32.6732 30.7517C32.5868 30.8421 32.5436 30.9598 32.5436 31.1012V32.8729C32.5436 32.9827 32.4807 33.0377 32.3551 33.0377H31.4831C31.4437 33.0377 31.4045 33.0181 31.3691 32.9827C31.3378 32.9513 31.318 32.9121 31.318 32.8729ZM35.3403 30.7674C35.2577 30.8539 35.2146 30.9598 35.2146 31.0855C35.2146 31.2112 35.2577 31.3173 35.3403 31.3998C35.4266 31.4862 35.5366 31.5294 35.6663 31.5294C35.7959 31.5294 35.9059 31.4901 35.9923 31.4076C36.0788 31.3212 36.1219 31.2152 36.1219 31.0855C36.1219 30.952 36.0788 30.846 35.9923 30.7635C35.9059 30.6809 35.7959 30.6416 35.6663 30.6416C35.5366 30.6416 35.4266 30.6809 35.3403 30.7674ZM34.9984 34.2868C34.9984 34.5539 35.2028 34.6875 35.6152 34.6875C36.0277 34.6875 36.2319 34.5539 36.2319 34.2868C36.2319 34.0472 36.0277 33.9255 35.6152 33.9255C35.4423 33.9255 35.297 33.9569 35.1792 34.0197C35.0575 34.0826 34.9984 34.1729 34.9984 34.2868ZM33.6906 32.7275C33.6906 32.5271 33.7455 32.3504 33.8594 32.1933C33.9733 32.0361 34.0872 31.9301 34.2051 31.8712L34.3739 31.7847C34.209 31.6159 34.1266 31.3566 34.1266 31.007C34.1266 30.6103 34.2759 30.2608 34.5705 29.9701C34.869 29.6754 35.2224 29.5262 35.631 29.5262H37.2493C37.3593 29.5262 37.4142 29.5812 37.4142 29.6912V30.0407C37.4142 30.1074 37.3828 30.1586 37.3199 30.186L36.8211 30.3667C36.8447 30.3824 36.8761 30.41 36.9114 30.4531C36.9468 30.4924 36.9978 30.5828 37.0567 30.7281C37.1157 30.8735 37.1471 31.0306 37.1471 31.1955C37.1471 31.5254 37.0096 31.824 36.7307 32.0911C36.4559 32.3543 36.0984 32.4878 35.6663 32.4878H35.0496C34.8611 32.4878 34.7668 32.5663 34.7668 32.7195C34.7668 32.7942 34.7943 32.8492 34.8493 32.8886C34.9043 32.9317 34.9671 32.9513 35.0418 32.9513H36.067C36.4794 32.9513 36.829 33.0653 37.1118 33.2969C37.3986 33.5287 37.5399 33.8273 37.5399 34.2004C37.5399 34.6404 37.3828 34.9978 37.0608 35.2728C36.7425 35.5517 36.2594 35.6892 35.6152 35.6892C35.0065 35.6892 34.5546 35.5752 34.2639 35.3434C33.9733 35.1117 33.8279 34.8368 33.8279 34.5265C33.8279 34.165 34.0009 33.89 34.3504 33.7016V33.678C34.3033 33.6663 34.2523 33.6427 34.1933 33.6033C34.1384 33.568 34.0676 33.517 33.9813 33.4462C33.8948 33.3795 33.8241 33.2812 33.773 33.1516C33.7181 33.022 33.6906 32.8807 33.6906 32.7275ZM25.2336 32.319C25.2336 32.095 25.3162 31.9026 25.4733 31.7376C25.6343 31.5766 25.8228 31.494 26.0388 31.494C26.2627 31.494 26.4552 31.5766 26.6162 31.7376C26.7812 31.9026 26.8598 32.095 26.8598 32.319C26.8598 32.5349 26.7812 32.7235 26.6162 32.8807C26.4552 33.0417 26.2627 33.1202 26.0388 33.1202C25.8228 33.1202 25.6343 33.0417 25.4733 32.8807C25.3162 32.7235 25.2336 32.5349 25.2336 32.319Z" fill="#A1A1A2"/>
<path d="M26.365 19.9459L20.5006 32.9043C20.4023 33.0889 20.2649 33.1793 20.0881 33.1793H19.8446C19.6678 33.1793 19.5303 33.0889 19.4321 32.9043L13.3242 19.3213L15.5003 15.4169C15.7124 15.4169 15.8498 15.5073 15.9127 15.6919L19.9153 24.8245H20.0646L24.0671 15.6919C24.13 15.5073 24.2675 15.4169 24.4795 15.4169L26.365 19.9459Z" fill="#8262AA"/>
<path d="M15.8695 24.9815L13.3242 19.3213L15.5003 15.4169C15.7124 15.4169 15.8499 15.5073 15.9127 15.6919L17.4407 19.18C17.4485 19.2625 17.4564 19.341 17.4643 19.4235C17.641 21.4975 17.0204 23.367 15.8695 24.9815ZM26.365 19.9459L24.134 24.8754C23.0892 23.3161 22.6059 21.5328 22.6059 19.5491C22.6059 19.3645 22.6098 19.18 22.6177 18.9953L24.0672 15.6919C24.13 15.5073 24.2675 15.4169 24.4796 15.4169L26.365 19.9459Z" fill="#71548F"/>
<path d="M25.7499 25.8261C24.0294 24.1056 23.2438 22.016 23.2438 19.5491C23.2438 17.0864 24.0294 14.985 25.7499 13.2488C27.4703 11.5165 29.556 10.6484 32.003 10.6484C34.2853 10.6484 36.2611 11.4143 37.9226 12.9424C38.17 13.1741 38.1779 13.402 37.9501 13.6336L36.0411 15.6291C35.829 15.8254 35.6247 15.8254 35.4283 15.6291C34.4973 14.7924 33.3976 14.3721 32.1249 14.3721C30.754 14.3721 29.611 14.871 28.6997 15.8648C27.7845 16.8585 27.3839 18.0527 27.3839 19.451C27.3839 20.8335 27.7884 22.0119 28.7115 22.99C29.6345 23.9682 30.7776 24.4552 32.1484 24.4552C33.4211 24.4552 34.5131 24.0623 35.4283 23.2728C35.6561 23.0764 35.8683 23.0843 36.0646 23.2964L37.9736 25.3429C38.1858 25.559 38.1779 25.7789 37.9501 26.0107C36.316 27.6053 34.3363 28.4028 32.003 28.4028C29.556 28.4028 27.4703 27.5425 25.7499 25.8261Z" fill="#F16937"/>
<path d="M5.81384 15.2009V20.7315V24.6162H8.13137C9.48648 24.6162 10.6098 24.1253 11.5055 23.1354C12.3971 22.1494 12.8449 20.9318 12.8449 19.4824C12.8449 18.0486 12.3971 16.8349 11.5055 15.8491C10.6098 14.8632 9.48648 14.3681 8.13137 14.3681H5.81384V14.3721V15.2009ZM2.04303 27.8803V20.7315V15.0752V14.2269V12.6792V11.1315C2.04303 10.9941 2.0862 10.8801 2.17658 10.7899C2.26299 10.6955 2.3651 10.6484 2.47905 10.6484H8.37487C10.7945 10.8252 12.5974 11.5322 14.2589 13.2605C15.9166 14.9928 16.5882 16.9528 16.8003 19.4824C17.0046 21.9099 16.0265 24.0191 14.3689 25.7554C12.7074 27.4954 10.7081 28.3635 8.37487 28.3635H2.47905C2.3651 28.3635 2.26299 28.3163 2.17658 28.2221C2.0862 28.1317 2.04303 28.0178 2.04303 27.8803Z" fill="#0DADC7"/>
<path d="M39.4464 3.20775C37.9101 5.23898 36.2993 5.84412 35.1873 6.07985C35.3523 5.89126 35.5449 5.72624 35.6548 5.36476C35.7138 5.1644 35.6273 5.01115 35.3838 5.10543C34.759 5.35689 34.1461 5.4198 33.2071 5.60052C28.4765 6.5003 28.4136 6.84991 26.0405 11.5216C28.5786 10.0286 30.5942 9.74175 32.9242 9.80849C37.7766 9.80849 40.1026 6.89709 39.9965 3.47879C39.9888 3.21272 39.8912 2.99996 39.7372 2.99999C39.6547 2.99999 39.556 3.0611 39.4464 3.20775Z" fill="url(#paint0_linear)"/>
<path d="M0.00346373 3.47876C-0.102616 6.89716 2.22731 9.80846 7.07576 9.80846C9.40573 9.74172 11.4253 10.0285 13.9595 11.5216C11.5903 6.84992 11.5234 6.50031 6.79286 5.60039C5.85781 5.41984 5.2448 5.35689 4.61622 5.1054C4.37655 5.01102 4.28614 5.1644 4.34901 5.36469C4.45506 5.72627 4.64762 5.89116 4.81261 6.07985C3.70463 5.84406 2.0898 5.23898 0.557534 3.20776C0.446487 3.06114 0.346907 3.00006 0.26383 3.00003C0.108744 3.00003 0.0111314 3.21276 0.00346373 3.47876Z" fill="url(#paint1_linear)"/>
<defs>
<linearGradient id="paint0_linear" x1="26.0405" y1="7.26081" x2="40" y2="7.26081" gradientUnits="userSpaceOnUse">
<stop stop-color="#A06A95"/>
<stop offset="1" stop-color="#E26540"/>
</linearGradient>
<linearGradient id="paint1_linear" x1="6.62205e-06" y1="7.26081" x2="13.9595" y2="7.26081" gradientUnits="userSpaceOnUse">
<stop stop-color="#1EAEC7"/>
<stop offset="0.0414707" stop-color="#1EAEC7"/>
<stop offset="0.994382" stop-color="#8669AC"/>
<stop offset="1" stop-color="#8669AC"/>
</linearGradient>
</defs>
</svg>
