<svg width="424" height="347" viewBox="0 0 424 347" fill="none" xmlns="http://www.w3.org/2000/svg">
<path d="M300.274 300.604C300.274 302.64 300.981 304.386 302.353 305.841C303.725 307.296 305.429 308.003 307.424 308.003C309.418 308.003 311.122 307.296 312.494 305.841C313.908 304.386 314.574 302.64 314.574 300.604C314.574 298.61 313.908 296.906 312.494 295.491C311.122 294.037 309.418 293.33 307.424 293.33C305.429 293.33 303.725 294.037 302.353 295.491C300.981 296.906 300.274 298.61 300.274 300.604ZM288.595 300.604C288.595 295.45 290.465 291.003 294.164 287.261C297.864 283.521 302.311 281.65 307.424 281.65C312.577 281.65 316.983 283.521 320.684 287.261C324.424 291.003 326.253 295.45 326.253 300.604C326.253 305.799 324.424 310.247 320.684 314.029C316.983 317.812 312.577 319.682 307.424 319.682C302.311 319.682 297.864 317.812 294.164 314.029C290.465 310.247 288.595 305.799 288.595 300.604ZM331.406 317.065V284.31C331.406 283.811 331.573 283.396 331.906 283.064C332.238 282.73 332.653 282.564 333.153 282.564H337.392C338.141 282.564 338.681 282.938 339.013 283.645L340.675 287.635C343.419 283.645 346.744 281.65 350.527 281.65C352.149 281.65 353.604 281.858 354.89 282.191C356.138 282.564 357.053 283.064 357.593 283.645C358.134 284.268 358.176 284.892 357.759 285.557L353.353 292.79C352.855 293.662 352.19 293.912 351.358 293.62C350.611 293.33 349.903 293.163 349.155 293.163C347.784 293.163 346.62 293.662 345.747 294.619C344.833 295.575 344.376 296.821 344.376 298.317V317.065C344.376 318.228 343.71 318.809 342.381 318.809H333.153C332.737 318.809 332.321 318.601 331.948 318.228C331.616 317.895 331.406 317.48 331.406 317.065ZM373.97 294.785C373.097 295.7 372.64 296.821 372.64 298.151C372.64 299.482 373.097 300.604 373.97 301.477C374.884 302.391 376.048 302.848 377.42 302.848C378.791 302.848 379.956 302.433 380.87 301.559C381.785 300.645 382.242 299.523 382.242 298.151C382.242 296.738 381.785 295.616 380.87 294.743C379.956 293.87 378.791 293.454 377.42 293.454C376.048 293.454 374.884 293.87 373.97 294.785ZM370.353 332.027C370.353 334.854 372.515 336.268 376.88 336.268C381.245 336.268 383.405 334.854 383.405 332.027C383.405 329.491 381.245 328.204 376.88 328.204C375.05 328.204 373.512 328.536 372.266 329.201C370.977 329.866 370.353 330.822 370.353 332.027ZM356.513 315.527C356.513 313.406 357.094 311.536 358.3 309.873C359.504 308.211 360.71 307.088 361.958 306.465L363.744 305.55C361.999 303.763 361.127 301.02 361.127 297.32C361.127 293.122 362.707 289.424 365.824 286.348C368.983 283.23 372.723 281.65 377.046 281.65H394.171C395.335 281.65 395.917 282.232 395.917 283.396V287.095C395.917 287.801 395.584 288.342 394.919 288.633L389.64 290.544C389.89 290.71 390.222 291.003 390.595 291.459C390.971 291.875 391.511 292.831 392.134 294.369C392.758 295.907 393.09 297.57 393.09 299.315C393.09 302.807 391.635 305.965 388.684 308.792C385.775 311.577 381.992 312.991 377.42 312.991H370.895C368.9 312.991 367.902 313.821 367.902 315.442C367.902 316.233 368.192 316.814 368.775 317.231C369.356 317.688 370.021 317.895 370.811 317.895H381.66C386.024 317.895 389.724 319.101 392.716 321.552C395.751 324.005 397.247 327.164 397.247 331.112C397.247 335.769 395.584 339.551 392.177 342.461C388.809 345.412 383.697 346.867 376.88 346.867C370.438 346.867 365.656 345.661 362.58 343.208C359.504 340.757 357.967 337.847 357.967 334.564C357.967 330.738 359.797 327.829 363.495 325.834V325.585C362.997 325.461 362.458 325.211 361.833 324.794C361.252 324.421 360.503 323.881 359.589 323.132C358.674 322.426 357.926 321.386 357.385 320.014C356.804 318.643 356.513 317.148 356.513 315.527ZM267.022 311.204C267.022 308.834 267.895 306.798 269.558 305.052C271.262 303.348 273.257 302.474 275.542 302.474C277.912 302.474 279.948 303.348 281.652 305.052C283.398 306.798 284.23 308.834 284.23 311.204C284.23 313.489 283.398 315.484 281.652 317.148C279.948 318.852 277.912 319.682 275.542 319.682C273.257 319.682 271.262 318.852 269.558 317.148C267.895 315.484 267.022 313.489 267.022 311.204Z" fill="#A1A1A2"/>
<path d="M278.993 180.271L216.936 317.398C215.897 319.35 214.442 320.307 212.571 320.307H209.994C208.124 320.307 206.669 319.35 205.63 317.398L140.995 173.662L164.023 132.345C166.267 132.345 167.722 133.302 168.387 135.255L210.743 231.897H212.323L254.677 135.255C255.343 133.302 256.798 132.345 259.042 132.345L278.993 180.271Z" fill="#8262AA"/>
<path d="M167.93 233.558L140.995 173.662L164.023 132.345C166.268 132.345 167.722 133.302 168.387 135.255L184.556 172.166C184.639 173.039 184.722 173.87 184.806 174.744C186.676 196.69 180.109 216.474 167.93 233.558ZM278.993 180.271L255.385 232.435C244.329 215.934 239.215 197.064 239.215 176.072C239.215 174.119 239.256 172.166 239.34 170.213L254.678 135.255C255.343 133.302 256.798 132.345 259.042 132.345L278.993 180.271Z" fill="#71548F"/>
<path d="M272.484 242.496C254.278 224.29 245.966 202.177 245.966 176.073C245.966 150.012 254.278 127.775 272.484 109.403C290.69 91.0722 312.761 81.8862 338.655 81.8862C362.806 81.8862 383.714 89.9909 401.296 106.161C403.914 108.612 403.998 111.024 401.587 113.475L381.386 134.591C379.142 136.669 376.979 136.669 374.902 134.591C365.05 125.737 353.412 121.29 339.944 121.29C325.438 121.29 313.343 126.569 303.7 137.086C294.015 147.601 289.775 160.238 289.775 175.035C289.775 189.665 294.057 202.134 303.824 212.485C313.592 222.835 325.688 227.989 340.194 227.989C353.661 227.989 365.217 223.832 374.902 215.478C377.312 213.399 379.557 213.483 381.635 215.727L401.836 237.383C404.081 239.669 403.998 241.996 401.587 244.449C384.295 261.324 363.346 269.762 338.655 269.762C312.761 269.762 290.69 260.659 272.484 242.496Z" fill="#F16937"/>
<path d="M61.5217 130.06V188.585V229.693H86.0458C100.385 229.693 112.273 224.498 121.75 214.023C131.186 203.589 135.924 190.705 135.924 175.367C135.924 160.195 131.186 147.351 121.75 136.919C112.273 126.486 100.385 121.248 86.0458 121.248H61.5217V121.29V130.06ZM21.619 264.233V188.585V128.73V119.753V103.376V86.9982C21.619 85.5433 22.0759 84.3375 23.0322 83.3826C23.9466 82.3842 25.0272 81.8861 26.233 81.8861H88.6225C114.227 83.7562 133.306 91.2382 150.887 109.527C168.429 127.858 175.536 148.599 177.781 175.367C179.942 201.055 169.592 223.375 152.052 241.747C134.469 260.161 113.313 269.347 88.6225 269.347H26.233C25.0272 269.347 23.9466 268.847 23.0322 267.85C22.0759 266.894 21.619 265.688 21.619 264.233Z" fill="#0DADC7"/>
<path d="M417.421 3.14906C401.165 24.6435 384.119 31.0471 372.351 33.5416C374.098 31.5459 376.136 29.7997 377.299 25.9745C377.923 23.8543 377.008 22.2326 374.431 23.2302C367.819 25.8912 361.334 26.5569 351.397 28.4693C301.338 37.9908 300.673 41.6904 275.56 91.1262C302.419 75.3267 323.748 72.2917 348.403 72.998C399.751 72.998 424.365 42.1896 423.242 6.01715C423.161 3.20163 422.128 0.95018 420.498 0.950531C419.626 0.950531 418.581 1.5972 417.421 3.14906Z" fill="url(#paint0_linear)"/>
<path d="M0.0366531 6.01678C-1.08589 42.1903 23.5694 72.9976 74.8756 72.9976C99.5313 72.2914 120.902 75.3263 147.719 91.1258C122.648 41.6903 121.941 37.9908 71.882 28.4679C61.9873 26.5573 55.5004 25.8912 48.8487 23.2299C46.3126 22.2311 45.3559 23.8543 46.0212 25.9737C47.1434 29.8 49.1811 31.5448 50.927 33.5415C39.2024 31.0463 22.1142 24.6434 5.89982 3.14903C4.72472 1.59752 3.67097 0.951202 2.79185 0.950851C1.15072 0.950851 0.117792 3.20197 0.0366531 6.01678Z" fill="url(#paint1_linear)"/>
<defs>
<linearGradient id="paint0_linear" x1="275.56" y1="46.0384" x2="423.279" y2="46.0384" gradientUnits="userSpaceOnUse">
<stop stop-color="#A06A95"/>
<stop offset="1" stop-color="#E26540"/>
</linearGradient>
<linearGradient id="paint1_linear" x1="7.00744e-05" y1="46.0384" x2="147.719" y2="46.0384" gradientUnits="userSpaceOnUse">
<stop stop-color="#1EAEC7"/>
<stop offset="0.0414707" stop-color="#1EAEC7"/>
<stop offset="0.994382" stop-color="#8669AC"/>
<stop offset="1" stop-color="#8669AC"/>
</linearGradient>
</defs>
</svg>
