<svg width="423" height="489" viewBox="0 0 423 489" fill="none" xmlns="http://www.w3.org/2000/svg">
<path d="M132.685 39.3936C136.508 43.6326 139.708 48.3288 142.701 53.3163C144.862 56.8903 146.941 60.6312 148.935 64.3717C169.3 59.7997 190.372 57.1807 210.155 57.1807C230.977 57.1807 253.17 59.3841 274.491 64.1639C276.444 60.4647 278.482 56.8487 280.601 53.3163C283.635 48.2871 286.876 43.5077 290.741 39.2274C264.808 32.4104 236.837 29.0858 210.155 29.0858C184.346 29.0858 157.331 33.1593 132.685 39.3936ZM178.36 460.78C246.147 473.706 309.653 455.295 354.58 481.728C381.094 497.355 399.423 483.681 399.423 449.933L399.34 353.76C393.272 357.585 386.041 358.873 378.892 358.873C376.315 358.873 373.781 358.706 371.245 358.332L371.328 449.974C371.328 451.803 371.162 455.461 370.622 458.495C369.915 458.12 369.25 457.788 368.794 457.497C364.969 455.253 360.98 453.216 356.907 451.429C329.393 439.251 298.888 438.172 269.255 438.046C240.536 437.922 211.984 438.587 183.597 433.183C100.475 417.349 57.3764 360.993 52.5553 280.779H28.2415C26.9123 280.779 25.6236 280.613 24.3772 280.322C30.2785 395.987 104.174 446.691 178.36 460.78Z" fill="url(#paint0_linear)"/>
<path d="M301.828 299.654C301.828 301.689 302.535 303.436 303.907 304.89C305.279 306.345 306.983 307.053 308.978 307.053C310.973 307.053 312.677 306.345 314.049 304.89C315.462 303.436 316.128 301.689 316.128 299.654C316.128 297.659 315.462 295.955 314.049 294.54C312.677 293.087 310.973 292.379 308.978 292.379C306.983 292.379 305.279 293.087 303.907 294.54C302.535 295.955 301.828 297.659 301.828 299.654ZM290.149 299.654C290.149 294.5 292.019 290.052 295.718 286.31C299.418 282.57 303.866 280.7 308.978 280.7C314.132 280.7 318.538 282.57 322.238 286.31C325.978 290.052 327.807 294.5 327.807 299.654C327.807 304.849 325.978 309.296 322.238 313.079C318.538 316.862 314.132 318.732 308.978 318.732C303.866 318.732 299.418 316.862 295.718 313.079C292.019 309.296 290.149 304.849 290.149 299.654ZM332.961 316.114V283.359C332.961 282.861 333.127 282.445 333.46 282.113C333.793 281.78 334.208 281.614 334.708 281.614H338.946C339.695 281.614 340.235 281.987 340.567 282.695L342.23 286.684C344.973 282.695 348.299 280.7 352.082 280.7C353.703 280.7 355.158 280.907 356.445 281.24C357.692 281.614 358.607 282.113 359.147 282.695C359.689 283.317 359.73 283.942 359.313 284.607L354.907 291.84C354.409 292.711 353.744 292.962 352.912 292.67C352.165 292.379 351.458 292.213 350.71 292.213C349.338 292.213 348.174 292.711 347.302 293.668C346.387 294.624 345.93 295.87 345.93 297.367V316.114C345.93 317.277 345.264 317.858 343.935 317.858H334.708C334.291 317.858 333.876 317.651 333.502 317.277C333.17 316.945 332.961 316.529 332.961 316.114ZM375.524 293.834C374.651 294.749 374.194 295.87 374.194 297.201C374.194 298.531 374.651 299.654 375.524 300.526C376.438 301.441 377.602 301.898 378.974 301.898C380.346 301.898 381.51 301.482 382.424 300.609C383.339 299.695 383.796 298.573 383.796 297.201C383.796 295.787 383.339 294.666 382.424 293.793C381.51 292.919 380.346 292.503 378.974 292.503C377.602 292.503 376.438 292.919 375.524 293.834ZM371.907 331.077C371.907 333.903 374.07 335.317 378.434 335.317C382.799 335.317 384.96 333.903 384.96 331.077C384.96 328.541 382.799 327.253 378.434 327.253C376.604 327.253 375.066 327.586 373.82 328.25C372.532 328.916 371.907 329.871 371.907 331.077ZM358.068 314.576C358.068 312.456 358.649 310.585 359.854 308.923C361.059 307.26 362.265 306.138 363.512 305.515L365.299 304.6C363.553 302.813 362.681 300.069 362.681 296.37C362.681 292.172 364.261 288.473 367.378 285.397C370.537 282.279 374.277 280.7 378.601 280.7H395.726C396.89 280.7 397.471 281.282 397.471 282.445V286.144C397.471 286.85 397.139 287.392 396.473 287.682L391.194 289.594C391.444 289.76 391.776 290.052 392.15 290.509C392.525 290.924 393.065 291.881 393.688 293.419C394.312 294.957 394.645 296.619 394.645 298.365C394.645 301.856 393.19 305.015 390.238 307.842C387.33 310.627 383.547 312.04 378.974 312.04H372.449C370.454 312.04 369.456 312.871 369.456 314.492C369.456 315.282 369.747 315.863 370.329 316.28C370.911 316.737 371.575 316.945 372.366 316.945H383.214C387.579 316.945 391.278 318.15 394.271 320.602C397.305 323.055 398.801 326.214 398.801 330.162C398.801 334.818 397.139 338.6 393.731 341.51C390.363 344.462 385.251 345.917 378.434 345.917C371.992 345.917 367.21 344.711 364.135 342.258C361.059 339.806 359.521 336.896 359.521 333.613C359.521 329.788 361.351 326.878 365.05 324.884V324.634C364.552 324.51 364.012 324.261 363.387 323.844C362.806 323.47 362.057 322.93 361.143 322.181C360.228 321.475 359.481 320.436 358.94 319.064C358.358 317.692 358.068 316.197 358.068 314.576ZM268.576 310.253C268.576 307.883 269.45 305.847 271.112 304.101C272.816 302.397 274.811 301.524 277.097 301.524C279.466 301.524 281.503 302.397 283.207 304.101C284.952 305.847 285.784 307.883 285.784 310.253C285.784 312.538 284.952 314.533 283.207 316.197C281.503 317.901 279.466 318.732 277.097 318.732C274.811 318.732 272.816 317.901 271.112 316.197C269.45 314.533 268.576 312.538 268.576 310.253Z" fill="#A1A1A2"/>
<path d="M280.548 179.32L218.491 316.447C217.451 318.4 215.996 319.356 214.126 319.356H211.549C209.678 319.356 208.224 318.4 207.184 316.447L142.55 172.712L165.577 131.395C167.822 131.395 169.277 132.352 169.941 134.305L212.297 230.946H213.877L256.232 134.305C256.897 132.352 258.352 131.395 260.596 131.395L280.548 179.32Z" fill="#8262AA"/>
<path d="M169.485 232.607L142.55 172.712L165.578 131.395C167.822 131.395 169.277 132.352 169.941 134.305L186.111 171.216C186.194 172.089 186.277 172.92 186.36 173.793C188.23 195.739 181.664 215.523 169.485 232.607ZM280.548 179.32L256.939 231.485C245.883 214.984 240.769 196.113 240.769 175.122C240.769 173.169 240.811 171.216 240.894 169.262L256.232 134.305C256.897 132.352 258.352 131.395 260.596 131.395L280.548 179.32Z" fill="#71548F"/>
<path d="M274.039 241.545C255.832 223.339 247.52 201.227 247.52 175.122C247.52 149.062 255.832 126.825 274.039 108.452C292.244 90.1216 314.316 80.9356 340.21 80.9356C364.36 80.9356 385.269 89.0403 402.85 105.21C405.468 107.662 405.552 110.073 403.141 112.525L382.94 133.641C380.696 135.718 378.534 135.718 376.456 133.641C366.604 124.787 354.966 120.339 341.499 120.339C326.993 120.339 314.897 125.619 305.254 136.135C295.57 146.65 291.33 159.287 291.33 174.084C291.33 188.714 295.611 201.184 305.379 211.534C315.146 221.885 327.242 227.038 341.748 227.038C355.216 227.038 366.771 222.881 376.456 214.527C378.866 212.448 381.112 212.532 383.189 214.776L403.39 236.432C405.635 238.719 405.552 241.046 403.141 243.498C385.85 260.373 364.9 268.812 340.21 268.812C314.316 268.812 292.244 259.709 274.039 241.545Z" fill="#F16937"/>
<path d="M63.076 129.11V187.635V228.742H87.6001C101.94 228.742 113.827 223.547 123.305 213.072C132.74 202.639 137.478 189.754 137.478 174.416C137.478 159.244 132.74 146.401 123.305 135.969C113.827 125.536 101.94 120.297 87.6001 120.297H63.076V120.339V129.11ZM23.1733 263.283V187.635V127.78V118.803V102.425V86.0477C23.1733 84.5928 23.6302 83.387 24.5866 82.432C25.501 81.4337 26.5815 80.9356 27.7873 80.9356H90.1768C115.781 82.8056 134.86 90.2877 152.442 108.577C169.983 126.907 177.09 147.648 179.335 174.416C181.496 200.104 171.146 222.424 153.606 240.797C136.023 259.21 114.867 268.396 90.1768 268.396H27.7873C26.5815 268.396 25.501 267.897 24.5866 266.9C23.6302 265.943 23.1733 264.738 23.1733 263.283Z" fill="#0DADC7"/>
<path d="M416.859 2.19815C400.603 23.6933 383.556 30.0965 371.789 32.591C373.535 30.595 375.573 28.8491 376.737 25.0243C377.361 22.9037 376.446 21.282 373.869 22.2797C367.257 24.941 360.771 25.606 350.835 27.5188C300.776 37.0403 300.11 40.7398 274.998 90.1753C301.856 74.3765 323.186 71.3412 347.841 72.0474C399.189 72.0474 423.803 41.239 422.68 5.06657C422.598 2.25106 421.566 -0.000350952 419.936 7.62939e-06C419.063 7.62939e-06 418.019 0.646278 416.859 2.19815Z" fill="url(#paint1_linear)"/>
<path d="M0.767977 5.06623C-0.354562 41.2394 24.3004 72.0471 75.607 72.0471C100.263 71.3408 121.634 74.3761 148.45 90.1753C123.379 40.7395 122.672 37.0399 72.6133 27.5174C62.7182 25.6067 56.2317 24.9407 49.5801 22.279C47.0439 21.281 46.0872 22.9037 46.7526 25.0236C47.8748 28.8498 49.9124 30.5943 51.6583 32.591C39.9341 30.0958 22.8455 23.6929 6.63114 2.19884C5.45604 0.646965 4.40229 0.000701904 3.52317 0.000350952C1.88205 -7.62939e-06 0.849469 2.25142 0.767977 5.06623Z" fill="url(#paint2_linear)"/>
<defs>
<linearGradient id="paint0_linear" x1="24.3772" y1="258.626" x2="399.423" y2="258.626" gradientUnits="userSpaceOnUse">
<stop stop-color="#27AFC8"/>
<stop offset="0.0211878" stop-color="#27AFC8"/>
<stop offset="0.508039" stop-color="#8669AC"/>
<stop offset="0.513088" stop-color="#8669AC"/>
<stop offset="0.994382" stop-color="#F16F45"/>
<stop offset="1" stop-color="#F16F45"/>
</linearGradient>
<linearGradient id="paint1_linear" x1="274.998" y1="45.0879" x2="422.717" y2="45.0879" gradientUnits="userSpaceOnUse">
<stop stop-color="#A06A95"/>
<stop offset="1" stop-color="#E26540"/>
</linearGradient>
<linearGradient id="paint2_linear" x1="0.73139" y1="45.0879" x2="148.45" y2="45.0879" gradientUnits="userSpaceOnUse">
<stop stop-color="#1EAEC7"/>
<stop offset="0.0414707" stop-color="#1EAEC7"/>
<stop offset="0.994382" stop-color="#8669AC"/>
<stop offset="1" stop-color="#8669AC"/>
</linearGradient>
</defs>
</svg>
