<svg width="40" height="40" viewBox="0 0 40 40" fill="none" xmlns="http://www.w3.org/2000/svg">
<path d="M13.0336 3.2279C13.3469 3.57524 13.6091 3.96004 13.8543 4.36872C14.0314 4.66157 14.2017 4.9681 14.3652 5.27459C16.0338 4.89996 17.7605 4.68536 19.3815 4.68536C21.0876 4.68536 22.9061 4.86591 24.6531 5.25756C24.8131 4.95445 24.9801 4.65816 25.1537 4.36872C25.4023 3.95663 25.6679 3.56501 25.9846 3.21429C23.8597 2.6557 21.5678 2.38329 19.3815 2.38329C17.2667 2.38329 15.0531 2.71707 13.0336 3.2279ZM16.7762 37.7561C22.3306 38.8153 27.5343 37.3066 31.2155 39.4725C33.3881 40.753 34.8899 39.6325 34.8899 36.8672L34.8832 28.9869C34.386 29.3003 33.7935 29.4059 33.2077 29.4059C32.9965 29.4059 32.7889 29.3922 32.581 29.3616L32.5879 36.8706C32.5879 37.0205 32.5743 37.3202 32.53 37.5688C32.4721 37.5381 32.4176 37.5109 32.3802 37.4871C32.0668 37.3032 31.74 37.1363 31.4062 36.9898C29.1517 35.992 26.6522 35.9036 24.2241 35.8932C21.8708 35.8831 19.5313 35.9376 17.2053 35.4948C10.3944 34.1973 6.86287 29.5795 6.46784 23.0069H4.47558C4.36666 23.0069 4.26106 22.9933 4.15894 22.9695C4.64248 32.447 10.6974 36.6016 16.7762 37.7561Z" fill="url(#paint0_linear)"/>
<path d="M26.8931 24.5535C26.8931 24.7203 26.9511 24.8634 27.0635 24.9826C27.1759 25.1018 27.3156 25.1598 27.479 25.1598C27.6425 25.1598 27.7821 25.1018 27.8945 24.9826C28.0103 24.8634 28.0649 24.7203 28.0649 24.5535C28.0649 24.39 28.0103 24.2504 27.8945 24.1345C27.7821 24.0154 27.6425 23.9574 27.479 23.9574C27.3156 23.9574 27.1759 24.0154 27.0635 24.1345C26.9511 24.2504 26.8931 24.39 26.8931 24.5535ZM25.9362 24.5535C25.9362 24.1312 26.0894 23.7667 26.3925 23.4602C26.6957 23.1537 27.0601 23.0004 27.479 23.0004C27.9013 23.0004 28.2623 23.1537 28.5655 23.4602C28.872 23.7667 29.0218 24.1312 29.0218 24.5535C29.0218 24.9792 28.872 25.3436 28.5655 25.6535C28.2623 25.9635 27.9013 26.1167 27.479 26.1167C27.0601 26.1167 26.6957 25.9635 26.3925 25.6535C26.0894 25.3436 25.9362 24.9792 25.9362 24.5535ZM29.4441 25.9023V23.2183C29.4441 23.1775 29.4578 23.1435 29.4851 23.1162C29.5123 23.0889 29.5463 23.0753 29.5873 23.0753H29.9346C29.996 23.0753 30.0402 23.1059 30.0674 23.1639L30.2036 23.4908C30.4285 23.1639 30.7009 23.0004 31.0109 23.0004C31.1438 23.0004 31.263 23.0174 31.3684 23.0447C31.4706 23.0753 31.5456 23.1162 31.5898 23.1639C31.6342 23.2149 31.6376 23.2661 31.6034 23.3205L31.2424 23.9132C31.2016 23.9846 31.1471 24.0052 31.079 23.9812C31.0177 23.9574 30.9598 23.9438 30.8985 23.9438C30.7861 23.9438 30.6907 23.9846 30.6192 24.063C30.5443 24.1414 30.5069 24.2435 30.5069 24.3661V25.9023C30.5069 25.9975 30.4523 26.0452 30.3434 26.0452H29.5873C29.5531 26.0452 29.5191 26.0282 29.4885 25.9975C29.4613 25.9703 29.4441 25.9363 29.4441 25.9023ZM32.9318 24.0766C32.8602 24.1516 32.8228 24.2435 32.8228 24.3525C32.8228 24.4615 32.8602 24.5535 32.9318 24.625C33.0067 24.6999 33.102 24.7374 33.2145 24.7374C33.3268 24.7374 33.4223 24.7033 33.4971 24.6317C33.5721 24.5569 33.6096 24.4649 33.6096 24.3525C33.6096 24.2367 33.5721 24.1448 33.4971 24.0732C33.4223 24.0017 33.3268 23.9676 33.2145 23.9676C33.102 23.9676 33.0067 24.0017 32.9318 24.0766ZM32.6354 27.1283C32.6354 27.3599 32.8126 27.4757 33.1702 27.4757C33.5279 27.4757 33.7049 27.3599 33.7049 27.1283C33.7049 26.9205 33.5279 26.815 33.1702 26.815C33.0203 26.815 32.8942 26.8422 32.7922 26.8967C32.6866 26.9512 32.6354 27.0295 32.6354 27.1283ZM31.5014 25.7762C31.5014 25.6025 31.549 25.4492 31.6478 25.313C31.7465 25.1768 31.8453 25.0848 31.9475 25.0337L32.0939 24.9588C31.9509 24.8123 31.8794 24.5875 31.8794 24.2844C31.8794 23.9404 32.0089 23.6373 32.2643 23.3853C32.5231 23.1298 32.8296 23.0004 33.1838 23.0004H34.5871C34.6824 23.0004 34.7301 23.0481 34.7301 23.1435V23.4465C34.7301 23.5044 34.7029 23.5488 34.6483 23.5725L34.2158 23.7292C34.2362 23.7428 34.2634 23.7667 34.2941 23.8042C34.3248 23.8382 34.369 23.9166 34.4201 24.0426C34.4712 24.1686 34.4985 24.3048 34.4985 24.4479C34.4985 24.7339 34.3793 24.9928 34.1374 25.2244C33.8991 25.4526 33.5891 25.5684 33.2145 25.5684H32.6798C32.5163 25.5684 32.4345 25.6365 32.4345 25.7693C32.4345 25.8341 32.4584 25.8817 32.5061 25.9159C32.5537 25.9533 32.6082 25.9703 32.673 25.9703H33.5619C33.9195 25.9703 34.2226 26.0691 34.4678 26.27C34.7165 26.471 34.8391 26.7298 34.8391 27.0533C34.8391 27.4349 34.7029 27.7447 34.4236 27.9832C34.1476 28.225 33.7288 28.3442 33.1702 28.3442C32.6423 28.3442 32.2505 28.2454 31.9985 28.0444C31.7465 27.8435 31.6205 27.6051 31.6205 27.3361C31.6205 27.0227 31.7704 26.7842 32.0735 26.6208V26.6004C32.0327 26.5902 31.9885 26.5698 31.9373 26.5356C31.8897 26.505 31.8283 26.4608 31.7534 26.3994C31.6784 26.3415 31.6172 26.2564 31.5728 26.1439C31.5252 26.0316 31.5014 25.909 31.5014 25.7762ZM24.1685 25.422C24.1685 25.2278 24.2401 25.061 24.3763 24.9179C24.5159 24.7783 24.6794 24.7067 24.8667 24.7067C25.0608 24.7067 25.2277 24.7783 25.3673 24.9179C25.5104 25.061 25.5785 25.2278 25.5785 25.422C25.5785 25.6092 25.5104 25.7727 25.3673 25.909C25.2277 26.0487 25.0608 26.1167 24.8667 26.1167C24.6794 26.1167 24.5159 26.0487 24.3763 25.909C24.2401 25.7727 24.1685 25.6092 24.1685 25.422Z" fill="#A1A1A2"/>
<path d="M25.1494 14.6934L20.0645 25.9295C19.9793 26.0895 19.8602 26.1679 19.7069 26.1679H19.4957C19.3425 26.1679 19.2233 26.0895 19.1381 25.9295L13.842 14.1519L15.7288 10.7665C15.9127 10.7665 16.032 10.8448 16.0864 11.0049L19.557 18.9236H19.6865L23.157 11.0049C23.2115 10.8448 23.3308 10.7665 23.5146 10.7665L25.1494 14.6934Z" fill="#8262AA"/>
<path d="M16.049 19.0598L13.842 14.1519L15.7289 10.7665C15.9128 10.7665 16.032 10.8449 16.0864 11.0049L17.4113 14.0294C17.4181 14.1009 17.425 14.169 17.4318 14.2406C17.585 16.0388 17.0469 17.6599 16.049 19.0598ZM25.1495 14.6935L23.215 18.9678C22.3091 17.6157 21.89 16.0695 21.89 14.3494C21.89 14.1894 21.8934 14.0294 21.9002 13.8693L23.157 11.0049C23.2116 10.8449 23.3308 10.7665 23.5146 10.7665L25.1495 14.6935Z" fill="#71548F"/>
<path d="M24.6161 19.7921C23.1243 18.3003 22.4432 16.4884 22.4432 14.3494C22.4432 12.2141 23.1243 10.392 24.6161 8.88655C26.1079 7.38454 27.9164 6.63185 30.0381 6.63185C32.017 6.63185 33.7302 7.29594 35.1709 8.6209C35.3854 8.82177 35.3923 9.01937 35.1947 9.22024L33.5394 10.9505C33.3556 11.1207 33.1784 11.1207 33.0081 10.9505C32.2009 10.225 31.2473 9.86055 30.1438 9.86055C28.9551 9.86055 27.964 10.2932 27.1739 11.1549C26.3803 12.0164 26.0329 13.0519 26.0329 14.2644C26.0329 15.4632 26.3837 16.4849 27.1841 17.333C27.9844 18.1811 28.9756 18.6034 30.1642 18.6034C31.2677 18.6034 32.2146 18.2628 33.0081 17.5782C33.2056 17.4079 33.3896 17.4148 33.5598 17.5987L35.2151 19.3731C35.3991 19.5605 35.3923 19.7512 35.1947 19.9522C33.7778 21.3349 32.0613 22.0263 30.0381 22.0263C27.9164 22.0263 26.1079 21.2804 24.6161 19.7921Z" fill="#F16937"/>
<path d="M7.32997 10.5792V15.3747V18.743H9.33946C10.5144 18.743 11.4885 18.3173 12.2651 17.459C13.0382 16.6041 13.4264 15.5483 13.4264 14.2916C13.4264 13.0484 13.0382 11.996 12.2651 11.1412C11.4885 10.2863 10.5144 9.8571 9.33946 9.8571H7.32997V9.86052V10.5792ZM4.06036 21.5733V15.3747V10.4702V9.73463V8.39265V7.0507C4.06036 6.93149 4.0978 6.83268 4.17616 6.75443C4.25109 6.67263 4.33963 6.63181 4.43843 6.63181H9.55059C11.6486 6.78505 13.2119 7.39812 14.6525 8.89672C16.0899 10.3987 16.6722 12.0982 16.8562 14.2916C17.0333 16.3964 16.1852 18.2253 14.7479 19.7308C13.3072 21.2396 11.5737 21.9922 9.55059 21.9922H4.43843C4.33963 21.9922 4.25109 21.9513 4.17616 21.8696C4.0978 21.7913 4.06036 21.6925 4.06036 21.5733Z" fill="#0DADC7"/>
<path d="M36.3187 0.180118C34.9867 1.94141 33.5898 2.46609 32.6257 2.67049C32.7687 2.50694 32.9357 2.36388 33.0311 2.05048C33.0822 1.87672 33.0073 1.74384 32.7961 1.82559C32.2543 2.04366 31.7229 2.09815 30.9087 2.25488C26.8069 3.03506 26.7523 3.3382 24.6946 7.38892C26.8954 6.09437 28.6431 5.84566 30.6634 5.90353C34.8708 5.90353 36.8877 3.3791 36.7956 0.415156C36.789 0.184454 36.7043 -2.52724e-05 36.5708 3.8147e-06C36.4993 3.8147e-06 36.4137 0.052959 36.3187 0.180118Z" fill="url(#paint1_linear)"/>
<path d="M2.22444 0.415127C2.13246 3.37913 4.15267 5.9035 8.3567 5.9035C10.377 5.84563 12.1281 6.09434 14.3254 7.38892C12.2712 3.33817 12.2132 3.03503 8.1114 2.25476C7.30061 2.0982 6.7691 2.04363 6.22407 1.82553C6.01627 1.74375 5.93787 1.87672 5.99239 2.05042C6.08434 2.36394 6.2513 2.50688 6.39436 2.67049C5.43369 2.46604 4.03346 1.94138 2.70486 0.180174C2.60858 0.0530148 2.52223 6.05583e-05 2.4502 3.14713e-05C2.31573 2.38419e-06 2.23112 0.184483 2.22444 0.415127Z" fill="url(#paint2_linear)"/>
<defs>
<linearGradient id="paint0_linear" x1="4.15894" y1="21.1916" x2="34.89" y2="21.1916" gradientUnits="userSpaceOnUse">
<stop stop-color="#27AFC8"/>
<stop offset="0.0211878" stop-color="#27AFC8"/>
<stop offset="0.508039" stop-color="#8669AC"/>
<stop offset="0.513088" stop-color="#8669AC"/>
<stop offset="0.994382" stop-color="#F16F45"/>
<stop offset="1" stop-color="#F16F45"/>
</linearGradient>
<linearGradient id="paint1_linear" x1="24.6946" y1="3.69448" x2="36.7987" y2="3.69448" gradientUnits="userSpaceOnUse">
<stop stop-color="#A06A95"/>
<stop offset="1" stop-color="#E26540"/>
</linearGradient>
<linearGradient id="paint2_linear" x1="2.22144" y1="3.69448" x2="14.3255" y2="3.69448" gradientUnits="userSpaceOnUse">
<stop stop-color="#1EAEC7"/>
<stop offset="0.0414707" stop-color="#1EAEC7"/>
<stop offset="0.994382" stop-color="#8669AC"/>
<stop offset="1" stop-color="#8669AC"/>
</linearGradient>
</defs>
</svg>
