<svg width="40" height="40" viewBox="0 0 40 40" fill="none" xmlns="http://www.w3.org/2000/svg">
<path d="M23.5915 21.0181L17.9034 33.587C17.808 33.7661 17.6747 33.8538 17.503 33.8538H17.2676C17.0963 33.8538 16.9626 33.7661 16.8676 33.587L10.9424 20.4122L13.0533 16.624C13.2589 16.624 13.3922 16.712 13.4533 16.8908L17.3355 25.7508H17.4804L21.3626 16.8908C21.4234 16.712 21.5567 16.624 21.7626 16.624L23.5915 21.0181Z" fill="#945DD6"/>
<path d="M23.5915 21.0181L21.4272 25.7993C20.4139 24.2875 19.9453 22.5573 19.9453 20.6336C19.9453 20.4547 19.9491 20.2757 19.9566 20.0969L21.3626 16.8924C21.4234 16.7135 21.5567 16.6256 21.7626 16.6256L23.5915 21.0181ZM13.4113 25.9024L10.9424 20.4122L13.0533 16.624C13.2589 16.624 13.3922 16.712 13.4533 16.8908L14.9353 20.2741L14.9582 20.5104C15.1296 22.522 14.5275 24.3354 13.4113 25.9015V25.9024Z" fill="#71548F"/>
<path d="M22.9946 26.7215C21.3261 25.0526 20.564 23.0265 20.564 20.6336C20.564 18.2408 21.3261 16.2066 22.9946 14.5222C24.6632 12.8378 26.6868 12 29.0602 12C31.2734 12 33.1873 12.7416 34.8017 14.225C35.0416 14.4514 35.0494 14.6709 34.8282 14.8954L32.9767 16.831C32.771 17.0213 32.5729 17.0213 32.3823 16.831C31.4793 16.0193 30.4113 15.613 29.1783 15.6119C27.8486 15.6119 26.7412 16.0945 25.8561 17.0596C24.9685 18.0235 24.5798 19.1817 24.5798 20.5367C24.5798 21.8776 24.972 23.0206 25.8673 23.9694C26.7627 24.9181 27.8721 25.3906 29.2012 25.3906C30.4355 25.3906 31.496 25.0083 32.3823 24.2436C32.6034 24.0532 32.8091 24.0609 32.9996 24.2665L34.8512 26.2516C35.0569 26.4612 35.0494 26.6746 34.8282 26.8984C33.2436 28.4448 31.3209 29.2182 29.0602 29.2184C26.6868 29.2184 24.6649 28.3854 22.9946 26.7192V26.7215Z" fill="#F46737"/>
<path d="M0.000292011 28.714V12.4686C-0.00191641 12.4074 0.00842027 12.3464 0.0306651 12.2894C0.0529099 12.2324 0.0865917 12.1806 0.129635 12.1371C0.165802 12.0944 0.210765 12.0601 0.261442 12.0364C0.312119 12.0128 0.367314 12.0003 0.423244 12H6.14182C8.48875 12.1714 10.2375 12.8572 11.8491 14.5335C13.4606 16.2098 14.1084 18.115 14.314 20.569C14.5122 22.9237 13.5635 24.9695 11.9558 26.6536C10.348 28.3376 8.40499 29.1832 6.14182 29.1832H0.423244C0.367264 29.1828 0.312038 29.1703 0.261357 29.1465C0.210677 29.1227 0.165742 29.0882 0.129635 29.0454C0.0865917 29.0019 0.0529099 28.9501 0.0306651 28.8931C0.00842027 28.8361 -0.00191641 28.7751 0.000292011 28.714ZM3.65779 16.4158V25.5487H5.90577C7.22075 25.5487 8.31166 25.0699 9.17849 24.1124C10.0453 23.1548 10.4781 21.9736 10.4771 20.569C10.4771 19.1785 10.0428 18.0012 9.17814 17.0444C8.31349 16.0876 7.21989 15.6081 5.90544 15.6081H3.65779V16.4164V16.4158Z" fill="#13ADC7"/>
<rect x="24" y="4" width="16" height="16" rx="8" fill="#CDCFD4"/>
<g clip-path="url(#clip0_731_570)">
<mask id="mask0_731_570" style="mask-type:alpha" maskUnits="userSpaceOnUse" x="27" y="7" width="10" height="10">
<path fill-rule="evenodd" clip-rule="evenodd" d="M34.0912 16.9317C34.2487 16.993 34.4283 16.9891 34.5872 16.9126L36.6461 15.9219C36.8624 15.8178 37 15.5989 37 15.3587V8.6413C37 8.4011 36.8624 8.18215 36.6461 8.07805L34.5872 7.08735C34.3786 6.98696 34.1345 7.01155 33.9513 7.14466C33.9252 7.16368 33.9003 7.18491 33.8769 7.20831L29.9355 10.8041L28.2187 9.50093C28.0589 9.37962 27.8354 9.38956 27.6869 9.52458L27.1363 10.0255C26.9547 10.1906 26.9545 10.4762 27.1359 10.6417L28.6247 12L27.1359 13.3583C26.9545 13.5237 26.9547 13.8093 27.1363 13.9745L27.6869 14.4754C27.8354 14.6104 28.0589 14.6203 28.2187 14.499L29.9355 13.1958L33.8769 16.7916C33.9392 16.854 34.0125 16.901 34.0912 16.9317ZM34.5015 9.72986L31.5109 12L34.5015 14.2701V9.72986Z" fill="white"/>
</mask>
<g mask="url(#mask0_731_570)">
<path d="M36.6461 8.07951L34.5857 7.08744C34.3472 6.97261 34.0621 7.02105 33.875 7.20822L27.1298 13.3582C26.9484 13.5236 26.9486 13.8093 27.1303 13.9744L27.6812 14.4753C27.8298 14.6103 28.0534 14.6202 28.2134 14.4989L36.3361 8.33688C36.6086 8.13015 37 8.32451 37 8.66656V8.64264C37 8.40254 36.8624 8.18367 36.6461 8.07951Z" fill="#0065A9"/>
<g filter="url(#filter0_d_731_570)">
<path d="M36.6461 15.9204L34.5857 16.9125C34.3472 17.0273 34.0621 16.9789 33.875 16.7917L27.1298 10.6417C26.9484 10.4763 26.9486 10.1907 27.1303 10.0255L27.6812 9.52462C27.8298 9.3896 28.0534 9.37966 28.2134 9.50097L36.3361 15.663C36.6086 15.8698 37 15.6754 37 15.3334V15.3573C37 15.5974 36.8624 15.8162 36.6461 15.9204Z" fill="#007ACC"/>
</g>
<g filter="url(#filter1_d_731_570)">
<path d="M34.5858 16.9126C34.3472 17.0274 34.0622 16.9788 33.875 16.7916C34.1056 17.0223 34.5 16.8589 34.5 16.5328V7.46719C34.5 7.14102 34.1056 6.97767 33.875 7.20831C34.0622 7.02112 34.3472 6.97262 34.5858 7.08735L36.6459 8.07805C36.8623 8.18215 37 8.4011 37 8.6413V15.3587C37 15.5989 36.8623 15.8178 36.6459 15.9219L34.5858 16.9126Z" fill="#1F9CF0"/>
</g>
<g style="mix-blend-mode:overlay" opacity="0.25">
<path style="mix-blend-mode:overlay" fill-rule="evenodd" clip-rule="evenodd" d="M34.0851 16.9318C34.2426 16.9932 34.4222 16.9892 34.5811 16.9127L36.64 15.9221C36.8563 15.818 36.9939 15.599 36.9939 15.3588V8.64143C36.9939 8.40122 36.8563 8.18227 36.64 8.07817L34.5811 7.08747C34.3725 6.98708 34.1284 7.01167 33.9452 7.14479C33.9191 7.1638 33.8942 7.18503 33.8708 7.20843L29.9294 10.8042L28.2126 9.50106C28.0528 9.37974 27.8293 9.38969 27.6808 9.5247L27.1302 10.0256C26.9486 10.1907 26.9484 10.4764 27.1297 10.6418L28.6186 12.0001L27.1297 13.3584C26.9484 13.5238 26.9486 13.8095 27.1302 13.9746L27.6808 14.4755C27.8293 14.6105 28.0528 14.6205 28.2126 14.4991L29.9294 13.196L33.8708 16.7918C33.9331 16.8541 34.0064 16.9011 34.0851 16.9318ZM34.4954 9.72999L31.5048 12.0001L34.4954 14.2702V9.72999Z" fill="url(#paint0_linear_731_570)"/>
</g>
</g>
</g>
<defs>
<filter id="filter0_d_731_570" x="18.6606" y="1.08292" width="26.6728" height="24.2245" filterUnits="userSpaceOnUse" color-interpolation-filters="sRGB">
<feFlood flood-opacity="0" result="BackgroundImageFix"/>
<feColorMatrix in="SourceAlpha" type="matrix" values="0 0 0 0 0 0 0 0 0 0 0 0 0 0 0 0 0 0 127 0" result="hardAlpha"/>
<feOffset/>
<feGaussianBlur stdDeviation="4.16667"/>
<feColorMatrix type="matrix" values="0 0 0 0 0 0 0 0 0 0 0 0 0 0 0 0 0 0 0.25 0"/>
<feBlend mode="overlay" in2="BackgroundImageFix" result="effect1_dropShadow_731_570"/>
<feBlend mode="normal" in="SourceGraphic" in2="effect1_dropShadow_731_570" result="shape"/>
</filter>
<filter id="filter1_d_731_570" x="25.5417" y="-1.30758" width="19.7917" height="26.6152" filterUnits="userSpaceOnUse" color-interpolation-filters="sRGB">
<feFlood flood-opacity="0" result="BackgroundImageFix"/>
<feColorMatrix in="SourceAlpha" type="matrix" values="0 0 0 0 0 0 0 0 0 0 0 0 0 0 0 0 0 0 127 0" result="hardAlpha"/>
<feOffset/>
<feGaussianBlur stdDeviation="4.16667"/>
<feColorMatrix type="matrix" values="0 0 0 0 0 0 0 0 0 0 0 0 0 0 0 0 0 0 0.25 0"/>
<feBlend mode="overlay" in2="BackgroundImageFix" result="effect1_dropShadow_731_570"/>
<feBlend mode="normal" in="SourceGraphic" in2="effect1_dropShadow_731_570" result="shape"/>
</filter>
<linearGradient id="paint0_linear_731_570" x1="31.9939" y1="7.02588" x2="31.9939" y2="16.9743" gradientUnits="userSpaceOnUse">
<stop stop-color="white"/>
<stop offset="1" stop-color="white" stop-opacity="0"/>
</linearGradient>
<clipPath id="clip0_731_570">
<rect width="10" height="10" fill="white" transform="translate(27 7)"/>
</clipPath>
</defs>
</svg>
