<svg width="40" height="40" viewBox="0 0 40 40" fill="none" xmlns="http://www.w3.org/2000/svg">
<path d="M32.0806 9.75393L26.7266 7.16121C26.1069 6.8611 25.3663 6.98769 24.88 7.47686L7.35322 23.5496C6.88179 23.9819 6.88234 24.7284 7.35439 25.16L8.78603 26.469C9.17195 26.8219 9.75316 26.8479 10.1687 26.5308L31.2749 10.4266C31.983 9.88628 33.0001 10.3942 33.0001 11.2882V11.2256C33.0001 10.5982 32.6427 10.0261 32.0806 9.75393Z" fill="url(#paint0_linear_762_1025)"/>
<path d="M32.0806 30.2473L26.7266 32.84C26.1069 33.1402 25.3663 33.0136 24.88 32.5244L7.35322 16.4517C6.88179 16.0194 6.88234 15.2729 7.35439 14.8412L8.78603 13.5322C9.17195 13.1794 9.75316 13.1534 10.1687 13.4704L31.2749 29.5747C31.983 30.115 33.0001 29.607 33.0001 28.7131V28.7756C33.0001 29.4031 32.6427 29.9751 32.0806 30.2473Z" fill="url(#paint1_linear_762_1025)"/>
<path d="M26.7269 32.8389C26.107 33.1388 25.3664 33.0119 24.88 32.5227C25.4793 33.1255 26.504 32.6986 26.504 31.8461V8.15368C26.504 7.30124 25.4793 6.87433 24.88 7.4771C25.3664 6.98789 26.107 6.86112 26.7269 7.16096L32.0799 9.75013C32.6424 10.0222 33.0001 10.5944 33.0001 11.2222V28.7778C33.0001 29.4055 32.6424 29.9777 32.0799 30.2498L26.7269 32.8389Z" fill="url(#paint2_linear_762_1025)"/>
<defs>
<linearGradient id="paint0_linear_762_1025" x1="24.5" y1="11" x2="9" y2="25" gradientUnits="userSpaceOnUse">
<stop stop-color="#0079BC"/>
<stop offset="1" stop-color="#006BAE"/>
</linearGradient>
<linearGradient id="paint1_linear_762_1025" x1="8.5" y1="14.5" x2="25.5" y2="30" gradientUnits="userSpaceOnUse">
<stop stop-color="#0091D6"/>
<stop offset="1" stop-color="#0076CA"/>
</linearGradient>
<linearGradient id="paint2_linear_762_1025" x1="28.94" y1="7" x2="28.94" y2="32.9999" gradientUnits="userSpaceOnUse">
<stop stop-color="#27B5F4"/>
<stop offset="1" stop-color="#1F9DF0"/>
</linearGradient>
</defs>
</svg>
