<svg width="160" height="128" viewBox="0 0 160 128" fill="none" xmlns="http://www.w3.org/2000/svg"><path d="M98.9 51.316l-.006-.006C86.739 39.246 69.36 22 47.429 22 23.55 22 4.172 40.404 4 64.553c-.002.338 0 .675 0 1.013C4 89.864 23.443 110 47.43 110c21.41 0 35.916-13.881 50.1-27.94a1 1 0 0 0-.024-1.442c-4.28-3.986-8.543-7.99-12.817-11.98a1.015 1.015 0 0 0-1.375.01C62.98 87.593 58.356 90.751 47.429 90.751 33.938 90.752 23 79.234 23 65.566v-1.013C23.205 51.07 34.066 41.25 47.43 41.25c12.183 0 18.964 6.356 45.493 31.224 4.02 3.768 8.057 7.516 12.093 11.264l.004.003.003.003c6.249 5.801 11.498 10.673 22.93 10.673 15.49 0 28.047-13.157 28.047-28.851v-1.013c0-14.184-13.061-26.97-28.047-26.97-10.421 0-17.78 5.631-24.931 12.392a1 1 0 0 0-.017 1.433c3.907 3.92 7.63 8.024 11.569 11.911.385.38 1.005.378 1.398.005 4.592-4.377 7.892-6.49 11.981-6.49 2.576 0 9.047 1.64 9.047 7.719v1.013c0 2.431-.953 5.197-2.65 6.916a8.987 8.987 0 0 1-6.397 2.685c-6.292 0-15.016-9.305-21.162-15.86l-.004-.005c-2.562-2.735-5.23-5.347-7.887-7.986z" fill="#2E3137"/></svg>