<svg width="160" height="160" viewBox="0 0 160 160" fill="none" xmlns="http://www.w3.org/2000/svg"><path d="M98.9 67.316C86.745 55.253 69.365 38 47.43 38 23.55 38 4.171 56.404 4 80.553v1.013h19c0-.13-.002-.884 0-1.013.205-13.482 11.066-23.303 24.43-23.303 12.183 0 18.964 6.356 45.493 31.224 4.022 3.77 8.059 7.518 12.097 11.267 6.251 5.803 11.5 10.676 22.933 10.676 15.49 0 28.047-13.157 28.047-28.851v-1.013h-19v1.013c0 2.431-.953 5.197-2.65 6.916a8.987 8.987 0 0 1-6.397 2.685c-6.294 0-15.02-9.309-21.166-15.865-2.562-2.735-5.23-5.347-7.887-7.986z" fill="url(#paint0_linear)"/><path d="M113.269 82c-2.315-2.253-4.528-4.614-6.482-6.698-2.12-2.262-4.312-4.44-6.509-6.619l1.889-1.808c.988-.882 1.931-1.76 2.854-2.615 6.25-5.804 11.499-10.677 22.932-10.677 14.986 0 28.047 12.786 28.047 26.97v1.013h-19v-1.013c0-6.08-6.471-7.718-9.047-7.718-4.294 0-9.719 4.33-14.684 9.166z" fill="url(#paint1_linear)"/><path d="M86.007 82c2.147 2.004 4.446 4.159 6.916 6.474 2.443 2.29 4.893 4.572 7.345 6.853L98.9 96.684C86.747 108.747 69.365 126 47.43 126 23.442 126 4 105.864 4 81.566v-1.013h19v1.013c0 13.667 10.938 25.186 24.43 25.186 11.05 0 17.653-5.23 38.577-24.751z" fill="url(#paint2_linear)"/><defs><linearGradient id="paint0_linear" x1="60" y1="51.171" x2="112.68" y2="103.167" gradientUnits="userSpaceOnUse"><stop stop-color="#F46837"/><stop offset=".52" stop-color="#945DD6"/><stop offset="1" stop-color="#13ADC7"/></linearGradient><linearGradient id="paint1_linear" x1="106.917" y1="75.698" x2="126.25" y2="56.616" gradientUnits="userSpaceOnUse"><stop stop-color="#1497B8"/><stop offset=".453" stop-color="#13ADC7"/></linearGradient><linearGradient id="paint2_linear" x1="48" y1="82.579" x2="82.445" y2="116.576" gradientUnits="userSpaceOnUse"><stop stop-color="#F46837"/><stop offset=".583" stop-color="#945DD6"/><stop offset="1" stop-color="#7E51C2"/></linearGradient></defs></svg>