<svg width="160" height="128" viewBox="0 0 160 128" fill="none" xmlns="http://www.w3.org/2000/svg"><path d="M98.9 51.316C86.745 39.253 69.365 22 47.43 22 23.55 22 4.171 40.404 4 64.553v1.013h19c0-.13-.002-.884 0-1.013.205-13.482 11.066-23.303 24.43-23.303 12.183 0 18.964 6.356 45.493 31.224 4.022 3.77 8.059 7.518 12.097 11.267 6.251 5.803 11.5 10.676 22.933 10.676 15.49 0 28.047-13.157 28.047-28.851v-1.013h-19v1.013c0 2.431-.953 5.197-2.65 6.916a8.987 8.987 0 0 1-6.397 2.685c-6.294 0-15.02-9.309-21.166-15.865-2.562-2.735-5.23-5.347-7.887-7.986z" fill="url(#paint0_linear)"/><path d="M113.269 66c-2.315-2.253-4.528-4.614-6.482-6.698-2.12-2.262-4.312-4.44-6.509-6.62l1.889-1.807c.988-.882 1.931-1.76 2.854-2.615 6.25-5.804 11.499-10.677 22.932-10.677 14.986 0 28.047 12.785 28.047 26.97v1.013h-19v-1.013c0-6.08-6.471-7.718-9.047-7.718-4.294 0-9.719 4.33-14.684 9.166z" fill="url(#paint1_linear)"/><path d="M86.007 66c2.147 2.004 4.446 4.159 6.916 6.474 2.443 2.29 4.893 4.572 7.345 6.853L98.9 80.684C86.747 92.747 69.365 110 47.43 110 23.442 110 4 89.864 4 65.566v-1.013h19v1.013C23 79.233 33.938 90.75 47.43 90.75c11.05 0 17.653-5.23 38.577-24.75z" fill="url(#paint2_linear)"/><defs><linearGradient id="paint0_linear" x1="60" y1="35.171" x2="112.68" y2="87.167" gradientUnits="userSpaceOnUse"><stop stop-color="#F46837"/><stop offset=".52" stop-color="#945DD6"/><stop offset="1" stop-color="#13ADC7"/></linearGradient><linearGradient id="paint1_linear" x1="106.917" y1="59.698" x2="126.25" y2="40.616" gradientUnits="userSpaceOnUse"><stop stop-color="#1497B8"/><stop offset=".453" stop-color="#13ADC7"/></linearGradient><linearGradient id="paint2_linear" x1="48" y1="66.579" x2="82.445" y2="100.576" gradientUnits="userSpaceOnUse"><stop stop-color="#F46837"/><stop offset=".583" stop-color="#945DD6"/><stop offset="1" stop-color="#7E51C2"/></linearGradient></defs></svg>