<svg width="80" height="80" viewBox="0 0 80 80" fill="none" xmlns="http://www.w3.org/2000/svg"><path d="M49.4559 32.66C43.3759 26.62 34.6859 18 23.7259 18C11.7859 18 2.09586 27.2 2.00586 39.28V39.78C2.00586 51.93 11.7259 62 23.7259 62C34.2459 62 41.4259 55.3 48.4059 48.4C48.5023 48.3046 48.5783 48.1905 48.6292 48.0648C48.6802 47.939 48.705 47.8042 48.7022 47.6686C48.6994 47.5329 48.669 47.3993 48.6129 47.2757C48.5568 47.1522 48.4762 47.0414 48.3759 46.95C46.4759 45.19 44.5859 43.41 42.6959 41.64C42.5104 41.4656 42.2654 41.3685 42.0109 41.3685C41.7563 41.3685 41.5113 41.4656 41.3259 41.64C31.4459 50.84 29.1259 52.38 23.7259 52.38C16.9759 52.38 11.5059 46.62 11.5059 39.78V39.28C11.6059 32.54 17.0359 27.63 23.7259 27.63C29.8159 27.63 33.2059 30.8 46.4659 43.23C48.4759 45.13 50.4959 47 52.5159 48.87C55.6459 51.77 58.2659 54.21 63.9859 54.21C71.7259 54.21 78.0059 47.63 78.0059 39.78V39.28C78.0059 32.18 71.4759 25.79 63.9859 25.79C58.9559 25.79 55.3559 28.42 51.8859 31.64C51.7893 31.7318 51.7121 31.842 51.6587 31.964C51.6053 32.0861 51.5768 32.2176 51.5749 32.3508C51.5731 32.484 51.5979 32.6163 51.6478 32.7398C51.6978 32.8633 51.7719 32.9755 51.8659 33.07C53.5759 34.8 55.2259 36.6 56.9459 38.32C57.1315 38.5046 57.3821 38.609 57.6438 38.6109C57.9056 38.6127 58.1576 38.5119 58.3459 38.33C60.4659 36.37 62.0459 35.42 63.9859 35.42C65.2759 35.42 68.5059 36.24 68.5059 39.28V39.78C68.5059 41 68.0259 42.38 67.1859 43.24C66.7677 43.664 66.2695 44.0008 65.7202 44.2308C65.1709 44.4608 64.5814 44.5795 63.9859 44.58C60.8359 44.58 56.4759 39.93 53.4059 36.65C52.1159 35.28 50.7859 33.98 49.4559 32.65V32.66Z" fill="#fff"/></svg>