<svg width="80" height="80" viewBox="0 0 80 80" fill="none" xmlns="http://www.w3.org/2000/svg"><path d="M49.4581 32.1577C43.3805 26.126 34.6904 17.4995 23.7226 17.4995C11.783 17.4995 2.09399 26.7018 2.00799 38.7759C2.00759 38.8299 2.00799 39.2284 2.00799 39.2825H11.508C11.508 39.2177 11.507 38.8405 11.508 38.7759C11.6103 32.0349 17.0408 27.1246 23.7226 27.1246C29.8145 27.1246 33.2052 30.3024 46.4696 42.7364C48.4804 44.6213 50.4991 46.4957 52.5179 48.3702C55.6434 51.2714 58.2678 53.708 63.9844 53.708C71.7293 53.708 78.008 47.1293 78.008 39.2825V38.7759H68.508V39.2825C68.508 40.498 68.0314 41.8812 67.183 42.7407C66.3347 43.6002 65.1841 44.083 63.9844 44.083C60.8375 44.083 56.4746 39.4286 53.4014 36.1504C52.1205 34.7829 50.7865 33.4771 49.4581 32.1577V32.1577Z" fill="url(#paint0_linear_524_578)"/><path d="M43.0114 39.4998C44.0849 40.5016 45.2344 41.5788 46.4694 42.7362C47.6912 43.8809 48.9154 45.0231 50.1419 46.1627L49.4579 46.8413C43.3811 52.873 34.6902 61.4994 23.7224 61.4994C11.7294 61.4994 2.00781 51.4316 2.00781 39.2824V38.7758H11.5078V39.2824C11.5078 46.1162 16.9766 51.8752 23.7224 51.8752C29.2475 51.8752 32.5495 49.2604 43.0114 39.4998V39.4998Z" fill="url(#paint1_linear_524_578)"/><path d="M56.6426 39.5C55.4852 38.373 54.3784 37.1924 53.4015 36.1505C52.3415 35.0195 51.2458 33.9303 50.147 32.8411L51.0914 31.9371C51.5854 31.496 52.0573 31.0572 52.5188 30.6297C55.6435 27.7278 58.2679 25.291 63.9845 25.291C71.4777 25.291 78.0081 31.6838 78.0081 38.776V39.2825H68.5081V38.776C68.5081 35.7365 65.2724 34.9169 63.9845 34.9169C61.8375 34.9169 59.1253 37.0817 56.6426 39.5V39.5Z" fill="url(#paint2_linear_524_578)"/><defs><linearGradient id="paint0_linear_524_578" x1="30.008" y1="24.085" x2="56.348" y2="50.083" gradientUnits="userSpaceOnUse"><stop stop-color="#F46837"/><stop offset=".52" stop-color="#945DD6"/><stop offset="1" stop-color="#13ADC7"/></linearGradient><linearGradient id="paint1_linear_524_578" x1="24.008" y1="39.789" x2="41.23" y2="56.788" gradientUnits="userSpaceOnUse"><stop stop-color="#F46837"/><stop offset=".583" stop-color="#945DD6"/><stop offset="1" stop-color="#7E51C2"/></linearGradient><linearGradient id="paint2_linear_524_578" x1="53.466" y1="36.349" x2="63.133" y2="26.808" gradientUnits="userSpaceOnUse"><stop stop-color="#1497B8"/><stop offset=".453" stop-color="#13ADC7"/></linearGradient></defs></svg>