<svg width="80" height="80" viewBox="0 0 80 80" fill="none" xmlns="http://www.w3.org/2000/svg"><path d="M49.4559 32.1595C43.3759 26.1195 34.6859 17.4995 23.7259 17.4995C11.7859 17.4995 2.09586 26.6995 2.00586 38.7795V39.2795C2.00586 51.4295 11.7259 61.4995 23.7259 61.4995C34.2459 61.4995 41.4259 54.7995 48.4059 47.8995C48.5023 47.804 48.5783 47.6899 48.6292 47.5642C48.6802 47.4385 48.705 47.3037 48.7022 47.168C48.6994 47.0324 48.669 46.8987 48.6129 46.7752C48.5568 46.6516 48.4762 46.5408 48.3759 46.4495C46.4759 44.6895 44.5859 42.9095 42.6959 41.1395C42.5104 40.9651 42.2654 40.868 42.0109 40.868C41.7563 40.868 41.5113 40.9651 41.3259 41.1395C31.4459 50.3394 29.1259 51.8795 23.7259 51.8795C16.9759 51.8795 11.5059 46.1195 11.5059 39.2795V38.7795C11.6059 32.0395 17.0359 27.1295 23.7259 27.1295C29.8159 27.1295 33.2059 30.2994 46.4659 42.7295C48.4759 44.6295 50.4959 46.4995 52.5159 48.3695C55.6459 51.2695 58.2659 53.7094 63.9859 53.7094C71.7259 53.7094 78.0059 47.1295 78.0059 39.2795V38.7795C78.0059 31.6795 71.4759 25.2895 63.9859 25.2895C58.9559 25.2895 55.3559 27.9195 51.8859 31.1395C51.7893 31.2312 51.7121 31.3414 51.6587 31.4635C51.6053 31.5855 51.5768 31.717 51.5749 31.8502C51.5731 31.9835 51.5979 32.1157 51.6478 32.2392C51.6978 32.3627 51.7719 32.475 51.8659 32.5695C53.5759 34.2995 55.2259 36.0995 56.9459 37.8195C57.1315 38.004 57.3821 38.1084 57.6438 38.1103C57.9056 38.1122 58.1576 38.0113 58.3459 37.8295C60.4659 35.8695 62.0459 34.9195 63.9859 34.9195C65.2759 34.9195 68.5059 35.7395 68.5059 38.7795V39.2795C68.5059 40.4995 68.0259 41.8795 67.1859 42.7395C66.7677 43.1634 66.2695 43.5002 65.7202 43.7302C65.1709 43.9602 64.5814 44.0789 63.9859 44.0795C60.8359 44.0795 56.4759 39.4295 53.4059 36.1495C52.1159 34.7795 50.7859 33.4795 49.4559 32.1495V32.1595Z" fill="#2E3137"/></svg>