<svg width="144" height="90" viewBox="0 0 144 90" fill="none" xmlns="http://www.w3.org/2000/svg"><path d="M80.4596 19.0193C74.382 12.9876 65.6919 4.36108 54.7241 4.36108C42.7845 4.36108 33.0955 13.5634 33.0095 25.6375C33.0091 25.6915 33.0095 26.09 33.0095 26.1441H42.5095C42.5095 26.0793 42.5085 25.7021 42.5095 25.6375C42.6118 18.8965 48.0423 13.9862 54.7241 13.9862C60.816 13.9862 64.2067 17.164 77.4711 29.598C79.4819 31.4829 81.5006 33.3573 83.5194 35.2318C86.6449 38.133 89.2693 40.5697 94.9859 40.5697C102.731 40.5697 109.009 33.9909 109.009 26.1441V25.6375H99.5095V26.1441C99.5095 27.3596 99.0329 28.7428 98.1845 29.6023C97.3362 30.4618 96.1856 30.9447 94.9859 30.9447C91.839 30.9447 87.4761 26.2902 84.4029 23.012C83.122 21.6445 81.788 20.3387 80.4596 19.0193V19.0193Z" fill="url(#paint0_linear_524_1339)"/><path d="M74.0129 26.3615C75.0864 27.3633 76.2359 28.4405 77.4709 29.5979C78.6927 30.7425 79.9169 31.8847 81.1434 33.0244L80.4594 33.703C74.3826 39.7347 65.6917 48.3611 54.7239 48.3611C42.7309 48.3611 33.0093 38.2933 33.0093 26.1441V25.6375H42.5093V26.1441C42.5093 32.9779 47.9781 38.7369 54.7239 38.7369C60.249 38.7369 63.551 36.1221 74.0129 26.3615V26.3615Z" fill="url(#paint1_linear_524_1339)"/><path d="M87.644 26.3616C86.4866 25.2346 85.3798 24.054 84.4029 23.0121C83.3429 21.8811 82.2472 20.7919 81.1484 19.7027L82.0928 18.7987C82.5868 18.3576 83.0587 17.9188 83.5202 17.4913C86.6449 14.5894 89.2693 12.1526 94.9859 12.1526C102.479 12.1526 109.01 18.5454 109.01 25.6376V26.1441H99.5095V25.6376C99.5095 22.5981 96.2738 21.7785 94.9859 21.7785C92.8389 21.7785 90.1267 23.9433 87.644 26.3616V26.3616Z" fill="url(#paint2_linear_524_1339)"/><path d="M49.4082 85.3618C48.0196 85.3618 46.7467 85.181 45.5896 84.8121C44.4667 84.4476 43.4458 83.8231 42.6099 82.9896C41.7998 82.1579 41.1634 81.0875 40.7005 79.7784C40.2014 78.2279 39.9667 76.6045 40.0062 74.9762V74.4265C40.0062 72.6546 40.2449 71.1286 40.7295 69.8557C41.214 68.5828 41.8794 67.5414 42.7256 66.7313C43.5744 65.921 44.5919 65.3085 45.7053 64.9377C47.978 64.2341 50.4013 64.174 52.7062 64.7641C53.7476 65.0317 54.6589 65.4585 55.4255 66.037C56.2211 66.6156 56.8503 67.3678 57.3349 68.2935C57.8436 69.2853 58.1439 70.3707 58.2172 71.483C58.2244 71.5915 58.1449 71.6782 58.0364 71.6782H53.0027C52.9607 71.6778 52.9202 71.6633 52.8874 71.637C52.8546 71.6108 52.8316 71.5744 52.8219 71.5336C52.7437 71.1078 52.5972 70.6975 52.388 70.3186C52.171 69.9353 51.9179 69.6243 51.6069 69.3928C50.963 68.9404 50.1951 68.6979 49.4082 68.6985C48.8297 68.6985 48.2872 68.807 47.7882 69.0168C47.3036 69.212 46.8842 69.5375 46.5153 70.0003C46.1264 70.5301 45.8417 71.129 45.6764 71.765C45.4811 72.4955 45.3871 73.3851 45.3871 74.4265V75.034C45.3871 76.155 45.4956 77.0952 45.7053 77.8691C45.9367 78.6213 46.2333 79.2432 46.6021 79.7206C46.9637 80.1834 47.3977 80.5161 47.875 80.7331C48.3596 80.9284 48.8658 81.0224 49.4082 81.0224C50.3918 81.0224 51.1729 80.791 51.7515 80.3281C52.3667 79.7811 52.7518 79.0213 52.8291 78.2018C52.8359 78.1583 52.8577 78.1186 52.8907 78.0895C52.9237 78.0604 52.9659 78.0439 53.0099 78.0427H58.0436C58.1449 78.0427 58.2244 78.1295 58.2172 78.2307C58.1304 79.5036 57.8556 80.574 57.3927 81.4563C56.9575 82.3494 56.3122 83.1236 55.5123 83.7128C54.7385 84.2914 53.8344 84.7181 52.793 84.9857C51.7515 85.2388 50.6233 85.3618 49.4082 85.3618ZM61.2692 64.916C61.2692 64.8148 61.3488 64.7352 61.45 64.7352H66.4837C66.5561 64.7352 66.6139 64.7714 66.6428 64.8292L72.0454 74.7158C72.1177 74.8388 72.2913 74.8388 72.3636 74.7158L77.7083 64.8292C77.7239 64.8007 77.7469 64.7769 77.7749 64.7604C77.8029 64.7438 77.8349 64.7351 77.8674 64.7352H82.7854C82.8866 64.7352 82.9662 64.8148 82.9662 64.916V84.8049C82.9662 84.9061 82.8866 84.9857 82.7854 84.9857H77.9397C77.8918 84.9857 77.8458 84.9667 77.8119 84.9327C77.778 84.8988 77.7589 84.8529 77.7589 84.8049V74.1011C77.7589 73.9058 77.5058 73.8407 77.419 74.007L73.6148 80.9935C73.5992 81.022 73.5762 81.0458 73.5482 81.0623C73.5202 81.0789 73.4882 81.0876 73.4557 81.0875H70.7797C70.7472 81.0876 70.7153 81.0789 70.6873 81.0623C70.6593 81.0458 70.6362 81.022 70.6206 80.9935L66.8164 74.0143C66.7224 73.8479 66.4765 73.913 66.4765 74.1011V84.8121C66.4765 84.9134 66.3969 84.9929 66.2957 84.9929H61.45C61.4021 84.9929 61.3561 84.9739 61.3222 84.94C61.2883 84.9061 61.2692 84.8601 61.2692 84.8121V64.916V64.916ZM87.0018 64.916C87.0018 64.8148 87.0886 64.7352 87.1826 64.7352H92.0283C92.1295 64.7352 92.2091 64.8148 92.2091 64.916V80.5234C92.2091 80.6246 92.2959 80.7042 92.3899 80.7042H100.707C100.808 80.7042 100.888 80.7837 100.888 80.885V84.8049C100.888 84.9061 100.816 84.9857 100.707 84.9857H87.1826C87.1347 84.9857 87.0887 84.9667 87.0548 84.9327C87.0209 84.8988 87.0018 84.8529 87.0018 84.8049V64.916Z" fill="#2E3137"/><defs><linearGradient id="paint0_linear_524_1339" x1="61.01" y1="10.947" x2="87.349" y2="36.944" gradientUnits="userSpaceOnUse"><stop stop-color="#F46837"/><stop offset=".52" stop-color="#945DD6"/><stop offset="1" stop-color="#13ADC7"/></linearGradient><linearGradient id="paint1_linear_524_1339" x1="55.009" y1="26.651" x2="72.232" y2="43.649" gradientUnits="userSpaceOnUse"><stop stop-color="#F46837"/><stop offset=".583" stop-color="#945DD6"/><stop offset="1" stop-color="#7E51C2"/></linearGradient><linearGradient id="paint2_linear_524_1339" x1="84.468" y1="23.21" x2="94.134" y2="13.669" gradientUnits="userSpaceOnUse"><stop stop-color="#1497B8"/><stop offset=".453" stop-color="#13ADC7"/></linearGradient></defs></svg>