<svg width="182" height="64" viewBox="0 0 182 64" fill="none" xmlns="http://www.w3.org/2000/svg"><path d="M51.4559 24.5182C45.3759 18.4782 36.6859 9.85815 25.7259 9.85815C13.7859 9.85815 4.09586 19.0582 4.00586 31.1382V31.6382C4.00586 43.7882 13.7259 53.8582 25.7259 53.8582C36.2459 53.8582 43.4259 47.1582 50.4059 40.2582C50.5023 40.1627 50.5783 40.0487 50.6292 39.9229C50.6802 39.7972 50.705 39.6624 50.7022 39.5267C50.6994 39.3911 50.669 39.2574 50.6129 39.1339C50.5568 39.0103 50.4762 38.8995 50.3759 38.8082C48.4759 37.0482 46.5859 35.2682 44.6959 33.4982C44.5104 33.3238 44.2654 33.2267 44.0109 33.2267C43.7563 33.2267 43.5113 33.3238 43.3259 33.4982C33.4459 42.6982 31.1259 44.2382 25.7259 44.2382C18.9759 44.2382 13.5059 38.4782 13.5059 31.6382V31.1382C13.6059 24.3982 19.0359 19.4882 25.7259 19.4882C31.8159 19.4882 35.2059 22.6582 48.4659 35.0882C50.4759 36.9882 52.4959 38.8582 54.5159 40.7282C57.6459 43.6282 60.2659 46.0682 65.9859 46.0682C73.7259 46.0682 80.0059 39.4882 80.0059 31.6382V31.1382C80.0059 24.0382 73.4759 17.6482 65.9859 17.6482C60.9559 17.6482 57.3559 20.2782 53.8859 23.4982C53.7893 23.5899 53.7121 23.7001 53.6587 23.8222C53.6053 23.9442 53.5768 24.0757 53.5749 24.2089C53.5731 24.3422 53.5979 24.4744 53.6478 24.5979C53.6978 24.7214 53.7719 24.8337 53.8659 24.9282C55.5759 26.6582 57.2259 28.4582 58.9459 30.1782C59.1315 30.3627 59.3821 30.4672 59.6438 30.469C59.9056 30.4709 60.1576 30.3701 60.3459 30.1882C62.4659 28.2282 64.0459 27.2782 65.9859 27.2782C67.2759 27.2782 70.5059 28.0982 70.5059 31.1382V31.6382C70.5059 32.8582 70.0259 34.2382 69.1859 35.0982C68.7677 35.5221 68.2695 35.8589 67.7202 36.0889C67.1709 36.3189 66.5814 36.4376 65.9859 36.4382C62.8359 36.4382 58.4759 31.7882 55.4059 28.5082C54.1159 27.1382 52.7859 25.8382 51.4559 24.5082V24.5182Z" fill="#fff"/><path d="M108.543 45.8582C106.691 45.8582 104.994 45.6171 103.451 45.1253C101.954 44.6392 100.593 43.8066 99.4782 42.6952C98.3982 41.5863 97.5496 40.1591 96.9324 38.4137C96.2669 36.3464 95.954 34.1818 96.0067 32.0107V31.2778C96.0067 28.9152 96.3249 26.8806 96.971 25.1834C97.6171 23.4862 98.5042 22.0976 99.6325 21.0176C100.764 19.9371 102.121 19.1205 103.605 18.6261C106.636 17.6878 109.867 17.6077 112.94 18.3946C114.329 18.7514 115.544 19.3204 116.566 20.0918C117.626 20.8633 118.465 21.8661 119.112 23.1005C119.79 24.4228 120.19 25.8701 120.288 27.3531C120.298 27.4977 120.192 27.6134 120.047 27.6134H113.335C113.279 27.6128 113.225 27.5935 113.182 27.5585C113.138 27.5236 113.107 27.475 113.094 27.4206C112.99 26.8529 112.795 26.3058 112.516 25.8005C112.226 25.2894 111.889 24.8748 111.474 24.5662C110.616 23.963 109.592 23.6396 108.543 23.6405C107.771 23.6405 107.048 23.7851 106.383 24.0648C105.737 24.3251 105.177 24.7591 104.685 25.3762C104.167 26.0826 103.787 26.881 103.567 27.7291C103.306 28.7031 103.181 29.8892 103.181 31.2778V32.0878C103.181 33.5825 103.326 34.8361 103.605 35.8679C103.914 36.8708 104.309 37.7001 104.801 38.3365C105.283 38.9537 105.862 39.3973 106.498 39.6866C107.144 39.9469 107.819 40.0723 108.543 40.0723C109.854 40.0723 110.896 39.7637 111.667 39.1466C112.487 38.4173 113.001 37.4042 113.104 36.3115C113.113 36.2535 113.142 36.2005 113.186 36.1618C113.23 36.123 113.286 36.1009 113.345 36.0993H120.057C120.192 36.0993 120.298 36.2151 120.288 36.3501C120.172 38.0473 119.806 39.4744 119.189 40.6509C118.608 41.8416 117.748 42.874 116.681 43.6595C115.65 44.431 114.444 44.9999 113.056 45.3567C111.667 45.6942 110.163 45.8582 108.543 45.8582ZM124.357 18.5971C124.357 18.4621 124.463 18.3561 124.598 18.3561H131.31C131.406 18.3561 131.484 18.4043 131.522 18.4814L138.726 31.6635C138.822 31.8275 139.053 31.8275 139.15 31.6635L146.276 18.4814C146.297 18.4434 146.328 18.4117 146.365 18.3896C146.402 18.3675 146.445 18.3559 146.488 18.3561H153.046C153.181 18.3561 153.287 18.4621 153.287 18.5971V45.1156C153.287 45.2506 153.181 45.3567 153.046 45.3567H146.585C146.521 45.3567 146.459 45.3313 146.414 45.2861C146.369 45.2409 146.344 45.1796 146.344 45.1156V30.8439C146.344 30.5835 146.006 30.4967 145.89 30.7185L140.818 40.0337C140.797 40.0718 140.767 40.1035 140.729 40.1256C140.692 40.1476 140.649 40.1592 140.606 40.1591H137.038C136.995 40.1592 136.952 40.1476 136.915 40.1256C136.877 40.1035 136.847 40.0718 136.826 40.0337L131.754 30.7281C131.628 30.5064 131.3 30.5931 131.3 30.8439V45.1253C131.3 45.2603 131.194 45.3664 131.059 45.3664H124.598C124.534 45.3664 124.473 45.341 124.428 45.2957C124.383 45.2505 124.357 45.1892 124.357 45.1253V18.5971V18.5971ZM158.667 18.5971C158.667 18.4621 158.783 18.3561 158.909 18.3561H165.369C165.504 18.3561 165.61 18.4621 165.61 18.5971V39.4069C165.61 39.5419 165.726 39.648 165.852 39.648H176.941C177.076 39.648 177.182 39.7541 177.182 39.8891V45.1156C177.182 45.2506 177.086 45.3567 176.941 45.3567H158.909C158.845 45.3567 158.783 45.3313 158.738 45.2861C158.693 45.2409 158.667 45.1796 158.667 45.1156V18.5971Z" fill="#fff"/></svg>