<svg width="182" height="64" viewBox="0 0 182 64" fill="none" xmlns="http://www.w3.org/2000/svg"><path d="M51.4581 24.5164C45.3805 18.4847 36.6904 9.85815 25.7226 9.85815C13.783 9.85815 4.09399 19.0605 4.00799 31.1346C4.00759 31.1886 4.00799 31.5871 4.00799 31.6412H13.508C13.508 31.5764 13.507 31.1992 13.508 31.1346C13.6103 24.3936 19.0408 19.4833 25.7226 19.4833C31.8145 19.4833 35.2052 22.6611 48.4696 35.0951C50.4804 36.98 52.4991 38.8544 54.5179 40.7289C57.6434 43.6301 60.2678 46.0668 65.9844 46.0668C73.7293 46.0668 80.008 39.488 80.008 31.6412V31.1346H70.508V31.6412C70.508 32.8567 70.0314 34.2399 69.183 35.0994C68.3347 35.9589 67.1841 36.4418 65.9844 36.4418C62.8375 36.4418 58.4746 31.7873 55.4014 28.5091C54.1205 27.1416 52.7865 25.8358 51.4581 24.5164V24.5164Z" fill="url(#paint0_linear_524_407)"/><path d="M45.0114 31.8585C46.0849 32.8603 47.2344 33.9375 48.4694 35.0949C49.6912 36.2396 50.9154 37.3818 52.1419 38.5214L51.4579 39.2C45.3811 45.2317 36.6902 53.8581 25.7224 53.8581C13.7294 53.8581 4.00781 43.7903 4.00781 31.6411V31.1345H13.5078V31.6411C13.5078 38.4749 18.9766 44.2339 25.7224 44.2339C31.2475 44.2339 34.5495 41.6191 45.0114 31.8585V31.8585Z" fill="url(#paint1_linear_524_407)"/><path d="M58.6426 31.8587C57.4852 30.7317 56.3784 29.5511 55.4015 28.5092C54.3415 27.3782 53.2458 26.289 52.147 25.1998L53.0914 24.2958C53.5854 23.8547 54.0573 23.4159 54.5188 22.9884C57.6435 20.0865 60.2679 17.6497 65.9845 17.6497C73.4777 17.6497 80.0081 24.0425 80.0081 31.1347V31.6412H70.5081V31.1347C70.5081 28.0952 67.2724 27.2756 65.9845 27.2756C63.8375 27.2756 61.1253 29.4404 58.6426 31.8587V31.8587Z" fill="url(#paint2_linear_524_407)"/><path d="M108.543 45.8582C106.691 45.8582 104.994 45.6171 103.451 45.1253C101.954 44.6392 100.593 43.8066 99.4782 42.6952C98.3982 41.5863 97.5496 40.1591 96.9324 38.4137C96.2669 36.3464 95.954 34.1818 96.0067 32.0107V31.2778C96.0067 28.9152 96.3249 26.8806 96.971 25.1834C97.6171 23.4862 98.5042 22.0976 99.6325 21.0176C100.764 19.9371 102.121 19.1205 103.605 18.6261C106.636 17.6878 109.867 17.6077 112.94 18.3946C114.329 18.7514 115.544 19.3204 116.566 20.0918C117.626 20.8633 118.465 21.8661 119.112 23.1005C119.79 24.4228 120.19 25.8701 120.288 27.3531C120.298 27.4977 120.192 27.6134 120.047 27.6134H113.335C113.279 27.6128 113.225 27.5935 113.182 27.5585C113.138 27.5236 113.107 27.475 113.094 27.4206C112.99 26.8529 112.795 26.3058 112.516 25.8005C112.226 25.2894 111.889 24.8748 111.474 24.5662C110.616 23.963 109.592 23.6396 108.543 23.6405C107.771 23.6405 107.048 23.7851 106.383 24.0648C105.737 24.3251 105.177 24.7591 104.685 25.3762C104.167 26.0826 103.787 26.881 103.567 27.7291C103.306 28.7031 103.181 29.8892 103.181 31.2778V32.0878C103.181 33.5825 103.326 34.8361 103.605 35.8679C103.914 36.8708 104.309 37.7001 104.801 38.3365C105.283 38.9537 105.862 39.3973 106.498 39.6866C107.144 39.9469 107.819 40.0723 108.543 40.0723C109.854 40.0723 110.896 39.7637 111.667 39.1466C112.487 38.4173 113.001 37.4042 113.104 36.3115C113.113 36.2535 113.142 36.2005 113.186 36.1618C113.23 36.123 113.286 36.1009 113.345 36.0993H120.057C120.192 36.0993 120.298 36.2151 120.288 36.3501C120.172 38.0473 119.806 39.4744 119.189 40.6509C118.608 41.8416 117.748 42.874 116.681 43.6595C115.65 44.431 114.444 44.9999 113.056 45.3567C111.667 45.6942 110.163 45.8582 108.543 45.8582ZM124.357 18.5971C124.357 18.4621 124.463 18.3561 124.598 18.3561H131.31C131.406 18.3561 131.484 18.4043 131.522 18.4814L138.726 31.6635C138.822 31.8275 139.053 31.8275 139.15 31.6635L146.276 18.4814C146.297 18.4434 146.328 18.4117 146.365 18.3896C146.402 18.3675 146.445 18.3559 146.488 18.3561H153.046C153.181 18.3561 153.287 18.4621 153.287 18.5971V45.1156C153.287 45.2506 153.181 45.3567 153.046 45.3567H146.585C146.521 45.3567 146.459 45.3313 146.414 45.2861C146.369 45.2409 146.344 45.1796 146.344 45.1156V30.8439C146.344 30.5835 146.006 30.4967 145.89 30.7185L140.818 40.0337C140.797 40.0718 140.767 40.1035 140.729 40.1256C140.692 40.1476 140.649 40.1592 140.606 40.1591H137.038C136.995 40.1592 136.952 40.1476 136.915 40.1256C136.877 40.1035 136.847 40.0718 136.826 40.0337L131.754 30.7281C131.628 30.5064 131.3 30.5931 131.3 30.8439V45.1253C131.3 45.2603 131.194 45.3664 131.059 45.3664H124.598C124.534 45.3664 124.473 45.341 124.428 45.2957C124.383 45.2505 124.357 45.1892 124.357 45.1253V18.5971V18.5971ZM158.667 18.5971C158.667 18.4621 158.783 18.3561 158.909 18.3561H165.369C165.504 18.3561 165.61 18.4621 165.61 18.5971V39.4069C165.61 39.5419 165.726 39.648 165.852 39.648H176.941C177.076 39.648 177.182 39.7541 177.182 39.8891V45.1156C177.182 45.2506 177.086 45.3567 176.941 45.3567H158.909C158.845 45.3567 158.783 45.3313 158.738 45.2861C158.693 45.2409 158.667 45.1796 158.667 45.1156V18.5971Z" fill="#2E3137"/><defs><linearGradient id="paint0_linear_524_407" x1="32.008" y1="16.444" x2="58.348" y2="42.442" gradientUnits="userSpaceOnUse"><stop stop-color="#F46837"/><stop offset=".52" stop-color="#945DD6"/><stop offset="1" stop-color="#13ADC7"/></linearGradient><linearGradient id="paint1_linear_524_407" x1="26.008" y1="32.148" x2="43.23" y2="49.146" gradientUnits="userSpaceOnUse"><stop stop-color="#F46837"/><stop offset=".583" stop-color="#945DD6"/><stop offset="1" stop-color="#7E51C2"/></linearGradient><linearGradient id="paint2_linear_524_407" x1="55.466" y1="28.707" x2="65.133" y2="19.166" gradientUnits="userSpaceOnUse"><stop stop-color="#1497B8"/><stop offset=".453" stop-color="#13ADC7"/></linearGradient></defs></svg>