<svg width="144" height="90" viewBox="0 0 144 90" fill="none" xmlns="http://www.w3.org/2000/svg"><path d="M80.4573 19.0211C74.3773 12.9811 65.6873 4.36108 54.7273 4.36108C42.7873 4.36108 33.0973 13.5611 33.0073 25.6411V26.1411C33.0073 38.2911 42.7273 48.3611 54.7273 48.3611C65.2473 48.3611 72.4273 41.6611 79.4073 34.7611C79.5038 34.6656 79.5798 34.5516 79.6307 34.4258C79.6817 34.3001 79.7065 34.1653 79.7037 34.0296C79.7009 33.894 79.6705 33.7603 79.6144 33.6368C79.5583 33.5133 79.4776 33.4025 79.3773 33.3111C77.4773 31.5511 75.5873 29.7711 73.6973 28.0011C73.5119 27.8267 73.2669 27.7296 73.0123 27.7296C72.7578 27.7296 72.5128 27.8267 72.3273 28.0011C62.4473 37.2011 60.1273 38.7411 54.7273 38.7411C47.9773 38.7411 42.5073 32.9811 42.5073 26.1411V25.6411C42.6073 18.9011 48.0373 13.9911 54.7273 13.9911C60.8173 13.9911 64.2073 17.1611 77.4673 29.5911C79.4773 31.4911 81.4973 33.3611 83.5173 35.2311C86.6473 38.1311 89.2673 40.5711 94.9873 40.5711C102.727 40.5711 109.007 33.9911 109.007 26.1411V25.6411C109.007 18.5411 102.477 12.1511 94.9873 12.1511C89.9573 12.1511 86.3573 14.7811 82.8873 18.0011C82.7908 18.0929 82.7135 18.203 82.6601 18.3251C82.6067 18.4472 82.5783 18.5787 82.5764 18.7119C82.5745 18.8451 82.5993 18.9773 82.6493 19.1008C82.6992 19.2243 82.7734 19.3366 82.8673 19.4311C84.5773 21.1611 86.2273 22.9611 87.9473 24.6811C88.1329 24.8657 88.3835 24.9701 88.6453 24.972C88.907 24.9738 89.1591 24.873 89.3473 24.6911C91.4673 22.7311 93.0473 21.7811 94.9873 21.7811C96.2773 21.7811 99.5073 22.6011 99.5073 25.6411V26.1411C99.5073 27.3611 99.0273 28.7411 98.1873 29.6011C97.7691 30.0251 97.2709 30.3618 96.7216 30.5919C96.1723 30.8219 95.5828 30.9406 94.9873 30.9411C91.8373 30.9411 87.4773 26.2911 84.4073 23.0111C83.1173 21.6411 81.7873 20.3411 80.4573 19.0111V19.0211Z" fill="#fff"/><path d="M49.4082 85.3618C48.0196 85.3618 46.7467 85.181 45.5896 84.8121C44.4667 84.4476 43.4458 83.8231 42.6099 82.9896C41.7998 82.1579 41.1634 81.0875 40.7005 79.7784C40.2014 78.2279 39.9667 76.6045 40.0062 74.9762V74.4265C40.0062 72.6546 40.2449 71.1286 40.7295 69.8557C41.214 68.5828 41.8794 67.5414 42.7256 66.7313C43.5744 65.921 44.5919 65.3085 45.7053 64.9377C47.978 64.2341 50.4013 64.174 52.7062 64.7641C53.7476 65.0317 54.6589 65.4585 55.4255 66.037C56.2211 66.6156 56.8503 67.3678 57.3349 68.2935C57.8436 69.2853 58.1439 70.3707 58.2172 71.483C58.2244 71.5915 58.1449 71.6782 58.0364 71.6782H53.0027C52.9607 71.6778 52.9202 71.6633 52.8874 71.637C52.8546 71.6108 52.8316 71.5744 52.8219 71.5336C52.7437 71.1078 52.5972 70.6975 52.388 70.3186C52.171 69.9353 51.9179 69.6243 51.6069 69.3928C50.963 68.9404 50.1951 68.6979 49.4082 68.6985C48.8297 68.6985 48.2872 68.807 47.7882 69.0168C47.3036 69.212 46.8842 69.5375 46.5153 70.0003C46.1264 70.5301 45.8417 71.129 45.6764 71.765C45.4811 72.4955 45.3871 73.3851 45.3871 74.4265V75.034C45.3871 76.155 45.4956 77.0952 45.7053 77.8691C45.9367 78.6213 46.2333 79.2432 46.6021 79.7206C46.9637 80.1834 47.3977 80.5161 47.875 80.7331C48.3596 80.9284 48.8658 81.0224 49.4082 81.0224C50.3918 81.0224 51.1729 80.791 51.7515 80.3281C52.3667 79.7811 52.7518 79.0213 52.8291 78.2018C52.8359 78.1583 52.8577 78.1186 52.8907 78.0895C52.9237 78.0604 52.9659 78.0439 53.0099 78.0427H58.0436C58.1449 78.0427 58.2244 78.1295 58.2172 78.2307C58.1304 79.5036 57.8556 80.574 57.3927 81.4563C56.9575 82.3494 56.3122 83.1236 55.5123 83.7128C54.7385 84.2914 53.8344 84.7181 52.793 84.9857C51.7515 85.2388 50.6233 85.3618 49.4082 85.3618ZM61.2692 64.916C61.2692 64.8148 61.3488 64.7352 61.45 64.7352H66.4837C66.5561 64.7352 66.6139 64.7714 66.6428 64.8292L72.0454 74.7158C72.1177 74.8388 72.2913 74.8388 72.3636 74.7158L77.7083 64.8292C77.7239 64.8007 77.7469 64.7769 77.7749 64.7604C77.8029 64.7438 77.8349 64.7351 77.8674 64.7352H82.7854C82.8866 64.7352 82.9662 64.8148 82.9662 64.916V84.8049C82.9662 84.9061 82.8866 84.9857 82.7854 84.9857H77.9397C77.8918 84.9857 77.8458 84.9667 77.8119 84.9327C77.778 84.8988 77.7589 84.8529 77.7589 84.8049V74.1011C77.7589 73.9058 77.5058 73.8407 77.419 74.007L73.6148 80.9935C73.5992 81.022 73.5762 81.0458 73.5482 81.0623C73.5202 81.0789 73.4882 81.0876 73.4557 81.0875H70.7797C70.7472 81.0876 70.7153 81.0789 70.6873 81.0623C70.6593 81.0458 70.6362 81.022 70.6206 80.9935L66.8164 74.0143C66.7224 73.8479 66.4765 73.913 66.4765 74.1011V84.8121C66.4765 84.9134 66.3969 84.9929 66.2957 84.9929H61.45C61.4021 84.9929 61.3561 84.9739 61.3222 84.94C61.2883 84.9061 61.2692 84.8601 61.2692 84.8121V64.916V64.916ZM87.0018 64.916C87.0018 64.8148 87.0886 64.7352 87.1826 64.7352H92.0283C92.1295 64.7352 92.2091 64.8148 92.2091 64.916V80.5234C92.2091 80.6246 92.2959 80.7042 92.3899 80.7042H100.707C100.808 80.7042 100.888 80.7837 100.888 80.885V84.8049C100.888 84.9061 100.816 84.9857 100.707 84.9857H87.1826C87.1347 84.9857 87.0887 84.9667 87.0548 84.9327C87.0209 84.8988 87.0018 84.8529 87.0018 84.8049V64.916Z" fill="#fff"/></svg>