<svg width="1715" height="322" viewBox="0 0 1715 322" fill="none" xmlns="http://www.w3.org/2000/svg">
<path fill-rule="evenodd" clip-rule="evenodd" d="M1715 0H0V322H1715V0Z" fill="#1A2735"/>
<path fill-rule="evenodd" clip-rule="evenodd" d="M1362.95 322C1423.22 262.248 1457.32 194.209 1457.32 122.021C1457.32 79.6377 1445.56 38.6851 1423.66 0H0V322H1362.95Z" fill="#16222F"/>
<path fill-rule="evenodd" clip-rule="evenodd" d="M675.791 322C779.488 272.427 844.508 201.186 844.508 122.021C844.508 78.1311 824.522 36.6767 789.041 0H0V322H675.791Z" fill="#131D29"/>
<path fill-rule="evenodd" clip-rule="evenodd" d="M136.421 294.884C319.396 294.884 467.727 217.491 467.727 122.021C467.727 74.3938 430.811 31.2652 371.095 0H0V279.596C41.6031 289.417 87.7882 294.884 136.421 294.884Z" fill="#101A25"/>
<path fill-rule="evenodd" clip-rule="evenodd" d="M561.853 132.267C558.989 131.638 556.068 131.301 553.137 131.259C547.175 131.259 546.311 133.87 546.311 138.475V146.061H561.73L560.887 158.129H546.352V206.687H531.181V158.129H521.477V146.061H531.181V137.612C531.181 125.051 537.019 118.822 550.443 118.822C554.853 118.806 559.246 119.394 563.498 120.569L561.853 132.267ZM309.833 137.612H286.706V123.797H348.626V137.612H325.498V206.687H309.833V137.612ZM364.99 195.442C371.265 195.413 377.5 194.449 383.492 192.584L385.857 204.014C378.698 206.598 371.141 207.906 363.531 207.879C344.515 207.879 337.915 199.039 337.915 184.484V168.449C337.915 155.641 343.631 144.828 363.037 144.828C382.444 144.828 386.802 156.135 386.802 169.189V182.141H353.252V185.245C353.252 192.584 355.78 195.442 364.99 195.442ZM353.252 169.949H372.535V166.948C372.535 161.233 370.788 157.265 363.325 157.265C355.862 157.265 353.252 161.233 353.252 166.948V169.949ZM411.369 167.585C416.48 164.222 421.849 161.266 427.425 158.745L425.924 144.828C420.291 146.762 414.94 149.438 410.012 152.784L409.005 146.061H396.197V206.687H411.369V167.585ZM464.47 158.745C458.903 161.27 453.542 164.226 448.435 167.585V206.687H433.263V146.061H446.071L447.058 152.784C451.991 149.438 457.351 146.763 462.99 144.828L464.47 158.745ZM502.77 206.687H515.207L515.248 166.701C515.248 151.53 509.615 144.828 490.579 144.828C483.56 144.851 476.579 145.812 469.815 147.685L471.686 159.239C477.21 158.067 482.835 157.448 488.482 157.389C498.185 157.389 500.035 159.753 500.035 166.455V172.848H485.48C473.187 172.848 467.821 177.556 467.821 189.891C467.821 200.334 472.549 207.92 483.63 207.92C490.03 207.914 496.29 206.058 501.659 202.575L502.77 206.687ZM488.934 183.744H500.035L500.179 192.79C496.689 194.763 492.758 195.83 488.749 195.894C483.959 195.894 482.582 193.838 482.582 189.726C482.582 185.121 483.959 183.744 488.934 183.744ZM564.998 184.073C564.998 196.408 570.672 207.879 591.436 207.879C612.282 207.879 617.812 196.408 617.73 184.073V168.695C617.73 156.258 612.117 144.828 591.354 144.828C570.59 144.828 564.998 156.361 564.998 168.695V184.073ZM580.252 168.202C580.252 161.356 583.357 157.759 591.436 157.759C599.536 157.759 602.64 161.459 602.64 168.202V184.484C602.64 191.33 599.515 194.948 591.436 194.948C583.357 194.948 580.252 191.33 580.252 184.484V168.202ZM656.851 158.745C651.284 161.27 645.923 164.226 640.816 167.585V206.687H625.644V146.061H638.452L639.439 152.784C644.401 149.435 649.788 146.76 655.453 144.828L656.851 158.745ZM698.625 164.337V206.687H713.797V164.604C718.642 161.811 724.022 160.067 729.585 159.485C733.06 159.485 734.437 161.11 734.437 164.337V206.687H749.609V162.734C749.609 151.9 746.011 144.828 735.938 144.828C727.443 145.216 719.13 147.417 711.556 151.283C709.562 147.192 705.964 144.828 700.105 144.828C691.674 145.234 683.42 147.39 675.867 151.159L674.367 146.061H662.793V206.687H677.985V164.604C683.494 161.726 690.299 159.485 693.773 159.485C697.248 159.485 698.625 161.11 698.625 164.337Z" fill="white"/>
<path d="M302.761 103.321V91.6855H292.133V103.321H286.706V75.383H292.133V87.1011H302.761V75.383H308.189V103.321H302.761ZM328.109 103.321H323.792L323.401 101.944C321.553 103.104 319.415 103.723 317.234 103.732C313.41 103.732 311.766 101.204 311.766 97.7295C311.766 93.6179 313.616 92.0555 317.933 92.0555H322.97V89.9997C322.97 87.7589 322.332 86.9777 318.858 86.9777C316.903 86.9979 314.956 87.2043 313.04 87.5945L312.403 83.7501C314.751 83.1305 317.168 82.8127 319.598 82.8044C326.177 82.8044 328.13 85.0247 328.13 90.082L328.109 103.321ZM322.846 95.6737H318.961C317.255 95.6737 316.782 96.1466 316.782 97.7295C316.782 99.3125 317.255 99.7853 318.838 99.7853C320.227 99.7769 321.592 99.4161 322.805 98.7369L322.846 95.6737ZM339.108 103.712C336.653 103.673 334.217 103.286 331.871 102.561L332.611 98.6957C334.62 99.2613 336.692 99.5586 338.779 99.5797C341.102 99.5797 341.451 99.0658 341.451 97.5239C341.451 95.9821 341.184 95.6532 337.792 94.872C332.653 93.6796 332.056 92.4256 332.056 88.5401C332.056 84.6547 333.907 82.7222 339.889 82.7222C342.004 82.7233 344.114 82.9578 346.18 83.4212L345.748 87.4506C343.84 87.1144 341.908 86.922 339.971 86.8749C337.689 86.8749 337.299 87.3683 337.299 88.6018C337.299 90.2259 337.443 90.3492 340.28 91.0482C346.139 92.5489 346.694 93.289 346.694 97.4212C346.694 101.553 345.44 103.732 339.108 103.732V103.712ZM363.181 103.301V89.2597C363.181 88.1701 362.708 87.6356 361.495 87.6356C359.577 87.8387 357.719 88.4186 356.027 89.3419V103.321H350.764V74.9924L356.027 75.7736V84.6958C358.422 83.5267 361.033 82.8686 363.695 82.7633C367.19 82.7633 368.423 85.1069 368.423 88.7046V103.321L363.181 103.301ZM372.843 80.2964V75.3625H378.106V80.2964H372.843ZM372.843 103.301V83.1539H378.106V103.301H372.843ZM382.3 83.3184C382.3 78.2611 385.363 75.3214 392.579 75.3214C395.202 75.3269 397.817 75.6373 400.37 76.2465L399.774 80.7487C397.453 80.3285 395.101 80.0947 392.743 80.0497C389.002 80.0497 387.789 81.2832 387.789 84.1613V94.7486C387.789 97.6884 389.002 98.8602 392.743 98.8602C395.101 98.8154 397.453 98.5816 399.774 98.1612L400.37 102.684C397.817 103.286 395.202 103.59 392.579 103.589C385.425 103.589 382.3 100.649 382.3 95.5915V83.3184ZM411.924 103.712C404.729 103.712 402.796 99.9087 402.796 95.756V90.6987C402.796 86.5871 404.729 82.7633 411.924 82.7633C419.119 82.7633 421.093 86.5666 421.093 90.6987V95.7765C421.093 99.9292 419.037 103.732 411.924 103.732V103.712ZM411.924 87.0394C409.128 87.0394 408.039 88.2317 408.039 90.5137V95.941C408.039 98.2024 409.128 99.4153 411.924 99.4153C414.72 99.4153 415.809 98.2024 415.809 95.941V90.5342C415.809 88.2523 414.72 87.0599 411.924 87.0599V87.0394ZM435.853 87.3683C433.933 88.2091 432.077 89.1918 430.303 90.3081V103.301H425.04V83.1539H429.481L429.83 85.3742C431.545 84.2634 433.397 83.379 435.339 82.7428L435.853 87.3683ZM456.864 96.5988C456.864 101.06 454.808 103.712 449.936 103.712C448.05 103.694 446.172 103.501 444.323 103.136V111.359L439.081 112.141V83.1745H443.193L443.707 84.8602C445.651 83.4999 447.972 82.781 450.347 82.8044C454.561 82.8044 456.802 85.1892 456.802 89.7942L456.864 96.5988ZM444.323 98.8602C445.857 99.1935 447.419 99.3793 448.99 99.4153C450.881 99.4153 451.621 98.5313 451.621 96.7222V89.6297C451.621 87.9645 450.964 87.0599 449.031 87.0599C447.302 87.115 445.643 87.7525 444.323 88.869V98.8602Z" fill="white"/>
<path fill-rule="evenodd" clip-rule="evenodd" d="M107.42 83.709V129.06L146.686 151.735V106.384L107.42 83.709ZM190.268 131.691L151.003 109.016V154.367L190.268 177.042V131.691ZM194.565 177.042V131.691L233.851 109.016V154.367L194.565 177.042ZM190.268 227.368L151.003 204.693V159.342L190.268 182.017V182.305V227.368Z" fill="#7B42BC"/>
<path fill-rule="evenodd" clip-rule="evenodd" d="M1015.94 114.185C1014.24 112.483 1011.48 112.483 1009.78 114.185L991.28 132.684C989.576 134.386 989.576 137.147 991.28 138.85L1059.11 206.676C1060.81 208.38 1063.57 208.38 1065.27 206.676L1083.77 188.178C1085.47 186.476 1085.47 183.715 1083.77 182.013L1015.94 114.185ZM978.947 120.352C970.434 128.865 970.434 142.668 978.947 151.182L1046.77 219.009C1055.29 227.522 1069.09 227.522 1077.6 219.009L1096.1 200.511C1104.62 191.998 1104.62 178.193 1096.1 169.68L1028.28 101.853C1019.76 93.3396 1005.96 93.3396 997.445 101.853L978.947 120.352Z" fill="url(#paint0_linear_20_97)"/>
<path d="M1083.77 138.85C1085.47 137.147 1085.47 134.386 1083.77 132.684L1065.27 114.185C1063.57 112.483 1060.81 112.483 1059.11 114.185L1049.89 123.403L1037.56 111.07L1046.77 101.853C1055.29 93.3396 1069.09 93.3396 1077.6 101.853L1096.1 120.352C1104.62 128.865 1104.62 142.668 1096.1 151.182L1049.82 197.46L1037.49 185.127L1083.77 138.85Z" fill="url(#paint1_linear_20_97)"/>
<path d="M1025.16 197.461L1015.94 206.677C1014.24 208.381 1011.48 208.381 1009.78 206.677L991.28 188.179C989.576 186.477 989.576 183.716 991.28 182.013L1037.56 135.735L1025.23 123.403L978.947 169.681C970.434 178.194 970.434 191.998 978.947 200.511L997.445 219.009C1005.96 227.523 1019.76 227.523 1028.28 219.009L1037.49 209.793L1025.16 197.461Z" fill="url(#paint2_linear_20_97)"/>
<path style="mix-blend-mode:multiply" d="M1037.53 209.867L1021.79 200.933L1025.19 197.535L1037.53 209.867Z" fill="url(#paint3_radial_20_97)" fill-opacity="0.4"/>
<path style="mix-blend-mode:multiply" d="M1037.53 135.874L1021.88 126.851L1025.19 123.542L1037.53 135.874Z" fill="url(#paint4_radial_20_97)" fill-opacity="0.4"/>
<path style="mix-blend-mode:multiply" d="M1049.86 123.541L1053.36 120.036L1037.52 111.209L1049.86 123.541Z" fill="url(#paint5_radial_20_97)" fill-opacity="0.4"/>
<path style="mix-blend-mode:multiply" d="M1053.3 194.095L1037.52 185.202L1049.86 197.535L1053.3 194.095Z" fill="url(#paint6_radial_20_97)" fill-opacity="0.4"/>
<path style="mix-blend-mode:multiply" d="M988.196 160.431L997.13 144.701L1000.53 148.099L988.196 160.431Z" fill="url(#paint7_radial_20_97)" fill-opacity="0.4"/>
<path style="mix-blend-mode:multiply" d="M1062.19 160.431L1071.21 144.79L1074.52 148.099L1062.19 160.431Z" fill="url(#paint8_radial_20_97)" fill-opacity="0.4"/>
<path style="mix-blend-mode:multiply" d="M1074.52 172.764L1078.03 176.269L1086.85 160.431L1074.52 172.764Z" fill="url(#paint9_radial_20_97)" fill-opacity="0.4"/>
<path style="mix-blend-mode:multiply" d="M1003.97 176.203L1012.86 160.431L1000.53 172.764L1003.97 176.203Z" fill="url(#paint10_radial_20_97)" fill-opacity="0.4"/>
<path d="M1152.3 144.705H1167.22V204.631H1152.3V144.705ZM1159.76 139.051C1157.12 139.051 1154.93 138.222 1153.2 136.564C1151.54 134.83 1150.71 132.644 1150.71 130.006C1150.71 127.367 1151.54 125.219 1153.2 123.561C1154.93 121.827 1157.12 120.96 1159.76 120.96C1162.4 120.96 1164.54 121.827 1166.2 123.561C1167.94 125.219 1168.8 127.367 1168.8 130.006C1168.8 132.644 1167.94 134.83 1166.2 136.564C1164.54 138.222 1162.4 139.051 1159.76 139.051ZM1201.76 205.309C1194.67 205.309 1189.51 203.803 1186.27 200.787C1183.03 197.697 1181.41 192.57 1181.41 185.409V157.142H1173.49V144.705H1181.41V131.136H1196.33V144.705H1210.8V157.142H1196.33V183.148C1196.33 186.54 1196.93 188.991 1198.14 190.497C1199.42 191.93 1201.76 192.646 1205.15 192.646C1207.41 192.646 1209.67 192.533 1211.94 192.307V204.744C1210.5 204.894 1209 205.007 1207.41 205.083C1205.91 205.233 1204.02 205.309 1201.76 205.309ZM1244.78 205.988C1240.71 205.988 1236.83 205.386 1233.14 204.179C1229.52 202.898 1226.35 201.013 1223.64 198.525C1220.92 195.962 1218.78 192.759 1217.19 188.914C1215.61 184.994 1214.82 180.434 1214.82 175.233V172.972C1214.82 167.997 1215.57 163.663 1217.08 159.969C1218.59 156.275 1220.66 153.222 1223.3 150.81C1225.94 148.323 1228.99 146.476 1232.46 145.27C1235.93 143.989 1239.66 143.348 1243.65 143.348C1253.07 143.348 1260.24 145.835 1265.13 150.81C1270.03 155.785 1272.48 162.984 1272.48 172.406V178.738H1230.08C1230.16 181.376 1230.61 183.676 1231.44 185.635C1232.27 187.521 1233.36 189.065 1234.72 190.271C1236.08 191.478 1237.62 192.383 1239.36 192.985C1241.16 193.513 1242.97 193.776 1244.78 193.776C1248.63 193.776 1251.53 193.211 1253.49 192.08C1255.45 190.95 1256.84 189.291 1257.67 187.105H1271.35C1270.15 193.361 1267.17 198.073 1262.42 201.239C1257.67 204.405 1251.79 205.988 1244.78 205.988ZM1244.22 155.559C1242.48 155.559 1240.75 155.785 1239.02 156.238C1237.36 156.69 1235.89 157.406 1234.61 158.386C1233.33 159.366 1232.27 160.685 1231.44 162.343C1230.61 164.002 1230.16 165.999 1230.08 168.336H1258.01C1257.94 165.848 1257.52 163.776 1256.77 162.117C1256.09 160.459 1255.11 159.14 1253.83 158.16C1252.62 157.18 1251.19 156.501 1249.53 156.125C1247.87 155.748 1246.1 155.559 1244.22 155.559ZM1278.71 144.705H1292.51V153.524C1293.03 152.318 1293.79 151.112 1294.77 149.906C1295.75 148.624 1296.92 147.531 1298.27 146.627C1299.63 145.647 1301.1 144.855 1302.68 144.252C1304.34 143.649 1306.15 143.348 1308.11 143.348C1309.54 143.348 1310.75 143.423 1311.73 143.574C1312.78 143.725 1313.46 143.876 1313.76 144.026V157.255C1313.01 156.954 1312.03 156.69 1310.82 156.464C1309.69 156.162 1308.15 156.011 1306.19 156.011C1303.93 156.011 1302 156.388 1300.42 157.142C1298.84 157.896 1297.52 158.914 1296.46 160.195C1295.48 161.401 1294.77 162.833 1294.31 164.492C1293.86 166.15 1293.64 167.884 1293.64 169.693V204.631H1278.71V144.705ZM1334.57 205.988C1331.33 205.988 1328.46 205.536 1325.97 204.631C1323.49 203.65 1321.38 202.333 1319.64 200.674C1317.91 198.941 1316.59 196.942 1315.68 194.681C1314.78 192.344 1314.33 189.819 1314.33 187.105C1314.33 175.045 1321.49 169.014 1335.81 169.014H1353.68V166.188C1353.68 162.268 1352.77 159.517 1350.96 157.934C1349.23 156.351 1346.44 155.559 1342.6 155.559C1339.2 155.559 1336.75 156.162 1335.25 157.368C1333.74 158.499 1332.87 159.931 1332.65 161.665H1317.72C1317.87 159.102 1318.51 156.69 1319.64 154.429C1320.85 152.167 1322.51 150.245 1324.62 148.662C1326.8 147.004 1329.44 145.722 1332.53 144.818C1335.62 143.838 1339.17 143.348 1343.16 143.348C1347 143.348 1350.47 143.762 1353.56 144.592C1356.73 145.421 1359.41 146.777 1361.59 148.662C1363.85 150.471 1365.59 152.846 1366.79 155.785C1368 158.725 1368.6 162.268 1368.6 166.414V189.367C1368.6 192.533 1368.64 195.322 1368.71 197.734C1368.87 200.071 1369.09 202.37 1369.39 204.631H1355.48C1355.18 202.972 1355 201.728 1354.92 200.9C1354.92 199.995 1354.92 198.675 1354.92 196.942C1353.26 199.354 1350.74 201.465 1347.34 203.274C1344.03 205.083 1339.77 205.988 1334.57 205.988ZM1339.2 194.455C1341.01 194.455 1342.78 194.229 1344.52 193.776C1346.25 193.248 1347.8 192.496 1349.15 191.515C1350.51 190.46 1351.6 189.141 1352.43 187.558C1353.26 185.975 1353.68 184.129 1353.68 182.017V179.191H1338.64C1335.77 179.191 1333.51 179.869 1331.85 181.226C1330.27 182.507 1329.48 184.279 1329.48 186.54C1329.48 188.951 1330.31 190.874 1331.97 192.307C1333.63 193.739 1336.04 194.455 1339.2 194.455ZM1401.41 205.309C1394.33 205.309 1389.17 203.803 1385.92 200.787C1382.68 197.697 1381.06 192.57 1381.06 185.409V157.142H1373.15V144.705H1381.06V131.136H1395.99V144.705H1410.46V157.142H1395.99V183.148C1395.99 186.54 1396.59 188.991 1397.8 190.497C1399.08 191.93 1401.41 192.646 1404.81 192.646C1407.07 192.646 1409.33 192.533 1411.59 192.307V204.744C1410.16 204.894 1408.65 205.007 1407.07 205.083C1405.56 205.233 1403.67 205.309 1401.41 205.309ZM1418.98 144.705H1433.91V204.631H1418.98V144.705ZM1426.45 139.051C1423.81 139.051 1421.62 138.222 1419.89 136.564C1418.23 134.83 1417.4 132.644 1417.4 130.006C1417.4 127.367 1418.23 125.219 1419.89 123.561C1421.62 121.827 1423.81 120.96 1426.45 120.96C1429.08 120.96 1431.23 121.827 1432.89 123.561C1434.62 125.219 1435.49 127.367 1435.49 130.006C1435.49 132.644 1434.62 134.83 1432.89 136.564C1431.23 138.222 1429.08 139.051 1426.45 139.051ZM1438.48 144.705H1455.22L1471.5 185.975L1486.42 144.705H1501.8L1478.74 204.631H1463.81L1438.48 144.705ZM1530.13 205.988C1526.06 205.988 1522.18 205.386 1518.48 204.179C1514.87 202.898 1511.7 201.013 1508.99 198.525C1506.27 195.962 1504.13 192.759 1502.54 188.914C1500.96 184.994 1500.17 180.434 1500.17 175.233V172.972C1500.17 167.997 1500.92 163.663 1502.43 159.969C1503.94 156.275 1506.01 153.222 1508.65 150.81C1511.29 148.323 1514.34 146.476 1517.81 145.27C1521.27 143.989 1525.01 143.348 1529 143.348C1538.42 143.348 1545.58 145.835 1550.48 150.81C1555.38 155.785 1557.83 162.984 1557.83 172.406V178.738H1515.43C1515.51 181.376 1515.96 183.676 1516.79 185.635C1517.62 187.521 1518.71 189.065 1520.07 190.271C1521.42 191.478 1522.97 192.383 1524.7 192.985C1526.51 193.513 1528.32 193.776 1530.13 193.776C1533.98 193.776 1536.88 193.211 1538.84 192.08C1540.8 190.95 1542.19 189.291 1543.02 187.105H1556.7C1555.5 193.361 1552.52 198.073 1547.77 201.239C1543.02 204.405 1537.14 205.988 1530.13 205.988ZM1529.57 155.559C1527.83 155.559 1526.1 155.785 1524.36 156.238C1522.71 156.69 1521.24 157.406 1519.95 158.386C1518.67 159.366 1517.62 160.685 1516.79 162.343C1515.96 164.002 1515.51 165.999 1515.43 168.336H1543.36C1543.28 165.848 1542.87 163.776 1542.12 162.117C1541.44 160.459 1540.46 159.14 1539.18 158.16C1537.97 157.18 1536.54 156.501 1534.88 156.125C1533.22 155.748 1531.45 155.559 1529.57 155.559Z" fill="white"/>
<path opacity="0.35" d="M868 69H866V253H868V69Z" fill="white"/>
<defs>
<linearGradient id="paint0_linear_20_97" x1="999.242" y1="123.309" x2="1074.65" y2="196.393" gradientUnits="userSpaceOnUse">
<stop stop-color="#13ADC7"/>
<stop offset="0.479167" stop-color="#4685D9"/>
<stop offset="1" stop-color="#945DD6"/>
</linearGradient>
<linearGradient id="paint1_linear_20_97" x1="1071.17" y1="124.469" x2="996.923" y2="196.393" gradientUnits="userSpaceOnUse">
<stop stop-color="#F46737"/>
<stop offset="0.5" stop-color="#D94D81"/>
<stop offset="1" stop-color="#945DD6"/>
</linearGradient>
<linearGradient id="paint2_linear_20_97" x1="1071.17" y1="124.47" x2="996.923" y2="196.394" gradientUnits="userSpaceOnUse">
<stop stop-color="#F46737"/>
<stop offset="0.5" stop-color="#D94D81"/>
<stop offset="1" stop-color="#945DD6"/>
</linearGradient>
<radialGradient id="paint3_radial_20_97" cx="0" cy="0" r="1" gradientUnits="userSpaceOnUse" gradientTransform="translate(1037.53 160.432) rotate(90) scale(58.0028)">
<stop offset="0.137737" stop-color="#0E131F" stop-opacity="0"/>
<stop offset="0.486973" stop-color="#0E131F" stop-opacity="0.48"/>
<stop offset="0.883198" stop-color="#0E131F" stop-opacity="0"/>
</radialGradient>
<radialGradient id="paint4_radial_20_97" cx="0" cy="0" r="1" gradientUnits="userSpaceOnUse" gradientTransform="translate(1037.53 160.432) rotate(90) scale(58.0028)">
<stop offset="0.137737" stop-color="#0E131F" stop-opacity="0"/>
<stop offset="0.486973" stop-color="#0E131F" stop-opacity="0.48"/>
<stop offset="0.883198" stop-color="#0E131F" stop-opacity="0"/>
</radialGradient>
<radialGradient id="paint5_radial_20_97" cx="0" cy="0" r="1" gradientUnits="userSpaceOnUse" gradientTransform="translate(1037.52 160.431) rotate(90) scale(58.0028)">
<stop offset="0.137737" stop-color="#0E131F" stop-opacity="0"/>
<stop offset="0.486973" stop-color="#0E131F" stop-opacity="0.48"/>
<stop offset="0.883198" stop-color="#0E131F" stop-opacity="0"/>
</radialGradient>
<radialGradient id="paint6_radial_20_97" cx="0" cy="0" r="1" gradientUnits="userSpaceOnUse" gradientTransform="translate(1037.52 160.432) rotate(90) scale(58.0027)">
<stop offset="0.137737" stop-color="#0E131F" stop-opacity="0"/>
<stop offset="0.486973" stop-color="#0E131F" stop-opacity="0.48"/>
<stop offset="0.883198" stop-color="#0E131F" stop-opacity="0"/>
</radialGradient>
<radialGradient id="paint7_radial_20_97" cx="0" cy="0" r="1" gradientUnits="userSpaceOnUse" gradientTransform="translate(1037.52 160.431) rotate(90) scale(58.0028)">
<stop offset="0.137737" stop-color="#0E131F" stop-opacity="0"/>
<stop offset="0.486973" stop-color="#0E131F" stop-opacity="0.48"/>
<stop offset="0.883198" stop-color="#0E131F" stop-opacity="0"/>
</radialGradient>
<radialGradient id="paint8_radial_20_97" cx="0" cy="0" r="1" gradientUnits="userSpaceOnUse" gradientTransform="translate(1037.53 160.431) rotate(90) scale(58.0028)">
<stop offset="0.137737" stop-color="#0E131F" stop-opacity="0"/>
<stop offset="0.486973" stop-color="#0E131F" stop-opacity="0.48"/>
<stop offset="0.883198" stop-color="#0E131F" stop-opacity="0"/>
</radialGradient>
<radialGradient id="paint9_radial_20_97" cx="0" cy="0" r="1" gradientUnits="userSpaceOnUse" gradientTransform="translate(1037.52 160.431) rotate(90) scale(58.0028)">
<stop offset="0.137737" stop-color="#0E131F" stop-opacity="0"/>
<stop offset="0.486973" stop-color="#0E131F" stop-opacity="0.48"/>
<stop offset="0.883198" stop-color="#0E131F" stop-opacity="0"/>
</radialGradient>
<radialGradient id="paint10_radial_20_97" cx="0" cy="0" r="1" gradientUnits="userSpaceOnUse" gradientTransform="translate(1037.52 160.431) rotate(90) scale(58.0028 58.003)">
<stop offset="0.137737" stop-color="#0E131F" stop-opacity="0"/>
<stop offset="0.486973" stop-color="#0E131F" stop-opacity="0.48"/>
<stop offset="0.883198" stop-color="#0E131F" stop-opacity="0"/>
</radialGradient>
</defs>
</svg>
