<svg width="792" height="190" viewBox="0 0 792 190" fill="none" xmlns="http://www.w3.org/2000/svg">
<path fill-rule="evenodd" clip-rule="evenodd" d="M792 0H0V190H792V0Z" fill="#1A2735"/>
<path fill-rule="evenodd" clip-rule="evenodd" d="M629.42 190C657.252 154.742 673 114.596 673 72C673 46.9912 667.571 22.8266 657.456 0H0V190H629.42Z" fill="#16222F"/>
<path fill-rule="evenodd" clip-rule="evenodd" d="M312.085 190C359.973 160.749 390 118.712 390 72C390 46.1022 380.771 21.6415 364.385 0L0 0V190H312.085Z" fill="#131D29"/>
<path fill-rule="evenodd" clip-rule="evenodd" d="M63 174C147.5 174 216 128.333 216 72C216 43.8969 198.952 18.4484 171.374 0H0V164.979C19.2126 170.774 40.5412 174 63 174Z" fill="#101A25"/>
<path fill-rule="evenodd" clip-rule="evenodd" d="M261.47 77.7999C260.077 77.4941 258.656 77.3299 257.23 77.3099C254.33 77.3099 253.91 78.5799 253.91 80.8199V84.5099H261.41L261 90.3799H253.93V114H246.55V90.3799H241.83V84.5099H246.55V80.3999C246.55 74.2899 249.39 71.2599 255.92 71.2599C258.065 71.252 260.202 71.538 262.27 72.1099L261.47 77.7999ZM138.88 80.3999H127.63V73.6799H157.75V80.3999H146.5V114H138.88V80.3999ZM165.71 108.53C168.762 108.516 171.795 108.047 174.71 107.14L175.86 112.7C172.378 113.957 168.702 114.593 165 114.58C155.75 114.58 152.54 110.28 152.54 103.2V95.3999C152.54 89.1699 155.32 83.9099 164.76 83.9099C174.2 83.9099 176.32 89.4099 176.32 95.7599V102.06H160V103.57C160 107.14 161.23 108.53 165.71 108.53ZM160 96.1299H169.38V94.6699C169.38 91.8899 168.53 89.9599 164.9 89.9599C161.27 89.9599 160 91.8899 160 94.6699V96.1299ZM188.27 94.9799C190.756 93.3437 193.368 91.9059 196.08 90.6799L195.35 83.9099C192.61 84.8509 190.007 86.1523 187.61 87.7799L187.12 84.5099H180.89V114H188.27V94.9799ZM214.1 90.6799C211.392 91.9081 208.784 93.3458 206.3 94.9799V114H198.92V84.5099H205.15L205.63 87.7799C208.03 86.1524 210.637 84.8511 213.38 83.9099L214.1 90.6799ZM232.73 114H238.78L238.8 94.5499C238.8 87.1699 236.06 83.9099 226.8 83.9099C223.386 83.9213 219.99 84.3888 216.7 85.2999L217.61 90.9199C220.297 90.3501 223.033 90.0486 225.78 90.0199C230.5 90.0199 231.4 91.1699 231.4 94.4299V97.5399H224.32C218.34 97.5399 215.73 99.8299 215.73 105.83C215.73 110.91 218.03 114.6 223.42 114.6C226.533 114.597 229.578 113.694 232.19 112L232.73 114ZM226 102.84H231.4L231.47 107.24C229.772 108.2 227.86 108.719 225.91 108.75C223.58 108.75 222.91 107.75 222.91 105.75C222.91 103.51 223.58 102.84 226 102.84ZM263 103C263 109 265.76 114.58 275.86 114.58C286 114.58 288.69 109 288.65 103V95.5199C288.65 89.4699 285.92 83.9099 275.82 83.9099C265.72 83.9099 263 89.5199 263 95.5199V103ZM270.42 95.2799C270.42 91.9499 271.93 90.1999 275.86 90.1999C279.8 90.1999 281.31 91.9999 281.31 95.2799V103.2C281.31 106.53 279.79 108.29 275.86 108.29C271.93 108.29 270.42 106.53 270.42 103.2V95.2799ZM307.68 90.6799C304.972 91.9081 302.364 93.3458 299.88 94.9799V114H292.5V84.5099H298.73L299.21 87.7799C301.624 86.1512 304.244 84.8499 307 83.9099L307.68 90.6799ZM328 93.3999V114H335.38V93.5299C337.737 92.1711 340.354 91.3227 343.06 91.0399C344.75 91.0399 345.42 91.8299 345.42 93.3999V114H352.8V92.6199C352.8 87.3499 351.05 83.9099 346.15 83.9099C342.018 84.0988 337.974 85.1694 334.29 87.0499C333.32 85.0599 331.57 83.9099 328.72 83.9099C324.619 84.1075 320.604 85.1564 316.93 86.9899L316.2 84.5099H310.57V114H317.96V93.5299C320.64 92.1299 323.95 91.0399 325.64 91.0399C327.33 91.0399 328 91.8299 328 93.3999Z" fill="white"/>
<path d="M135.44 63.7199V58.0599H130.27V63.7199H127.63V50.1299H130.27V55.8299H135.44V50.1299H138.08V63.7199H135.44ZM147.77 63.7199H145.67L145.48 63.0499C144.581 63.6141 143.541 63.9155 142.48 63.9199C140.62 63.9199 139.82 62.6899 139.82 60.9999C139.82 58.9999 140.72 58.2399 142.82 58.2399H145.27V57.2399C145.27 56.1499 144.96 55.7699 143.27 55.7699C142.319 55.7797 141.372 55.8801 140.44 56.0699L140.13 54.1999C141.272 53.8985 142.448 53.7439 143.63 53.7399C146.83 53.7399 147.78 54.8199 147.78 57.2799L147.77 63.7199ZM145.21 59.9999H143.32C142.49 59.9999 142.26 60.2299 142.26 60.9999C142.26 61.7699 142.49 61.9999 143.26 61.9999C143.936 61.9958 144.6 61.8203 145.19 61.4899L145.21 59.9999ZM153.12 63.9099C151.926 63.8911 150.741 63.7026 149.6 63.3499L149.96 61.4699C150.937 61.745 151.945 61.8896 152.96 61.8999C154.09 61.8999 154.26 61.6499 154.26 60.8999C154.26 60.1499 154.13 59.9899 152.48 59.6099C149.98 59.0299 149.69 58.4199 149.69 56.5299C149.69 54.6399 150.59 53.6999 153.5 53.6999C154.529 53.7004 155.555 53.8145 156.56 54.0399L156.35 55.9999C155.422 55.8364 154.482 55.7428 153.54 55.7199C152.43 55.7199 152.24 55.9599 152.24 56.5599C152.24 57.3499 152.31 57.4099 153.69 57.7499C156.54 58.4799 156.81 58.8399 156.81 60.8499C156.81 62.8599 156.2 63.9199 153.12 63.9199V63.9099ZM164.83 63.7099V56.8799C164.83 56.3499 164.6 56.0899 164.01 56.0899C163.077 56.1887 162.173 56.4708 161.35 56.9199V63.7199H158.79V49.9399L161.35 50.3199V54.6599C162.515 54.0912 163.785 53.7711 165.08 53.7199C166.78 53.7199 167.38 54.8599 167.38 56.6099V63.7199L164.83 63.7099ZM169.53 52.5199V50.1199H172.09V52.5199H169.53ZM169.53 63.7099V53.9099H172.09V63.7099H169.53ZM174.13 53.9899C174.13 51.5299 175.62 50.0999 179.13 50.0999C180.406 50.1026 181.678 50.2536 182.92 50.5499L182.63 52.7399C181.501 52.5355 180.357 52.4218 179.21 52.3999C177.39 52.3999 176.8 52.9999 176.8 54.3999V59.5499C176.8 60.9799 177.39 61.5499 179.21 61.5499C180.357 61.5281 181.501 61.4144 182.63 61.2099L182.92 63.4099C181.678 63.7029 180.406 63.8506 179.13 63.8499C175.65 63.8499 174.13 62.4199 174.13 59.9599V53.9899ZM188.54 63.9099C185.04 63.9099 184.1 62.0599 184.1 60.0399V57.5799C184.1 55.5799 185.04 53.7199 188.54 53.7199C192.04 53.7199 193 55.5699 193 57.5799V60.0499C193 62.0699 192 63.9199 188.54 63.9199V63.9099ZM188.54 55.7999C187.18 55.7999 186.65 56.3799 186.65 57.4899V60.1299C186.65 61.2299 187.18 61.8199 188.54 61.8199C189.9 61.8199 190.43 61.2299 190.43 60.1299V57.4999C190.43 56.3899 189.9 55.8099 188.54 55.8099V55.7999ZM200.18 55.9599C199.246 56.3689 198.343 56.8469 197.48 57.3899V63.7099H194.92V53.9099H197.08L197.25 54.9899C198.084 54.4496 198.985 54.0194 199.93 53.7099L200.18 55.9599ZM210.4 60.4499C210.4 62.6199 209.4 63.9099 207.03 63.9099C206.113 63.9011 205.199 63.8073 204.3 63.6299V67.6299L201.75 68.0099V53.9199H203.75L204 54.7399C204.946 54.0782 206.075 53.7285 207.23 53.7399C209.28 53.7399 210.37 54.8999 210.37 57.1399L210.4 60.4499ZM204.3 61.5499C205.046 61.712 205.806 61.8024 206.57 61.8199C207.49 61.8199 207.85 61.3899 207.85 60.5099V57.0599C207.85 56.2499 207.53 55.8099 206.59 55.8099C205.749 55.8367 204.942 56.1468 204.3 56.6899V61.5499Z" fill="white"/>
<path fill-rule="evenodd" clip-rule="evenodd" d="M40.4199 54.1799V76.2399L59.5199 87.2699V65.2099L40.4199 54.1799ZM80.7199 77.5199L61.6199 66.4899V88.5499L80.7199 99.5799V77.5199ZM82.8101 99.5799V77.5199L101.92 66.4899V88.5499L82.8101 99.5799ZM80.7199 124.06L61.6199 113.03V90.9699L80.7199 102V102.14V124.06Z" fill="#7B42BC"/>
<path fill-rule="evenodd" clip-rule="evenodd" d="M477.002 69.0047C476.174 68.1765 474.831 68.1765 474.003 69.0047L465.005 78.0028C464.176 78.8311 464.176 80.174 465.005 81.0022L497.998 113.995C498.826 114.824 500.169 114.824 500.997 113.995L509.995 104.997C510.823 104.169 510.823 102.826 509.995 101.998L477.002 69.0047ZM459.006 72.0041C454.865 76.1454 454.865 82.8597 459.006 87.001L491.999 119.994C496.14 124.135 502.855 124.135 506.996 119.994L515.994 110.996C520.135 106.855 520.135 100.14 515.994 95.9991L483.001 63.006C478.86 58.8647 472.145 58.8647 468.004 63.006L459.006 72.0041Z" fill="url(#paint0_linear_18_59)"/>
<path d="M509.995 81.0022C510.823 80.174 510.823 78.8311 509.995 78.0028L500.997 69.0047C500.169 68.1765 498.826 68.1765 497.998 69.0047L493.514 73.4882L487.515 67.4895L491.999 63.006C496.14 58.8647 502.855 58.8647 506.996 63.006L515.994 72.0041C520.135 76.1454 520.135 82.8597 515.994 87.001L493.483 109.512L487.484 103.513L509.995 81.0022Z" fill="url(#paint1_linear_18_59)"/>
<path d="M481.486 109.512L477.002 113.995C476.174 114.824 474.831 114.824 474.003 113.995L465.005 104.997C464.176 104.169 464.176 102.826 465.005 101.998L487.515 79.4869L481.517 73.4882L459.006 95.9991C454.865 100.14 454.865 106.855 459.006 110.996L468.004 119.994C472.145 124.135 478.86 124.135 483.001 119.994L487.484 115.511L481.486 109.512Z" fill="url(#paint2_linear_18_59)"/>
<path style="mix-blend-mode:multiply" d="M487.5 115.547L479.848 111.201L481.501 109.548L487.5 115.547Z" fill="url(#paint3_radial_18_59)" fill-opacity="0.4"/>
<path style="mix-blend-mode:multiply" d="M487.5 79.5545L479.892 75.1654L481.501 73.5557L487.5 79.5545Z" fill="url(#paint4_radial_18_59)" fill-opacity="0.4"/>
<path style="mix-blend-mode:multiply" d="M493.499 73.5556L495.204 71.8506L487.5 67.5569L493.499 73.5556Z" fill="url(#paint5_radial_18_59)" fill-opacity="0.4"/>
<path style="mix-blend-mode:multiply" d="M495.172 107.875L487.5 103.549L493.499 109.548L495.172 107.875Z" fill="url(#paint6_radial_18_59)" fill-opacity="0.4"/>
<path style="mix-blend-mode:multiply" d="M463.505 91.5L467.851 83.8481L469.504 85.5013L463.505 91.5Z" fill="url(#paint7_radial_18_59)" fill-opacity="0.4"/>
<path style="mix-blend-mode:multiply" d="M499.497 91.5L503.887 83.8916L505.496 85.5013L499.497 91.5Z" fill="url(#paint8_radial_18_59)" fill-opacity="0.4"/>
<path style="mix-blend-mode:multiply" d="M505.496 97.4988L507.201 99.2038L511.495 91.5L505.496 97.4988Z" fill="url(#paint9_radial_18_59)" fill-opacity="0.4"/>
<path style="mix-blend-mode:multiply" d="M471.177 99.1719L475.502 91.5L469.504 97.4988L471.177 99.1719Z" fill="url(#paint10_radial_18_59)" fill-opacity="0.4"/>
<path d="M543.328 83.85H550.588V113H543.328V83.85ZM546.958 81.1C545.674 81.1 544.611 80.6967 543.768 79.89C542.961 79.0467 542.558 77.9833 542.558 76.7C542.558 75.4167 542.961 74.3717 543.768 73.565C544.611 72.7217 545.674 72.3 546.958 72.3C548.241 72.3 549.286 72.7217 550.093 73.565C550.936 74.3717 551.358 75.4167 551.358 76.7C551.358 77.9833 550.936 79.0467 550.093 79.89C549.286 80.6967 548.241 81.1 546.958 81.1ZM567.388 113.33C563.941 113.33 561.43 112.597 559.853 111.13C558.276 109.627 557.488 107.133 557.488 103.65V89.9H553.638V83.85H557.488V77.25H564.748V83.85H571.788V89.9H564.748V102.55C564.748 104.2 565.041 105.392 565.628 106.125C566.251 106.822 567.388 107.17 569.038 107.17C570.138 107.17 571.238 107.115 572.338 107.005V113.055C571.641 113.128 570.908 113.183 570.138 113.22C569.405 113.293 568.488 113.33 567.388 113.33ZM588.316 113.66C586.336 113.66 584.448 113.367 582.651 112.78C580.891 112.157 579.351 111.24 578.031 110.03C576.711 108.783 575.666 107.225 574.896 105.355C574.126 103.448 573.741 101.23 573.741 98.7V97.6C573.741 95.18 574.108 93.0717 574.841 91.275C575.574 89.4783 576.583 87.9933 577.866 86.82C579.149 85.61 580.634 84.7117 582.321 84.125C584.008 83.5017 585.823 83.19 587.766 83.19C592.349 83.19 595.833 84.4 598.216 86.82C600.599 89.24 601.791 92.7417 601.791 97.325V100.405H581.166C581.203 101.688 581.423 102.807 581.826 103.76C582.229 104.677 582.761 105.428 583.421 106.015C584.081 106.602 584.833 107.042 585.676 107.335C586.556 107.592 587.436 107.72 588.316 107.72C590.186 107.72 591.598 107.445 592.551 106.895C593.504 106.345 594.183 105.538 594.586 104.475H601.241C600.654 107.518 599.206 109.81 596.896 111.35C594.586 112.89 591.726 113.66 588.316 113.66ZM588.041 89.13C587.198 89.13 586.354 89.24 585.511 89.46C584.704 89.68 583.989 90.0283 583.366 90.505C582.743 90.9817 582.229 91.6233 581.826 92.43C581.423 93.2367 581.203 94.2083 581.166 95.345H594.751C594.714 94.135 594.513 93.1267 594.146 92.32C593.816 91.5133 593.339 90.8717 592.716 90.395C592.129 89.9183 591.433 89.5883 590.626 89.405C589.819 89.2217 588.958 89.13 588.041 89.13ZM604.82 83.85H611.53V88.14C611.787 87.5533 612.154 86.9667 612.63 86.38C613.107 85.7567 613.675 85.225 614.335 84.785C614.995 84.3083 615.71 83.9233 616.48 83.63C617.287 83.3367 618.167 83.19 619.12 83.19C619.817 83.19 620.404 83.2267 620.88 83.3C621.394 83.3733 621.724 83.4467 621.87 83.52V89.955C621.504 89.8083 621.027 89.68 620.44 89.57C619.89 89.4233 619.139 89.35 618.185 89.35C617.085 89.35 616.15 89.5333 615.38 89.9C614.61 90.2667 613.969 90.7617 613.455 91.385C612.979 91.9717 612.63 92.6683 612.41 93.475C612.19 94.2817 612.08 95.125 612.08 96.005V113H604.82V83.85ZM631.99 113.66C630.414 113.66 629.02 113.44 627.81 113C626.6 112.523 625.574 111.882 624.73 111.075C623.887 110.232 623.245 109.26 622.805 108.16C622.365 107.023 622.145 105.795 622.145 104.475C622.145 98.6083 625.629 95.675 632.595 95.675H641.285V94.3C641.285 92.3933 640.845 91.055 639.965 90.285C639.122 89.515 637.765 89.13 635.895 89.13C634.245 89.13 633.054 89.4233 632.32 90.01C631.587 90.56 631.165 91.2567 631.055 92.1H623.795C623.869 90.8533 624.18 89.68 624.73 88.58C625.317 87.48 626.124 86.545 627.15 85.775C628.214 84.9683 629.497 84.345 631 83.905C632.504 83.4283 634.227 83.19 636.17 83.19C638.04 83.19 639.727 83.3917 641.23 83.795C642.77 84.1983 644.072 84.8583 645.135 85.775C646.235 86.655 647.079 87.81 647.665 89.24C648.252 90.67 648.545 92.3933 648.545 94.41V105.575C648.545 107.115 648.564 108.472 648.6 109.645C648.674 110.782 648.784 111.9 648.93 113H642.165C642.019 112.193 641.927 111.588 641.89 111.185C641.89 110.745 641.89 110.103 641.89 109.26C641.084 110.433 639.855 111.46 638.205 112.34C636.592 113.22 634.52 113.66 631.99 113.66ZM634.245 108.05C635.125 108.05 635.987 107.94 636.83 107.72C637.674 107.463 638.425 107.097 639.085 106.62C639.745 106.107 640.277 105.465 640.68 104.695C641.084 103.925 641.285 103.027 641.285 102V100.625H633.97C632.577 100.625 631.477 100.955 630.67 101.615C629.9 102.238 629.515 103.1 629.515 104.2C629.515 105.373 629.919 106.308 630.725 107.005C631.532 107.702 632.705 108.05 634.245 108.05ZM664.506 113.33C661.059 113.33 658.548 112.597 656.971 111.13C655.394 109.627 654.606 107.133 654.606 103.65V89.9H650.756V83.85H654.606V77.25H661.866V83.85H668.906V89.9H661.866V102.55C661.866 104.2 662.159 105.392 662.746 106.125C663.369 106.822 664.506 107.17 666.156 107.17C667.256 107.17 668.356 107.115 669.456 107.005V113.055C668.759 113.128 668.026 113.183 667.256 113.22C666.523 113.293 665.606 113.33 664.506 113.33ZM673.053 83.85H680.313V113H673.053V83.85ZM676.683 81.1C675.399 81.1 674.336 80.6967 673.493 79.89C672.686 79.0467 672.283 77.9833 672.283 76.7C672.283 75.4167 672.686 74.3717 673.493 73.565C674.336 72.7217 675.399 72.3 676.683 72.3C677.966 72.3 679.011 72.7217 679.818 73.565C680.661 74.3717 681.083 75.4167 681.083 76.7C681.083 77.9833 680.661 79.0467 679.818 79.89C679.011 80.6967 677.966 81.1 676.683 81.1ZM682.538 83.85H690.678L698.598 103.925L705.858 83.85H713.338L702.118 113H694.858L682.538 83.85ZM727.118 113.66C725.138 113.66 723.25 113.367 721.453 112.78C719.693 112.157 718.153 111.24 716.833 110.03C715.513 108.783 714.468 107.225 713.698 105.355C712.928 103.448 712.543 101.23 712.543 98.7V97.6C712.543 95.18 712.91 93.0717 713.643 91.275C714.376 89.4783 715.385 87.9933 716.668 86.82C717.951 85.61 719.436 84.7117 721.123 84.125C722.81 83.5017 724.625 83.19 726.568 83.19C731.151 83.19 734.635 84.4 737.018 86.82C739.401 89.24 740.593 92.7417 740.593 97.325V100.405H719.968C720.005 101.688 720.225 102.807 720.628 103.76C721.031 104.677 721.563 105.428 722.223 106.015C722.883 106.602 723.635 107.042 724.478 107.335C725.358 107.592 726.238 107.72 727.118 107.72C728.988 107.72 730.4 107.445 731.353 106.895C732.306 106.345 732.985 105.538 733.388 104.475H740.043C739.456 107.518 738.008 109.81 735.698 111.35C733.388 112.89 730.528 113.66 727.118 113.66ZM726.843 89.13C726 89.13 725.156 89.24 724.313 89.46C723.506 89.68 722.791 90.0283 722.168 90.505C721.545 90.9817 721.031 91.6233 720.628 92.43C720.225 93.2367 720.005 94.2083 719.968 95.345H733.553C733.516 94.135 733.315 93.1267 732.948 92.32C732.618 91.5133 732.141 90.8717 731.518 90.395C730.931 89.9183 730.235 89.5883 729.428 89.405C728.621 89.2217 727.76 89.13 726.843 89.13Z" fill="white"/>
<path d="M409 30H408V160H409V30Z" fill="#888888"/>
<defs>
<linearGradient id="paint0_linear_18_59" x1="468.878" y1="73.4429" x2="505.557" y2="108.993" gradientUnits="userSpaceOnUse">
<stop stop-color="#13ADC7"/>
<stop offset="0.479167" stop-color="#4685D9"/>
<stop offset="1" stop-color="#945DD6"/>
</linearGradient>
<linearGradient id="paint1_linear_18_59" x1="503.864" y1="74.0072" x2="467.75" y2="108.993" gradientUnits="userSpaceOnUse">
<stop stop-color="#F46737"/>
<stop offset="0.5" stop-color="#D94D81"/>
<stop offset="1" stop-color="#945DD6"/>
</linearGradient>
<linearGradient id="paint2_linear_18_59" x1="503.864" y1="74.0072" x2="467.75" y2="108.993" gradientUnits="userSpaceOnUse">
<stop stop-color="#F46737"/>
<stop offset="0.5" stop-color="#D94D81"/>
<stop offset="1" stop-color="#945DD6"/>
</linearGradient>
<radialGradient id="paint3_radial_18_59" cx="0" cy="0" r="1" gradientUnits="userSpaceOnUse" gradientTransform="translate(487.5 91.5) rotate(90) scale(28.2143)">
<stop offset="0.137737" stop-color="#0E131F" stop-opacity="0"/>
<stop offset="0.486973" stop-color="#0E131F" stop-opacity="0.48"/>
<stop offset="0.883198" stop-color="#0E131F" stop-opacity="0"/>
</radialGradient>
<radialGradient id="paint4_radial_18_59" cx="0" cy="0" r="1" gradientUnits="userSpaceOnUse" gradientTransform="translate(487.5 91.5) rotate(90) scale(28.2143)">
<stop offset="0.137737" stop-color="#0E131F" stop-opacity="0"/>
<stop offset="0.486973" stop-color="#0E131F" stop-opacity="0.48"/>
<stop offset="0.883198" stop-color="#0E131F" stop-opacity="0"/>
</radialGradient>
<radialGradient id="paint5_radial_18_59" cx="0" cy="0" r="1" gradientUnits="userSpaceOnUse" gradientTransform="translate(487.5 91.5) rotate(90) scale(28.2143)">
<stop offset="0.137737" stop-color="#0E131F" stop-opacity="0"/>
<stop offset="0.486973" stop-color="#0E131F" stop-opacity="0.48"/>
<stop offset="0.883198" stop-color="#0E131F" stop-opacity="0"/>
</radialGradient>
<radialGradient id="paint6_radial_18_59" cx="0" cy="0" r="1" gradientUnits="userSpaceOnUse" gradientTransform="translate(487.5 91.5) rotate(90) scale(28.2143)">
<stop offset="0.137737" stop-color="#0E131F" stop-opacity="0"/>
<stop offset="0.486973" stop-color="#0E131F" stop-opacity="0.48"/>
<stop offset="0.883198" stop-color="#0E131F" stop-opacity="0"/>
</radialGradient>
<radialGradient id="paint7_radial_18_59" cx="0" cy="0" r="1" gradientUnits="userSpaceOnUse" gradientTransform="translate(487.5 91.5) rotate(90) scale(28.2143)">
<stop offset="0.137737" stop-color="#0E131F" stop-opacity="0"/>
<stop offset="0.486973" stop-color="#0E131F" stop-opacity="0.48"/>
<stop offset="0.883198" stop-color="#0E131F" stop-opacity="0"/>
</radialGradient>
<radialGradient id="paint8_radial_18_59" cx="0" cy="0" r="1" gradientUnits="userSpaceOnUse" gradientTransform="translate(487.5 91.5) rotate(90) scale(28.2143)">
<stop offset="0.137737" stop-color="#0E131F" stop-opacity="0"/>
<stop offset="0.486973" stop-color="#0E131F" stop-opacity="0.48"/>
<stop offset="0.883198" stop-color="#0E131F" stop-opacity="0"/>
</radialGradient>
<radialGradient id="paint9_radial_18_59" cx="0" cy="0" r="1" gradientUnits="userSpaceOnUse" gradientTransform="translate(487.5 91.5) rotate(90) scale(28.2143)">
<stop offset="0.137737" stop-color="#0E131F" stop-opacity="0"/>
<stop offset="0.486973" stop-color="#0E131F" stop-opacity="0.48"/>
<stop offset="0.883198" stop-color="#0E131F" stop-opacity="0"/>
</radialGradient>
<radialGradient id="paint10_radial_18_59" cx="0" cy="0" r="1" gradientUnits="userSpaceOnUse" gradientTransform="translate(487.5 91.5) rotate(90) scale(28.2143)">
<stop offset="0.137737" stop-color="#0E131F" stop-opacity="0"/>
<stop offset="0.486973" stop-color="#0E131F" stop-opacity="0.48"/>
<stop offset="0.883198" stop-color="#0E131F" stop-opacity="0"/>
</radialGradient>
</defs>
</svg>
