<svg width="160" height="160" viewBox="0 0 160 160" fill="none" xmlns="http://www.w3.org/2000/svg"><path d="M104.493 104.673c-7.41-7.333-10.842-16.221-10.842-26.703 0-10.542 3.413-19.47 10.842-26.863a37.272 37.272 0 0 1 12.411-8.356 36.612 36.612 0 0 1 14.616-2.744c9.434-.158 18.578 3.329 25.604 9.764 1.073.997 1.092 1.993.117 2.95l-8.249 8.509c-.916.837-1.813.837-2.652 0-3.947-3.54-9.042-5.45-14.293-5.36-5.928 0-10.862 2.112-14.82 6.376a21.151 21.151 0 0 0-4.328 7.042 21.497 21.497 0 0 0-1.327 8.203c0 5.899 1.755 10.92 5.733 15.086a19.92 19.92 0 0 0 6.787 4.716 19.554 19.554 0 0 0 8.072 1.521c5.165.12 10.199-1.67 14.176-5.041.975-.837 1.892-.798 2.73.1l8.269 8.728c.916.916.877 1.853-.098 2.829-6.92 6.735-16.167 10.396-25.721 10.184a36.874 36.874 0 0 1-14.593-2.701 37.518 37.518 0 0 1-12.434-8.26v.02z" fill="url(#paint0_linear)"/><path d="M2.001 113.422V42.079a1.95 1.95 0 0 1 .14-.791c.1-.251.252-.477.445-.663a1.72 1.72 0 0 1 .59-.445c.225-.103.47-.156.717-.153h25.486c10.452.797 18.252 3.786 25.428 11.16C62.022 58.56 64.89 66.93 65.805 77.69c.878 10.362-3.354 19.33-10.53 26.703a35.185 35.185 0 0 1-11.815 8.314 34.519 34.519 0 0 1-14.08 2.806H3.892a1.733 1.733 0 0 1-.715-.158 1.778 1.778 0 0 1-.592-.44 1.99 1.99 0 0 1-.585-1.475v-.019zm16.302-54.005v40.115h10.023c5.85 0 10.725-2.113 14.586-6.317 3.861-4.198 5.943-9.785 5.792-15.544 0-6.118-1.95-11.28-5.792-15.484a19.176 19.176 0 0 0-6.624-4.77 18.81 18.81 0 0 0-7.962-1.547H18.303v3.547z" fill="url(#paint1_linear)"/><path d="M95.699 64.976l-15.795 35.472h-.644L62.393 62.505c1.91 4.544 2.925 9.526 3.412 15.166.644 7.572-1.443 14.388-5.401 20.406l16.77 36.727c.429.797 1.014 1.196 1.794 1.196h1.053c.78 0 1.365-.379 1.774-1.176l17.082-37.166a36.835 36.835 0 0 1-5.226-19.708c0-4.624.663-8.968 2.048-12.974z" fill="url(#paint2_linear)"/><defs><linearGradient id="paint0_linear" x1="125.826" y1="77.863" x2="125.826" y2="115.622" gradientUnits="userSpaceOnUse"><stop stop-color="#F46837"/><stop offset="1" stop-color="#DD5236"/></linearGradient><linearGradient id="paint1_linear" x1="33.96" y1="77.863" x2="33.96" y2="115.517" gradientUnits="userSpaceOnUse"><stop stop-color="#13ADC7"/><stop offset="1" stop-color="#1497B8"/></linearGradient><linearGradient id="paint2_linear" x1="65.375" y1="99.784" x2="65.375" y2="135.654" gradientUnits="userSpaceOnUse"><stop stop-color="#7E51C2"/><stop offset="1" stop-color="#945DD6"/></linearGradient></defs></svg>