<svg width="80" height="80" viewBox="0 0 80 80" fill="none" xmlns="http://www.w3.org/2000/svg"><path d="M50.6384 46.2849C47.1306 42.7913 45.5 38.5648 45.5 33.5672C45.5 28.5505 47.1117 24.305 50.6384 20.7828C52.2976 19.0664 54.2911 17.7116 56.4947 16.8026C58.6982 15.8937 61.0646 15.4501 63.4463 15.4996C67.9357 15.4336 72.2792 17.0997 75.5812 20.1546C76.0932 20.6305 76.1026 21.1065 75.6381 21.5539L71.7322 25.6091C71.2961 25.9994 70.8695 25.9994 70.4713 25.6091C68.6151 23.9263 66.1934 23.0114 63.6928 23.0484C62.3741 23.0201 61.0649 23.2776 59.8542 23.8032C58.6436 24.3289 57.56 25.1104 56.6774 26.0946C55.776 27.0663 55.0749 28.2075 54.6144 29.4524C54.154 30.6972 53.9433 32.0213 53.9944 33.3482C53.9291 35.3354 54.4599 37.2964 55.5182 38.9768C56.5764 40.6573 58.1132 41.9796 59.9291 42.7723C61.1376 43.2813 62.4396 43.5279 63.7497 43.4958C66.2051 43.5529 68.5847 42.6961 70.4808 41.0969C70.9358 40.6971 71.3719 40.7161 71.7701 41.1445L75.6855 45.2949C76.1216 45.7328 76.1026 46.1802 75.6381 46.6466C74.0288 48.2276 72.1217 49.4704 70.0283 50.3024C67.9349 51.1343 65.6973 51.5387 63.4463 51.4919C61.0704 51.5427 58.709 51.1063 56.5068 50.2094C54.3046 49.3124 52.3077 47.9738 50.6384 46.2754V46.2849Z" fill="#fff"/><path fill-rule="evenodd" clip-rule="evenodd" d="M1.00091 16.4817C0.997728 16.3522 1.02154 16.2234 1.07083 16.1035C1.12012 15.9837 1.1938 15.8754 1.28721 15.7855C1.36398 15.6961 1.45913 15.6243 1.56617 15.5749C1.67322 15.5256 1.78965 15.4998 1.90755 15.4995H14.0661C19.0574 15.8809 22.7794 17.3113 26.196 20.8207C29.6412 24.3396 31.006 28.3257 31.445 33.4658C31.8649 38.4056 29.8512 42.6778 26.4251 46.1967C24.8539 47.8991 22.941 49.2512 20.8115 50.1649C18.6819 51.0785 16.3834 51.533 14.0661 51.4989H1.90755C1.78815 51.4993 1.67007 51.4739 1.56137 51.4245C1.45267 51.3752 1.3559 51.303 1.27767 51.2128C1.18477 51.121 1.11215 51.0108 1.06448 50.8893C1.01681 50.7677 0.995155 50.6376 1.00091 50.5071V16.4817V16.4817ZM8.77894 43.8794H13.5603C14.8705 43.9101 16.1718 43.6566 17.3745 43.1364C18.5773 42.6162 19.6528 41.8416 20.5271 40.866C22.3731 38.8462 23.365 36.1907 23.2948 33.4563C23.2948 30.5382 22.3595 28.0778 20.5271 26.0656C19.6492 25.0945 18.573 24.323 17.3711 23.8031C16.1692 23.2832 14.8697 23.0272 13.5603 23.0522H8.78848V43.8794H8.77894Z" fill="#fff"/><path d="M46.824 43.7991C47.0187 44.0853 47.0577 44.4478 46.9116 44.7626L39.5585 60.4366C39.3637 60.8182 39.0715 60.9995 38.6917 60.9995H38.1755C37.7957 60.9995 37.5132 60.8087 37.299 60.4271L30.0919 44.9439C29.9361 44.629 29.9848 44.257 30.1893 43.9613C32.2849 41.1053 33.3567 37.6504 33.2377 34.1352C33.228 33.8681 33.6565 33.7536 33.7636 34.0112L38.3216 44.0376H38.6333L43.3665 33.6391C43.4737 33.4006 43.873 33.4865 43.873 33.7536C43.873 37.312 44.7885 40.8322 46.824 43.7991V43.7991Z" fill="#fff"/></svg>