<svg width="144" height="94" viewBox="0 0 144 94" fill="none" xmlns="http://www.w3.org/2000/svg"><path d="M79.3567 16.8998L71.1404 33.7855H70.8076L62.04 15.7189C63.0404 18.0284 63.6371 20.4678 63.8081 22.9474C64.1409 26.5474 63.0593 29.7951 61 32.6617L69.7363 50.1474C69.9548 50.5284 70.2564 50.7189 70.6724 50.7189H71.1924C71.598 50.7189 71.8996 50.5379 72.118 50.157L81 32.4617C79.1479 29.6279 78.207 26.373 78.2855 23.0713C78.2855 20.8808 78.6287 18.8046 79.3463 16.8998H79.3567Z" fill="url(#paint0_linear_524_1337)"/><path d="M83.1393 35.5079C79.6316 32.0143 78.001 27.7877 78.001 22.7901C78.001 17.7735 79.6126 13.5279 83.1393 10.0058C84.7986 8.2894 86.7921 6.93452 88.9957 6.02557C91.1992 5.11662 93.5656 4.67309 95.9473 4.72261C100.437 4.65651 104.78 6.32267 108.082 9.37752C108.594 9.85348 108.604 10.3294 108.139 10.7768L104.233 14.832C103.797 15.2223 103.37 15.2223 102.972 14.832C101.116 13.1493 98.6943 12.2344 96.1938 12.2714C94.8751 12.2431 93.5658 12.5005 92.3552 13.0262C91.1446 13.5519 90.061 14.3334 89.1783 15.3175C88.2769 16.2893 87.5759 17.4304 87.1154 18.6753C86.655 19.9202 86.4442 21.2442 86.4954 22.5712C86.43 24.5583 86.9609 26.5193 88.0192 28.1998C89.0774 29.8802 90.6142 31.2026 92.4301 31.9953C93.6386 32.5043 94.9406 32.7508 96.2507 32.7187C98.6966 32.7758 101.086 31.9191 102.972 30.3199C103.437 29.9201 103.873 29.9391 104.271 30.3675L108.186 34.5179C108.623 34.9557 108.604 35.4032 108.139 35.8696C106.53 37.4505 104.623 38.6934 102.529 39.5253C100.436 40.3573 98.1982 40.7617 95.9473 40.7149C93.5713 40.7657 91.21 40.3293 89.0078 39.4323C86.8055 38.5354 84.8087 37.1968 83.1393 35.4983V35.5079Z" fill="url(#paint1_linear_524_1337)"/><path d="M34.0025 39.7291V5.70501C33.9993 5.57545 34.0231 5.44664 34.0724 5.32677C34.1217 5.2069 34.1954 5.09858 34.2888 5.00869C34.3656 4.91926 34.4607 4.84741 34.5678 4.79803C34.6748 4.74865 34.7913 4.7229 34.9092 4.72253H47.0678C52.0592 5.10408 55.7812 6.53486 59.1979 10.0451C62.6432 13.5648 64.0079 17.5519 64.4469 22.6932C64.8669 27.6342 62.8531 31.9075 59.4269 35.4272C57.8408 37.1222 55.9203 38.4701 53.7866 39.3857C51.6653 40.2963 49.3763 40.7512 47.0678 40.7211H34.9092C34.7897 40.7215 34.6717 40.6961 34.563 40.6468C34.4543 40.5974 34.3575 40.5251 34.2793 40.435C34.1876 40.3443 34.1157 40.2356 34.068 40.1157C34.0204 39.9959 33.9981 39.8675 34.0025 39.7387V39.7291ZM41.7806 13.975V33.1093H46.562C47.8723 33.1401 49.1736 32.8865 50.3763 32.3661C51.5791 31.8458 52.6546 31.071 53.5289 30.0952C55.375 28.0749 56.3668 25.4188 56.2966 22.6837C56.2966 19.7649 55.3613 17.3039 53.5289 15.2913C52.651 14.3199 51.5748 13.5482 50.3729 13.0282C49.171 12.5082 47.8715 12.2521 46.562 12.2771H41.7902V13.975H41.7806Z" fill="url(#paint2_linear_524_1337)"/><path d="M42 69.2731C42 69.1719 42.0796 69.0923 42.1808 69.0923H49.6663C51.0521 69.073 52.4312 69.2882 53.7453 69.7287C54.9386 70.1338 55.9511 70.7413 56.7829 71.5513C57.6409 72.4063 58.2937 73.4449 58.6922 74.5889C59.1334 75.8039 59.3576 77.1997 59.3576 78.7836V79.3622C59.3576 80.9822 59.1261 82.4215 58.6633 83.6727C58.2551 84.8509 57.5821 85.9197 56.6961 86.797C55.8053 87.6524 54.7392 88.3039 53.5717 88.7063C52.3422 89.1331 50.9391 89.3428 49.377 89.3428H42.1808C42.1329 89.3428 42.0869 89.3237 42.053 89.2898C42.019 89.2559 42 89.2099 42 89.162V69.2731ZM49.0877 85.0613C49.7386 85.0613 50.3606 84.9672 50.9391 84.772C51.5579 84.544 52.1166 84.178 52.5728 83.7018C53.0289 83.2256 53.3706 82.6517 53.5717 82.0237C53.8393 81.2932 53.9767 80.4036 53.9767 79.3622V78.7836C53.9767 77.8 53.8538 76.9755 53.6006 76.2957C53.4083 75.6673 53.0714 75.0926 52.617 74.6178C52.2238 74.1819 51.726 73.8534 51.1706 73.6631C50.6137 73.4679 50.0134 73.3738 49.377 73.3738H47.3881C47.3401 73.3738 47.2941 73.3929 47.2602 73.4268C47.2263 73.4607 47.2073 73.5067 47.2073 73.5546V84.8805C47.2073 84.9817 47.2868 85.0613 47.3881 85.0613H49.0877V85.0613ZM60.6087 69.3382C60.598 69.3104 60.5943 69.2804 60.598 69.2509C60.6016 69.2213 60.6125 69.1931 60.6297 69.1688C60.6469 69.1444 60.6698 69.1247 60.6964 69.1114C60.723 69.0981 60.7526 69.0915 60.7823 69.0923H66.1776C66.25 69.0923 66.3223 69.1429 66.3512 69.2153L70.7051 82.1683C70.7557 82.3347 70.9944 82.3347 71.045 82.1683L75.2397 69.2225C75.2481 69.1849 75.2692 69.1513 75.2996 69.1276C75.3299 69.1039 75.3676 69.0914 75.4061 69.0923H80.2228C80.353 69.0923 80.4398 69.2153 80.3964 69.331L73.2942 89.2198C73.282 89.256 73.2586 89.2875 73.2274 89.3095C73.1963 89.3316 73.1589 89.3433 73.1207 89.3428H68.1665C68.0942 89.3428 68.0219 89.2922 68.0002 89.2271L60.6087 69.3382ZM91.0496 89.7189C89.661 89.7189 88.3881 89.5381 87.2309 89.1692C86.1081 88.8047 85.0871 88.1802 84.2512 87.3467C83.4412 86.515 82.8047 85.4446 82.3419 84.1355C81.8428 82.585 81.608 80.9616 81.6476 79.3333V78.7836C81.6476 77.0117 81.8862 75.4857 82.3708 74.2128C82.8554 72.9399 83.5207 71.8984 84.3669 71.0884C85.2157 70.2781 86.2333 69.6656 87.3466 69.2948C89.6194 68.5911 92.0427 68.5311 94.3475 69.1212C95.389 69.3888 96.3002 69.8155 97.0669 70.3941C97.8624 70.9727 98.4916 71.7249 98.9762 72.6506C99.4849 73.6424 99.7852 74.7278 99.8585 75.8401C99.8658 75.9485 99.7862 76.0353 99.6777 76.0353H94.6513C94.6093 76.0348 94.5687 76.0203 94.536 75.9941C94.5032 75.9679 94.4801 75.9315 94.4705 75.8907C94.3921 75.465 94.2456 75.0547 94.0365 74.6757C93.8195 74.2923 93.5664 73.9814 93.2554 73.7499C92.6096 73.2961 91.8389 73.0535 91.0496 73.0556C90.471 73.0556 89.9286 73.1641 89.4295 73.3738C88.945 73.5691 88.5255 73.8946 88.1566 74.3574C87.7677 74.8872 87.483 75.486 87.3177 76.1221C87.1224 76.8526 87.0284 77.7422 87.0284 78.7836V79.3911C87.0092 80.346 87.1162 81.2993 87.3466 82.2262C87.5781 82.9784 87.8746 83.6003 88.2434 84.0777C88.605 84.5405 89.039 84.8732 89.5163 85.0902C90.0009 85.2855 90.5071 85.3795 91.0496 85.3795C92.0332 85.3795 92.8143 85.148 93.3928 84.6852C94.008 84.1382 94.3931 83.3784 94.4705 82.5589C94.4772 82.5154 94.499 82.4756 94.532 82.4466C94.5651 82.4175 94.6073 82.4009 94.6513 82.3998H99.685C99.7862 82.3998 99.8658 82.4866 99.8585 82.5878C99.7717 83.8607 99.4969 84.9311 99.034 85.8134C98.5988 86.7065 97.9536 87.4807 97.1536 88.0699C96.3798 88.6485 95.4757 89.0752 94.4343 89.3428C93.3928 89.5959 92.2646 89.7189 91.0496 89.7189V89.7189Z" fill="#2E3137"/><defs><linearGradient id="paint0_linear_524_1337" x1="63.59" y1="30.716" x2="63.59" y2="41.192" gradientUnits="userSpaceOnUse"><stop stop-color="#7E51C2"/><stop offset="1" stop-color="#945DD6"/></linearGradient><linearGradient id="paint1_linear_524_1337" x1="93.245" y1="22.742" x2="93.245" y2="40.715" gradientUnits="userSpaceOnUse"><stop stop-color="#F46837"/><stop offset="1" stop-color="#DD5236"/></linearGradient><linearGradient id="paint2_linear_524_1337" x1="49.253" y1="22.77" x2="49.253" y2="40.731" gradientUnits="userSpaceOnUse"><stop stop-color="#13ADC7"/><stop offset="1" stop-color="#1497B8"/></linearGradient></defs></svg>