<svg width="180" height="64" viewBox="0 0 180 64" fill="none" xmlns="http://www.w3.org/2000/svg"><path d="M53.6384 39.7854C50.1306 36.2919 48.5 32.0653 48.5 27.0677C48.5 22.0511 50.1117 17.8055 53.6384 14.2834C55.2976 12.567 57.2911 11.2121 59.4947 10.3032C61.6982 9.39421 64.0646 8.95068 66.4463 9.00019C70.9357 8.9341 75.2792 10.6003 78.5812 13.6551C79.0932 14.1311 79.1026 14.607 78.6381 15.0544L74.7322 19.1096C74.2961 19.4999 73.8695 19.4999 73.4713 19.1096C71.6151 17.4269 69.1934 16.512 66.6928 16.549C65.3741 16.5207 64.0649 16.7781 62.8542 17.3038C61.6436 17.8294 60.56 18.611 59.6774 19.5951C58.776 20.5669 58.0749 21.708 57.6144 22.9529C57.154 24.1978 56.9433 25.5218 56.9944 26.8488C56.9291 28.8359 57.4599 30.7969 58.5182 32.4774C59.5764 34.1578 61.1132 35.4802 62.9291 36.2728C64.1376 36.7819 65.4396 37.0284 66.7497 36.9963C69.2051 37.0534 71.5847 36.1967 73.4808 34.5975C73.9358 34.1976 74.3719 34.2167 74.7701 34.6451L78.6855 38.7954C79.1216 39.2333 79.1026 39.6807 78.6381 40.1472C77.0288 41.7281 75.1217 42.9709 73.0283 43.8029C70.9349 44.6349 68.6973 45.0393 66.4463 44.9925C64.0704 45.0433 61.709 44.6069 59.5068 43.7099C57.3046 42.813 55.3077 41.4744 53.6384 39.7759V39.7854Z" fill="#2E3137"/><path fill-rule="evenodd" clip-rule="evenodd" d="M4.00091 9.98224C3.99773 9.85271 4.02154 9.72393 4.07083 9.60409C4.12012 9.48425 4.1938 9.37595 4.28721 9.28609C4.36398 9.19668 4.45913 9.12485 4.56617 9.07548C4.67322 9.02611 4.78965 9.00037 4.90755 9H17.0661C22.0574 9.38145 25.7794 10.8119 29.196 14.3212C32.6412 17.8401 34.006 21.8263 34.445 26.9664C34.8649 31.9061 32.8512 36.1784 29.4251 39.6973C27.8539 41.3997 25.941 42.7518 23.8115 43.6654C21.6819 44.579 19.3834 45.0336 17.0661 44.9995H4.90755C4.78815 44.9998 4.67007 44.9745 4.56137 44.9251C4.45267 44.8757 4.3559 44.8035 4.27767 44.7134C4.18477 44.6216 4.11215 44.5114 4.06448 44.3898C4.01681 44.2683 3.99516 44.1381 4.00091 44.0077V9.98224V9.98224ZM11.7789 37.38H16.5603C17.8705 37.4107 19.1718 37.1572 20.3745 36.6369C21.5773 36.1167 22.6528 35.3421 23.5271 34.3665C25.3731 32.3467 26.365 29.6913 26.2948 26.9568C26.2948 24.0387 25.3595 21.5784 23.5271 19.5662C22.6492 18.5951 21.573 17.8235 20.3711 17.3036C19.1692 16.7838 17.8697 16.5277 16.5603 16.5527H11.7885V37.38H11.7789Z" fill="#2E3137"/><path d="M49.824 37.2996C50.0187 37.5858 50.0577 37.9483 49.9116 38.2632L42.5585 53.9371C42.3637 54.3187 42.0715 54.5 41.6917 54.5H41.1755C40.7957 54.5 40.5132 54.3092 40.299 53.9276L33.0919 38.4444C32.9361 38.1296 32.9848 37.7575 33.1893 37.4618C35.2849 34.6058 36.3567 31.1509 36.2377 27.6357C36.228 27.3686 36.6565 27.2542 36.7636 27.5117L41.3216 37.5381H41.6333L46.3665 27.1397C46.4737 26.9012 46.873 26.987 46.873 27.2542C46.873 30.8125 47.7885 34.3327 49.824 37.2996V37.2996Z" fill="#2E3137"/><path d="M98 18.739C98 18.604 98.1061 18.4979 98.2411 18.4979H108.222C110.069 18.4722 111.908 18.7591 113.66 19.3465C115.251 19.8865 116.602 20.6965 117.71 21.7766C118.855 22.9166 119.725 24.3014 120.256 25.8267C120.844 27.4467 121.143 29.3078 121.143 31.4196V32.1911C121.143 34.3511 120.835 36.2701 120.218 37.9384C119.674 39.5093 118.776 40.9345 117.595 42.1042C116.407 43.2447 114.986 44.1133 113.429 44.65C111.79 45.2189 109.919 45.4986 107.836 45.4986H98.2411C98.1771 45.4986 98.1158 45.4732 98.0706 45.4279C98.0254 45.3827 98 45.3214 98 45.2575V18.739ZM107.45 39.7899C108.318 39.7899 109.147 39.6645 109.919 39.4041C110.744 39.1002 111.489 38.6122 112.097 37.9773C112.705 37.3423 113.161 36.5771 113.429 35.7398C113.786 34.7658 113.969 33.5797 113.969 32.1911V31.4196C113.969 30.1082 113.805 29.0089 113.468 28.1024C113.211 27.2645 112.762 26.4984 112.156 25.8652C111.632 25.2841 110.968 24.846 110.227 24.5923C109.485 24.332 108.685 24.2066 107.836 24.2066H105.184C105.12 24.2066 105.059 24.232 105.014 24.2772C104.968 24.3224 104.943 24.3838 104.943 24.4477V39.5488C104.943 39.6838 105.049 39.7899 105.184 39.7899H107.45V39.7899ZM122.812 18.8258C122.797 18.7887 122.792 18.7487 122.797 18.7093C122.802 18.6699 122.817 18.6323 122.84 18.5999C122.862 18.5674 122.893 18.5411 122.929 18.5234C122.964 18.5056 123.003 18.4968 123.043 18.4979H130.237C130.333 18.4979 130.43 18.5654 130.468 18.6618L136.273 35.9326C136.341 36.1544 136.659 36.1544 136.727 35.9326L142.32 18.6715C142.331 18.6213 142.359 18.5766 142.399 18.545C142.44 18.5133 142.49 18.4967 142.541 18.4979H148.964C149.137 18.4979 149.253 18.6618 149.195 18.8161L139.726 45.3346C139.709 45.3829 139.678 45.4248 139.637 45.4542C139.595 45.4837 139.545 45.4992 139.494 45.4986H132.889C132.792 45.4986 132.696 45.4311 132.667 45.3443L122.812 18.8258ZM163.399 46C161.548 46 159.851 45.7589 158.308 45.2671C156.811 44.7811 155.45 43.9485 154.335 42.8371C153.255 41.7281 152.406 40.3009 151.789 38.5555C151.124 36.4882 150.811 34.3237 150.863 32.1525V31.4196C150.863 29.0571 151.182 27.0224 151.828 25.3252C152.474 23.628 153.361 22.2394 154.489 21.1594C155.621 20.079 156.978 19.2623 158.462 18.7679C161.493 17.8297 164.724 17.7496 167.797 18.5365C169.185 18.8933 170.4 19.4622 171.422 20.2337C172.483 21.0051 173.322 22.008 173.968 23.2423C174.647 24.5647 175.047 26.0119 175.145 27.4949C175.154 27.6396 175.048 27.7553 174.904 27.7553H168.202C168.146 27.7546 168.092 27.7353 168.048 27.7004C168.004 27.6654 167.974 27.6168 167.961 27.5624C167.856 26.9948 167.661 26.4477 167.382 25.9424C167.093 25.4313 166.755 25.0166 166.341 24.7081C165.479 24.1029 164.452 23.7795 163.399 23.7823C162.628 23.7823 161.905 23.927 161.239 24.2066C160.593 24.467 160.034 24.9009 159.542 25.5181C159.024 26.2244 158.644 27.0229 158.424 27.871C158.163 28.8449 158.038 30.031 158.038 31.4196V32.2297C158.012 33.5029 158.155 34.7739 158.462 36.0098C158.771 37.0126 159.166 37.8419 159.658 38.4784C160.14 39.0955 160.719 39.5391 161.355 39.8284C162.001 40.0888 162.676 40.2141 163.399 40.2141C164.711 40.2141 165.752 39.9056 166.524 39.2884C167.344 38.5591 167.857 37.5461 167.961 36.4533C167.97 36.3954 167.999 36.3424 168.043 36.3036C168.087 36.2648 168.143 36.2428 168.202 36.2412H174.913C175.048 36.2412 175.154 36.3569 175.145 36.4919C175.029 38.1891 174.663 39.6163 174.045 40.7927C173.465 41.9835 172.605 43.0158 171.538 43.8014C170.506 44.5728 169.301 45.1418 167.912 45.4986C166.524 45.8361 165.019 46 163.399 46V46Z" fill="#2E3137"/></svg>