<svg width="144" height="94" viewBox="0 0 144 94" fill="none" xmlns="http://www.w3.org/2000/svg"><path d="M83.6384 35.5043C80.1306 32.0108 78.5 27.7842 78.5 22.7866C78.5 17.77 80.1117 13.5244 83.6384 10.0022C85.2976 8.28586 87.2911 6.93098 89.4947 6.02203C91.6982 5.11308 94.0646 4.66955 96.4463 4.71907C100.936 4.65297 105.279 6.31913 108.581 9.37398C109.093 9.84994 109.103 10.3259 108.638 10.7733L104.732 14.8285C104.296 15.2188 103.869 15.2188 103.471 14.8285C101.615 13.1457 99.1934 12.2309 96.6928 12.2678C95.3741 12.2395 94.0649 12.497 92.8542 13.0226C91.6436 13.5483 90.56 14.3298 89.6774 15.314C88.776 16.2857 88.0749 17.4269 87.6144 18.6718C87.154 19.9167 86.9433 21.2407 86.9944 22.5677C86.9291 24.5548 87.4599 26.5158 88.5182 28.1962C89.5764 29.8767 91.1132 31.199 92.9291 31.9917C94.1376 32.5007 95.4396 32.7473 96.7497 32.7152C99.2051 32.7723 101.585 31.9156 103.481 30.3163C103.936 29.9165 104.372 29.9356 104.77 30.3639L108.686 34.5143C109.122 34.9522 109.103 35.3996 108.638 35.8661C107.029 37.447 105.122 38.6898 103.028 39.5218C100.935 40.3538 98.6973 40.7582 96.4463 40.7114C94.0704 40.7622 91.709 40.3257 89.5068 39.4288C87.3046 38.5318 85.3077 37.1932 83.6384 35.4948V35.5043Z" fill="#fff"/><path fill-rule="evenodd" clip-rule="evenodd" d="M34.0009 5.70111C33.9977 5.57158 34.0215 5.4428 34.0708 5.32296C34.1201 5.20312 34.1938 5.09483 34.2872 5.00496C34.364 4.91555 34.4591 4.84372 34.5662 4.79435C34.6732 4.74498 34.7897 4.71924 34.9075 4.71887H47.0661C52.0574 5.10032 55.7794 6.53077 59.196 10.0401C62.6412 13.559 64.006 17.5452 64.445 22.6852C64.8649 27.625 62.8512 31.8973 59.4251 35.4162C57.8539 37.1185 55.941 38.4706 53.8115 39.3843C51.6819 40.2979 49.3834 40.7525 47.0661 40.7183H34.9075C34.7881 40.7187 34.6701 40.6933 34.5614 40.644C34.4527 40.5946 34.3559 40.5224 34.2777 40.4322C34.1848 40.3405 34.1121 40.2302 34.0645 40.1087C34.0168 39.9871 33.9952 39.857 34.0009 39.7266V5.70111V5.70111ZM41.7789 33.0988H46.5603C47.8705 33.1295 49.1718 32.876 50.3745 32.3558C51.5773 31.8356 52.6528 31.061 53.5271 30.0854C55.3731 28.0656 56.365 25.4101 56.2948 22.6757C56.2948 19.7576 55.3595 17.2972 53.5271 15.2851C52.6492 14.3139 51.573 13.5424 50.3711 13.0225C49.1692 12.5026 47.8697 12.2466 46.5603 12.2716H41.7885V33.0988H41.7789Z" fill="#fff"/><path d="M79.824 33.0185C80.0187 33.3047 80.0577 33.6672 79.9116 33.982L72.5585 49.656C72.3637 50.0376 72.0715 50.2189 71.6917 50.2189H71.1755C70.7957 50.2189 70.5132 50.0281 70.299 49.6465L63.0919 34.1633C62.9361 33.8485 62.9848 33.4764 63.1893 33.1807C65.2849 30.3247 66.3567 26.8698 66.2377 23.3546C66.228 23.0875 66.6565 22.973 66.7636 23.2306L71.3216 33.257H71.6333L76.3665 22.8585C76.4737 22.62 76.873 22.7059 76.873 22.973C76.873 26.5314 77.7885 30.0516 79.824 33.0185V33.0185Z" fill="#fff"/><path d="M42 69.2731C42 69.1719 42.0796 69.0923 42.1808 69.0923H49.6663C51.0521 69.073 52.4312 69.2882 53.7453 69.7287C54.9386 70.1338 55.9511 70.7413 56.7829 71.5513C57.6409 72.4063 58.2937 73.4449 58.6922 74.5889C59.1334 75.8039 59.3576 77.1997 59.3576 78.7836V79.3622C59.3576 80.9822 59.1261 82.4215 58.6633 83.6727C58.2551 84.8509 57.5821 85.9197 56.6961 86.797C55.8053 87.6524 54.7392 88.3039 53.5717 88.7063C52.3422 89.1331 50.9391 89.3428 49.377 89.3428H42.1808C42.1329 89.3428 42.0869 89.3237 42.053 89.2898C42.019 89.2559 42 89.2099 42 89.162V69.2731ZM49.0877 85.0613C49.7386 85.0613 50.3606 84.9672 50.9391 84.772C51.5579 84.544 52.1166 84.178 52.5728 83.7018C53.0289 83.2256 53.3706 82.6517 53.5717 82.0237C53.8393 81.2932 53.9767 80.4036 53.9767 79.3622V78.7836C53.9767 77.8 53.8538 76.9755 53.6006 76.2957C53.4083 75.6673 53.0714 75.0926 52.617 74.6178C52.2238 74.1819 51.726 73.8534 51.1706 73.6631C50.6137 73.4679 50.0134 73.3738 49.377 73.3738H47.3881C47.3401 73.3738 47.2941 73.3929 47.2602 73.4268C47.2263 73.4607 47.2073 73.5067 47.2073 73.5546V84.8805C47.2073 84.9817 47.2868 85.0613 47.3881 85.0613H49.0877V85.0613ZM60.6087 69.3382C60.598 69.3104 60.5943 69.2804 60.598 69.2509C60.6016 69.2213 60.6125 69.1931 60.6297 69.1688C60.6469 69.1444 60.6698 69.1247 60.6964 69.1114C60.723 69.0981 60.7526 69.0915 60.7823 69.0923H66.1776C66.25 69.0923 66.3223 69.1429 66.3512 69.2153L70.7051 82.1683C70.7557 82.3347 70.9944 82.3347 71.045 82.1683L75.2397 69.2225C75.2481 69.1849 75.2692 69.1513 75.2996 69.1276C75.3299 69.1039 75.3676 69.0914 75.4061 69.0923H80.2228C80.353 69.0923 80.4398 69.2153 80.3964 69.331L73.2942 89.2198C73.282 89.256 73.2586 89.2875 73.2274 89.3095C73.1963 89.3316 73.1589 89.3433 73.1207 89.3428H68.1665C68.0942 89.3428 68.0219 89.2922 68.0002 89.2271L60.6087 69.3382ZM91.0496 89.7189C89.661 89.7189 88.3881 89.5381 87.2309 89.1692C86.1081 88.8047 85.0871 88.1802 84.2512 87.3467C83.4412 86.515 82.8047 85.4446 82.3419 84.1355C81.8428 82.585 81.608 80.9616 81.6476 79.3333V78.7836C81.6476 77.0117 81.8862 75.4857 82.3708 74.2128C82.8554 72.9399 83.5207 71.8984 84.3669 71.0884C85.2157 70.2781 86.2333 69.6656 87.3466 69.2948C89.6194 68.5911 92.0427 68.5311 94.3475 69.1212C95.389 69.3888 96.3002 69.8155 97.0669 70.3941C97.8624 70.9727 98.4916 71.7249 98.9762 72.6506C99.4849 73.6424 99.7852 74.7278 99.8585 75.8401C99.8658 75.9485 99.7862 76.0353 99.6777 76.0353H94.6513C94.6093 76.0348 94.5687 76.0203 94.536 75.9941C94.5032 75.9679 94.4801 75.9315 94.4705 75.8907C94.3921 75.465 94.2456 75.0547 94.0365 74.6757C93.8195 74.2923 93.5664 73.9814 93.2554 73.7499C92.6096 73.2961 91.8389 73.0535 91.0496 73.0556C90.471 73.0556 89.9286 73.1641 89.4295 73.3738C88.945 73.5691 88.5255 73.8946 88.1566 74.3574C87.7677 74.8872 87.483 75.486 87.3177 76.1221C87.1224 76.8526 87.0284 77.7422 87.0284 78.7836V79.3911C87.0092 80.346 87.1162 81.2993 87.3466 82.2262C87.5781 82.9784 87.8746 83.6003 88.2434 84.0777C88.605 84.5405 89.039 84.8732 89.5163 85.0902C90.0009 85.2855 90.5071 85.3795 91.0496 85.3795C92.0332 85.3795 92.8143 85.148 93.3928 84.6852C94.008 84.1382 94.3931 83.3784 94.4705 82.5589C94.4772 82.5154 94.499 82.4756 94.532 82.4466C94.5651 82.4175 94.6073 82.4009 94.6513 82.3998H99.685C99.7862 82.3998 99.8658 82.4866 99.8585 82.5878C99.7717 83.8607 99.4969 84.9311 99.034 85.8134C98.5988 86.7065 97.9536 87.4807 97.1536 88.0699C96.3798 88.6485 95.4757 89.0752 94.4343 89.3428C93.3928 89.5959 92.2646 89.7189 91.0496 89.7189V89.7189Z" fill="#fff"/></svg>