<svg width="180" height="64" viewBox="0 0 180 64" fill="none" xmlns="http://www.w3.org/2000/svg"><path d="M49.3567 21.181L41.1404 38.0667H40.8076L32.04 20C33.0404 22.3095 33.6371 24.749 33.8081 27.2286C34.1409 30.8286 33.0593 34.0762 31 36.9429L39.7363 54.4286C39.9548 54.8095 40.2564 55 40.6724 55H41.1924C41.598 55 41.8996 54.819 42.118 54.4381L51 36.7429C49.1479 33.9091 48.207 30.6541 48.2855 27.3524C48.2855 25.1619 48.6287 23.0857 49.3463 21.181H49.3567Z" fill="url(#paint0_linear_524_405)"/><path d="M53.1393 39.789C49.6316 36.2954 48.001 32.0689 48.001 27.0713C48.001 22.0546 49.6126 17.809 53.1393 14.2869C54.7986 12.5705 56.7921 11.2156 58.9957 10.3067C61.1992 9.39775 63.5656 8.95422 65.9473 9.00373C70.4367 8.93764 74.7802 10.6038 78.0822 13.6586C78.5941 14.1346 78.6036 14.6106 78.1391 15.058L74.2332 19.1132C73.7971 19.5035 73.3704 19.5035 72.9723 19.1132C71.1161 17.4304 68.6943 16.5155 66.1938 16.5525C64.8751 16.5242 63.5658 16.7816 62.3552 17.3073C61.1446 17.833 60.061 18.6145 59.1783 19.5987C58.2769 20.5704 57.5759 21.7116 57.1154 22.9565C56.655 24.2013 56.4442 25.5254 56.4954 26.8523C56.43 28.8395 56.9609 30.8005 58.0192 32.4809C59.0774 34.1614 60.6142 35.4837 62.4301 36.2764C63.6386 36.7854 64.9406 37.0319 66.2507 36.9998C68.6966 37.057 71.0857 36.2002 72.9723 34.601C73.4368 34.2012 73.8729 34.2202 74.2711 34.6486L78.1865 38.799C78.6226 39.2369 78.6036 39.6843 78.1391 40.1507C76.5298 41.7317 74.6227 42.9745 72.5293 43.8065C70.4359 44.6384 68.1982 45.0428 65.9473 44.996C63.5713 45.0468 61.21 44.6104 59.0078 43.7135C56.8055 42.8165 54.8087 41.4779 53.1393 39.7795V39.789Z" fill="url(#paint1_linear_524_405)"/><path d="M4.0025 44.0103V9.98614C3.99932 9.85658 4.02313 9.72777 4.07242 9.6079C4.12171 9.48803 4.1954 9.37971 4.28881 9.28982C4.36558 9.20039 4.46073 9.12854 4.56777 9.07916C4.67482 9.02978 4.79126 9.00403 4.90915 9.00366H17.0678C22.0592 9.38521 25.7812 10.816 29.1979 14.3262C32.6432 17.8459 34.0079 21.8331 34.4469 26.9743C34.8669 31.9153 32.8531 36.1886 29.4269 39.7084C27.8408 41.4033 25.9203 42.7512 23.7866 43.6669C21.6653 44.5774 19.3763 45.0323 17.0678 45.0023H4.90915C4.78975 45.0026 4.67167 44.9773 4.56297 44.9279C4.45426 44.8785 4.3575 44.8063 4.27927 44.7161C4.18758 44.6254 4.11566 44.5167 4.06803 44.3969C4.0204 44.277 3.99809 44.1487 4.0025 44.0198V44.0103ZM11.7806 18.2561V37.3905H16.562C17.8723 37.4212 19.1736 37.1676 20.3763 36.6473C21.5791 36.1269 22.6546 35.3521 23.5289 34.3763C25.375 32.356 26.3668 29.6999 26.2966 26.9648C26.2966 24.046 25.3613 21.585 23.5289 19.5724C22.651 18.601 21.5748 17.8293 20.3729 17.3093C19.171 16.7893 17.8715 16.5332 16.562 16.5582H11.7902V18.2561H11.7806Z" fill="url(#paint2_linear_524_405)"/><path d="M98 18.739C98 18.604 98.1061 18.4979 98.2411 18.4979H108.222C110.069 18.4722 111.908 18.7591 113.66 19.3465C115.251 19.8865 116.602 20.6965 117.71 21.7766C118.855 22.9166 119.725 24.3014 120.256 25.8267C120.844 27.4467 121.143 29.3078 121.143 31.4196V32.1911C121.143 34.3511 120.835 36.2701 120.218 37.9384C119.674 39.5093 118.776 40.9345 117.595 42.1042C116.407 43.2447 114.986 44.1133 113.429 44.65C111.79 45.2189 109.919 45.4986 107.836 45.4986H98.2411C98.1771 45.4986 98.1158 45.4732 98.0706 45.4279C98.0254 45.3827 98 45.3214 98 45.2575V18.739ZM107.45 39.7899C108.318 39.7899 109.147 39.6645 109.919 39.4041C110.744 39.1002 111.489 38.6122 112.097 37.9773C112.705 37.3423 113.161 36.5771 113.429 35.7398C113.786 34.7658 113.969 33.5797 113.969 32.1911V31.4196C113.969 30.1082 113.805 29.0089 113.468 28.1024C113.211 27.2645 112.762 26.4984 112.156 25.8652C111.632 25.2841 110.968 24.846 110.227 24.5923C109.485 24.332 108.685 24.2066 107.836 24.2066H105.184C105.12 24.2066 105.059 24.232 105.014 24.2772C104.968 24.3224 104.943 24.3838 104.943 24.4477V39.5488C104.943 39.6838 105.049 39.7899 105.184 39.7899H107.45V39.7899ZM122.812 18.8258C122.797 18.7887 122.792 18.7487 122.797 18.7093C122.802 18.6699 122.817 18.6323 122.84 18.5999C122.862 18.5674 122.893 18.5411 122.929 18.5234C122.964 18.5056 123.003 18.4968 123.043 18.4979H130.237C130.333 18.4979 130.43 18.5654 130.468 18.6618L136.273 35.9326C136.341 36.1544 136.659 36.1544 136.727 35.9326L142.32 18.6715C142.331 18.6213 142.359 18.5766 142.399 18.545C142.44 18.5133 142.49 18.4967 142.541 18.4979H148.964C149.137 18.4979 149.253 18.6618 149.195 18.8161L139.726 45.3346C139.709 45.3829 139.678 45.4248 139.637 45.4542C139.595 45.4837 139.545 45.4992 139.494 45.4986H132.889C132.792 45.4986 132.696 45.4311 132.667 45.3443L122.812 18.8258ZM163.399 46C161.548 46 159.851 45.7589 158.308 45.2671C156.811 44.7811 155.45 43.9485 154.335 42.8371C153.255 41.7281 152.406 40.3009 151.789 38.5555C151.124 36.4882 150.811 34.3237 150.863 32.1525V31.4196C150.863 29.0571 151.182 27.0224 151.828 25.3252C152.474 23.628 153.361 22.2394 154.489 21.1594C155.621 20.079 156.978 19.2623 158.462 18.7679C161.493 17.8297 164.724 17.7496 167.797 18.5365C169.185 18.8933 170.4 19.4622 171.422 20.2337C172.483 21.0051 173.322 22.008 173.968 23.2423C174.647 24.5647 175.047 26.0119 175.145 27.4949C175.154 27.6396 175.048 27.7553 174.904 27.7553H168.202C168.146 27.7546 168.092 27.7353 168.048 27.7004C168.004 27.6654 167.974 27.6168 167.961 27.5624C167.856 26.9948 167.661 26.4477 167.382 25.9424C167.093 25.4313 166.755 25.0166 166.341 24.7081C165.479 24.1029 164.452 23.7795 163.399 23.7823C162.628 23.7823 161.905 23.927 161.239 24.2066C160.593 24.467 160.034 24.9009 159.542 25.5181C159.024 26.2244 158.644 27.0229 158.424 27.871C158.163 28.8449 158.038 30.031 158.038 31.4196V32.2297C158.012 33.5029 158.155 34.7739 158.462 36.0098C158.771 37.0126 159.166 37.8419 159.658 38.4784C160.14 39.0955 160.719 39.5391 161.355 39.8284C162.001 40.0888 162.676 40.2141 163.399 40.2141C164.711 40.2141 165.752 39.9056 166.524 39.2884C167.344 38.5591 167.857 37.5461 167.961 36.4533C167.97 36.3954 167.999 36.3424 168.043 36.3036C168.087 36.2648 168.143 36.2428 168.202 36.2412H174.913C175.048 36.2412 175.154 36.3569 175.145 36.4919C175.029 38.1891 174.663 39.6163 174.045 40.7927C173.465 41.9835 172.605 43.0158 171.538 43.8014C170.506 44.5728 169.301 45.1418 167.912 45.4986C166.524 45.8361 165.019 46 163.399 46V46Z" fill="#2E3137"/><defs><linearGradient id="paint0_linear_524_405" x1="33.59" y1="34.997" x2="33.59" y2="45.473" gradientUnits="userSpaceOnUse"><stop stop-color="#7E51C2"/><stop offset="1" stop-color="#945DD6"/></linearGradient><linearGradient id="paint1_linear_524_405" x1="63.245" y1="27.024" x2="63.245" y2="44.996" gradientUnits="userSpaceOnUse"><stop stop-color="#F46837"/><stop offset="1" stop-color="#DD5236"/></linearGradient><linearGradient id="paint2_linear_524_405" x1="19.253" y1="27.051" x2="19.253" y2="45.012" gradientUnits="userSpaceOnUse"><stop stop-color="#13ADC7"/><stop offset="1" stop-color="#1497B8"/></linearGradient></defs></svg>