<svg width="400" height="130" viewBox="0 0 400 130" fill="none" xmlns="http://www.w3.org/2000/svg"><g clip-path="url(#clip0)"><path d="M110.493 88.673c-7.41-7.333-10.842-16.221-10.842-26.703 0-10.542 3.413-19.47 10.842-26.863a37.269 37.269 0 0 1 12.411-8.356 36.61 36.61 0 0 1 14.616-2.744c9.434-.158 18.578 3.329 25.604 9.765 1.073.996 1.092 1.992.117 2.949l-8.249 8.51c-.916.836-1.813.836-2.652 0-3.947-3.54-9.042-5.451-14.293-5.361-5.928 0-10.862 2.112-14.82 6.376a21.153 21.153 0 0 0-4.328 7.042 21.497 21.497 0 0 0-1.327 8.203c0 5.899 1.755 10.92 5.733 15.086a19.918 19.918 0 0 0 6.787 4.716 19.55 19.55 0 0 0 8.072 1.521c5.165.12 10.199-1.67 14.176-5.041.975-.837 1.892-.798 2.73.1l8.269 8.728c.916.916.877 1.853-.098 2.83-6.92 6.734-16.167 10.395-25.721 10.183-4.991.1-9.952-.819-14.593-2.7a37.514 37.514 0 0 1-12.434-8.26v.02z" fill="url(#paint0_linear)"/><path d="M8.001 97.422V26.079a1.95 1.95 0 0 1 .14-.791c.1-.251.252-.477.445-.663.163-.19.364-.342.59-.445.225-.103.47-.155.717-.153h25.486c10.452.797 18.252 3.786 25.428 11.16C68.022 42.56 70.89 50.93 71.805 61.69c.878 10.362-3.354 19.33-10.53 26.703A35.187 35.187 0 0 1 49.46 96.71a34.54 34.54 0 0 1-14.08 2.805H9.892a1.742 1.742 0 0 1-.715-.158 1.776 1.776 0 0 1-.592-.44 1.956 1.956 0 0 1-.446-.673 1.991 1.991 0 0 1-.139-.801v-.02zm16.302-54.005v40.115h10.023c5.85 0 10.725-2.112 14.586-6.317 3.861-4.198 5.943-9.785 5.792-15.544 0-6.118-1.95-11.28-5.792-15.484a19.176 19.176 0 0 0-6.624-4.77 18.81 18.81 0 0 0-7.962-1.547H24.303v3.547z" fill="url(#paint1_linear)"/><path d="M101.699 48.977L85.904 84.448h-.644L68.393 46.506c1.91 4.543 2.925 9.525 3.412 15.165.644 7.572-1.443 14.388-5.401 20.406l16.77 36.727c.429.798 1.014 1.196 1.794 1.196h1.053c.78 0 1.365-.379 1.774-1.176l17.082-37.165a36.836 36.836 0 0 1-5.226-19.71c0-4.623.663-8.967 2.048-12.972z" fill="url(#paint2_linear)"/></g><path d="M204 33.17h23.844c4.739 0 8.968.66 12.687 1.98 3.719 1.259 6.868 3.148 9.447 5.668 2.58 2.52 4.559 5.668 5.939 9.447 1.379 3.78 2.069 8.128 2.069 13.047v1.8c0 5.038-.72 9.507-2.159 13.406-1.38 3.84-3.419 7.079-6.119 9.718-2.639 2.58-5.878 4.559-9.717 5.938-3.839 1.32-8.188 1.98-13.047 1.98H204V33.17zm22.044 49.667c2.04 0 3.959-.3 5.759-.9a12.876 12.876 0 0 0 4.859-3.059c1.439-1.38 2.549-3.209 3.329-5.488.84-2.28 1.26-5.04 1.26-8.278v-1.8c0-3.06-.39-5.639-1.17-7.738-.72-2.16-1.74-3.899-3.059-5.219a10.76 10.76 0 0 0-4.499-2.969c-1.74-.6-3.599-.9-5.579-.9h-6.748v36.351h5.848zm35.559-49.667h17.995l14.217 42.289 13.676-42.29h16.196l-22.494 62.985h-16.196L261.603 33.17zm94.954 64.153c-4.319 0-8.278-.57-11.877-1.71-3.599-1.199-6.688-3.088-9.268-5.668-2.519-2.579-4.499-5.908-5.938-9.987-1.44-4.08-2.16-9.058-2.16-14.936v-1.71c0-5.518.75-10.257 2.25-14.216 1.499-3.96 3.569-7.198 6.208-9.718 2.64-2.52 5.729-4.379 9.268-5.578 3.599-1.2 7.438-1.8 11.517-1.8 3.659 0 7.078.42 10.257 1.26 3.24.84 6.059 2.16 8.458 3.959 2.46 1.8 4.439 4.139 5.939 7.018 1.559 2.88 2.489 6.388 2.789 10.527h-16.736c-.3-1.68-.78-3.089-1.439-4.229-.66-1.2-1.47-2.16-2.43-2.879a8.248 8.248 0 0 0-3.239-1.62c-1.14-.36-2.339-.54-3.599-.54-1.8 0-3.479.33-5.039.99-1.499.6-2.819 1.62-3.959 3.06-1.079 1.38-1.949 3.209-2.609 5.488-.6 2.28-.9 5.039-.9 8.278v1.89c0 3.479.33 6.418.99 8.817.72 2.34 1.649 4.26 2.789 5.759 1.14 1.44 2.46 2.49 3.959 3.15 1.5.599 3.089.899 4.769.899 3.059 0 5.489-.72 7.288-2.16 1.86-1.5 2.999-3.869 3.419-7.108H384c-.24 4.2-1.11 7.738-2.609 10.618-1.44 2.879-3.389 5.218-5.849 7.018-2.399 1.8-5.219 3.119-8.458 3.959-3.239.78-6.748 1.17-10.527 1.17z" fill="#2E3137"/><defs><linearGradient id="paint0_linear" x1="131.826" y1="61.863" x2="131.826" y2="99.622" gradientUnits="userSpaceOnUse"><stop stop-color="#F46837"/><stop offset="1" stop-color="#DD5236"/></linearGradient><linearGradient id="paint1_linear" x1="39.96" y1="61.863" x2="39.96" y2="99.517" gradientUnits="userSpaceOnUse"><stop stop-color="#13ADC7"/><stop offset="1" stop-color="#1497B8"/></linearGradient><linearGradient id="paint2_linear" x1="71.375" y1="83.784" x2="71.375" y2="119.655" gradientUnits="userSpaceOnUse"><stop stop-color="#7E51C2"/><stop offset="1" stop-color="#945DD6"/></linearGradient><clipPath id="clip0"><path fill="#fff" transform="translate(8 2)" d="M0 0H156V124H0z"/></clipPath></defs></svg>