<svg width="80" height="80" viewBox="0 0 80 80" fill="none" xmlns="http://www.w3.org/2000/svg"><path d="M62.2101 17.1011C61.1359 13.0674 56.2311 11.6436 53.2276 14.4952L41.1766 25.9298C40.5993 26.4774 39.8399 26.7817 39.0512 26.7817C38.2625 26.7817 37.5031 26.4774 36.9258 25.9298L24.8748 14.4942C21.8713 11.6436 16.9674 13.0684 15.8923 17.1011L10.8324 36.0845C8.06193 46.4776 12.4427 57.4761 21.5412 62.9764C25.6566 65.4634 30.3231 66.8476 35.1055 66.9999C38.1445 67.0914 45.0867 60.8046 45.0882 57.7401C45.0877 57.6742 45.0733 57.6092 45.0459 57.5496C45.0185 57.4899 44.9788 57.437 44.9296 57.3943C44.8803 57.3517 44.8227 57.3203 44.7605 57.3024C44.6983 57.2845 44.633 57.2805 44.5691 57.2906C43.636 57.4313 42.6908 57.5026 41.7407 57.5026H35.9937C32.5885 57.5025 29.246 56.5686 26.317 54.7988C23.6469 53.1867 21.5691 50.7269 20.4021 47.7964C19.2351 44.866 19.0433 41.6264 19.8559 38.5742L22.5474 28.4736C22.6179 28.2096 22.7542 27.9687 22.9429 27.7741C23.1317 27.5795 23.3666 27.4379 23.6248 27.363C23.8831 27.288 24.1559 27.2823 24.417 27.3464C24.678 27.4104 24.9184 27.5421 25.1148 27.7286L30.5497 32.8854C35.3376 37.4287 42.7648 37.4287 47.5526 32.8854L52.9886 27.7286C53.185 27.5423 53.4252 27.4109 53.686 27.3469C53.9469 27.2829 54.2195 27.2886 54.4776 27.3634C54.7357 27.4382 54.9704 27.5796 55.1592 27.7739C55.3479 27.9682 55.4842 28.2089 55.555 28.4726L58.1524 38.2186C58.3125 38.8188 58.4325 39.4221 58.5165 40.0255C58.5664 40.3631 58.7052 40.6806 58.9181 40.9442C59.1311 41.2079 59.4102 41.4077 59.7257 41.5226C61.4167 42.1499 62.9294 43.1931 64.1295 44.5596C65.1986 45.7775 67.8051 45.6419 67.9331 44.0144C68.1519 41.2286 67.8954 38.4253 67.175 35.7288L62.2101 17.1021V17.1011Z" fill="url(#paint0_linear_524_580)"/><path d="M48.5574 52.3857C48.5574 49.2071 51.5403 46.2302 55.4515 46.2302C58.4 46.2302 60.8144 48.5821 60.8144 52C60.8144 55.417 58.4 57.7688 55.4515 57.7688C54.8483 57.7683 54.2509 57.8872 53.6934 58.1189C53.1359 58.3506 52.6293 58.6905 52.2024 59.1191C51.7756 59.5477 51.4369 60.0567 51.2056 60.6169C50.9744 61.1772 50.8552 61.7778 50.8548 62.3844C50.8553 62.9909 50.9746 63.5914 51.2059 64.1515C51.4372 64.7117 51.7759 65.2206 52.2028 65.6491C52.6296 66.0776 53.1362 66.4173 53.6937 66.649C54.2511 66.8806 54.8484 66.9995 55.4515 66.999C63.9261 66.999 70.0068 60.0524 70.0068 52C70.0068 43.9467 63.9261 37 55.4515 37C47.3969 37 39.364 43.2207 39.364 52.3847V60.8455C39.3635 62.1461 38.9534 63.4131 38.1927 64.4649C37.4319 65.5167 36.3595 66.2993 35.1292 66.7003C34.9571 66.7557 34.9689 67 35.1498 67H37.0656C43.4119 67 48.5565 61.8335 48.5565 55.4615V52.3847L48.5574 52.3857Z" fill="url(#paint1_linear_524_580)"/><defs><linearGradient id="paint0_linear_524_580" x1="33.791" y1="61.85" x2="19.407" y2="37.496" gradientUnits="userSpaceOnUse"><stop stop-color="#7E51C2"/><stop offset=".176" stop-color="#945DD6"/><stop offset="1" stop-color="#13ADC7"/></linearGradient><linearGradient id="paint1_linear_524_580" x1="41.388" y1="53.897" x2="47.304" y2="60.734" gradientUnits="userSpaceOnUse"><stop stop-color="#F46837"/><stop offset="1" stop-color="#DD5236"/></linearGradient></defs></svg>