<svg width="80" height="80" viewBox="0 0 80 80" fill="none" xmlns="http://www.w3.org/2000/svg"><path d="M53.3714 14.5001C56.3819 11.641 61.2991 13.0655 62.3829 17.1084L67.3703 35.7877C67.6513 36.8712 67.8721 37.9546 68.0025 39.0381C68.0627 39.5196 67.4807 39.7905 67.1295 39.4594C64.5687 37.1006 61.3114 35.6362 57.847 35.2861C57.7451 35.2732 57.6495 35.2299 57.5725 35.162C57.4956 35.094 57.4409 35.0044 57.4155 34.9049L55.7095 28.5146C55.6425 28.2518 55.5078 28.0111 55.3189 27.8164C55.13 27.6218 54.8935 27.4799 54.6328 27.4048C54.3721 27.3298 54.0963 27.3242 53.8327 27.3887C53.5692 27.4531 53.3271 27.5854 53.1305 27.7722L47.6815 32.9387C45.3846 35.1339 42.3294 36.3591 39.1517 36.3591C35.974 36.3591 32.9187 35.1339 30.6219 32.9387L25.1628 27.7722C24.966 27.5879 24.7247 27.4578 24.4625 27.3948C24.2002 27.3318 23.9261 27.338 23.667 27.4129C23.408 27.4877 23.1728 27.6287 22.9846 27.8218C22.7965 28.015 22.6618 28.2537 22.5938 28.5146L19.8843 38.6468C19.0629 41.6962 19.2515 44.9295 20.422 47.8628C21.5924 50.7961 23.6817 53.2715 26.377 54.9185C29.3042 56.6888 32.6598 57.6254 36.0809 57.6272H37.4658C37.7367 57.6272 37.9675 57.8579 37.9675 58.1488V60.6066C37.9675 63.8168 35.2079 66.0539 33.2109 66.9568C33.1325 66.9929 33.0458 67.0068 32.96 66.9969C28.946 66.5455 25.0725 65.2313 21.5803 63.1146C17.118 60.3814 13.6607 56.2776 11.7252 51.417C9.78973 46.5564 9.48015 41.2 10.8427 36.1489L15.9004 17.1084C16.134 16.1897 16.6037 15.348 17.2631 14.6669C17.9224 13.9857 18.7484 13.4886 19.6592 13.225C20.5699 12.9614 21.5338 12.9404 22.4552 13.164C23.3766 13.3877 24.2235 13.8483 24.9119 14.5001L37.0042 25.9665C37.579 26.5142 38.3426 26.8197 39.1366 26.8197C39.9307 26.8197 40.6943 26.5142 41.2691 25.9665L53.3714 14.5001Z" fill="#2E3137"/><path d="M55.4498 46.2203C51.5357 46.2203 48.5558 49.1999 48.5558 52.3737V55.4503C48.582 58.4845 47.3871 61.4048 45.2335 63.5703C43.0799 65.7357 40.1435 66.9693 37.0691 67H35.1514C34.9645 67 34.9547 66.7477 35.1317 66.6894C36.37 66.2757 37.4449 65.4877 38.2039 64.4372C38.963 63.3868 39.3676 62.1271 39.3606 60.8369V52.3737C39.3606 43.2116 47.3954 37 55.4498 37C63.9272 37 70.0049 43.9395 70.0049 51.9951C70.0049 60.0508 63.9272 66.9903 55.4498 66.9903C54.8415 66.9852 54.2402 66.8619 53.6802 66.6275C53.1202 66.3931 52.6124 66.0521 52.1859 65.624C51.7595 65.1959 51.4226 64.6891 51.1946 64.1325C50.9666 63.5759 50.8519 62.9805 50.8571 62.3801C50.8506 61.779 50.9643 61.1825 51.1917 60.6248C51.4192 60.0671 51.7558 59.5591 52.1824 59.13C52.609 58.7009 53.1172 58.359 53.6779 58.124C54.2385 57.8889 54.8407 57.7653 55.4498 57.7603C58.4002 57.7603 60.8096 55.4115 60.8096 51.9951C60.8096 48.5788 58.4002 46.2203 55.4498 46.2203Z" fill="#2E3137"/></svg>