<svg width="198" height="64" viewBox="0 0 198 64" fill="none" xmlns="http://www.w3.org/2000/svg"><path d="M47.3714 5.85895C50.3819 2.99986 55.2991 4.42439 56.3829 8.46724L61.3703 27.1466C61.6513 28.2301 61.8721 29.3135 62.0025 30.3969C62.0627 30.8785 61.4807 31.1493 61.1295 30.8183C58.5687 28.4595 55.3114 26.9951 51.847 26.645C51.7451 26.6321 51.6495 26.5888 51.5725 26.5208C51.4956 26.4529 51.4409 26.3633 51.4155 26.2638L49.7095 19.8735C49.6425 19.6107 49.5078 19.37 49.3189 19.1753C49.13 18.9807 48.8935 18.8387 48.6328 18.7637C48.3721 18.6887 48.0963 18.6831 47.8327 18.7475C47.5692 18.812 47.3271 18.9442 47.1305 19.1311L41.6815 24.2976C39.3846 26.4928 36.3294 27.718 33.1517 27.718C29.974 27.718 26.9187 26.4928 24.6219 24.2976L19.1628 19.1311C18.966 18.9467 18.7247 18.8167 18.4625 18.7537C18.2002 18.6907 17.9261 18.6969 17.667 18.7718C17.408 18.8466 17.1728 18.9876 16.9846 19.1807C16.7965 19.3739 16.6618 19.6126 16.5938 19.8735L13.8843 30.0057C13.0629 33.0551 13.2515 36.2884 14.422 39.2217C15.5924 42.155 17.6817 44.6304 20.377 46.2774C23.3042 48.0477 26.6598 48.9843 30.0809 48.986H31.4658C31.7367 48.986 31.9675 49.2168 31.9675 49.5077V51.9655C31.9675 55.1757 29.2079 57.4128 27.2109 58.3157C27.1325 58.3518 27.0458 58.3656 26.96 58.3558C22.946 57.9044 19.0725 56.5902 15.5803 54.4735C11.118 51.7403 7.66066 47.6365 5.7252 42.7759C3.78973 37.9153 3.48015 32.5589 4.84273 27.5078L9.9004 8.46724C10.134 7.54858 10.6037 6.70692 11.2631 6.02574C11.9224 5.34455 12.7484 4.84751 13.6592 4.5839C14.5699 4.32028 15.5338 4.29927 16.4552 4.52293C17.3766 4.74658 18.2235 5.20715 18.9119 5.85895L31.0042 17.3254C31.579 17.8731 32.3426 18.1786 33.1366 18.1786C33.9307 18.1786 34.6943 17.8731 35.2691 17.3254L47.3714 5.85895Z" fill="#2E3137"/><path d="M49.4498 37.5792C45.5357 37.5792 42.5558 40.5588 42.5558 43.7326V46.8092C42.582 49.8433 41.3871 52.7637 39.2335 54.9292C37.0799 57.0946 34.1435 58.3281 31.0691 58.3589H29.1514C28.9645 58.3589 28.9547 58.1065 29.1317 58.0483C30.37 57.6346 31.4449 56.8466 32.2039 55.7961C32.963 54.7457 33.3676 53.486 33.3606 52.1958V43.7326C33.3606 34.5705 41.3954 28.3589 49.4498 28.3589C57.9272 28.3589 64.0049 35.2984 64.0049 43.354C64.0049 51.4097 57.9272 58.3492 49.4498 58.3492C48.8415 58.3441 48.2402 58.2208 47.6802 57.9864C47.1202 57.752 46.6124 57.411 46.1859 56.9829C45.7595 56.5548 45.4226 56.048 45.1946 55.4914C44.9666 54.9348 44.8519 54.3393 44.8571 53.739C44.8506 53.1379 44.9643 52.5414 45.1917 51.9837C45.4192 51.426 45.7558 50.918 46.1824 50.4889C46.609 50.0598 47.1172 49.7179 47.6779 49.4829C48.2385 49.2478 48.8407 49.1242 49.4498 49.1192C52.4002 49.1192 54.8096 46.7704 54.8096 43.354C54.8096 39.9377 52.4002 37.5792 49.4498 37.5792Z" fill="#2E3137"/><path d="M80.0005 17.6089C80.0005 17.4689 80.1105 17.3589 80.2505 17.3589H87.2105C87.3105 17.3589 87.3905 17.4089 87.4305 17.4889L94.9005 31.1589C95.0005 31.3289 95.2405 31.3289 95.3405 31.1589L102.73 17.4889C102.752 17.4494 102.784 17.4165 102.823 17.3937C102.861 17.3708 102.906 17.3588 102.95 17.3589H109.75C109.89 17.3589 110 17.4689 110 17.6089V45.1089C110 45.2489 109.89 45.3589 109.75 45.3589H103.05C102.984 45.3589 102.921 45.3325 102.874 45.2857C102.827 45.2388 102.8 45.1752 102.8 45.1089V30.3089C102.8 30.0389 102.45 29.9489 102.33 30.1789L97.0705 39.8289C97.0489 39.8683 97.0171 39.9012 96.9784 39.9241C96.9396 39.947 96.8955 39.959 96.8505 39.9589H93.1505C93.1055 39.959 93.0613 39.947 93.0226 39.9241C92.9839 39.9012 92.9521 39.8683 92.9305 39.8289L87.6705 30.1789C87.5505 29.9489 87.2005 30.0389 87.2005 30.2989V45.1089C87.2005 45.2489 87.0905 45.3589 86.9505 45.3589H80.2505C80.1842 45.3589 80.1206 45.3325 80.0737 45.2857C80.0268 45.2388 80.0005 45.1752 80.0005 45.1089V17.6089ZM115.59 17.6089C115.59 17.4689 115.69 17.3589 115.84 17.3589H122.54C122.67 17.3589 122.79 17.4689 122.79 17.6089V39.1889C122.79 39.3289 122.89 39.4389 123.04 39.4389H134.54C134.67 39.4389 134.79 39.5489 134.79 39.6889V45.1089C134.79 45.2489 134.67 45.3589 134.54 45.3589H115.84C115.774 45.3589 115.711 45.3325 115.664 45.2857C115.617 45.2388 115.59 45.1752 115.59 45.1089V17.6089ZM138.4 17.6089C138.4 17.4689 138.51 17.3589 138.65 17.3589H158.551C158.691 17.3589 158.801 17.4689 158.801 17.6089V22.6289C158.801 22.7689 158.691 22.8789 158.551 22.8789H145.85C145.784 22.8789 145.721 22.9052 145.674 22.9521C145.627 22.999 145.6 23.0626 145.6 23.1289V28.1089C145.6 28.2489 145.71 28.3589 145.85 28.3589H157.35C157.49 28.3589 157.6 28.4689 157.6 28.6089V33.3089C157.6 33.4489 157.49 33.5589 157.35 33.5589H145.85C145.784 33.5589 145.721 33.5852 145.674 33.6321C145.627 33.679 145.6 33.7426 145.6 33.8089V39.5889C145.6 39.7289 145.71 39.8389 145.85 39.8389H158.551C158.691 39.8389 158.801 39.9489 158.801 40.0889V45.1089C158.801 45.2489 158.691 45.3589 158.551 45.3589H138.65C138.584 45.3589 138.521 45.3325 138.474 45.2857C138.427 45.2388 138.4 45.1752 138.4 45.1089V17.6089V17.6089ZM163.4 17.6089C163.4 17.4689 163.51 17.3589 163.65 17.3589H170.61C170.71 17.3589 170.791 17.4089 170.831 17.4889L178.301 31.1589C178.401 31.3289 178.64 31.3289 178.74 31.1589L186.13 17.4889C186.152 17.4494 186.184 17.4165 186.223 17.3937C186.261 17.3708 186.306 17.3588 186.35 17.3589H193.151C193.291 17.3589 193.401 17.4689 193.401 17.6089V45.1089C193.401 45.2489 193.291 45.3589 193.151 45.3589H186.45C186.384 45.3589 186.321 45.3325 186.274 45.2857C186.227 45.2388 186.2 45.1752 186.2 45.1089V30.3089C186.2 30.0389 185.851 29.9489 185.731 30.1789L180.471 39.8289C180.449 39.8683 180.417 39.9012 180.378 39.9241C180.34 39.947 180.295 39.959 180.251 39.9589H176.551C176.506 39.959 176.461 39.947 176.423 39.9241C176.384 39.9012 176.352 39.8683 176.331 39.8289L171.07 30.1789C170.94 29.9489 170.6 30.0389 170.6 30.2989V45.1089C170.6 45.2489 170.49 45.3589 170.35 45.3589H163.65C163.584 45.3589 163.521 45.3325 163.474 45.2857C163.427 45.2388 163.4 45.1752 163.4 45.1089V17.6089V17.6089Z" fill="#2E3137"/></svg>