<svg width="144" height="100" viewBox="0 0 144 100" fill="none" xmlns="http://www.w3.org/2000/svg"><path d="M95.2101 8.96254C94.1359 4.92882 89.2311 3.50509 86.2276 6.35662L74.1766 17.7913C73.5993 18.3388 72.8399 18.6432 72.0512 18.6432C71.2625 18.6432 70.5031 18.3388 69.9258 17.7913L57.8748 6.3556C54.8713 3.50509 49.9674 4.92983 48.8923 8.96254L43.8324 27.9459C41.0619 38.3391 45.4427 49.3375 54.5412 54.8378C58.6566 57.3248 63.3231 58.7091 68.1055 58.8613C71.1445 58.9529 78.0867 52.666 78.0882 49.6015C78.0877 49.5356 78.0733 49.4707 78.0459 49.411C78.0185 49.3514 77.9788 49.2984 77.9296 49.2558C77.8803 49.2131 77.8227 49.1818 77.7605 49.1639C77.6983 49.146 77.633 49.142 77.5691 49.1521C76.636 49.2927 75.6908 49.364 74.7407 49.364H68.9937C65.5885 49.3639 62.246 48.43 59.317 46.6603C56.6469 45.0481 54.5691 42.5884 53.4021 39.6579C52.2351 36.7274 52.0433 33.4879 52.8559 30.4357L55.5474 20.3351C55.6179 20.0711 55.7542 19.8301 55.9429 19.6355C56.1317 19.441 56.3666 19.2994 56.6248 19.2244C56.8831 19.1495 57.1559 19.1438 57.417 19.2078C57.678 19.2719 57.9184 19.4036 58.1148 19.5901L63.5497 24.7469C68.3376 29.2902 75.7648 29.2902 80.5526 24.7469L85.9886 19.5901C86.185 19.4038 86.4252 19.2723 86.686 19.2083C86.9469 19.1444 87.2195 19.1501 87.4776 19.2249C87.7357 19.2997 87.9704 19.4411 88.1592 19.6354C88.3479 19.8297 88.4842 20.0703 88.555 20.334L91.1524 30.08C91.3125 30.6803 91.4325 31.2836 91.5165 31.8869C91.5664 32.2245 91.7052 32.5421 91.9181 32.8057C92.1311 33.0693 92.4102 33.2692 92.7257 33.384C94.4167 34.0113 95.9294 35.0546 97.1295 36.4211C98.1986 37.6389 100.805 37.5034 100.933 35.8758C101.152 33.0901 100.895 30.2868 100.175 27.5903L95.2101 8.96356V8.96254Z" fill="url(#paint0_linear_524_1341)"/><path d="M81.5574 44.2472C81.5574 41.0685 84.5403 38.0917 88.4515 38.0917C91.4 38.0917 93.8144 40.4435 93.8144 43.8615C93.8144 47.2784 91.4 49.6302 88.4515 49.6302C87.8483 49.6297 87.2509 49.7487 86.6934 49.9804C86.1359 50.2121 85.6293 50.5519 85.2024 50.9805C84.7756 51.4091 84.4369 51.9181 84.2056 52.4784C83.9744 53.0386 83.8552 53.6392 83.8548 54.2458C83.8553 54.8524 83.9746 55.4528 84.2059 56.013C84.4372 56.5731 84.7759 57.082 85.2028 57.5105C85.6296 57.939 86.1362 58.2788 86.6937 58.5104C87.2511 58.742 87.8484 58.861 88.4515 58.8605C96.9261 58.8605 103.007 51.9138 103.007 43.8615C103.007 35.8081 96.9261 28.8615 88.4515 28.8615C80.3969 28.8615 72.364 35.0822 72.364 44.2462V52.707C72.3635 54.0076 71.9534 55.2746 71.1927 56.3264C70.4319 57.3782 69.3595 58.1607 68.1292 58.5618C67.9571 58.6172 67.9689 58.8615 68.1498 58.8615H70.0656C76.4119 58.8615 81.5565 53.695 81.5565 47.3229V44.2462L81.5574 44.2472Z" fill="url(#paint1_linear_524_1341)"/><path d="M29.0005 75.049C29.0005 74.944 29.083 74.8615 29.188 74.8615H34.408C34.483 74.8615 34.543 74.899 34.573 74.959L40.1755 85.2115C40.2505 85.339 40.4305 85.339 40.5055 85.2115L46.048 74.959C46.0642 74.9294 46.0881 74.9047 46.1171 74.8875C46.1461 74.8704 46.1793 74.8614 46.213 74.8615H51.313C51.418 74.8615 51.5005 74.944 51.5005 75.049V95.674C51.5005 95.779 51.418 95.8615 51.313 95.8615H46.288C46.2383 95.8615 46.1906 95.8417 46.1554 95.8065C46.1202 95.7714 46.1005 95.7237 46.1005 95.674V84.574C46.1005 84.3715 45.838 84.304 45.748 84.4765L41.803 91.7139C41.7868 91.7435 41.7629 91.7682 41.7339 91.7854C41.7048 91.8025 41.6717 91.8115 41.638 91.8115H38.863C38.8293 91.8115 38.7961 91.8025 38.7671 91.7854C38.7381 91.7682 38.7142 91.7435 38.698 91.7139L34.753 84.4765C34.663 84.304 34.4005 84.3715 34.4005 84.5665V95.674C34.4005 95.779 34.318 95.8615 34.213 95.8615H29.188C29.1383 95.8615 29.0906 95.8417 29.0554 95.8065C29.0202 95.7714 29.0005 95.7237 29.0005 95.674V75.049ZM55.693 75.049C55.693 74.944 55.768 74.8615 55.8805 74.8615H60.9055C61.003 74.8615 61.093 74.944 61.093 75.049V91.234C61.093 91.339 61.168 91.4215 61.2805 91.4215H69.9055C70.003 91.4215 70.093 91.504 70.093 91.609V95.674C70.093 95.779 70.003 95.8615 69.9055 95.8615H55.8805C55.8308 95.8615 55.7831 95.8417 55.7479 95.8065C55.7127 95.7714 55.693 95.7237 55.693 95.674V75.049ZM72.8005 75.049C72.8005 74.944 72.883 74.8615 72.988 74.8615H87.913C88.018 74.8615 88.1005 74.944 88.1005 75.049V78.814C88.1005 78.919 88.018 79.0015 87.913 79.0015H78.388C78.3383 79.0015 78.2906 79.0212 78.2554 79.0564C78.2202 79.0915 78.2005 79.1392 78.2005 79.189V82.924C78.2005 83.029 78.283 83.1115 78.388 83.1115H87.013C87.118 83.1115 87.2005 83.194 87.2005 83.299V86.824C87.2005 86.929 87.118 87.0115 87.013 87.0115H78.388C78.3383 87.0115 78.2906 87.0312 78.2554 87.0664C78.2202 87.1015 78.2005 87.1492 78.2005 87.199V91.5339C78.2005 91.6389 78.283 91.7214 78.388 91.7214H87.913C88.018 91.7214 88.1005 91.8039 88.1005 91.9089V95.674C88.1005 95.779 88.018 95.8615 87.913 95.8615H72.988C72.9383 95.8615 72.8906 95.8417 72.8554 95.8065C72.8202 95.7714 72.8005 95.7237 72.8005 95.674V75.049V75.049ZM91.5505 75.049C91.5505 74.944 91.633 74.8615 91.738 74.8615H96.958C97.033 74.8615 97.093 74.899 97.123 74.959L102.725 85.2115C102.8 85.339 102.98 85.339 103.055 85.2115L108.598 74.959C108.614 74.9294 108.638 74.9047 108.667 74.8875C108.696 74.8704 108.729 74.8614 108.763 74.8615H113.863C113.968 74.8615 114.05 74.944 114.05 75.049V95.674C114.05 95.779 113.968 95.8615 113.863 95.8615H108.838C108.788 95.8615 108.741 95.8417 108.705 95.8065C108.67 95.7714 108.65 95.7237 108.65 95.674V84.574C108.65 84.3715 108.388 84.304 108.298 84.4765L104.353 91.7139C104.337 91.7435 104.313 91.7682 104.284 91.7854C104.255 91.8025 104.222 91.8115 104.188 91.8115H101.413C101.379 91.8115 101.346 91.8025 101.317 91.7854C101.288 91.7682 101.264 91.7435 101.248 91.7139L97.303 84.4765C97.2055 84.304 96.9505 84.3715 96.9505 84.5665V95.674C96.9505 95.779 96.868 95.8615 96.763 95.8615H91.738C91.6883 95.8615 91.6406 95.8417 91.6054 95.8065C91.5702 95.7714 91.5505 95.7237 91.5505 95.674V75.049V75.049Z" fill="#2E3137"/><defs><linearGradient id="paint0_linear_524_1341" x1="66.791" y1="53.712" x2="52.407" y2="29.358" gradientUnits="userSpaceOnUse"><stop stop-color="#7E51C2"/><stop offset=".176" stop-color="#945DD6"/><stop offset="1" stop-color="#13ADC7"/></linearGradient><linearGradient id="paint1_linear_524_1341" x1="74.388" y1="45.758" x2="80.304" y2="52.595" gradientUnits="userSpaceOnUse"><stop stop-color="#F46837"/><stop offset="1" stop-color="#DD5236"/></linearGradient></defs></svg>