<svg width="198" height="64" viewBox="0 0 198 64" fill="none" xmlns="http://www.w3.org/2000/svg"><path d="M56.2101 8.45998C55.1359 4.42625 50.2311 3.00252 47.2276 5.85406L35.1766 17.2887C34.5993 17.8362 33.8399 18.1406 33.0512 18.1406C32.2625 18.1406 31.5031 17.8362 30.9258 17.2887L18.8748 5.85304C15.8713 3.00252 10.9674 4.42727 9.89226 8.45998L4.8324 27.4434C2.06193 37.8365 6.44267 48.835 15.5412 54.3352C19.6566 56.8223 24.3231 58.2065 29.1055 58.3588C32.1445 58.4503 39.0867 52.1635 39.0882 49.0989C39.0877 49.0331 39.0733 48.9681 39.0459 48.9085C39.0185 48.8488 38.9788 48.7958 38.9296 48.7532C38.8803 48.7106 38.8227 48.6792 38.7605 48.6613C38.6983 48.6434 38.633 48.6394 38.5691 48.6495C37.636 48.7901 36.6908 48.8615 35.7407 48.8615H29.9937C26.5885 48.8614 23.246 47.9275 20.317 46.1577C17.6469 44.5456 15.5691 42.0858 14.4021 39.1553C13.2351 36.2249 13.0433 32.9853 13.8559 29.9331L16.5474 19.8325C16.6179 19.5685 16.7542 19.3276 16.9429 19.133C17.1317 18.9384 17.3666 18.7968 17.6248 18.7219C17.8831 18.6469 18.1559 18.6412 18.417 18.7053C18.678 18.7693 18.9184 18.901 19.1148 19.0875L24.5497 24.2443C29.3376 28.7876 36.7648 28.7876 41.5526 24.2443L46.9886 19.0875C47.185 18.9012 47.4252 18.7698 47.686 18.7058C47.9469 18.6418 48.2195 18.6475 48.4776 18.7223C48.7357 18.7971 48.9704 18.9385 49.1592 19.1328C49.3479 19.3271 49.4842 19.5678 49.555 19.8315L52.1524 29.5774C52.3125 30.1777 52.4325 30.781 52.5165 31.3844C52.5664 31.722 52.7052 32.0395 52.9181 32.3031C53.1311 32.5667 53.4102 32.7666 53.7257 32.8815C55.4167 33.5087 56.9294 34.552 58.1295 35.9185C59.1986 37.1364 61.8051 37.0008 61.9331 35.3733C62.1519 32.5875 61.8954 29.7842 61.175 27.0877L56.2101 8.461V8.45998Z" fill="url(#paint0_linear_524_409)"/><path d="M42.5574 43.7446C42.5574 40.566 45.5403 37.5891 49.4515 37.5891C52.4 37.5891 54.8144 39.9409 54.8144 43.3589C54.8144 46.7758 52.4 49.1277 49.4515 49.1277C48.8483 49.1271 48.2509 49.2461 47.6934 49.4778C47.1359 49.7095 46.6293 50.0494 46.2024 50.478C45.7756 50.9066 45.4369 51.4155 45.2056 51.9758C44.9744 52.5361 44.8552 53.1367 44.8548 53.7433C44.8553 54.3498 44.9746 54.9503 45.2059 55.5104C45.4372 56.0706 45.7759 56.5794 46.2028 57.0079C46.6296 57.4365 47.1362 57.7762 47.6937 58.0078C48.2511 58.2395 48.8484 58.3584 49.4515 58.3579C57.9261 58.3579 64.0068 51.4112 64.0068 43.3589C64.0068 35.3055 57.9261 28.3589 49.4515 28.3589C41.3969 28.3589 33.364 34.5796 33.364 43.7436V52.2044C33.3635 53.505 32.9534 54.772 32.1927 55.8238C31.4319 56.8756 30.3595 57.6581 29.1292 58.0592C28.9571 58.1146 28.9689 58.3589 29.1498 58.3589H31.0656C37.4119 58.3589 42.5565 53.1924 42.5565 46.8203V43.7436L42.5574 43.7446Z" fill="url(#paint1_linear_524_409)"/><path d="M80.0005 17.6089C80.0005 17.4689 80.1105 17.3589 80.2505 17.3589H87.2105C87.3105 17.3589 87.3905 17.4089 87.4305 17.4889L94.9005 31.1589C95.0005 31.3289 95.2405 31.3289 95.3405 31.1589L102.73 17.4889C102.752 17.4494 102.784 17.4165 102.823 17.3937C102.861 17.3708 102.906 17.3588 102.95 17.3589H109.75C109.89 17.3589 110 17.4689 110 17.6089V45.1089C110 45.2489 109.89 45.3589 109.75 45.3589H103.05C102.984 45.3589 102.921 45.3325 102.874 45.2857C102.827 45.2388 102.8 45.1752 102.8 45.1089V30.3089C102.8 30.0389 102.45 29.9489 102.33 30.1789L97.0705 39.8289C97.0489 39.8683 97.0171 39.9012 96.9784 39.9241C96.9396 39.947 96.8955 39.959 96.8505 39.9589H93.1505C93.1055 39.959 93.0613 39.947 93.0226 39.9241C92.9839 39.9012 92.9521 39.8683 92.9305 39.8289L87.6705 30.1789C87.5505 29.9489 87.2005 30.0389 87.2005 30.2989V45.1089C87.2005 45.2489 87.0905 45.3589 86.9505 45.3589H80.2505C80.1842 45.3589 80.1206 45.3325 80.0737 45.2857C80.0268 45.2388 80.0005 45.1752 80.0005 45.1089V17.6089ZM115.59 17.6089C115.59 17.4689 115.69 17.3589 115.84 17.3589H122.54C122.67 17.3589 122.79 17.4689 122.79 17.6089V39.1889C122.79 39.3289 122.89 39.4389 123.04 39.4389H134.54C134.67 39.4389 134.79 39.5489 134.79 39.6889V45.1089C134.79 45.2489 134.67 45.3589 134.54 45.3589H115.84C115.774 45.3589 115.711 45.3325 115.664 45.2857C115.617 45.2388 115.59 45.1752 115.59 45.1089V17.6089ZM138.4 17.6089C138.4 17.4689 138.51 17.3589 138.65 17.3589H158.551C158.691 17.3589 158.801 17.4689 158.801 17.6089V22.6289C158.801 22.7689 158.691 22.8789 158.551 22.8789H145.85C145.784 22.8789 145.721 22.9052 145.674 22.9521C145.627 22.999 145.6 23.0626 145.6 23.1289V28.1089C145.6 28.2489 145.71 28.3589 145.85 28.3589H157.35C157.49 28.3589 157.6 28.4689 157.6 28.6089V33.3089C157.6 33.4489 157.49 33.5589 157.35 33.5589H145.85C145.784 33.5589 145.721 33.5852 145.674 33.6321C145.627 33.679 145.6 33.7426 145.6 33.8089V39.5889C145.6 39.7289 145.71 39.8389 145.85 39.8389H158.551C158.691 39.8389 158.801 39.9489 158.801 40.0889V45.1089C158.801 45.2489 158.691 45.3589 158.551 45.3589H138.65C138.584 45.3589 138.521 45.3325 138.474 45.2857C138.427 45.2388 138.4 45.1752 138.4 45.1089V17.6089V17.6089ZM163.4 17.6089C163.4 17.4689 163.51 17.3589 163.65 17.3589H170.61C170.71 17.3589 170.791 17.4089 170.831 17.4889L178.301 31.1589C178.401 31.3289 178.64 31.3289 178.74 31.1589L186.13 17.4889C186.152 17.4494 186.184 17.4165 186.223 17.3937C186.261 17.3708 186.306 17.3588 186.35 17.3589H193.151C193.291 17.3589 193.401 17.4689 193.401 17.6089V45.1089C193.401 45.2489 193.291 45.3589 193.151 45.3589H186.45C186.384 45.3589 186.321 45.3325 186.274 45.2857C186.227 45.2388 186.2 45.1752 186.2 45.1089V30.3089C186.2 30.0389 185.851 29.9489 185.731 30.1789L180.471 39.8289C180.449 39.8683 180.417 39.9012 180.378 39.9241C180.34 39.947 180.295 39.959 180.251 39.9589H176.551C176.506 39.959 176.461 39.947 176.423 39.9241C176.384 39.9012 176.352 39.8683 176.331 39.8289L171.07 30.1789C170.94 29.9489 170.6 30.0389 170.6 30.2989V45.1089C170.6 45.2489 170.49 45.3589 170.35 45.3589H163.65C163.584 45.3589 163.521 45.3325 163.474 45.2857C163.427 45.2388 163.4 45.1752 163.4 45.1089V17.6089V17.6089Z" fill="#2E3137"/><defs><linearGradient id="paint0_linear_524_409" x1="27.791" y1="53.209" x2="13.407" y2="28.855" gradientUnits="userSpaceOnUse"><stop stop-color="#7E51C2"/><stop offset=".176" stop-color="#945DD6"/><stop offset="1" stop-color="#13ADC7"/></linearGradient><linearGradient id="paint1_linear_524_409" x1="35.388" y1="45.256" x2="41.304" y2="52.093" gradientUnits="userSpaceOnUse"><stop stop-color="#F46837"/><stop offset="1" stop-color="#DD5236"/></linearGradient></defs></svg>