<svg width="144" height="100" viewBox="0 0 144 100" fill="none" xmlns="http://www.w3.org/2000/svg"><path d="M86.3714 6.36151C89.3819 3.50242 94.2991 4.92695 95.3829 8.9698L100.37 27.6492C100.651 28.7326 100.872 29.8161 101.003 30.8995C101.063 31.381 100.481 31.6519 100.129 31.3209C97.5687 28.9621 94.3114 27.4977 90.847 27.1476C90.7451 27.1347 90.6495 27.0914 90.5725 27.0234C90.4956 26.9554 90.4409 26.8659 90.4155 26.7664L88.7095 20.3761C88.6425 20.1133 88.5078 19.8726 88.3189 19.6779C88.13 19.4832 87.8935 19.3413 87.6328 19.2663C87.3721 19.1912 87.0963 19.1857 86.8327 19.2501C86.5692 19.3146 86.3271 19.4468 86.1305 19.6337L80.6815 24.8001C78.3846 26.9954 75.3294 28.2206 72.1517 28.2206C68.974 28.2206 65.9187 26.9954 63.6219 24.8001L58.1628 19.6337C57.966 19.4493 57.7247 19.3192 57.4625 19.2562C57.2002 19.1932 56.9261 19.1995 56.667 19.2743C56.408 19.3492 56.1728 19.4901 55.9846 19.6833C55.7965 19.8764 55.6618 20.1152 55.5938 20.3761L52.8843 30.5083C52.0629 33.5577 52.2515 36.791 53.422 39.7243C54.5924 42.6575 56.6817 45.133 59.377 46.78C62.3042 48.5503 65.6598 49.4869 69.0809 49.4886H70.4658C70.7367 49.4886 70.9675 49.7193 70.9675 50.0103V52.4681C70.9675 55.6783 68.2079 57.9154 66.2109 58.8183C66.1325 58.8543 66.0458 58.8682 65.96 58.8584C61.946 58.407 58.0725 57.0928 54.5803 54.976C50.118 52.2428 46.6607 48.1391 44.7252 43.2785C42.7897 38.4178 42.4801 33.0615 43.8427 28.0103L48.9004 8.9698C49.134 8.05114 49.6037 7.20949 50.2631 6.5283C50.9224 5.84712 51.7484 5.35007 52.6592 5.08646C53.5699 4.82285 54.5338 4.80183 55.4552 5.02549C56.3766 5.24915 57.2235 5.70971 57.9119 6.36151L70.0042 17.828C70.579 18.3756 71.3426 18.6811 72.1366 18.6811C72.9307 18.6811 73.6943 18.3756 74.2691 17.828L86.3714 6.36151Z" fill="#2E3137"/><path d="M88.4498 38.0818C84.5357 38.0818 81.5558 41.0614 81.5558 44.2351V47.3118C81.582 50.3459 80.3871 53.2663 78.2335 55.4317C76.0799 57.5972 73.1435 58.8307 70.0691 58.8615H68.1514C67.9645 58.8615 67.9547 58.6091 68.1317 58.5509C69.37 58.1371 70.4449 57.3492 71.2039 56.2987C71.963 55.2482 72.3676 53.9886 72.3606 52.6984V44.2351C72.3606 35.073 80.3954 28.8615 88.4498 28.8615C96.9272 28.8615 103.005 35.801 103.005 43.8566C103.005 51.9122 96.9272 58.8517 88.4498 58.8517C87.8415 58.8467 87.2402 58.7234 86.6802 58.489C86.1202 58.2545 85.6124 57.9135 85.1859 57.4854C84.7595 57.0573 84.4226 56.5505 84.1946 55.9939C83.9666 55.4374 83.8519 54.8419 83.8571 54.2416C83.8506 53.6405 83.9643 53.044 84.1917 52.4863C84.4192 51.9286 84.7558 51.4206 85.1824 50.9915C85.609 50.5623 86.1172 50.2205 86.6779 49.9854C87.2385 49.7504 87.8407 49.6268 88.4498 49.6217C91.4002 49.6217 93.8096 47.273 93.8096 43.8566C93.8096 40.4402 91.4002 38.0818 88.4498 38.0818Z" fill="#2E3137"/><path d="M29.0005 75.049C29.0005 74.944 29.083 74.8615 29.188 74.8615H34.408C34.483 74.8615 34.543 74.899 34.573 74.959L40.1755 85.2115C40.2505 85.339 40.4305 85.339 40.5055 85.2115L46.048 74.959C46.0642 74.9294 46.0881 74.9047 46.1171 74.8875C46.1461 74.8704 46.1793 74.8614 46.213 74.8615H51.313C51.418 74.8615 51.5005 74.944 51.5005 75.049V95.674C51.5005 95.779 51.418 95.8615 51.313 95.8615H46.288C46.2383 95.8615 46.1906 95.8417 46.1554 95.8065C46.1202 95.7714 46.1005 95.7237 46.1005 95.674V84.574C46.1005 84.3715 45.838 84.304 45.748 84.4765L41.803 91.7139C41.7868 91.7435 41.7629 91.7682 41.7339 91.7854C41.7048 91.8025 41.6717 91.8115 41.638 91.8115H38.863C38.8293 91.8115 38.7961 91.8025 38.7671 91.7854C38.7381 91.7682 38.7142 91.7435 38.698 91.7139L34.753 84.4765C34.663 84.304 34.4005 84.3715 34.4005 84.5665V95.674C34.4005 95.779 34.318 95.8615 34.213 95.8615H29.188C29.1383 95.8615 29.0906 95.8417 29.0554 95.8065C29.0202 95.7714 29.0005 95.7237 29.0005 95.674V75.049ZM55.693 75.049C55.693 74.944 55.768 74.8615 55.8805 74.8615H60.9055C61.003 74.8615 61.093 74.944 61.093 75.049V91.234C61.093 91.339 61.168 91.4215 61.2805 91.4215H69.9055C70.003 91.4215 70.093 91.504 70.093 91.609V95.674C70.093 95.779 70.003 95.8615 69.9055 95.8615H55.8805C55.8308 95.8615 55.7831 95.8417 55.7479 95.8065C55.7127 95.7714 55.693 95.7237 55.693 95.674V75.049ZM72.8005 75.049C72.8005 74.944 72.883 74.8615 72.988 74.8615H87.913C88.018 74.8615 88.1005 74.944 88.1005 75.049V78.814C88.1005 78.919 88.018 79.0015 87.913 79.0015H78.388C78.3383 79.0015 78.2906 79.0212 78.2554 79.0564C78.2202 79.0915 78.2005 79.1392 78.2005 79.189V82.924C78.2005 83.029 78.283 83.1115 78.388 83.1115H87.013C87.118 83.1115 87.2005 83.194 87.2005 83.299V86.824C87.2005 86.929 87.118 87.0115 87.013 87.0115H78.388C78.3383 87.0115 78.2906 87.0312 78.2554 87.0664C78.2202 87.1015 78.2005 87.1492 78.2005 87.199V91.5339C78.2005 91.6389 78.283 91.7214 78.388 91.7214H87.913C88.018 91.7214 88.1005 91.8039 88.1005 91.9089V95.674C88.1005 95.779 88.018 95.8615 87.913 95.8615H72.988C72.9383 95.8615 72.8906 95.8417 72.8554 95.8065C72.8202 95.7714 72.8005 95.7237 72.8005 95.674V75.049V75.049ZM91.5505 75.049C91.5505 74.944 91.633 74.8615 91.738 74.8615H96.958C97.033 74.8615 97.093 74.899 97.123 74.959L102.725 85.2115C102.8 85.339 102.98 85.339 103.055 85.2115L108.598 74.959C108.614 74.9294 108.638 74.9047 108.667 74.8875C108.696 74.8704 108.729 74.8614 108.763 74.8615H113.863C113.968 74.8615 114.05 74.944 114.05 75.049V95.674C114.05 95.779 113.968 95.8615 113.863 95.8615H108.838C108.788 95.8615 108.741 95.8417 108.705 95.8065C108.67 95.7714 108.65 95.7237 108.65 95.674V84.574C108.65 84.3715 108.388 84.304 108.298 84.4765L104.353 91.7139C104.337 91.7435 104.313 91.7682 104.284 91.7854C104.255 91.8025 104.222 91.8115 104.188 91.8115H101.413C101.379 91.8115 101.346 91.8025 101.317 91.7854C101.288 91.7682 101.264 91.7435 101.248 91.7139L97.303 84.4765C97.2055 84.304 96.9505 84.3715 96.9505 84.5665V95.674C96.9505 95.779 96.868 95.8615 96.763 95.8615H91.738C91.6883 95.8615 91.6406 95.8417 91.6054 95.8065C91.5702 95.7714 91.5505 95.7237 91.5505 95.674V75.049V75.049Z" fill="#2E3137"/></svg>