<svg width="256" height="206" fill="none" xmlns="http://www.w3.org/2000/svg"><path d="M167.189 142.708c-11.856-11.802-17.347-26.106-17.347-42.976 0-16.966 5.46-31.334 17.347-43.232a59.609 59.609 0 0 1 19.857-13.448 58.286 58.286 0 0 1 23.387-4.416c15.093-.255 29.724 5.358 40.965 15.715 1.716 1.604 1.748 3.207.188 4.746l-13.198 13.695c-1.466 1.347-2.902 1.347-4.243 0-6.316-5.696-14.469-8.771-22.87-8.627-9.485 0-17.378 3.4-23.712 10.263a34.073 34.073 0 0 0-6.924 11.332 34.773 34.773 0 0 0-2.124 13.203c0 9.493 2.808 17.575 9.173 24.278a31.862 31.862 0 0 0 10.86 7.59 31.11 31.11 0 0 0 12.914 2.448c8.265.192 16.319-2.689 22.683-8.114 1.56-1.347 3.026-1.283 4.368.161l13.229 14.047c1.466 1.475 1.404 2.983-.156 4.554-11.072 10.839-25.868 16.731-41.153 16.389a58.692 58.692 0 0 1-23.349-4.346 59.99 59.99 0 0 1-19.895-13.294v.032z" fill="url(#paint0_linear)"/><path d="M3.202 156.788V41.971c-.014-.436.062-.87.223-1.274.161-.403.404-.767.713-1.067.26-.306.582-.55.943-.716a2.68 2.68 0 0 1 1.147-.246h40.779c16.723 1.283 29.203 6.094 40.685 17.96 11.544 11.867 16.13 25.337 17.596 42.655 1.404 16.678-5.366 31.11-16.848 42.976a56.304 56.304 0 0 1-18.904 13.381 54.98 54.98 0 0 1-22.53 4.515H6.229a2.778 2.778 0 0 1-1.144-.254 2.848 2.848 0 0 1-.946-.708 3.148 3.148 0 0 1-.714-1.084 3.22 3.22 0 0 1-.222-1.289v-.032zm26.083-86.914v64.56h16.037c9.36 0 17.16-3.4 23.338-10.167 6.177-6.756 9.508-15.747 9.266-25.016 0-9.846-3.12-18.152-9.266-24.92a30.687 30.687 0 0 0-10.6-7.677 29.944 29.944 0 0 0-12.738-2.49H29.285v5.71z" fill="url(#paint1_linear)"/><path d="M153.118 78.822l-25.272 57.087h-1.03L99.828 74.845c3.058 7.312 4.68 15.33 5.46 24.406 1.03 12.188-2.308 23.156-8.642 32.842l26.832 59.108c.686 1.283 1.622 1.924 2.87 1.924h1.685c1.248 0 2.184-.609 2.839-1.892l27.332-59.814c-5.688-9.53-8.591-20.54-8.362-31.719 0-7.44 1.061-14.432 3.276-20.878z" fill="url(#paint2_linear)"/><defs><linearGradient id="paint0_linear" x1="201.321" y1="99.561" x2="201.321" y2="160.33" gradientUnits="userSpaceOnUse"><stop stop-color="#F46837"/><stop offset="1" stop-color="#DD5236"/></linearGradient><linearGradient id="paint1_linear" x1="54.336" y1="99.561" x2="54.336" y2="160.16" gradientUnits="userSpaceOnUse"><stop stop-color="#13ADC7"/><stop offset="1" stop-color="#1497B8"/></linearGradient><linearGradient id="paint2_linear" x1="104.6" y1="134.84" x2="104.6" y2="192.569" gradientUnits="userSpaceOnUse"><stop stop-color="#7E51C2"/><stop offset="1" stop-color="#945DD6"/></linearGradient></defs></svg>