<svg width="160" height="160" viewBox="0 0 160 160" fill="none" xmlns="http://www.w3.org/2000/svg"><path d="M104.493 104.673C97.0834 97.3396 93.6514 88.4517 93.6514 77.9696C93.6514 67.4276 97.0639 58.4999 104.493 51.1066C108.04 47.4994 112.261 44.6579 116.904 42.751C121.547 40.8441 126.517 39.9109 131.52 40.0067C140.954 39.8485 150.098 43.3359 157.124 49.7714C158.197 50.7678 158.216 51.7642 157.241 52.7208L148.992 61.23C148.076 62.067 147.179 62.067 146.34 61.23C142.393 57.6907 137.298 55.7798 132.047 55.8694C126.119 55.8694 121.185 57.9818 117.227 62.2464C115.341 64.2766 113.87 66.6702 112.899 69.2876C111.928 71.905 111.477 74.6938 111.572 77.4913C111.572 83.39 113.327 88.4118 117.305 92.5768C119.223 94.6132 121.534 96.2194 124.092 97.2933C126.65 98.3671 129.399 98.8851 132.164 98.8143C137.329 98.9334 142.363 97.1431 146.34 93.7725C147.315 92.9355 148.232 92.9754 149.07 93.8721L157.339 102.601C158.255 103.517 158.216 104.454 157.241 105.43C150.321 112.165 141.074 115.826 131.52 115.614C126.529 115.713 121.568 114.795 116.927 112.913C112.287 111.031 108.06 108.223 104.493 104.653V104.673Z" fill="#fff"/><path fill-rule="evenodd" clip-rule="evenodd" d="M2.00113 42.0793C1.99219 41.8083 2.03973 41.5385 2.14058 41.2877C2.24144 41.0369 2.39331 40.8108 2.58614 40.6246C2.74896 40.4347 2.94999 40.283 3.17547 40.1798C3.40096 40.0766 3.64559 40.0244 3.89264 40.0267H29.3792C39.8312 40.8238 47.6312 43.813 54.8073 51.1864C62.0223 58.5598 64.8888 66.9295 65.8053 77.6907C66.6828 88.0532 62.4513 97.0208 55.2753 104.394C51.937 107.965 47.915 110.795 43.4597 112.708C39.0044 114.622 34.2114 115.577 29.3792 115.514H3.89264C3.64618 115.513 3.40272 115.459 3.17778 115.356C2.95284 115.253 2.75134 115.103 2.58614 114.916C2.3928 114.726 2.24079 114.497 2.14 114.243C2.03921 113.988 1.99189 113.716 2.00113 113.442V42.0793ZM18.3032 99.5318H28.3262C34.1762 99.5318 39.0512 97.4194 42.9122 93.2146C46.7732 89.0167 48.8548 83.4298 48.7037 77.6707C48.7037 71.5528 46.7537 66.3915 42.9122 62.1867C41.062 60.1322 38.8033 58.5057 36.2877 57.4162C33.772 56.3266 31.0576 55.7993 28.3262 55.8695H18.3032V99.5318Z" fill="#fff"/><path d="M96.7175 99.9436C97.1201 100.543 97.1999 101.308 96.8983 101.964L81.7953 134.824C81.3858 135.621 80.8008 136 80.0208 136H78.9678C78.1878 136 77.6028 135.601 77.1738 134.804L62.3521 102.344C62.0459 101.673 62.1376 100.891 62.5647 100.29C66.9446 94.126 69.0215 87.1077 68.8138 79.6846C68.7978 79.1123 69.6758 78.8883 69.9084 79.4115L79.2603 100.448H79.9038L89.6122 78.6458C89.8387 78.137 90.6523 78.3264 90.6523 78.8834C90.6528 86.3355 92.5323 93.713 96.7175 99.9436Z" fill="#fff"/></svg>