<svg width="160" height="160" viewBox="0 0 160 160" fill="none" xmlns="http://www.w3.org/2000/svg"><path d="M104.493 104.673C97.0834 97.3396 93.6514 88.4517 93.6514 77.9696C93.6514 67.4276 97.0639 58.4999 104.493 51.1066C108.04 47.4994 112.261 44.6579 116.904 42.751C121.547 40.8441 126.517 39.9109 131.52 40.0067C140.954 39.8485 150.098 43.3359 157.124 49.7714C158.197 50.7678 158.216 51.7642 157.241 52.7208L148.992 61.23C148.076 62.067 147.179 62.067 146.34 61.23C142.393 57.6907 137.298 55.7798 132.047 55.8694C126.119 55.8694 121.185 57.9818 117.227 62.2464C115.341 64.2766 113.87 66.6702 112.899 69.2876C111.928 71.905 111.477 74.6938 111.572 77.4913C111.572 83.39 113.327 88.4119 117.305 92.5768C119.223 94.6132 121.534 96.2194 124.092 97.2933C126.65 98.3671 129.399 98.8851 132.164 98.8143C137.329 98.9334 142.363 97.1431 146.34 93.7725C147.315 92.9355 148.232 92.9754 149.07 93.8721L157.339 102.601C158.255 103.517 158.216 104.454 157.241 105.43C150.321 112.165 141.074 115.826 131.52 115.614C126.529 115.713 121.568 114.795 116.927 112.913C112.287 111.031 108.06 108.223 104.493 104.653V104.673V104.673Z" fill="url(#paint0_linear_61_113)"/><path d="M2.00113 113.422V42.0793C1.99219 41.8083 2.03973 41.5384 2.14058 41.2876C2.24144 41.0368 2.39331 40.8108 2.58614 40.6245C2.74896 40.4346 2.94999 40.2829 3.17547 40.1797C3.40096 40.0766 3.64559 40.0243 3.89264 40.0267H29.3792C39.8312 40.8238 47.6312 43.813 54.8073 51.1864C62.0223 58.5597 64.8888 66.9295 65.8053 77.6906C66.6828 88.0532 62.4513 97.0208 55.2753 104.394C51.937 107.965 47.915 110.795 43.4597 112.708C39.0044 114.622 34.2114 115.577 29.3792 115.514H3.89264C3.64618 115.513 3.40272 115.459 3.17778 115.356C2.95284 115.253 2.75134 115.103 2.58614 114.916C2.3928 114.726 2.24079 114.497 2.14 114.242C2.03921 113.988 1.99189 113.715 2.00113 113.441V113.422ZM18.3032 59.4166V99.5317H28.3262C34.1762 99.5317 39.0512 97.4194 42.9122 93.2146C46.7732 89.0167 48.8548 83.4298 48.7037 77.6707C48.7037 71.5528 46.7537 66.3915 42.9122 62.1866C41.062 60.1322 38.8033 58.5056 36.2877 57.4161C33.772 56.3266 31.0576 55.7993 28.3262 55.8695H18.3032V59.4166Z" fill="url(#paint1_linear_61_113)"/><path d="M95.6989 64.9764L79.9038 100.448H79.2603L62.3928 62.5054C64.3038 67.049 65.3178 72.031 65.8053 77.6706C66.4488 85.2433 64.3623 92.0586 60.4037 98.0769L77.1738 134.804C77.6028 135.601 78.1878 136 78.9678 136H80.0208C80.8008 136 81.3858 135.621 81.7953 134.824L98.8774 97.6584C95.3223 91.7368 93.5082 84.8954 93.6513 77.9496C93.6513 73.3263 94.3143 68.982 95.6989 64.9764Z" fill="url(#paint2_linear_61_113)"/><defs><linearGradient id="paint0_linear_61_113" x1="125.826" y1="77.863" x2="125.826" y2="115.622" gradientUnits="userSpaceOnUse"><stop stop-color="#F46837"/><stop offset="1" stop-color="#DD5236"/></linearGradient><linearGradient id="paint1_linear_61_113" x1="33.96" y1="77.863" x2="33.96" y2="115.517" gradientUnits="userSpaceOnUse"><stop stop-color="#13ADC7"/><stop offset="1" stop-color="#1497B8"/></linearGradient><linearGradient id="paint2_linear_61_113" x1="65.375" y1="99.784" x2="65.375" y2="135.654" gradientUnits="userSpaceOnUse"><stop stop-color="#7E51C2"/><stop offset="1" stop-color="#945DD6"/></linearGradient></defs></svg>