<svg width="160" height="128" viewBox="0 0 160 128" fill="none" xmlns="http://www.w3.org/2000/svg"><path d="M104.493 88.6731C97.0834 81.3396 93.6514 72.4517 93.6514 61.9696C93.6514 51.4276 97.0639 42.4999 104.493 35.1066C108.04 31.4994 112.261 28.6579 116.904 26.751C121.547 24.8441 126.517 23.9109 131.52 24.0067C140.954 23.8485 150.098 27.3359 157.124 33.7714C158.197 34.7678 158.216 35.7642 157.241 36.7208L148.992 45.23C148.076 46.067 147.179 46.067 146.34 45.23C142.393 41.6907 137.298 39.7798 132.047 39.8694C126.119 39.8694 121.185 41.9818 117.227 46.2464C115.341 48.2766 113.87 50.6702 112.899 53.2876C111.928 55.905 111.477 58.6938 111.572 61.4913C111.572 67.39 113.327 72.4118 117.305 76.5768C119.223 78.6132 121.534 80.2194 124.092 81.2933C126.65 82.3671 129.399 82.8851 132.164 82.8143C137.329 82.9334 142.363 81.1431 146.34 77.7725C147.315 76.9355 148.232 76.9754 149.07 77.8721L157.339 86.6006C158.255 87.5173 158.216 88.4539 157.241 89.4304C150.321 96.1651 141.074 99.8263 131.52 99.6136C126.529 99.7131 121.568 98.7951 116.927 96.9132C112.287 95.0314 108.06 92.2233 104.493 88.6532V88.6731Z" fill="#2E3137"/><path fill-rule="evenodd" clip-rule="evenodd" d="M2.00113 26.0793C1.99219 25.8083 2.03973 25.5385 2.14058 25.2877C2.24144 25.0369 2.39331 24.8108 2.58614 24.6246C2.74896 24.4347 2.94999 24.283 3.17547 24.1798C3.40096 24.0766 3.64559 24.0244 3.89264 24.0267H29.3792C39.8312 24.8238 47.6312 27.813 54.8073 35.1864C62.0223 42.5598 64.8888 50.9295 65.8053 61.6907C66.6828 72.0532 62.4513 81.0208 55.2753 88.3942C51.937 91.9652 47.915 94.7954 43.4597 96.7085C39.0044 98.6216 34.2114 99.5766 29.3792 99.514H3.89264C3.64618 99.5126 3.40272 99.4587 3.17778 99.3557C2.95284 99.2528 2.75134 99.1031 2.58614 98.9162C2.3928 98.7261 2.24079 98.4966 2.14 98.2425C2.03921 97.9884 1.99189 97.7155 2.00113 97.4415V26.0793ZM18.3032 83.5318H28.3262C34.1762 83.5318 39.0512 81.4194 42.9122 77.2146C46.7732 73.0167 48.8548 67.4298 48.7037 61.6707C48.7037 55.5528 46.7537 50.3915 42.9122 46.1867C41.062 44.1322 38.8033 42.5057 36.2877 41.4162C33.772 40.3266 31.0576 39.7993 28.3262 39.8695H18.3032V83.5318Z" fill="#2E3137"/><path d="M96.7175 83.9436C97.1201 84.543 97.1999 85.3083 96.8983 85.9643L81.7953 118.824C81.3858 119.621 80.8008 120 80.0208 120H78.9678C78.1878 120 77.6028 119.601 77.1738 118.804L62.3521 86.3439C62.0459 85.6732 62.1376 84.8906 62.5647 84.2896C66.9446 78.126 69.0215 71.1077 68.8138 63.6846C68.7978 63.1123 69.6758 62.8883 69.9084 63.4115L79.2603 84.4484H79.9038L89.6122 62.6458C89.8387 62.137 90.6523 62.3264 90.6523 62.8834C90.6528 70.3355 92.5323 77.713 96.7175 83.9436Z" fill="#2E3137"/></svg>