<svg width="160" height="128" viewBox="0 0 160 128" fill="none" xmlns="http://www.w3.org/2000/svg"><path d="M104.493 88.6731C97.0834 81.3396 93.6514 72.4517 93.6514 61.9696C93.6514 51.4276 97.0639 42.4999 104.493 35.1066C108.04 31.4994 112.261 28.6579 116.904 26.751C121.547 24.8441 126.517 23.9109 131.52 24.0067C140.954 23.8485 150.098 27.3359 157.124 33.7714C158.197 34.7678 158.216 35.7642 157.241 36.7208L148.992 45.23C148.076 46.067 147.179 46.067 146.34 45.23C142.393 41.6907 137.298 39.7798 132.047 39.8694C126.119 39.8694 121.185 41.9818 117.227 46.2464C115.341 48.2766 113.87 50.6702 112.899 53.2876C111.928 55.905 111.477 58.6938 111.572 61.4913C111.572 67.39 113.327 72.4119 117.305 76.5768C119.223 78.6132 121.534 80.2194 124.092 81.2933C126.65 82.3671 129.399 82.8851 132.164 82.8143C137.329 82.9334 142.363 81.1431 146.34 77.7725C147.315 76.9355 148.232 76.9754 149.07 77.8721L157.339 86.6006C158.255 87.5173 158.216 88.4539 157.241 89.4304C150.321 96.1651 141.074 99.8263 131.52 99.6136C126.529 99.7131 121.568 98.7951 116.927 96.9133C112.287 95.0314 108.06 92.2233 104.493 88.6532V88.6731V88.6731Z" fill="url(#paint0_linear_61_170)"/><path d="M2.00113 97.4216V26.0793C1.99219 25.8083 2.03973 25.5384 2.14058 25.2876C2.24144 25.0368 2.39331 24.8108 2.58614 24.6245C2.74896 24.4346 2.94999 24.2829 3.17547 24.1797C3.40096 24.0766 3.64559 24.0243 3.89264 24.0267H29.3792C39.8312 24.8238 47.6312 27.813 54.8073 35.1864C62.0223 42.5597 64.8888 50.9295 65.8053 61.6906C66.6828 72.0532 62.4513 81.0208 55.2753 88.3942C51.937 91.9651 47.915 94.7953 43.4597 96.7084C39.0044 98.6215 34.2114 99.5766 29.3792 99.514H3.89264C3.64618 99.5125 3.40272 99.4586 3.17778 99.3557C2.95284 99.2528 2.75134 99.1031 2.58614 98.9162C2.3928 98.7261 2.24079 98.4966 2.14 98.2425C2.03921 97.9884 1.99189 97.7155 2.00113 97.4415V97.4216ZM18.3032 43.4166V83.5317H28.3262C34.1762 83.5317 39.0512 81.4194 42.9122 77.2146C46.7732 73.0167 48.8548 67.4298 48.7037 61.6707C48.7037 55.5528 46.7537 50.3915 42.9122 46.1866C41.062 44.1322 38.8033 42.5056 36.2877 41.4161C33.772 40.3266 31.0576 39.7993 28.3262 39.8695H18.3032V43.4166Z" fill="url(#paint1_linear_61_170)"/><path d="M95.6989 48.9764L79.9038 84.4483H79.2603L62.3928 46.5054C64.3038 51.049 65.3178 56.031 65.8053 61.6706C66.4488 69.2433 64.3623 76.0586 60.4037 82.0769L77.1738 118.804C77.6028 119.601 78.1878 120 78.9678 120H80.0208C80.8008 120 81.3858 119.621 81.7953 118.824L98.8774 81.6584C95.3223 75.7368 93.5082 68.8954 93.6513 61.9496C93.6513 57.3263 94.3143 52.982 95.6989 48.9764Z" fill="url(#paint2_linear_61_170)"/><defs><linearGradient id="paint0_linear_61_170" x1="125.826" y1="61.863" x2="125.826" y2="99.622" gradientUnits="userSpaceOnUse"><stop stop-color="#F46837"/><stop offset="1" stop-color="#DD5236"/></linearGradient><linearGradient id="paint1_linear_61_170" x1="33.96" y1="61.863" x2="33.96" y2="99.517" gradientUnits="userSpaceOnUse"><stop stop-color="#13ADC7"/><stop offset="1" stop-color="#1497B8"/></linearGradient><linearGradient id="paint2_linear_61_170" x1="65.375" y1="83.784" x2="65.375" y2="119.654" gradientUnits="userSpaceOnUse"><stop stop-color="#7E51C2"/><stop offset="1" stop-color="#945DD6"/></linearGradient></defs></svg>