<svg width="452" height="128" viewBox="0 0 452 128" fill="none" xmlns="http://www.w3.org/2000/svg">
<g clip-path="url(#clip0_509_648)">
<path d="M119.345 18.728C117.052 10.7577 106.591 7.94582 100.184 13.5782L74.4801 36.1766C71.9267 38.4215 67.9663 38.4215 65.413 36.1766L39.7089 13.5782C33.3025 7.94584 22.8407 10.7576 20.5481 18.728L9.75654 56.2461C3.84817 76.7872 13.1894 98.5221 32.5981 109.393C41.3822 114.313 51.3382 117.045 61.5301 117.347C61.8153 117.355 62.0502 117.139 62.0502 116.87C62.0502 116.698 62.148 116.539 62.3064 116.454L73.3159 110.523C73.5594 110.392 73.8207 110.292 74.0887 110.214C79.2658 108.704 82.8225 104.184 82.8225 99.0445C82.8225 98.4932 82.2946 98.0761 81.7161 98.1569C79.7254 98.4349 77.7089 98.5759 75.6824 98.5759H63.4239C56.1594 98.5759 49.0294 96.7297 42.7841 93.2316C31.0741 86.6727 25.4382 73.5592 29.0029 61.166L34.7448 41.2039C35.3998 38.9266 38.3889 38.1232 40.2193 39.7325L51.8123 49.9248C62.0257 58.9042 77.8674 58.9041 88.0808 49.9248L99.6738 39.7325C101.504 38.1232 104.493 38.9266 105.148 41.2039L110.688 60.4645C111.03 61.6506 111.288 62.843 111.467 64.0357C111.67 65.3907 112.68 66.5257 114.044 66.9937C117.686 68.2432 120.903 70.3259 123.437 72.9972C125.718 75.4022 131.278 75.1346 131.551 71.9189C132.009 66.5254 131.502 60.9943 129.935 55.5447L119.345 18.728Z" fill="url(#paint0_linear_509_648)"/>
<path d="M89.4701 87.6097C89.4701 81.1384 95.9449 75.0771 104.426 75.0771C110.822 75.0771 116.059 79.8663 116.059 86.8264C116.059 93.7866 110.822 98.5758 104.426 98.5758C98.9193 98.5758 94.4552 102.784 94.4552 107.975C94.4552 113.167 98.9193 117.375 104.426 117.375C122.809 117.375 136 103.227 136 86.8264C136 70.4262 122.809 56.278 104.426 56.278C86.9537 56.278 69.5287 68.9472 69.5287 87.6097V93.8761C69.5287 93.8854 69.5286 93.8947 69.5286 93.904L69.5287 104.843C69.5287 110.412 65.6747 115.133 60.3436 116.765C59.97 116.879 59.9959 117.375 60.3887 117.375H64.5433C78.31 117.375 89.4701 106.854 89.4701 93.8761V87.6097Z" fill="url(#paint1_linear_509_648)"/>
</g>
<path d="M176 32H192.823L210.56 64.4571L228.114 32H244.571V96H228.114V59.3371L214.857 83.6571H205.714L192.457 59.3371V96H176V32Z" fill="#2E3137"/>
<path d="M257.339 32H273.796V82.4686H301.225V96H257.339V32Z" fill="#2E3137"/>
<path d="M309.482 32H356.111V44.6171H325.939V57.1429H353.368V69.0286H325.939V83.3829H356.111V96H309.482V32Z" fill="#2E3137"/>
<path d="M366.625 32H383.448L401.185 64.4571L418.739 32H435.196V96H418.739V59.3371L405.482 83.6571H396.339L383.082 59.3371V96H366.625V32Z" fill="#2E3137"/>
<defs>
<linearGradient id="paint0_linear_509_648" x1="58.7266" y1="107.167" x2="31.3867" y2="57.2081" gradientUnits="userSpaceOnUse">
<stop stop-color="#7E51C2"/>
<stop offset="0.176285" stop-color="#945DD6"/>
<stop offset="1" stop-color="#13ADC7"/>
</linearGradient>
<linearGradient id="paint1_linear_509_648" x1="73.92" y1="90.6876" x2="85.8363" y2="105.356" gradientUnits="userSpaceOnUse">
<stop stop-color="#F46837"/>
<stop offset="1" stop-color="#DD5236"/>
</linearGradient>
<clipPath id="clip0_509_648">
<rect width="128" height="108" fill="white" transform="translate(8 10)"/>
</clipPath>
</defs>
</svg>
