<svg width="452" height="128" viewBox="0 0 452 128" fill="none" xmlns="http://www.w3.org/2000/svg"><g clip-path="url(#clip0_509_649)"><path d="M119.345 18.728C117.052 10.7577 106.591 7.94582 100.184 13.5782L74.4801 36.1766C71.9267 38.4215 67.9663 38.4215 65.413 36.1766L39.7089 13.5782C33.3025 7.94584 22.8407 10.7576 20.5481 18.728L9.75654 56.2461C3.84817 76.7872 13.1894 98.5221 32.5981 109.393C41.3822 114.313 51.3382 117.045 61.5301 117.347C61.8153 117.355 62.0502 117.139 62.0502 116.87C62.0502 116.698 62.148 116.539 62.3064 116.454L73.3159 110.523C73.5594 110.392 73.8207 110.292 74.0887 110.214C79.2658 108.704 82.8225 104.184 82.8225 99.0445C82.8225 98.4932 82.2946 98.0761 81.7161 98.1569C79.7254 98.4349 77.7089 98.5759 75.6824 98.5759H63.4239C56.1594 98.5759 49.0294 96.7297 42.7841 93.2316C31.0741 86.6727 25.4382 73.5592 29.0029 61.166L34.7448 41.2039C35.3998 38.9266 38.3889 38.1232 40.2193 39.7325L51.8123 49.9248C62.0257 58.9042 77.8674 58.9041 88.0808 49.9248L99.6738 39.7325C101.504 38.1232 104.493 38.9266 105.148 41.2039L107.918 48.9279L109 51.6094C109.341 52.7954 109.902 53.0508 110.972 53.3263C112.012 53.5521 115.454 54.508 116.819 54.976C120.46 56.2254 125.467 59.4224 128 62.0938C130.281 64.4987 131.293 64.674 132 64C133 63.0469 131.502 59.088 129.935 53.6384L119.345 18.728Z" fill="#2E3137"/><path d="M89.4701 87.6098C89.4701 81.1385 95.9449 75.0771 104.426 75.0771C110.822 75.0771 116.059 79.8663 116.059 86.8265C116.059 93.7867 110.822 98.5759 104.426 98.5759C98.9193 98.5759 94.4552 102.784 94.4552 107.975C94.4552 113.167 98.9193 117.375 104.426 117.375C122.809 117.375 136 103.227 136 86.8265C136 70.4262 122.809 56.2781 104.426 56.2781C86.9537 56.2781 69.5287 68.9473 69.5287 87.6098V93.8761C69.5287 93.8855 69.5286 93.8948 69.5286 93.9041L69.5287 104.843C69.5287 110.412 65.6747 115.133 60.3436 116.765C59.97 116.879 59.9959 117.375 60.3887 117.375H64.5433C78.31 117.375 89.4701 106.854 89.4701 93.8761V87.6098Z" fill="#2E3137"/></g><path d="M176 32H192.823L210.56 64.4571L228.114 32H244.571V96H228.114V59.3371L214.857 83.6571H205.714L192.457 59.3371V96H176V32Z" fill="#2E3137"/><path d="M257.339 32H273.796V82.4686H301.225V96H257.339V32Z" fill="#2E3137"/><path d="M309.482 32H356.111V44.6171H325.939V57.1429H353.368V69.0286H325.939V83.3829H356.111V96H309.482V32Z" fill="#2E3137"/><path d="M366.625 32H383.448L401.185 64.4571L418.739 32H435.196V96H418.739V59.3371L405.482 83.6571H396.339L383.082 59.3371V96H366.625V32Z" fill="#2E3137"/><defs><clipPath id="clip0_509_649"><rect width="128" height="108" fill="#fff" transform="translate(8 10)"/></clipPath></defs></svg>