<svg fill="none" height="128" viewBox="0 0 540 128" width="540" xmlns="http://www.w3.org/2000/svg" xmlns:xlink="http://www.w3.org/1999/xlink"><clipPath id="a"><path d="m8 6h116v116h-116z"/></clipPath><g fill="#2e3137"><g clip-path="url(#a)"><path d="m107.324 44.6889c.352-.3522.621-.7665.828-1.243h-.021c.295-.7124.372-1.4963.22-2.2523-.151-.756-.523-1.4501-1.069-1.9944l-16.5102-16.5102c-.3617-.362-.7912-.6492-1.2639-.8452-.4728-.1959-.9795-.2968-1.4913-.2968-.5117 0-1.0184.1009-1.4912.2968-.4727.196-.9022.4832-1.2639.8452l-5.0301 5.0301c-.7307.7307-1.9153.7307-2.646 0l-8.3704-8.3704c-.7323-.7323-.7304-1.9203.0043-2.6502l5.0422-5.0094c3.6507-3.64324 8.5976-5.68934 13.7551-5.68934 5.1576 0 10.1045 2.0461 13.7554 5.68934l16.531 16.5309c3.643 3.6507 5.689 8.5976 5.689 13.7551 0 5.1576-2.046 10.1045-5.689 13.7551l-38.1325 38.1323c-.7312.7311-1.9168.7306-2.6472-.0013l-8.3565-8.3722c-.7295-.7308-.729-1.9145.0012-2.6447z"/><path d="m51.7839 100.228-5.0326 5.033c-.3617.362-.7912.649-1.2639.845-.4728.196-.9795.297-1.4913.297-.5117 0-1.0184-.101-1.4912-.297-.4727-.196-.9022-.483-1.2639-.845l-16.5103-16.5103c-.362-.3617-.6492-.7912-.8452-1.2639s-.2968-.9795-.2968-1.4912c0-.5118.1008-1.0185.2968-1.4913.196-.4727.4832-.9022.8452-1.2639l38.0953-38.1153c.7293-.7297.7303-1.9121.0021-2.6431l-8.3389-8.3704c-.7301-.7328-1.9164-.7341-2.6481-.0028l-38.1518 38.1317c-3.6432 3.6506-5.6893 8.5975-5.6893 13.7551 0 5.1575 2.0461 10.1044 5.6893 13.7551l16.531 16.5313c3.6507 3.643 8.5976 5.689 13.7551 5.689 5.1576 0 10.1045-2.046 13.7551-5.689l5.0812-5.049c.7357-.731.7365-1.921.0018-2.652l-8.3861-8.355c-.7311-.7284-1.9138-.7273-2.6435.002z"/><path d="m46.7373 22.7164c-.3617-.362-.7912-.6492-1.2639-.8452-.4728-.1959-.9795-.2968-1.4913-.2968-.5117 0-1.0184.1009-1.4912.2968-.4727.196-.9022.4832-1.2639.8452l-16.5103 16.5103c-.362.3617-.6492.7912-.8452 1.2639-.1959.4728-.2968.9795-.2968 1.4913 0 .5117.1009 1.0184.2968 1.4912.196.4727.4832.9022.8452 1.2639l5.0521 5.0521c.7302.7302.7307 1.9138.0012 2.6447l-8.3565 8.3722c-.7304.7318-1.916.7324-2.6471.0012l-5.0704-5.0703c-3.6432-3.6506-5.68926-8.5975-5.68926-13.755 0-5.1576 2.04606-10.1045 5.68926-13.7551l16.531-16.531c3.6507-3.64321 8.5976-5.68931 13.7551-5.68931 5.1576 0 10.1045 2.0461 13.7552 5.68931l38.1121 38.092c.731.7306.7311 1.9155.0003 2.6463l-8.3743 8.3744c-.7307.7306-1.9153.7306-2.646 0z"/><path d="m47.1761 67.1964 38.0921 38.0916c.3617.362.7912.65 1.2639.846.4728.196.9795.296 1.4913.296.5117 0 1.0184-.1 1.4912-.296.4727-.196.9022-.484 1.2639-.846l16.5105-16.5098c.362-.3617.649-.7912.845-1.264.196-.4727.297-.9794.297-1.4912 0-.5117-.101-1.0185-.297-1.4912-.196-.4728-.483-.9023-.845-1.264l-5.052-5.052c-.73-.7302-.731-1.9139-.002-2.6447l8.357-8.3722c.73-.7319 1.916-.7324 2.647-.0013l5.07 5.0703c3.644 3.6507 5.69 8.5976 5.69 13.7551 0 5.1576-2.046 10.1044-5.69 13.7551l-16.531 16.5309c-3.6502 3.643-8.5971 5.689-13.7546 5.689-5.1576 0-10.1045-2.046-13.7552-5.689l-38.1121-38.092c-.731-.7306-.7311-1.9155-.0003-2.6463l8.3743-8.3743c.7307-.7307 1.9153-.7307 2.646 0z"/></g><path d="m165.174 42.9641h13.903v47.8619h-13.903zm6.951-4.5152c-2.588 0-4.604-.6623-6.049-1.9868-1.384-1.3846-2.076-3.1305-2.076-5.2377 0-2.1071.692-3.8229 2.076-5.1474 1.445-1.3847 3.461-2.077 6.049-2.077s4.574.6923 5.959 2.077c1.444 1.3245 2.166 3.0403 2.166 5.1474 0 2.1072-.722 3.8531-2.166 5.2377-1.385 1.3245-3.371 1.9868-5.959 1.9868z"/><path d="m209.358 91.3679c-3.01 0-5.598-.271-7.764-.8128-2.167-.602-3.942-1.5653-5.327-2.8898-1.384-1.3244-2.407-3.0402-3.069-5.1474-.662-2.1673-.993-4.8163-.993-7.9469v-20.2284h-5.869v-11.3785h5.869v-10.8366h13.903v10.8366h10.924v11.3785h-10.924v17.9708c0 2.7092.421 4.6357 1.264 5.7796.902 1.1438 2.618 1.7158 5.146 1.7158 1.805 0 3.611-.0903 5.416-.271v11.3785c-1.143.1204-2.347.2107-3.611.2709-1.264.1205-2.919.1807-4.965.1807z"/><path d="m248.213 92c-3.491 0-6.771-.4816-9.84-1.4449-3.01-1.0234-5.628-2.5586-7.855-4.6056-2.226-2.0469-3.972-4.6055-5.236-7.6759-1.264-3.1306-1.896-6.7729-1.896-10.927v-1.8061c0-3.9734.602-7.4351 1.806-10.3851 1.264-2.95 2.949-5.4184 5.056-7.4051 2.166-1.9867 4.694-3.4617 7.583-4.4249 2.949-1.0235 6.109-1.5352 9.479-1.5352 7.885 0 13.843 2.0469 17.876 6.1407 4.032 4.0337 6.049 9.9035 6.049 17.6096v4.9668h-33.584c.06 1.8663.391 3.4617.993 4.7862.602 1.2643 1.384 2.3178 2.347 3.1607.963.8428 2.046 1.475 3.25 1.8964 1.264.3612 2.588.5418 3.972.5418 2.648 0 4.725-.3913 6.23-1.1739 1.564-.8429 2.588-1.9567 3.069-3.3413h12.82c-.963 5.2377-3.341 9.1509-7.132 11.7397-3.792 2.5887-8.788 3.8831-14.987 3.8831zm-.451-39.1926c-1.264 0-2.498.1505-3.702.4516-1.143.301-2.196.8127-3.159 1.5352-.903.6622-1.655 1.5352-2.257 2.6188-.542 1.0837-.843 2.4082-.903 3.9735h19.861c0-1.6857-.27-3.0704-.812-4.1541s-1.264-1.9566-2.167-2.6189c-.842-.6622-1.866-1.1137-3.069-1.3545-1.204-.3011-2.468-.4516-3.792-.4516z"/><path d="m278.443 42.9641h12.82v6.502c.361-.7826.902-1.6255 1.625-2.5285.782-.9031 1.685-1.7459 2.708-2.5286 1.023-.7826 2.167-1.4148 3.431-1.8964 1.324-.4816 2.738-.7224 4.243-.7224 1.023 0 1.835.0602 2.437.1806s1.144.2408 1.625.3612v12.0106c-.301-.1806-.993-.3913-2.076-.6321s-2.347-.3612-3.792-.3612c-3.19 0-5.507.9331-6.951 2.7994-1.445 1.8663-2.167 4.124-2.167 6.7729v27.9044h-13.903z"/><path d="m327.194 92c-2.588 0-4.905-.3913-6.952-1.174-1.986-.7826-3.671-1.8362-5.055-3.1607-1.385-1.3846-2.438-2.98-3.16-4.7862-.722-1.8663-1.083-3.8831-1.083-6.0504 0-4.7561 1.444-8.3984 4.333-10.927 2.949-2.5285 7.373-3.7928 13.271-3.7928h13.632v-1.9867c0-2.8898-.692-4.8765-2.076-5.9602-1.384-1.1439-3.28-1.7158-5.688-1.7158-2.287 0-3.972.3612-5.055 1.0837-1.084.7224-1.686 1.8663-1.806 3.4316h-13.903c.12-2.1673.662-4.1541 1.625-5.9602.963-1.8663 2.317-3.4617 4.063-4.7862 1.805-1.3846 4.002-2.4683 6.59-3.251 2.588-.7826 5.567-1.1739 8.938-1.1739 3.129 0 5.988.3612 8.576 1.0836 2.648.6623 4.905 1.776 6.771 3.3413 1.866 1.5051 3.31 3.4918 4.334 5.9602 1.023 2.4081 1.534 5.3581 1.534 8.8499v17.6096c0 2.5285.061 4.7561.181 6.6826.12 1.8663.301 3.7025.542 5.5086h-13.181c-.121-1.0234-.241-1.9265-.361-2.7091-.061-.7827-.091-1.7459-.091-2.8898-1.444 1.9265-3.46 3.552-6.048 4.8765-2.528 1.2643-5.838 1.8964-9.931 1.8964zm4.514-9.753c2.949 0 5.417-.8428 7.403-2.5285 2.046-1.6857 3.069-4.0036 3.069-6.9536v-1.9867h-10.924c-2.046 0-3.581.5419-4.604 1.6255-.963 1.0837-1.444 2.348-1.444 3.7928 0 1.746.481 3.1908 1.444 4.3347 1.023 1.1439 2.709 1.7158 5.056 1.7158z"/><path d="m384.98 91.3679c-3.009 0-5.597-.271-7.764-.8128-2.167-.602-3.942-1.5653-5.327-2.8898-1.384-1.3244-2.407-3.0402-3.069-5.1474-.662-2.1673-.993-4.8163-.993-7.9469v-20.2284h-5.868v-11.3785h5.868v-10.8366h13.903v10.8366h10.924v11.3785h-10.924v17.9708c0 2.7092.421 4.6357 1.264 5.7796.903 1.1438 2.618 1.7158 5.146 1.7158 1.805 0 3.611-.0903 5.417-.271v11.3785c-1.144.1204-2.348.2107-3.612.2709-1.264.1205-2.919.1807-4.965.1807z"/><path d="m401.717 42.9641h13.903v47.8619h-13.903zm6.951-4.5152c-2.588 0-4.604-.6623-6.048-1.9868-1.385-1.3846-2.077-3.1305-2.077-5.2377 0-2.1071.692-3.8229 2.077-5.1474 1.444-1.3847 3.46-2.077 6.048-2.077 2.589 0 4.575.6923 5.959 2.077 1.444 1.3245 2.167 3.0403 2.167 5.1474 0 2.1072-.723 3.8531-2.167 5.2377-1.384 1.3245-3.37 1.9868-5.959 1.9868z"/><path d="m421.977 42.9641h15.348l12.097 31.8779 11.014-31.8779h13.903l-18.327 47.8619h-13.903z"/><path d="m500.979 92c-3.491 0-6.771-.4816-9.841-1.4449-3.009-1.0234-5.627-2.5586-7.854-4.6056-2.227-2.0469-3.972-4.6055-5.236-7.6759-1.264-3.1306-1.896-6.7729-1.896-10.927v-1.8061c0-3.9734.602-7.4351 1.805-10.3851 1.264-2.95 2.95-5.4184 5.056-7.4051 2.167-1.9867 4.695-3.4617 7.584-4.4249 2.949-1.0235 6.108-1.5352 9.479-1.5352 7.884 0 13.843 2.0469 17.875 6.1407 4.033 4.0337 6.049 9.9035 6.049 17.6096v4.9668h-33.584c.06 1.8663.391 3.4617.993 4.7862.602 1.2643 1.384 2.3178 2.347 3.1607.963.8428 2.047 1.475 3.25 1.8964 1.264.3612 2.588.5418 3.973.5418 2.648 0 4.724-.3913 6.229-1.1739 1.565-.8429 2.588-1.9567 3.07-3.3413h12.819c-.963 5.2377-3.34 9.1509-7.132 11.7397-3.792 2.5887-8.787 3.8831-14.986 3.8831zm-.452-39.1926c-1.264 0-2.497.1505-3.701.4516-1.144.301-2.197.8127-3.16 1.5352-.903.6622-1.655 1.5352-2.257 2.6188-.542 1.0837-.843 2.4082-.903 3.9735h19.862c0-1.6857-.271-3.0704-.813-4.1541-.541-1.0837-1.264-1.9566-2.166-2.6189-.843-.6622-1.866-1.1137-3.07-1.3545-1.204-.3011-2.468-.4516-3.792-.4516z"/></g></svg>