<svg width="540" height="128" viewBox="0 0 540 128" fill="none" xmlns="http://www.w3.org/2000/svg"><g clip-path="url(#clip0_97_687)"><path d="M107.324 44.6889C107.676 44.3367 107.945 43.9224 108.152 43.4459H108.131C108.426 42.7335 108.503 41.9496 108.351 41.1936C108.2 40.4376 107.828 39.7435 107.282 39.1992L90.7718 22.689C90.4101 22.327 89.9806 22.0398 89.5079 21.8438C89.0351 21.6479 88.5284 21.547 88.0166 21.547C87.5049 21.547 86.9982 21.6479 86.5254 21.8438C86.0527 22.0398 85.6232 22.327 85.2615 22.689L80.2314 27.7191C79.5007 28.4498 78.3161 28.4498 77.5854 27.7191L69.215 19.3487C68.4827 18.6164 68.4846 17.4284 69.2193 16.6985L74.2615 11.6891C77.9122 8.04586 82.8591 5.99976 88.0166 5.99976C93.1742 5.99976 98.1211 8.04586 101.772 11.6891L118.303 28.22C121.946 31.8707 123.992 36.8176 123.992 41.9751C123.992 47.1327 121.946 52.0796 118.303 55.7302L80.1705 93.8625C79.4393 94.5936 78.2537 94.5931 77.5233 93.8612L69.1668 85.489C68.4373 84.7582 68.4378 83.5745 69.168 82.8443L107.324 44.6889Z" fill="#fff"/><path d="M51.7839 100.228L46.7513 105.261C46.3896 105.623 45.9601 105.91 45.4874 106.106C45.0146 106.302 44.5079 106.403 43.9961 106.403C43.4844 106.403 42.9777 106.302 42.5049 106.106C42.0322 105.91 41.6027 105.623 41.241 105.261L24.7307 88.7507C24.3687 88.389 24.0815 87.9595 23.8855 87.4868C23.6895 87.0141 23.5887 86.5073 23.5887 85.9956C23.5887 85.4838 23.6895 84.9771 23.8855 84.5043C24.0815 84.0316 24.3687 83.6021 24.7307 83.2404L62.826 45.1251C63.5553 44.3954 63.5563 43.213 62.8281 42.482L54.4892 34.1116C53.7591 33.3788 52.5728 33.3775 51.8411 34.1088L13.6893 72.2405C10.0461 75.8911 8 80.838 8 85.9956C8 91.1531 10.0461 96.1 13.6893 99.7507L30.2203 116.282C33.871 119.925 38.8179 121.971 43.9754 121.971C49.133 121.971 54.0799 119.925 57.7305 116.282L62.8117 111.233C63.5474 110.502 63.5482 109.312 62.8135 108.581L54.4274 100.226C53.6963 99.4976 52.5136 99.4987 51.7839 100.228Z" fill="#fff"/><path d="M46.7373 22.7164C46.3756 22.3544 45.9461 22.0672 45.4734 21.8712C45.0006 21.6753 44.4939 21.5744 43.9821 21.5744C43.4704 21.5744 42.9637 21.6753 42.4909 21.8712C42.0182 22.0672 41.5887 22.3544 41.227 22.7164L24.7167 39.2267C24.3547 39.5884 24.0675 40.0179 23.8715 40.4906C23.6756 40.9634 23.5747 41.4701 23.5747 41.9819C23.5747 42.4936 23.6756 43.0003 23.8715 43.4731C24.0675 43.9458 24.3547 44.3753 24.7167 44.737L29.7688 49.7891C30.499 50.5193 30.4995 51.7029 29.77 52.4338L21.4135 60.806C20.6831 61.5378 19.4975 61.5384 18.7664 60.8072L13.696 55.7369C10.0528 52.0863 8.00674 47.1394 8.00674 41.9819C8.00674 36.8243 10.0528 31.8774 13.696 28.2268L30.227 11.6958C33.8777 8.05259 38.8246 6.00649 43.9821 6.00649C49.1397 6.00649 54.0866 8.05259 57.7373 11.6958L95.8494 49.7878C96.5804 50.5184 96.5805 51.7033 95.8497 52.4341L87.4754 60.8085C86.7447 61.5391 85.5601 61.5391 84.8294 60.8085L46.7373 22.7164Z" fill="#fff"/><path d="M47.1761 67.1964L85.2682 105.288C85.6299 105.65 86.0594 105.938 86.5321 106.134C87.0049 106.33 87.5116 106.43 88.0234 106.43C88.5351 106.43 89.0418 106.33 89.5146 106.134C89.9873 105.938 90.4168 105.65 90.7785 105.288L107.289 88.7782C107.651 88.4165 107.938 87.987 108.134 87.5142C108.33 87.0415 108.431 86.5348 108.431 86.023C108.431 85.5113 108.33 85.0045 108.134 84.5318C107.938 84.059 107.651 83.6295 107.289 83.2678L102.237 78.2158C101.507 77.4856 101.506 76.3019 102.235 75.5711L110.592 67.1989C111.322 66.467 112.508 66.4665 113.239 67.1976L118.309 72.2679C121.953 75.9186 123.999 80.8655 123.999 86.023C123.999 91.1806 121.953 96.1274 118.309 99.7781L101.778 116.309C98.1278 119.952 93.1809 121.998 88.0234 121.998C82.8658 121.998 77.9189 119.952 74.2682 116.309L36.1561 78.217C35.4251 77.4864 35.425 76.3015 36.1558 75.5707L44.5301 67.1964C45.2608 66.4657 46.4454 66.4657 47.1761 67.1964Z" fill="#fff"/></g><path d="M165.174 42.9641H179.077V90.826H165.174V42.9641ZM172.125 38.4489C169.537 38.4489 167.521 37.7866 166.076 36.4621C164.692 35.0775 164 33.3316 164 31.2244C164 29.1173 164.692 27.4015 166.076 26.077C167.521 24.6923 169.537 24 172.125 24C174.713 24 176.699 24.6923 178.084 26.077C179.528 27.4015 180.25 29.1173 180.25 31.2244C180.25 33.3316 179.528 35.0775 178.084 36.4621C176.699 37.7866 174.713 38.4489 172.125 38.4489Z" fill="#fff"/><path d="M209.358 91.3679C206.348 91.3679 203.76 91.0969 201.594 90.5551C199.427 89.9531 197.652 88.9898 196.267 87.6653C194.883 86.3409 193.86 84.6251 193.198 82.5179C192.536 80.3506 192.205 77.7016 192.205 74.571V54.3426H186.336V42.9641H192.205V32.1275H206.108V42.9641H217.032V54.3426H206.108V72.3134C206.108 75.0226 206.529 76.9491 207.372 78.093C208.274 79.2368 209.99 79.8088 212.518 79.8088C214.323 79.8088 216.129 79.7185 217.934 79.5378V90.9163C216.791 91.0367 215.587 91.127 214.323 91.1872C213.059 91.3077 211.404 91.3679 209.358 91.3679Z" fill="#fff"/><path d="M248.213 92C244.722 92 241.442 91.5184 238.373 90.5551C235.363 89.5317 232.745 87.9965 230.518 85.9495C228.292 83.9026 226.546 81.344 225.282 78.2736C224.018 75.143 223.386 71.5007 223.386 67.3466V65.5405C223.386 61.5671 223.988 58.1054 225.192 55.1554C226.456 52.2054 228.141 49.737 230.248 47.7503C232.414 45.7636 234.942 44.2886 237.831 43.3254C240.78 42.3019 243.94 41.7902 247.31 41.7902C255.195 41.7902 261.153 43.8371 265.186 47.9309C269.218 51.9646 271.235 57.8344 271.235 65.5405V70.5073H237.651C237.711 72.3736 238.042 73.969 238.644 75.2935C239.246 76.5578 240.028 77.6113 240.991 78.4542C241.954 79.297 243.037 79.9292 244.241 80.3506C245.505 80.7118 246.829 80.8924 248.213 80.8924C250.861 80.8924 252.938 80.5011 254.443 79.7185C256.007 78.8756 257.031 77.7618 257.512 76.3772H270.332C269.369 81.6149 266.991 85.5281 263.2 88.1169C259.408 90.7056 254.412 92 248.213 92ZM247.762 52.8074C246.498 52.8074 245.264 52.9579 244.06 53.259C242.917 53.56 241.864 54.0717 240.901 54.7942C239.998 55.4564 239.246 56.3294 238.644 57.413C238.102 58.4967 237.801 59.8212 237.741 61.3865H257.602C257.602 59.7008 257.332 58.3161 256.79 57.2324C256.248 56.1487 255.526 55.2758 254.623 54.6135C253.781 53.9513 252.757 53.4998 251.554 53.259C250.35 52.9579 249.086 52.8074 247.762 52.8074Z" fill="#fff"/><path d="M278.443 42.9641H291.263V49.4661C291.624 48.6835 292.165 47.8406 292.888 46.9376C293.67 46.0345 294.573 45.1917 295.596 44.409C296.619 43.6264 297.763 42.9942 299.027 42.5126C300.351 42.031 301.765 41.7902 303.27 41.7902C304.293 41.7902 305.105 41.8504 305.707 41.9708C306.309 42.0912 306.851 42.2116 307.332 42.332V54.3426C307.031 54.162 306.339 53.9513 305.256 53.7105C304.173 53.4697 302.909 53.3493 301.464 53.3493C298.274 53.3493 295.957 54.2824 294.513 56.1487C293.068 58.015 292.346 60.2727 292.346 62.9216V90.826H278.443V42.9641Z" fill="#fff"/><path d="M327.194 92C324.606 92 322.289 91.6087 320.242 90.826C318.256 90.0434 316.571 88.9898 315.187 87.6653C313.802 86.2807 312.749 84.6853 312.027 82.8791C311.305 81.0128 310.944 78.996 310.944 76.8287C310.944 72.0726 312.388 68.4303 315.277 65.9017C318.226 63.3732 322.65 62.1089 328.548 62.1089H342.18V60.1222C342.18 57.2324 341.488 55.2457 340.104 54.162C338.72 53.0181 336.824 52.4462 334.416 52.4462C332.129 52.4462 330.444 52.8074 329.361 53.5299C328.277 54.2523 327.675 55.3962 327.555 56.9615H313.652C313.772 54.7942 314.314 52.8074 315.277 51.0013C316.24 49.135 317.594 47.5396 319.34 46.2151C321.145 44.8305 323.342 43.7468 325.93 42.9641C328.518 42.1815 331.497 41.7902 334.868 41.7902C337.997 41.7902 340.856 42.1514 343.444 42.8738C346.092 43.5361 348.349 44.6498 350.215 46.2151C352.081 47.7202 353.525 49.7069 354.549 52.1753C355.572 54.5834 356.083 57.5334 356.083 61.0252V78.6348C356.083 81.1633 356.144 83.3909 356.264 85.3174C356.384 87.1837 356.565 89.0199 356.806 90.826H343.625C343.504 89.8026 343.384 88.8995 343.264 88.1169C343.203 87.3342 343.173 86.371 343.173 85.2271C341.729 87.1536 339.713 88.7791 337.125 90.1036C334.597 91.3679 331.287 92 327.194 92ZM331.708 82.247C334.657 82.247 337.125 81.4042 339.111 79.7185C341.157 78.0328 342.18 75.7149 342.18 72.7649V70.7782H331.256C329.21 70.7782 327.675 71.3201 326.652 72.4037C325.689 73.4874 325.208 74.7517 325.208 76.1965C325.208 77.9425 325.689 79.3873 326.652 80.5312C327.675 81.6751 329.361 82.247 331.708 82.247Z" fill="#fff"/><path d="M384.98 91.3679C381.971 91.3679 379.383 91.0969 377.216 90.5551C375.049 89.9531 373.274 88.9898 371.889 87.6653C370.505 86.3409 369.482 84.6251 368.82 82.5179C368.158 80.3506 367.827 77.7016 367.827 74.571V54.3426H361.959V42.9641H367.827V32.1275H381.73V42.9641H392.654V54.3426H381.73V72.3134C381.73 75.0226 382.151 76.9491 382.994 78.093C383.897 79.2368 385.612 79.8088 388.14 79.8088C389.945 79.8088 391.751 79.7185 393.557 79.5378V90.9163C392.413 91.0367 391.209 91.127 389.945 91.1872C388.681 91.3077 387.026 91.3679 384.98 91.3679Z" fill="#fff"/><path d="M401.717 42.9641H415.62V90.826H401.717V42.9641ZM408.668 38.4489C406.08 38.4489 404.064 37.7866 402.62 36.4621C401.235 35.0775 400.543 33.3316 400.543 31.2244C400.543 29.1173 401.235 27.4015 402.62 26.077C404.064 24.6923 406.08 24 408.668 24C411.257 24 413.243 24.6923 414.627 26.077C416.071 27.4015 416.794 29.1173 416.794 31.2244C416.794 33.3316 416.071 35.0775 414.627 36.4621C413.243 37.7866 411.257 38.4489 408.668 38.4489Z" fill="#fff"/><path d="M421.977 42.9641H437.325L449.422 74.842L460.436 42.9641H474.339L456.012 90.826H442.109L421.977 42.9641Z" fill="#fff"/><path d="M500.979 92C497.488 92 494.208 91.5184 491.138 90.5551C488.129 89.5317 485.511 87.9965 483.284 85.9495C481.057 83.9026 479.312 81.344 478.048 78.2736C476.784 75.143 476.152 71.5007 476.152 67.3466V65.5405C476.152 61.5671 476.754 58.1054 477.957 55.1554C479.221 52.2054 480.907 49.737 483.013 47.7503C485.18 45.7636 487.708 44.2886 490.597 43.3254C493.546 42.3019 496.705 41.7902 500.076 41.7902C507.96 41.7902 513.919 43.8371 517.951 47.9309C521.984 51.9646 524 57.8344 524 65.5405V70.5073H490.416C490.476 72.3736 490.807 73.969 491.409 75.2935C492.011 76.5578 492.793 77.6113 493.756 78.4542C494.719 79.297 495.803 79.9292 497.006 80.3506C498.27 80.7118 499.594 80.8924 500.979 80.8924C503.627 80.8924 505.703 80.5011 507.208 79.7185C508.773 78.8756 509.796 77.7618 510.278 76.3772H523.097C522.134 81.6149 519.757 85.5281 515.965 88.1169C512.173 90.7056 507.178 92 500.979 92ZM500.527 52.8074C499.263 52.8074 498.03 52.9579 496.826 53.259C495.682 53.56 494.629 54.0717 493.666 54.7942C492.763 55.4564 492.011 56.3294 491.409 57.413C490.867 58.4967 490.566 59.8212 490.506 61.3865H510.368C510.368 59.7008 510.097 58.3161 509.555 57.2324C509.014 56.1487 508.291 55.2758 507.389 54.6135C506.546 53.9513 505.523 53.4998 504.319 53.259C503.115 52.9579 501.851 52.8074 500.527 52.8074Z" fill="#fff"/><defs><clipPath id="clip0_97_687"><rect width="116" height="116" fill="#fff" transform="translate(8 6)"/></clipPath></defs></svg>