<svg width="540" height="128" viewBox="0 0 540 128" fill="none" xmlns="http://www.w3.org/2000/svg"><g clip-path="url(#clip0_63_480)"><path d="M45.4734 21.8713C45.9461 22.0672 46.3756 22.3544 46.7373 22.7165L54.9821 30.9613L55.0235 30.9405L66.0235 41.9612L66.0027 41.9819L88.0233 64.0025L99.044 52.9818L57.7372 11.6958C54.0866 8.05263 49.1397 6.00653 43.9821 6.00653C38.8246 6.00653 33.8777 8.05263 30.227 11.6958L13.6961 28.2268C10.0528 31.8775 8.00674 36.8244 8.00674 41.9819C8.00674 47.1394 10.0528 52.0863 13.6961 55.737L21.9615 64.0025L32.9615 52.9818L24.7167 44.7371C24.3547 44.3754 24.0675 43.9459 23.8715 43.4731C23.6756 43.0004 23.5747 42.4936 23.5747 41.9819C23.5747 41.4701 23.6756 40.9634 23.8715 40.4907C24.0675 40.0179 24.3547 39.5884 24.7167 39.2267L41.227 22.7165C41.5887 22.3544 42.0182 22.0672 42.4909 21.8713C42.9637 21.6753 43.4704 21.5745 43.9821 21.5745C44.4939 21.5745 45.0006 21.6753 45.4734 21.8713Z" fill="url(#paint0_linear_63_480)"/><path d="M85.2682 105.288L77.0234 97.0437L76.982 97.0644L65.982 86.0438L66.0027 86.0231L43.9821 64.0025L32.9615 75.0231L74.2682 116.309C77.9189 119.952 82.8658 121.998 88.0234 121.998C93.1809 121.998 98.1278 119.952 101.778 116.309L118.309 99.7781C121.953 96.1275 123.999 91.1806 123.999 86.0231C123.999 80.8655 121.953 75.9186 118.309 72.268L110.044 64.0025L99.044 75.0231L107.289 83.2679C107.651 83.6296 107.938 84.0591 108.134 84.5318C108.33 85.0046 108.431 85.5113 108.431 86.0231C108.431 86.5348 108.33 87.0415 108.134 87.5143C107.938 87.987 107.651 88.4165 107.289 88.7782L90.7785 105.288C90.4168 105.65 89.9873 105.938 89.5146 106.134C89.0418 106.33 88.5351 106.43 88.0234 106.43C87.5116 106.43 87.0049 106.33 86.5321 106.134C86.0594 105.938 85.6299 105.65 85.2682 105.288Z" fill="url(#paint1_linear_63_480)"/><path fill-rule="evenodd" clip-rule="evenodd" d="M108.152 43.446C107.945 43.9224 107.676 44.3368 107.323 44.6889L65.9753 86.0371L76.9752 97.0577L118.303 55.7303C121.946 52.0796 123.992 47.1327 123.992 41.9752C123.992 36.8176 121.946 31.8708 118.303 28.2201L101.772 11.6891C98.1211 8.04592 93.1742 5.99982 88.0166 5.99982C82.8591 5.99982 77.9122 8.04592 74.2615 11.6891L66.0167 19.8925L77.0374 30.9131L85.2615 22.6891C85.6231 22.327 86.0526 22.0398 86.5254 21.8439C86.9981 21.6479 87.5049 21.5471 88.0166 21.5471C88.5284 21.5471 89.0351 21.6479 89.5079 21.8439C89.9806 22.0398 90.4101 22.327 90.7718 22.6891L107.282 39.1993C107.828 39.7436 108.2 40.4377 108.351 41.1937C108.503 41.9497 108.426 42.7336 108.131 43.446H108.152ZM46.7513 105.261L54.9754 97.037L66.0167 108.037L57.7305 116.282C54.0798 119.925 49.133 121.971 43.9754 121.971C38.8179 121.971 33.871 119.925 30.2203 116.282L13.6893 99.7507C10.0461 96.1001 8 91.1532 8 85.9956C8 80.8381 10.0461 75.8912 13.6893 72.2405L55.0375 30.9131L66.0167 41.9338L24.7307 83.2405C24.3686 83.6022 24.0814 84.0317 23.8855 84.5044C23.6895 84.9772 23.5887 85.4839 23.5887 85.9956C23.5887 86.5074 23.6895 87.0141 23.8855 87.4869C24.0814 87.9596 24.3686 88.3891 24.7307 88.7508L41.241 105.261C41.6026 105.623 42.0321 105.91 42.5049 106.106C42.9776 106.302 43.4844 106.403 43.9961 106.403C44.5079 106.403 45.0146 106.302 45.4874 106.106C45.9601 105.91 46.3896 105.623 46.7513 105.261V105.261Z" fill="url(#paint2_linear_63_480)"/></g><g clip-path="url(#clip1_63_480)"><path d="M165.174 42.9643H179.077V90.8262H165.174V42.9643ZM172.125 38.449C169.537 38.449 167.521 37.7868 166.076 36.4623C164.692 35.0776 164 33.3317 164 31.2246C164 29.1174 164.692 27.4016 166.076 26.0771C167.521 24.6925 169.537 24.0001 172.125 24.0001C174.713 24.0001 176.699 24.6925 178.084 26.0771C179.528 27.4016 180.25 29.1174 180.25 31.2246C180.25 33.3317 179.528 35.0776 178.084 36.4623C176.699 37.7868 174.713 38.449 172.125 38.449Z" fill="#2E3137"/><path d="M209.358 91.368C206.348 91.368 203.76 91.0971 201.594 90.5552C199.427 89.9532 197.652 88.9899 196.267 87.6655C194.883 86.341 193.86 84.6252 193.198 82.518C192.536 80.3507 192.205 77.7018 192.205 74.5712V54.3428H186.336V42.9643H192.205V32.1276H206.108V42.9643H217.032V54.3428H206.108V72.3135C206.108 75.0227 206.529 76.9492 207.372 78.0931C208.274 79.237 209.99 79.8089 212.518 79.8089C214.323 79.8089 216.129 79.7186 217.934 79.538V90.9165C216.791 91.0369 215.587 91.1272 214.323 91.1874C213.059 91.3078 211.404 91.368 209.358 91.368Z" fill="#2E3137"/><path d="M248.213 92.0001C244.722 92.0001 241.442 91.5185 238.373 90.5552C235.363 89.5318 232.745 87.9966 230.518 85.9497C228.292 83.9027 226.546 81.3441 225.282 78.2737C224.018 75.1431 223.386 71.5008 223.386 67.3467V65.5406C223.386 61.5672 223.988 58.1055 225.192 55.1555C226.456 52.2055 228.141 49.7372 230.248 47.7505C232.414 45.7637 234.942 44.2887 237.831 43.3255C240.78 42.302 243.94 41.7903 247.31 41.7903C255.195 41.7903 261.153 43.8372 265.186 47.9311C269.218 51.9647 271.235 57.8346 271.235 65.5406V70.5074H237.651C237.711 72.3737 238.042 73.9691 238.644 75.2936C239.246 76.5579 240.028 77.6115 240.991 78.4543C241.954 79.2972 243.037 79.9293 244.241 80.3507C245.505 80.7119 246.829 80.8926 248.213 80.8926C250.861 80.8926 252.938 80.5012 254.443 79.7186C256.007 78.8757 257.031 77.762 257.512 76.3773H270.332C269.369 81.615 266.991 85.5282 263.2 88.117C259.408 90.7057 254.412 92.0001 248.213 92.0001ZM247.762 52.8076C246.498 52.8076 245.264 52.9581 244.06 53.2591C242.917 53.5601 241.864 54.0718 240.901 54.7943C239.998 55.4565 239.246 56.3295 238.644 57.4131C238.102 58.4968 237.801 59.8213 237.741 61.3866H257.602C257.602 59.7009 257.332 58.3162 256.79 57.2325C256.248 56.1489 255.526 55.2759 254.623 54.6137C253.781 53.9514 252.757 53.4999 251.554 53.2591C250.35 52.9581 249.086 52.8076 247.762 52.8076Z" fill="#2E3137"/><path d="M278.443 42.9643H291.263V49.4663C291.624 48.6836 292.165 47.8408 292.888 46.9377C293.67 46.0346 294.573 45.1918 295.596 44.4092C296.619 43.6265 297.763 42.9944 299.027 42.5127C300.351 42.0311 301.765 41.7903 303.27 41.7903C304.293 41.7903 305.105 41.8505 305.707 41.9709C306.309 42.0913 306.851 42.2117 307.332 42.3321V54.3428C307.031 54.1621 306.339 53.9514 305.256 53.7106C304.173 53.4698 302.909 53.3494 301.464 53.3494C298.274 53.3494 295.957 54.2825 294.513 56.1489C293.068 58.0152 292.346 60.2728 292.346 62.9218V90.8262H278.443V42.9643Z" fill="#2E3137"/><path d="M327.194 92.0001C324.606 92.0001 322.289 91.6088 320.242 90.8262C318.256 90.0435 316.571 88.9899 315.187 87.6655C313.802 86.2808 312.749 84.6854 312.027 82.8793C311.305 81.013 310.944 78.9961 310.944 76.8288C310.944 72.0727 312.388 68.4304 315.277 65.9018C318.226 63.3733 322.65 62.109 328.548 62.109H342.18V60.1223C342.18 57.2325 341.488 55.2458 340.104 54.1621C338.72 53.0183 336.824 52.4463 334.416 52.4463C332.129 52.4463 330.444 52.8076 329.361 53.53C328.277 54.2524 327.675 55.3963 327.555 56.9616H313.652C313.772 54.7943 314.314 52.8076 315.277 51.0014C316.24 49.1351 317.594 47.5397 319.34 46.2153C321.145 44.8306 323.342 43.7469 325.93 42.9643C328.518 42.1816 331.497 41.7903 334.868 41.7903C337.997 41.7903 340.856 42.1515 343.444 42.874C346.092 43.5362 348.349 44.65 350.215 46.2153C352.081 47.7204 353.525 49.7071 354.549 52.1754C355.572 54.5836 356.083 57.5335 356.083 61.0254V78.6349C356.083 81.1635 356.144 83.391 356.264 85.3175C356.384 87.1838 356.565 89.02 356.806 90.8262H343.625C343.504 89.8027 343.384 88.8996 343.264 88.117C343.203 87.3343 343.173 86.3711 343.173 85.2272C341.729 87.1537 339.713 88.7792 337.125 90.1037C334.597 91.368 331.287 92.0001 327.194 92.0001ZM331.708 82.2471C334.657 82.2471 337.125 81.4043 339.111 79.7186C341.157 78.0329 342.18 75.715 342.18 72.7651V70.7783H331.256C329.21 70.7783 327.675 71.3202 326.652 72.4038C325.689 73.4875 325.208 74.7518 325.208 76.1967C325.208 77.9426 325.689 79.3875 326.652 80.5313C327.675 81.6752 329.361 82.2471 331.708 82.2471Z" fill="#2E3137"/><path d="M384.98 91.368C381.971 91.368 379.383 91.0971 377.216 90.5552C375.049 89.9532 373.274 88.9899 371.889 87.6655C370.505 86.341 369.482 84.6252 368.82 82.518C368.158 80.3507 367.827 77.7018 367.827 74.5712V54.3428H361.959V42.9643H367.827V32.1276H381.73V42.9643H392.654V54.3428H381.73V72.3135C381.73 75.0227 382.151 76.9492 382.994 78.0931C383.897 79.237 385.612 79.8089 388.14 79.8089C389.945 79.8089 391.751 79.7186 393.557 79.538V90.9165C392.413 91.0369 391.209 91.1272 389.945 91.1874C388.681 91.3078 387.026 91.368 384.98 91.368Z" fill="#2E3137"/><path d="M401.717 42.9643H415.62V90.8262H401.717V42.9643ZM408.668 38.449C406.08 38.449 404.064 37.7868 402.62 36.4623C401.235 35.0776 400.543 33.3317 400.543 31.2246C400.543 29.1174 401.235 27.4016 402.62 26.0771C404.064 24.6925 406.08 24.0001 408.668 24.0001C411.257 24.0001 413.243 24.6925 414.627 26.0771C416.071 27.4016 416.794 29.1174 416.794 31.2246C416.794 33.3317 416.071 35.0776 414.627 36.4623C413.243 37.7868 411.257 38.449 408.668 38.449Z" fill="#2E3137"/><path d="M421.977 42.9643H437.325L449.422 74.8421L460.436 42.9643H474.339L456.012 90.8262H442.109L421.977 42.9643Z" fill="#2E3137"/><path d="M500.979 92.0001C497.488 92.0001 494.208 91.5185 491.138 90.5552C488.129 89.5318 485.511 87.9966 483.284 85.9497C481.057 83.9027 479.312 81.3441 478.048 78.2737C476.784 75.1431 476.152 71.5008 476.152 67.3467V65.5406C476.152 61.5672 476.754 58.1055 477.957 55.1555C479.221 52.2055 480.907 49.7372 483.013 47.7505C485.18 45.7637 487.708 44.2887 490.597 43.3255C493.546 42.302 496.705 41.7903 500.076 41.7903C507.96 41.7903 513.919 43.8372 517.951 47.9311C521.984 51.9647 524 57.8346 524 65.5406V70.5074H490.416C490.476 72.3737 490.807 73.9691 491.409 75.2936C492.011 76.5579 492.793 77.6115 493.756 78.4543C494.719 79.2972 495.803 79.9293 497.006 80.3507C498.27 80.7119 499.594 80.8926 500.979 80.8926C503.627 80.8926 505.703 80.5012 507.208 79.7186C508.773 78.8757 509.796 77.762 510.278 76.3773H523.097C522.134 81.615 519.757 85.5282 515.965 88.117C512.173 90.7057 507.178 92.0001 500.979 92.0001ZM500.527 52.8076C499.263 52.8076 498.03 52.9581 496.826 53.2591C495.682 53.5601 494.629 54.0718 493.666 54.7943C492.763 55.4565 492.011 56.3295 491.409 57.4131C490.867 58.4968 490.566 59.8213 490.506 61.3866H510.368C510.368 59.7009 510.097 58.3162 509.555 57.2325C509.014 56.1489 508.291 55.2759 507.389 54.6137C506.546 53.9514 505.523 53.4999 504.319 53.2591C503.115 52.9581 501.851 52.8076 500.527 52.8076Z" fill="#2E3137"/></g><defs><linearGradient id="paint0_linear_63_480" x1="35.965" y1="50.537" x2="90.861" y2="105.434" gradientUnits="userSpaceOnUse"><stop stop-color="#13ADC7"/><stop offset="1" stop-color="#945DD6"/></linearGradient><linearGradient id="paint1_linear_63_480" x1="35.965" y1="50.537" x2="90.861" y2="105.434" gradientUnits="userSpaceOnUse"><stop stop-color="#13ADC7"/><stop offset="1" stop-color="#945DD6"/></linearGradient><linearGradient id="paint2_linear_63_480" x1="87.74" y1="40.18" x2="31.823" y2="96.097" gradientUnits="userSpaceOnUse"><stop stop-color="#F46837"/><stop offset="1" stop-color="#945DD6"/></linearGradient><clipPath id="clip0_63_480"><rect width="116" height="116" fill="#fff" transform="translate(8 6.00006)"/></clipPath><clipPath id="clip1_63_480"><rect width="360" height="80" fill="#fff" transform="translate(164 24.0001)"/></clipPath></defs></svg>