<svg width="540" height="128" fill="none" xmlns="http://www.w3.org/2000/svg"><g clip-path="url(#clip0)" fill="#2E3137"><path d="M107.324 44.689c.352-.352.621-.767.828-1.243h-.021a3.893 3.893 0 0 0-.849-4.247l-16.51-16.51a3.896 3.896 0 0 0-5.51 0l-5.03 5.03c-.731.73-1.916.73-2.647 0l-8.37-8.37a1.871 1.871 0 0 1 .004-2.65l5.043-5.01a19.473 19.473 0 0 1 27.51 0l16.531 16.531a19.473 19.473 0 0 1 0 27.51L80.171 93.863a1.871 1.871 0 0 1-2.648-.002l-8.356-8.372a1.87 1.87 0 0 1 .001-2.645l38.156-38.155zm-55.54 55.539l-5.033 5.033a3.896 3.896 0 0 1-5.51 0l-16.51-16.51a3.896 3.896 0 0 1 0-5.51l38.095-38.116c.73-.73.73-1.912.002-2.643l-8.339-8.37a1.871 1.871 0 0 0-2.648-.003L13.69 72.24a19.472 19.472 0 0 0 0 27.51l16.531 16.532a19.473 19.473 0 0 0 27.51 0l5.082-5.049a1.87 1.87 0 0 0 .002-2.652l-8.387-8.355a1.871 1.871 0 0 0-2.643.002z"/><path d="M46.737 22.716a3.896 3.896 0 0 0-5.51 0l-16.51 16.51a3.896 3.896 0 0 0 0 5.511l5.052 5.052c.73.73.73 1.914.001 2.645l-8.357 8.372a1.87 1.87 0 0 1-2.647.001l-5.07-5.07a19.472 19.472 0 0 1 0-27.51l16.531-16.531a19.473 19.473 0 0 1 27.51 0L95.85 49.788c.731.73.731 1.915 0 2.646l-8.374 8.375c-.73.73-1.915.73-2.646 0L46.737 22.715zm.44 44.48l38.091 38.092a3.899 3.899 0 0 0 2.755 1.142 3.893 3.893 0 0 0 2.755-1.142l16.511-16.51a3.895 3.895 0 0 0 0-5.51l-5.052-5.052a1.872 1.872 0 0 1-.002-2.645l8.357-8.372a1.87 1.87 0 0 1 2.647-.001l5.07 5.07a19.47 19.47 0 0 1 0 27.51l-16.531 16.531a19.471 19.471 0 0 1-27.51 0L36.156 78.217a1.871 1.871 0 0 1 0-2.646l8.374-8.375c.73-.73 1.915-.73 2.646 0z"/></g><path d="M165.174 42.964h13.903v47.862h-13.903V42.964zm6.951-4.515c-2.588 0-4.604-.662-6.049-1.987-1.384-1.385-2.076-3.13-2.076-5.238 0-2.107.692-3.823 2.076-5.147 1.445-1.385 3.461-2.077 6.049-2.077 2.588 0 4.574.692 5.959 2.077 1.444 1.324 2.166 3.04 2.166 5.147 0 2.108-.722 3.854-2.166 5.238-1.385 1.325-3.371 1.987-5.959 1.987zm37.233 52.919c-3.01 0-5.598-.271-7.764-.813-2.167-.602-3.942-1.565-5.327-2.89-1.384-1.324-2.407-3.04-3.069-5.147-.662-2.167-.993-4.816-.993-7.947V54.343h-5.869V42.964h5.869V32.127h13.903v10.837h10.924v11.379h-10.924v17.97c0 2.71.421 4.636 1.264 5.78.902 1.144 2.618 1.716 5.146 1.716 1.805 0 3.611-.09 5.416-.271v11.378c-1.143.12-2.347.211-3.611.271-1.264.12-2.919.18-4.965.18zm38.855.632c-3.491 0-6.771-.482-9.84-1.445-3.01-1.023-5.628-2.559-7.855-4.606-2.226-2.046-3.972-4.605-5.236-7.675-1.264-3.131-1.896-6.773-1.896-10.927V65.54c0-3.974.602-7.436 1.806-10.386 1.264-2.95 2.949-5.418 5.056-7.405 2.166-1.986 4.694-3.461 7.583-4.425 2.949-1.023 6.109-1.535 9.479-1.535 7.885 0 13.843 2.047 17.876 6.14 4.032 4.035 6.049 9.904 6.049 17.61v4.967h-33.584c.06 1.867.391 3.462.993 4.786.602 1.265 1.384 2.318 2.347 3.161a9.814 9.814 0 0 0 3.25 1.897c1.264.36 2.588.541 3.972.541 2.648 0 4.725-.39 6.23-1.173 1.564-.843 2.588-1.957 3.069-3.342h12.82c-.963 5.238-3.341 9.151-7.132 11.74-3.792 2.589-8.788 3.883-14.987 3.883zm-.451-39.193a15.2 15.2 0 0 0-3.702.452 9.068 9.068 0 0 0-3.159 1.535c-.903.662-1.655 1.535-2.257 2.619-.542 1.084-.843 2.408-.903 3.974h19.861c0-1.686-.27-3.07-.812-4.155-.542-1.083-1.264-1.956-2.167-2.618-.842-.663-1.866-1.114-3.069-1.355a15.576 15.576 0 0 0-3.792-.452zm30.681-9.843h12.82v6.502c.361-.782.902-1.625 1.625-2.528a18.164 18.164 0 0 1 2.708-2.529 13.55 13.55 0 0 1 3.431-1.896c1.324-.482 2.738-.723 4.243-.723 1.023 0 1.835.06 2.437.18.602.121 1.144.242 1.625.362v12.01c-.301-.18-.993-.39-2.076-.631-1.083-.241-2.347-.362-3.792-.362-3.19 0-5.507.933-6.951 2.8-1.445 1.866-2.167 4.124-2.167 6.773v27.904h-13.903V42.964zM327.194 92c-2.588 0-4.905-.391-6.952-1.174-1.986-.783-3.671-1.836-5.055-3.16a14.104 14.104 0 0 1-3.16-4.787c-.722-1.866-1.083-3.883-1.083-6.05 0-4.756 1.444-8.399 4.333-10.927 2.949-2.529 7.373-3.793 13.271-3.793h13.632v-1.987c0-2.89-.692-4.876-2.076-5.96-1.384-1.144-3.28-1.716-5.688-1.716-2.287 0-3.972.361-5.055 1.084-1.084.722-1.686 1.866-1.806 3.431h-13.903c.12-2.167.662-4.154 1.625-5.96.963-1.866 2.317-3.461 4.063-4.786 1.805-1.385 4.002-2.468 6.59-3.25 2.588-.784 5.567-1.175 8.938-1.175 3.129 0 5.988.361 8.576 1.084 2.648.662 4.905 1.776 6.771 3.341 1.866 1.505 3.31 3.492 4.334 5.96 1.023 2.408 1.534 5.358 1.534 8.85v17.61c0 2.528.061 4.756.181 6.682.12 1.867.301 3.703.542 5.509h-13.181a80.458 80.458 0 0 0-.361-2.71 38.199 38.199 0 0 1-.091-2.889c-1.444 1.927-3.46 3.552-6.048 4.877-2.528 1.264-5.838 1.896-9.931 1.896zm4.514-9.753c2.949 0 5.417-.843 7.403-2.528 2.046-1.686 3.069-4.004 3.069-6.954v-1.987h-10.924c-2.046 0-3.581.542-4.604 1.626-.963 1.083-1.444 2.348-1.444 3.793 0 1.745.481 3.19 1.444 4.334 1.023 1.144 2.709 1.716 5.056 1.716zm53.272 9.12c-3.009 0-5.597-.27-7.764-.812-2.167-.602-3.942-1.565-5.327-2.89-1.384-1.324-2.407-3.04-3.069-5.147-.662-2.167-.993-4.816-.993-7.947V54.343h-5.868V42.964h5.868V32.127h13.903v10.837h10.924v11.379H381.73v17.97c0 2.71.421 4.636 1.264 5.78.903 1.144 2.618 1.716 5.146 1.716 1.805 0 3.611-.09 5.417-.271v11.378c-1.144.12-2.348.211-3.612.271-1.264.12-2.919.18-4.965.18zm16.737-48.403h13.903v47.862h-13.903V42.964zm6.951-4.515c-2.588 0-4.604-.662-6.048-1.987-1.385-1.385-2.077-3.13-2.077-5.238 0-2.107.692-3.823 2.077-5.147 1.444-1.385 3.46-2.077 6.048-2.077 2.589 0 4.575.692 5.959 2.077 1.444 1.324 2.167 3.04 2.167 5.147 0 2.108-.723 3.854-2.167 5.238-1.384 1.325-3.37 1.987-5.959 1.987zm13.309 4.515h15.348l12.097 31.878 11.014-31.878h13.903l-18.327 47.862h-13.903l-20.132-47.862zM500.979 92c-3.491 0-6.771-.482-9.841-1.445-3.009-1.023-5.627-2.559-7.854-4.606-2.227-2.046-3.972-4.605-5.236-7.675-1.264-3.131-1.896-6.773-1.896-10.927V65.54c0-3.974.602-7.436 1.805-10.386 1.264-2.95 2.95-5.418 5.056-7.405 2.167-1.986 4.695-3.461 7.584-4.425 2.949-1.023 6.108-1.535 9.479-1.535 7.884 0 13.843 2.047 17.875 6.14 4.033 4.035 6.049 9.904 6.049 17.61v4.967h-33.584c.06 1.867.391 3.462.993 4.786.602 1.265 1.384 2.318 2.347 3.161a9.824 9.824 0 0 0 3.25 1.897c1.264.36 2.588.541 3.973.541 2.648 0 4.724-.39 6.229-1.173 1.565-.843 2.588-1.957 3.07-3.342h12.819c-.963 5.238-3.34 9.151-7.132 11.74-3.792 2.589-8.787 3.883-14.986 3.883zm-.452-39.193c-1.264 0-2.497.15-3.701.452a9.064 9.064 0 0 0-3.16 1.535c-.903.662-1.655 1.535-2.257 2.619-.542 1.084-.843 2.408-.903 3.974h19.862c0-1.686-.271-3.07-.813-4.155-.541-1.083-1.264-1.956-2.166-2.618-.843-.663-1.866-1.114-3.07-1.355a15.576 15.576 0 0 0-3.792-.452z" fill="#2E3137"/><defs><clipPath id="clip0"><path fill="#fff" transform="translate(8 6)" d="M0 0H116V116H0z"/></clipPath></defs></svg>