<svg width="494" height="128" viewBox="0 0 494 128" fill="none" xmlns="http://www.w3.org/2000/svg">
<g clip-path="url(#clip0_97_654)">
<path d="M92.1003 88.0084C89.4293 91.9839 84.6944 94.1563 80.8444 92.7178C80.2987 92.5139 79.8454 92.9735 80.3021 93.3352C82.1142 94.7706 84.5312 96.0727 86.5992 96.9423C89.9424 98.3482 93.5536 98.9533 97.1586 98.7115C100.763 98.4698 104.267 97.3877 107.404 95.5472C110.541 93.7068 113.229 91.1565 115.263 88.0899L158.48 23.0679C159.825 20.9269 160.303 18.331 159.811 15.8336C159.319 13.3362 157.897 11.1349 155.848 9.69907C153.799 8.26324 151.284 7.70649 148.841 8.14751C146.398 8.58853 144.219 9.99244 142.769 12.0599C125.927 37.4042 109.038 62.715 92.1003 87.9922V88.0084Z" fill="#2E3137"/>
<path d="M53.5619 57.4501C53.4288 57.5225 53.067 57.2169 53.1507 57.0906L59.1899 47.9794C62.5827 42.8825 69.3364 40.7005 73.3792 45.2763C74.4097 46.4487 75.3609 47.7514 76.1853 49.1844L89.5453 74.8376C89.9117 75.468 90.4117 76.0055 91.0082 76.4102C91.6047 76.8148 92.2823 77.0761 92.9907 77.1747C93.6991 77.2733 94.42 77.2066 95.0998 76.9796C95.3494 76.8962 95.8642 77.4306 95.7174 77.6491L90.1002 86.0084C86.6757 91.1052 79.8586 93.2384 75.8634 88.5975C74.9122 87.4739 74.0243 86.2526 73.2475 84.901L59.8716 59.2642C59.4579 58.552 58.8744 57.9598 58.1762 57.5432C57.478 57.1267 56.6881 56.8996 55.8808 56.8833C55.0735 56.867 54.2755 57.0621 53.5619 57.4501Z" fill="#2E3137"/>
<path d="M49.8179 57.1014L49.9448 56.9223L57.19 45.9795C59.4371 42.6037 63.1585 40.5137 66.5901 40.8119C67.1969 40.8646 67.8507 39.903 67.3422 39.5677C65.8057 38.5544 64.0802 37.6518 62.5107 37.0194C59.1283 35.6565 55.4869 35.1073 51.8658 35.4138C48.2447 35.7204 44.74 36.8745 41.6204 38.7878C38.5008 40.7011 35.8493 43.3228 33.8689 46.4517L9.46982 85.0122C8.13418 87.1843 7.6852 89.8093 8.22009 92.319C8.75497 94.8286 10.2307 97.0209 12.3277 98.4211C14.4247 99.8214 16.9743 100.317 19.4245 99.8005C21.8746 99.2841 24.0281 97.7973 25.4188 95.6619L49.8179 57.1014Z" fill="#2E3137"/>
</g>
<path d="M226.551 91.775C217.73 91.775 211.13 90.0649 206.75 86.6446C202.43 83.2244 200.18 78.544 200 72.6036H216.2C216.68 74.8838 217.73 76.5639 219.35 77.644C220.971 78.664 223.371 79.1741 226.551 79.1741C233.451 79.1741 236.901 77.2539 236.901 73.4136C236.901 72.1536 236.571 71.1335 235.911 70.3534C235.251 69.5134 234.291 68.7933 233.031 68.1933C231.771 67.5332 230.211 66.9632 228.351 66.4831C226.491 66.0031 224.331 65.4931 221.871 64.953C218.75 64.233 215.93 63.3929 213.41 62.4328C210.95 61.4128 208.85 60.1227 207.11 58.5626C205.43 57.0024 204.11 55.1423 203.15 52.9821C202.25 50.762 201.8 48.1218 201.8 45.0616C201.8 42.1213 202.37 39.5111 203.51 37.231C204.65 34.8908 206.3 32.9407 208.46 31.3805C210.62 29.7604 213.23 28.5303 216.29 27.6903C219.35 26.8502 222.771 26.4302 226.551 26.4302C234.831 26.4302 240.981 28.0203 245.001 31.2005C249.081 34.3808 251.331 38.8811 251.751 44.7015H235.551C235.191 42.7814 234.321 41.3713 232.941 40.4712C231.561 39.5111 229.431 39.0311 226.551 39.0311C223.371 39.0311 221.151 39.5411 219.891 40.5612C218.63 41.5813 218 42.9014 218 44.5215C218 46.7417 219.14 48.3618 221.421 49.3819C223.761 50.4019 227.121 51.332 231.501 52.1721C234.741 52.8321 237.681 53.6422 240.321 54.6023C243.021 55.5023 245.301 56.7324 247.161 58.2925C249.081 59.7926 250.551 61.6528 251.571 63.8729C252.591 66.0331 253.101 68.7033 253.101 71.8835C253.101 78.124 250.761 83.0144 246.081 86.5546C241.401 90.0349 234.891 91.775 226.551 91.775Z" fill="#2E3137"/>
<path d="M280.566 91.145C277.566 91.145 274.986 90.8749 272.826 90.3349C270.666 89.7349 268.896 88.7748 267.516 87.4547C266.136 86.1346 265.116 84.4245 264.456 82.3243C263.796 80.1641 263.466 77.524 263.466 74.4037V54.2422H257.616V42.9014H263.466V32.1006H277.326V42.9014H288.216V54.2422H277.326V72.1536C277.326 74.8538 277.746 76.7739 278.586 77.914C279.486 79.0541 281.196 79.6241 283.716 79.6241C285.516 79.6241 287.316 79.5341 289.116 79.3541V90.6949C287.976 90.8149 286.776 90.9049 285.516 90.9649C284.256 91.085 282.606 91.145 280.566 91.145Z" fill="#2E3137"/>
<path d="M312.732 91.775C307.272 91.775 303.102 90.2149 300.222 87.0947C297.342 83.9744 295.902 79.2341 295.902 72.8736V42.9014H309.762V70.7135C309.762 73.8337 310.392 76.2039 311.652 77.824C312.972 79.4441 315.072 80.2542 317.952 80.2542C321.072 80.2542 323.352 79.3541 324.792 77.554C326.292 75.6938 327.042 73.4136 327.042 70.7135V42.9014H340.903V90.6049H328.122V84.1244C326.922 86.2246 325.032 88.0247 322.452 89.5248C319.872 91.025 316.632 91.775 312.732 91.775Z" fill="#2E3137"/>
<path d="M368.599 91.775C365.479 91.775 362.659 91.265 360.139 90.2449C357.619 89.1648 355.459 87.6047 353.659 85.5645C351.858 83.5244 350.478 80.9742 349.518 77.914C348.558 74.8538 348.078 71.2835 348.078 67.2032V65.4031C348.078 57.7225 349.848 51.8721 353.388 47.8518C356.989 43.7715 362.059 41.7313 368.599 41.7313C371.299 41.7313 373.849 42.3614 376.249 43.6214C378.709 44.8215 380.749 46.5917 382.369 48.9318V27.6003H396.23V90.6049H383.449V84.1244C382.849 85.0845 382.069 86.0446 381.109 87.0047C380.209 87.9047 379.129 88.7148 377.869 89.4348C376.609 90.1549 375.199 90.7249 373.639 91.145C372.079 91.565 370.399 91.775 368.599 91.775ZM371.929 80.3442C374.869 80.3442 377.329 79.3241 379.309 77.2839C381.349 75.2438 382.369 72.3336 382.369 68.5533V64.053C382.369 60.4527 381.349 57.7525 379.309 55.9524C377.329 54.0922 374.869 53.1622 371.929 53.1622C369.049 53.1622 366.709 54.1822 364.909 56.2224C363.169 58.2025 362.299 61.2628 362.299 65.4031V67.2032C362.299 71.5235 363.199 74.7937 364.999 77.0139C366.859 79.2341 369.169 80.3442 371.929 80.3442Z" fill="#2E3137"/>
<path d="M406.151 42.9014H420.011V90.6049H406.151V42.9014ZM413.081 38.4011C410.501 38.4011 408.491 37.741 407.051 36.4209C405.671 35.0408 404.981 33.3007 404.981 31.2005C404.981 29.1004 405.671 27.3902 407.051 26.0702C408.491 24.6901 410.501 24 413.081 24C415.661 24 417.641 24.6901 419.021 26.0702C420.461 27.3902 421.181 29.1004 421.181 31.2005C421.181 33.3007 420.461 35.0408 419.021 36.4209C417.641 37.741 415.661 38.4011 413.081 38.4011Z" fill="#2E3137"/>
<path d="M452.449 91.775C449.089 91.775 445.939 91.295 442.999 90.3349C440.059 89.3148 437.479 87.7847 435.259 85.7446C433.039 83.7044 431.299 81.1542 430.039 78.094C428.779 74.9738 428.149 71.3435 428.149 67.2032V65.4031C428.149 61.5028 428.779 58.0825 430.039 55.1423C431.299 52.2021 433.039 49.7419 435.259 47.7618C437.479 45.7816 440.059 44.2815 442.999 43.2614C445.939 42.2413 449.089 41.7313 452.449 41.7313C455.809 41.7313 458.96 42.2413 461.9 43.2614C464.84 44.2815 467.42 45.7816 469.64 47.7618C471.86 49.7419 473.6 52.2021 474.86 55.1423C476.12 58.0825 476.75 61.5028 476.75 65.4031V67.2032C476.75 71.2835 476.12 74.8838 474.86 78.004C473.6 81.0642 471.86 83.6144 469.64 85.6546C467.42 87.6947 464.84 89.2248 461.9 90.2449C458.96 91.265 455.809 91.775 452.449 91.775ZM452.449 80.2542C455.689 80.2542 458.18 79.0841 459.92 76.7439C461.66 74.4037 462.53 71.2235 462.53 67.2032V65.4031C462.53 61.8028 461.66 58.8926 459.92 56.6724C458.18 54.3922 455.689 53.2522 452.449 53.2522C449.209 53.2522 446.719 54.3922 444.979 56.6724C443.239 58.8926 442.369 61.8028 442.369 65.4031V67.2032C442.369 71.3435 443.239 74.5537 444.979 76.8339C446.719 79.1141 449.209 80.2542 452.449 80.2542Z" fill="#2E3137"/>
<defs>
<clipPath id="clip0_97_654">
<rect width="152" height="128" fill="white" transform="translate(8)"/>
</clipPath>
</defs>
</svg>
