<svg width="494" height="128" viewBox="0 0 494 128" fill="none" xmlns="http://www.w3.org/2000/svg">
<g clip-path="url(#clip0_63_483)">
<path d="M92.1003 88.0085C88.6759 93.1054 81.8587 95.2386 77.8635 90.5977C80.2684 93.3666 83.2559 95.5364 86.5992 96.9423C89.9424 98.3483 93.5536 98.9533 97.1586 98.7116C100.763 98.4699 104.267 97.3877 107.404 95.5473C110.541 93.7069 113.229 91.1565 115.263 88.0899L158.48 23.0679C159.825 20.927 160.303 18.3311 159.811 15.8337C159.319 13.3363 157.897 11.135 155.848 9.69913C153.799 8.2633 151.284 7.70655 148.841 8.14757C146.398 8.58859 144.219 9.9925 142.769 12.06C125.927 37.4043 109.038 62.7151 92.1003 87.9922V88.0085Z" fill="url(#paint0_linear_63_483)"/>
<path d="M49.818 57.1014L57.19 45.9795C60.5828 40.8826 67.3365 38.7005 71.3793 43.2763C72.4098 44.4488 73.361 45.7515 74.1854 47.1845L91.5454 76.8376C91.9118 77.4681 92.4118 78.0056 93.0083 78.4102C93.6048 78.8149 94.2824 79.0762 94.9908 79.1747C95.6992 79.2733 96.4201 79.2066 97.0999 78.9796C97.7797 78.7526 98.4009 78.3711 98.9174 77.8635L92.1003 88.0084C88.6758 93.1053 81.8587 95.2385 77.8635 90.5976C76.9123 89.474 76.0244 88.2527 75.2476 86.9011L57.8717 57.2643C57.458 56.5521 56.8745 55.9598 56.1763 55.5433C55.4781 55.1268 54.6882 54.8996 53.8809 54.8833C53.0736 54.8671 52.2756 55.0621 51.562 55.4502C50.8484 55.8382 50.2428 56.4065 49.8021 57.1014H49.818Z" fill="url(#paint1_linear_63_483)"/>
<path d="M49.9448 56.9224L49.8179 57.1015L25.4188 95.662C24.0281 97.7973 21.8746 99.2842 19.4245 99.8006C16.9743 100.317 14.4247 99.8214 12.3277 98.4212C10.2307 97.0209 8.75497 94.8286 8.22009 92.319C7.6852 89.8094 8.13418 87.1844 9.46982 85.0122L33.8689 46.4517C35.8493 43.3228 38.5008 40.7012 41.6204 38.7879C44.74 36.8746 48.2447 35.7204 51.8658 35.4139C55.4869 35.1074 59.1283 35.6566 62.5107 37.0195C65.8932 38.3823 68.9269 40.5227 71.3792 43.2764C67.3365 38.7169 60.5827 40.8826 57.19 45.9795L49.9448 56.9224V56.9224Z" fill="url(#paint2_linear_63_483)"/>
</g>
<g clip-path="url(#clip1_63_483)">
<path d="M226.551 91.7751C217.73 91.7751 211.13 90.0649 206.75 86.6447C202.43 83.2244 200.18 78.5441 200 72.6037H216.2C216.68 74.8838 217.73 76.5639 219.35 77.644C220.971 78.6641 223.371 79.1741 226.551 79.1741C233.451 79.1741 236.901 77.254 236.901 73.4137C236.901 72.1536 236.571 71.1335 235.911 70.3535C235.251 69.5134 234.291 68.7934 233.031 68.1933C231.771 67.5333 230.211 66.9632 228.351 66.4832C226.491 66.0032 224.331 65.4931 221.871 64.9531C218.75 64.233 215.93 63.393 213.41 62.4329C210.95 61.4128 208.85 60.1227 207.11 58.5626C205.43 57.0025 204.11 55.1424 203.15 52.9822C202.25 50.762 201.8 48.1218 201.8 45.0616C201.8 42.1214 202.37 39.5112 203.51 37.231C204.65 34.8909 206.3 32.9407 208.46 31.3806C210.62 29.7605 213.23 28.5304 216.29 27.6903C219.35 26.8503 222.771 26.4302 226.551 26.4302C234.831 26.4302 240.981 28.0204 245.001 31.2006C249.081 34.3808 251.331 38.8812 251.751 44.7016H235.551C235.191 42.7814 234.321 41.3713 232.941 40.4713C231.561 39.5112 229.431 39.0312 226.551 39.0312C223.371 39.0312 221.151 39.5412 219.891 40.5613C218.63 41.5814 218 42.9015 218 44.5216C218 46.7417 219.14 48.3619 221.421 49.3819C223.761 50.402 227.121 51.3321 231.501 52.1721C234.741 52.8322 237.681 53.6423 240.321 54.6023C243.021 55.5024 245.301 56.7325 247.161 58.2926C249.081 59.7927 250.551 61.6528 251.571 63.873C252.591 66.0332 253.101 68.7034 253.101 71.8836C253.101 78.1241 250.761 83.0144 246.081 86.5547C241.401 90.0349 234.891 91.7751 226.551 91.7751Z" fill="#2E3137"/>
<path d="M280.566 91.145C277.566 91.145 274.986 90.875 272.826 90.335C270.666 89.7349 268.896 88.7748 267.516 87.4547C266.136 86.1346 265.116 84.4245 264.456 82.3244C263.796 80.1642 263.466 77.524 263.466 74.4038V54.2423H257.616V42.9015H263.466V32.1007H277.326V42.9015H288.216V54.2423H277.326V72.1536C277.326 74.8538 277.746 76.774 278.586 77.914C279.486 79.0541 281.196 79.6242 283.716 79.6242C285.516 79.6242 287.316 79.5342 289.116 79.3541V90.695C287.976 90.815 286.776 90.905 285.516 90.965C284.256 91.085 282.606 91.145 280.566 91.145Z" fill="#2E3137"/>
<path d="M312.732 91.7751C307.272 91.7751 303.102 90.2149 300.222 87.0947C297.342 83.9745 295.902 79.2341 295.902 72.8737V42.9015H309.762V70.7135C309.762 73.8337 310.392 76.2039 311.652 77.824C312.972 79.4442 315.072 80.2542 317.952 80.2542C321.072 80.2542 323.352 79.3541 324.792 77.554C326.292 75.6939 327.042 73.4137 327.042 70.7135V42.9015H340.903V90.605H328.122V84.1245C326.922 86.2247 325.032 88.0248 322.452 89.5249C319.872 91.025 316.632 91.7751 312.732 91.7751Z" fill="#2E3137"/>
<path d="M368.599 91.7751C365.479 91.7751 362.659 91.265 360.139 90.245C357.619 89.1649 355.459 87.6048 353.659 85.5646C351.858 83.5245 350.478 80.9743 349.518 77.914C348.558 74.8538 348.078 71.2836 348.078 67.2032V65.4031C348.078 57.7225 349.848 51.8721 353.388 47.8518C356.989 43.7715 362.059 41.7314 368.599 41.7314C371.299 41.7314 373.849 42.3614 376.249 43.6215C378.709 44.8216 380.749 46.5917 382.369 48.9319V27.6003H396.23V90.605H383.449V84.1245C382.849 85.0846 382.069 86.0446 381.109 87.0047C380.209 87.9048 379.129 88.7148 377.869 89.4349C376.609 90.1549 375.199 90.725 373.639 91.145C372.079 91.5651 370.399 91.7751 368.599 91.7751ZM371.929 80.3442C374.869 80.3442 377.329 79.3241 379.309 77.284C381.349 75.2438 382.369 72.3336 382.369 68.5534V64.053C382.369 60.4528 381.349 57.7526 379.309 55.9524C377.329 54.0923 374.869 53.1622 371.929 53.1622C369.049 53.1622 366.709 54.1823 364.909 56.2224C363.169 58.2026 362.299 61.2628 362.299 65.4031V67.2032C362.299 71.5236 363.199 74.7938 364.999 77.014C366.859 79.2341 369.169 80.3442 371.929 80.3442Z" fill="#2E3137"/>
<path d="M406.151 42.9015H420.011V90.605H406.151V42.9015ZM413.081 38.4011C410.501 38.4011 408.491 37.7411 407.051 36.421C405.671 35.0409 404.981 33.3007 404.981 31.2006C404.981 29.1004 405.671 27.3903 407.051 26.0702C408.491 24.6901 410.501 24.0001 413.081 24.0001C415.661 24.0001 417.641 24.6901 419.021 26.0702C420.461 27.3903 421.181 29.1004 421.181 31.2006C421.181 33.3007 420.461 35.0409 419.021 36.421C417.641 37.7411 415.661 38.4011 413.081 38.4011Z" fill="#2E3137"/>
<path d="M452.449 91.7751C449.089 91.7751 445.939 91.295 442.999 90.335C440.059 89.3149 437.479 87.7848 435.259 85.7446C433.039 83.7045 431.299 81.1543 430.039 78.0941C428.779 74.9738 428.149 71.3436 428.149 67.2032V65.4031C428.149 61.5028 428.779 58.0826 430.039 55.1424C431.299 52.2021 433.039 49.742 435.259 47.7618C437.479 45.7817 440.059 44.2816 442.999 43.2615C445.939 42.2414 449.089 41.7314 452.449 41.7314C455.809 41.7314 458.96 42.2414 461.9 43.2615C464.84 44.2816 467.42 45.7817 469.64 47.7618C471.86 49.742 473.6 52.2021 474.86 55.1424C476.12 58.0826 476.75 61.5028 476.75 65.4031V67.2032C476.75 71.2836 476.12 74.8838 474.86 78.004C473.6 81.0643 471.86 83.6145 469.64 85.6546C467.42 87.6948 464.84 89.2249 461.9 90.245C458.96 91.265 455.809 91.7751 452.449 91.7751ZM452.449 80.2542C455.689 80.2542 458.18 79.0841 459.92 76.744C461.66 74.4038 462.53 71.2235 462.53 67.2032V65.4031C462.53 61.8029 461.66 58.8926 459.92 56.6725C458.18 54.3923 455.689 53.2522 452.449 53.2522C449.209 53.2522 446.719 54.3923 444.979 56.6725C443.239 58.8926 442.369 61.8029 442.369 65.4031V67.2032C442.369 71.3436 443.239 74.5538 444.979 76.834C446.719 79.1141 449.209 80.2542 452.449 80.2542Z" fill="#2E3137"/>
</g>
<defs>
<linearGradient id="paint0_linear_63_483" x1="118.932" y1="53.1938" x2="118.932" y2="98.7635" gradientUnits="userSpaceOnUse">
<stop stop-color="#F46837"/>
<stop offset="1" stop-color="#DD5236"/>
</linearGradient>
<linearGradient id="paint1_linear_63_483" x1="74.3598" y1="40.7765" x2="99.3162" y2="80.6844" gradientUnits="userSpaceOnUse">
<stop stop-color="#7E51C2"/>
<stop offset="0.22332" stop-color="#945DD6"/>
<stop offset="0.759788" stop-color="#945DD6"/>
<stop offset="1" stop-color="#7E51C2"/>
</linearGradient>
<linearGradient id="paint2_linear_63_483" x1="39.6896" y1="67.5736" x2="39.6896" y2="100" gradientUnits="userSpaceOnUse">
<stop stop-color="#13ADC7"/>
<stop offset="1" stop-color="#1497B8"/>
</linearGradient>
<clipPath id="clip0_63_483">
<rect width="152" height="128" fill="white" transform="translate(8)"/>
</clipPath>
<clipPath id="clip1_63_483">
<rect width="278" height="80" fill="white" transform="translate(200 24.0001)"/>
</clipPath>
</defs>
</svg>
