<svg width="494" height="128" fill="none" xmlns="http://www.w3.org/2000/svg"><g clip-path="url(#clip0)"><path d="M92.1 88.008c-3.424 5.097-10.241 7.23-14.236 2.59a23.798 23.798 0 0 0 8.735 6.344 23.216 23.216 0 0 0 20.805-1.395 24.04 24.04 0 0 0 7.859-7.457l43.217-65.022a9.99 9.99 0 0 0 1.331-7.234c-.492-2.498-1.914-4.699-3.963-6.135a9.312 9.312 0 0 0-7.007-1.551c-2.443.44-4.622 1.845-6.072 3.912A23760.249 23760.249 0 0 1 92.1 87.992v.016z" fill="url(#paint0_linear)"/><path d="M49.818 57.101L57.19 45.98c3.393-5.097 10.147-7.28 14.19-2.704a24.217 24.217 0 0 1 2.805 3.908l17.36 29.654a4.83 4.83 0 0 0 1.463 1.572 4.678 4.678 0 0 0 1.983.765c.708.098 1.43.032 2.109-.195a4.733 4.733 0 0 0 1.817-1.117L92.1 88.008c-3.424 5.097-10.241 7.23-14.236 2.59a24.988 24.988 0 0 1-2.616-3.697L57.872 57.264a4.82 4.82 0 0 0-1.696-1.72 4.655 4.655 0 0 0-4.614-.093 4.805 4.805 0 0 0-1.76 1.65h.016z" fill="url(#paint1_linear)"/><path d="M49.945 56.922l-.127.18-24.4 38.56c-1.39 2.135-3.543 3.622-5.994 4.139-2.45.516-5 .02-7.096-1.38-2.097-1.4-3.573-3.592-4.108-6.102a9.993 9.993 0 0 1 1.25-7.307l24.399-38.56a24.094 24.094 0 0 1 7.751-7.664 23.36 23.36 0 0 1 10.246-3.374 23.224 23.224 0 0 1 10.645 1.605 23.787 23.787 0 0 1 8.868 6.257c-4.043-4.56-10.796-2.393-14.189 2.703l-7.245 10.943z" fill="url(#paint2_linear)"/></g><g clip-path="url(#clip1)"><path d="M226.551 91.775c-8.821 0-15.421-1.71-19.801-5.13-4.32-3.42-6.57-8.1-6.75-14.041h16.2c.48 2.28 1.53 3.96 3.15 5.04 1.621 1.02 4.021 1.53 7.201 1.53 6.9 0 10.35-1.92 10.35-5.76 0-1.26-.33-2.28-.99-3.06-.66-.84-1.62-1.56-2.88-2.16-1.26-.66-2.82-1.23-4.68-1.71-1.86-.48-4.02-.99-6.48-1.53-3.121-.721-5.941-1.561-8.461-2.521-2.46-1.02-4.56-2.31-6.3-3.87-1.68-1.56-3-3.42-3.96-5.58-.9-2.221-1.35-4.861-1.35-7.921 0-2.94.57-5.55 1.71-7.831 1.14-2.34 2.79-4.29 4.95-5.85 2.16-1.62 4.77-2.85 7.83-3.69 3.06-.84 6.481-1.26 10.261-1.26 8.28 0 14.43 1.59 18.45 4.77 4.08 3.18 6.33 7.68 6.75 13.5h-16.2c-.36-1.92-1.23-3.33-2.61-4.23-1.38-.96-3.51-1.44-6.39-1.44-3.18 0-5.4.51-6.66 1.53-1.261 1.02-1.891 2.34-1.891 3.96 0 2.22 1.14 3.84 3.421 4.86 2.34 1.021 5.7 1.951 10.08 2.791 3.24.66 6.18 1.47 8.82 2.43 2.7.9 4.98 2.13 6.84 3.69 1.92 1.5 3.39 3.36 4.41 5.581 1.02 2.16 1.53 4.83 1.53 8.01 0 6.241-2.34 11.131-7.02 14.672-4.68 3.48-11.19 5.22-19.53 5.22zm54.015-.63c-3 0-5.58-.27-7.74-.81-2.16-.6-3.93-1.56-5.31-2.88-1.38-1.32-2.4-3.03-3.06-5.13-.66-2.16-.99-4.801-.99-7.921V54.242h-5.85v-11.34h5.85V32.1h13.86v10.8h10.89v11.341h-10.89v17.912c0 2.7.42 4.62 1.26 5.76.9 1.14 2.61 1.71 5.13 1.71 1.8 0 3.6-.09 5.4-.27v11.341c-1.14.12-2.34.21-3.6.27-1.26.12-2.91.18-4.95.18zm32.166.63c-5.46 0-9.63-1.56-12.51-4.68-2.88-3.12-4.32-7.86-4.32-14.221V42.902h13.86v27.811c0 3.12.63 5.49 1.89 7.111 1.32 1.62 3.42 2.43 6.3 2.43 3.12 0 5.4-.9 6.84-2.7 1.5-1.86 2.25-4.14 2.25-6.84V42.9h13.861v47.704h-12.781v-6.48c-1.2 2.1-3.09 3.9-5.67 5.4-2.58 1.5-5.82 2.25-9.72 2.25zm55.867 0c-3.12 0-5.94-.51-8.46-1.53a17.976 17.976 0 0 1-6.48-4.68c-1.801-2.04-3.181-4.59-4.141-7.651-.96-3.06-1.44-6.63-1.44-10.71v-1.8c0-7.681 1.77-13.532 5.31-17.552 3.601-4.08 8.671-6.12 15.211-6.12 2.7 0 5.25.63 7.65 1.89 2.46 1.2 4.5 2.97 6.12 5.31V27.6h13.861v63.005h-12.781v-6.48c-.6.96-1.38 1.92-2.34 2.88-.9.9-1.98 1.71-3.24 2.43-1.26.72-2.67 1.29-4.23 1.71-1.56.42-3.24.63-5.04.63zm3.33-11.43c2.94 0 5.4-1.02 7.38-3.061 2.04-2.04 3.06-4.95 3.06-8.73v-4.501c0-3.6-1.02-6.3-3.06-8.1-1.98-1.86-4.44-2.79-7.38-2.79-2.88 0-5.22 1.02-7.02 3.06-1.74 1.98-2.61 5.04-2.61 9.18v1.8c0 4.32.9 7.59 2.7 9.811 1.86 2.22 4.17 3.33 6.93 3.33zM406.151 42.9h13.86v47.704h-13.86V42.901zm6.93-4.5c-2.58 0-4.59-.66-6.03-1.98-1.38-1.38-2.07-3.12-2.07-5.22 0-2.1.69-3.81 2.07-5.13 1.44-1.38 3.45-2.07 6.03-2.07s4.56.69 5.94 2.07c1.44 1.32 2.16 3.03 2.16 5.13s-.72 3.84-2.16 5.22c-1.38 1.32-3.36 1.98-5.94 1.98zm39.368 53.374c-3.36 0-6.51-.48-9.45-1.44-2.94-1.02-5.52-2.55-7.74-4.59-2.22-2.04-3.96-4.59-5.22-7.65-1.26-3.121-1.89-6.751-1.89-10.892v-1.8c0-3.9.63-7.32 1.89-10.26 1.26-2.94 3-5.401 5.22-7.381 2.22-1.98 4.8-3.48 7.74-4.5 2.94-1.02 6.09-1.53 9.45-1.53 3.36 0 6.511.51 9.451 1.53 2.94 1.02 5.52 2.52 7.74 4.5 2.22 1.98 3.96 4.44 5.22 7.38 1.26 2.94 1.89 6.36 1.89 10.261v1.8c0 4.08-.63 7.68-1.89 10.801-1.26 3.06-3 5.61-5.22 7.65-2.22 2.04-4.8 3.57-7.74 4.591-2.94 1.02-6.091 1.53-9.451 1.53zm0-11.52c3.24 0 5.731-1.17 7.471-3.511 1.74-2.34 2.61-5.52 2.61-9.54v-1.8c0-3.601-.87-6.511-2.61-8.731-1.74-2.28-4.231-3.42-7.471-3.42s-5.73 1.14-7.47 3.42c-1.74 2.22-2.61 5.13-2.61 8.73v1.8c0 4.14.87 7.35 2.61 9.631 1.74 2.28 4.23 3.42 7.47 3.42z" fill="#2E3137"/></g><defs><linearGradient id="paint0_linear" x1="118.932" y1="53.194" x2="118.932" y2="98.763" gradientUnits="userSpaceOnUse"><stop stop-color="#F46837"/><stop offset="1" stop-color="#DD5236"/></linearGradient><linearGradient id="paint1_linear" x1="74.36" y1="40.776" x2="99.316" y2="80.684" gradientUnits="userSpaceOnUse"><stop stop-color="#7E51C2"/><stop offset=".223" stop-color="#945DD6"/><stop offset=".76" stop-color="#945DD6"/><stop offset="1" stop-color="#7E51C2"/></linearGradient><linearGradient id="paint2_linear" x1="39.69" y1="67.574" x2="39.69" y2="100" gradientUnits="userSpaceOnUse"><stop stop-color="#13ADC7"/><stop offset="1" stop-color="#1497B8"/></linearGradient><clipPath id="clip0"><path fill="#fff" transform="translate(8)" d="M0 0H152V128H0z"/></clipPath><clipPath id="clip1"><path fill="#fff" transform="translate(200 24)" d="M0 0H278V80H0z"/></clipPath></defs></svg>