<svg width="80" height="80" viewBox="0 0 80 80" fill="none" xmlns="http://www.w3.org/2000/svg"><path d="M44.0037 56.667C42.6617 58.6496 40.2982 59.7203 38.3653 59.0065C38.0949 58.9074 37.8646 59.1354 38.0949 59.3039C38.9963 60.0276 40.2181 60.6719 41.2496 61.0982C42.92 61.7948 44.732 62.0949 46.5405 61.9744C48.3491 61.8539 50.1041 61.3162 51.6651 60.4043C53.2374 59.4923 54.5794 58.2234 55.6009 56.7067L77.2431 24.4894C77.9145 23.4227 78.1515 22.1434 77.906 20.9103C77.6606 19.6773 76.9511 18.5825 75.9211 17.8476C75.4153 17.4937 74.8433 17.243 74.2385 17.1101C73.6337 16.9772 73.0083 16.9649 72.3986 17.0738C71.789 17.1827 71.2073 17.4106 70.6876 17.7443C70.1678 18.078 69.7204 18.5108 69.3714 19.0174C60.9398 31.5833 52.4839 44.1332 44.0037 56.667V56.667Z" fill="#2E3137"/><path d="M24.7107 41.7833C24.6408 41.8131 24.4612 41.6643 24.5111 41.6048L27.5249 37.0811C29.2214 34.5514 32.5845 33.4701 34.6003 35.7419C35.1093 36.3173 35.5883 36.972 35.9975 37.6763L42.6638 50.404C42.8461 50.7134 43.0958 50.9782 43.3946 51.179C43.6933 51.3799 44.0335 51.5117 44.3902 51.5647C44.7395 51.6143 45.0988 51.5746 45.4381 51.4655C45.5578 51.4258 45.8173 51.6937 45.7375 51.7929L42.9532 55.9395C41.2467 58.4692 37.8437 59.5307 35.8478 57.2292C35.3604 56.6576 34.9262 56.0434 34.5504 55.3939L27.8642 42.6761C27.6597 42.3293 27.3706 42.0392 27.0234 41.8329C26.6763 41.6265 26.2824 41.5105 25.8783 41.4956C25.4791 41.4956 25.0799 41.5948 24.7206 41.7833H24.7107Z" fill="#2E3137"/><path d="M22.8934 41.6015L22.9634 41.5117L26.5925 36.0651C27.7122 34.3793 29.5718 33.3418 31.2914 33.4914C31.5913 33.5114 31.9212 33.0326 31.6613 32.863C30.8915 32.3642 30.0317 31.9153 29.2519 31.5961C27.5635 30.9143 25.7381 30.6385 23.9231 30.791C22.1082 30.9435 20.3546 31.52 18.8043 32.474C17.2347 33.4379 15.9076 34.7484 14.9253 36.3045L2.72815 55.5173C2.06895 56.6036 1.84984 57.8999 2.11549 59.1418C2.38115 60.3837 3.11157 61.4778 4.15782 62.2009C4.67482 62.5506 5.25717 62.7928 5.87008 62.913C6.48299 63.0332 7.11389 63.029 7.72511 62.9005C8.33632 62.772 8.91532 62.5219 9.42753 62.1652C9.93973 61.8085 10.3746 61.3524 10.7063 60.8242L22.9034 41.5915L22.8934 41.6015Z" fill="#2E3137"/></svg>