<svg fill="none" height="80" viewBox="0 0 80 80" width="80" xmlns="http://www.w3.org/2000/svg" xmlns:xlink="http://www.w3.org/1999/xlink"><linearGradient id="a" gradientUnits="userSpaceOnUse" x1="57.4661" x2="57.4661" y1="39.5971" y2="62.3821"><stop offset="0" stop-color="#f46837"/><stop offset="1" stop-color="#dd5236"/></linearGradient><linearGradient id="b" gradientUnits="userSpaceOnUse" x1="35.1804" x2="47.6584" y1="33.3879" y2="53.3419"><stop offset="0" stop-color="#7e51c2"/><stop offset=".223" stop-color="#945dd6"/><stop offset=".76" stop-color="#945dd6"/><stop offset="1" stop-color="#7e51c2"/></linearGradient><linearGradient id="c" gradientUnits="userSpaceOnUse" x1="17.8454" x2="17.8454" y1="46.7869" y2="62.9999"><stop offset="0" stop-color="#13adc7"/><stop offset="1" stop-color="#1497b8"/></linearGradient><path d="m44.0501 57.0041c-1.712 2.549-5.12 3.615-7.118 1.295 1.1935 1.3779 2.6876 2.4632 4.367 3.172 1.6683.703 3.4779 1.0061 5.2842.8851s3.5592-.6628 5.1188-1.5821c1.5768-.928 2.921-2.2037 3.93-3.73l21.608-32.509c.674-1.0771.9121-2.3705.666-3.617-.2401-1.2401-.9502-2.3393-1.982-3.068-.5036-.3547-1.0727-.606-1.6742-.7392s-1.2234-.1457-1.8298-.0368c-1.23.2264-2.3207.9294-3.035 1.956-8.4207 12.6715-16.8657 25.3269-25.335 37.966z" fill="url(#a)"/><path d="m22.9094 41.5499 3.686-5.56c1.696-2.549 5.073-3.64 7.094-1.352.516.586.991 1.238 1.404 1.954l8.68 14.827c.183.315.433.584.731.786.2958.2024.6345.3334.9895.3829.355.0494.7166.0159 1.0565-.0979.34-.114.65-.304.909-.558l-3.409 5.072c-1.712 2.549-5.12 3.615-7.118 1.295-.4911-.5751-.9289-1.1937-1.308-1.848l-8.688-14.819c-.2051-.354-.497-.65-.848-.86-.3474-.2075-.7428-.3209-1.1473-.3291-.4045-.0083-.8042.089-1.1597.2821-.357.194-.66.478-.88.826h.008z" fill="url(#b)"/><path d="m22.9724 41.4609-.063.09-12.2 19.28c-.3389.5252-.77805.9783-1.29232 1.3335s-1.09354.6055-1.70466.7365c-1.225.257-2.5.01-3.548-.69-1.05576-.7108-1.79265-1.8053-2.054-3.051-.26787-1.253-.04413-2.5612.625-3.654l12.19998-19.28c.982-1.5565 2.3076-2.8674 3.875-3.832 1.5499-.9558 3.3027-1.5338 5.1171-1.6874 1.8144-.1535 3.6395.1217 5.3279.8034 1.6996.687 3.2175 1.7575 4.435 3.128-2.022-2.28-5.399-1.197-7.095 1.352z" fill="url(#c)"/></svg>