<svg width="160" height="128" viewBox="0 0 160 128" fill="none" xmlns="http://www.w3.org/2000/svg"><path d="M88.1 96.008c-3.424 5.097-10.241 7.231-14.236 2.59a23.793 23.793 0 0 0 8.735 6.344 23.227 23.227 0 0 0 10.56 1.77 23.32 23.32 0 0 0 10.245-3.165 24.035 24.035 0 0 0 7.859-7.457l43.217-65.022a9.99 9.99 0 0 0 1.331-7.234c-.492-2.498-1.914-4.7-3.963-6.135a9.312 9.312 0 0 0-7.007-1.552c-2.443.442-4.622 1.845-6.072 3.913A23771.579 23771.579 0 0 1 88.1 95.992v.016z" fill="url(#paint0_linear)"/><path d="M45.818 65.101L53.19 53.98c3.393-5.096 10.146-7.279 14.19-2.703a24.212 24.212 0 0 1 2.805 3.908l17.36 29.654c.367.63.867 1.168 1.463 1.572a4.68 4.68 0 0 0 1.983.765c.708.098 1.429.032 2.109-.195a4.734 4.734 0 0 0 1.817-1.117L88.1 96.008c-3.424 5.097-10.241 7.23-14.237 2.59a24.993 24.993 0 0 1-2.615-3.697L53.871 65.264a4.821 4.821 0 0 0-1.696-1.72 4.655 4.655 0 0 0-4.614-.093 4.806 4.806 0 0 0-1.76 1.65h.016z" fill="url(#paint1_linear)"/><path d="M45.945 64.922l-.127.18-24.4 38.56c-1.39 2.135-3.543 3.622-5.993 4.139-2.45.516-5 .02-7.097-1.38-2.097-1.4-3.573-3.592-4.108-6.102a9.993 9.993 0 0 1 1.25-7.307l24.399-38.56a24.094 24.094 0 0 1 7.751-7.664 23.36 23.36 0 0 1 10.246-3.374 23.224 23.224 0 0 1 10.645 1.605 23.787 23.787 0 0 1 8.868 6.257c-4.043-4.56-10.796-2.393-14.189 2.703l-7.245 10.943z" fill="url(#paint2_linear)"/><defs><linearGradient id="paint0_linear" x1="114.932" y1="61.194" x2="114.932" y2="106.763" gradientUnits="userSpaceOnUse"><stop stop-color="#F46837"/><stop offset="1" stop-color="#DD5236"/></linearGradient><linearGradient id="paint1_linear" x1="70.36" y1="48.776" x2="95.316" y2="88.684" gradientUnits="userSpaceOnUse"><stop stop-color="#7E51C2"/><stop offset=".223" stop-color="#945DD6"/><stop offset=".76" stop-color="#945DD6"/><stop offset="1" stop-color="#7E51C2"/></linearGradient><linearGradient id="paint2_linear" x1="35.69" y1="75.574" x2="35.69" y2="108" gradientUnits="userSpaceOnUse"><stop stop-color="#13ADC7"/><stop offset="1" stop-color="#1497B8"/></linearGradient></defs></svg>