<svg width="160" height="160" viewBox="0 0 160 160" fill="none" xmlns="http://www.w3.org/2000/svg"><path d="M88.1 112.008c-3.424 5.097-10.241 7.231-14.236 2.59a23.797 23.797 0 0 0 8.735 6.344 23.227 23.227 0 0 0 10.56 1.77 23.32 23.32 0 0 0 10.245-3.165 24.04 24.04 0 0 0 7.859-7.457l43.217-65.022a9.99 9.99 0 0 0 1.331-7.234c-.492-2.498-1.914-4.7-3.963-6.135a9.312 9.312 0 0 0-7.007-1.551c-2.443.44-4.622 1.844-6.072 3.912A23748.93 23748.93 0 0 1 88.1 111.992v.016z" fill="url(#paint0_linear)"/><path d="M45.818 81.101L53.19 69.98c3.393-5.097 10.146-7.279 14.19-2.703a24.212 24.212 0 0 1 2.805 3.908l17.36 29.653a4.831 4.831 0 0 0 1.463 1.573 4.645 4.645 0 0 0 4.092.569 4.728 4.728 0 0 0 1.817-1.116L88.1 112.008c-3.424 5.097-10.241 7.23-14.237 2.589a24.983 24.983 0 0 1-2.615-3.696L53.871 81.264a4.821 4.821 0 0 0-1.696-1.72 4.654 4.654 0 0 0-4.614-.093 4.807 4.807 0 0 0-1.76 1.65h.016z" fill="url(#paint1_linear)"/><path d="M45.945 80.922l-.127.18-24.4 38.56c-1.39 2.135-3.543 3.622-5.993 4.139-2.45.516-5 .02-7.097-1.38-2.097-1.4-3.573-3.592-4.108-6.102a9.994 9.994 0 0 1 1.25-7.307l24.399-38.56a24.094 24.094 0 0 1 7.751-7.664 23.36 23.36 0 0 1 10.246-3.374 23.224 23.224 0 0 1 10.645 1.605 23.787 23.787 0 0 1 8.868 6.257c-4.043-4.56-10.796-2.393-14.189 2.704l-7.245 10.942z" fill="url(#paint2_linear)"/><defs><linearGradient id="paint0_linear" x1="114.932" y1="77.194" x2="114.932" y2="122.763" gradientUnits="userSpaceOnUse"><stop stop-color="#F46837"/><stop offset="1" stop-color="#DD5236"/></linearGradient><linearGradient id="paint1_linear" x1="70.36" y1="64.776" x2="95.316" y2="104.684" gradientUnits="userSpaceOnUse"><stop stop-color="#7E51C2"/><stop offset=".223" stop-color="#945DD6"/><stop offset=".76" stop-color="#945DD6"/><stop offset="1" stop-color="#7E51C2"/></linearGradient><linearGradient id="paint2_linear" x1="35.69" y1="91.574" x2="35.69" y2="124" gradientUnits="userSpaceOnUse"><stop stop-color="#13ADC7"/><stop offset="1" stop-color="#1497B8"/></linearGradient></defs></svg>