<svg width="160" height="160" viewBox="0 0 160 160" fill="none" xmlns="http://www.w3.org/2000/svg"><path d="M88.1 112.008c-2.67 3.976-7.406 6.148-11.256 4.71-.545-.204-.999.256-.542.617 1.812 1.436 4.23 2.738 6.297 3.607a23.226 23.226 0 0 0 10.56 1.77 23.32 23.32 0 0 0 10.245-3.165 24.04 24.04 0 0 0 7.859-7.457l43.217-65.022a9.99 9.99 0 0 0 1.331-7.234c-.492-2.498-1.914-4.7-3.963-6.135a9.312 9.312 0 0 0-7.007-1.551c-2.443.44-4.622 1.844-6.072 3.912A23748.93 23748.93 0 0 1 88.1 111.992v.016z" fill="#fff"/><path d="M49.562 81.45c-.133.072-.495-.233-.411-.36l6.039-9.11c3.393-5.098 10.146-7.28 14.19-2.704a24.212 24.212 0 0 1 2.805 3.908l13.36 25.654c.367.63.867 1.168 1.463 1.572a4.645 4.645 0 0 0 4.092.57c.25-.084.764.451.617.669l-5.617 8.359c-3.424 5.097-10.241 7.23-14.237 2.59a24.993 24.993 0 0 1-2.615-3.697L55.872 83.264a4.82 4.82 0 0 0-1.696-1.72 4.655 4.655 0 0 0-4.614-.093z" fill="#fff"/><path d="M45.818 81.101l.127-.179L53.19 69.98c2.247-3.376 5.968-5.466 9.4-5.168.607.053 1.26-.909.752-1.244a28.285 28.285 0 0 0-4.831-2.549 23.224 23.224 0 0 0-10.645-1.605 23.36 23.36 0 0 0-10.246 3.374 24.095 24.095 0 0 0-7.751 7.664l-24.4 38.56a9.994 9.994 0 0 0-1.249 7.307c.535 2.51 2.01 4.702 4.108 6.102a9.308 9.308 0 0 0 7.097 1.38c2.45-.517 4.603-2.004 5.994-4.139l24.399-38.56z" fill="#fff"/></svg>