<svg fill="none" height="80" viewBox="0 0 80 80" width="80" xmlns="http://www.w3.org/2000/svg"><g fill="#fff"><path d="m44.0037 56.667c-1.342 1.9826-3.7055 3.0533-5.6384 2.3395-.2704-.0991-.5007.1289-.2704.2974.9014.7237 2.1232 1.368 3.1547 1.7943 1.6704.6966 3.4824.9967 5.2909.8762 1.8086-.1205 3.5636-.6582 5.1246-1.5701 1.5723-.912 2.9143-2.1809 3.9358-3.6976l21.6422-32.2173c.6714-1.0667.9084-2.346.6629-3.5791-.2454-1.233-.9549-2.3278-1.9849-3.0627-.5058-.3539-1.0778-.6046-1.6826-.7375s-1.2302-.1452-1.8399-.0363c-.6096.1089-1.1913.3368-1.711.6705-.5198.3337-.9672.7665-1.3162 1.2731-8.4316 12.5659-16.8875 25.1158-25.3677 37.6496z"/><path d="m24.7107 41.7833c-.0699.0298-.2495-.119-.1996-.1785l3.0138-4.5237c1.6965-2.5297 5.0596-3.611 7.0754-1.3392.509.5754.988 1.2301 1.3972 1.9344l6.6663 12.7277c.1823.3094.432.5742.7308.775.2987.2009.6389.3327.9956.3857.3493.0496.7086.0099 1.0479-.0992.1197-.0397.3792.2282.2994.3274l-2.7843 4.1466c-1.7065 2.5297-5.1095 3.5912-7.1054 1.2897-.4874-.5716-.9216-1.1858-1.2974-1.8353l-6.6862-12.7178c-.2045-.3468-.4936-.6369-.8408-.8432-.3471-.2064-.741-.3224-1.1451-.3373-.3992 0-.7984.0992-1.1577.2877z"/><path d="m22.8934 41.6015.07-.0898 3.6291-5.4466c1.1197-1.6858 2.9793-2.7233 4.6989-2.5737.2999.02.6298-.4588.3699-.6284-.7698-.4988-1.6296-.9477-2.4094-1.2669-1.6884-.6818-3.5138-.9576-5.3288-.8051-1.8149.1525-3.5685.729-5.1188 1.683-1.5696.9639-2.8967 2.2744-3.879 3.8305l-12.19715 19.2128c-.6592 1.0863-.87831 2.3826-.61266 3.6245.26566 1.2419.99608 2.336 2.04233 3.0591.517.3497 1.09935.5919 1.71226.7121s1.24381.116 1.85503-.0125c.61121-.1285 1.19021-.3786 1.70242-.7353.5122-.3567.94707-.8128 1.27877-1.341l12.1971-19.2327z"/></g></svg>