<svg fill="none" height="95" viewBox="0 0 144 95" width="144" xmlns="http://www.w3.org/2000/svg"><g fill="#fff"><path d="m75.0037 44.0265c-1.342 1.9826-3.7055 3.0533-5.6384 2.3395-.2704-.0991-.5007.1289-.2704.2974.9014.7237 2.1232 1.368 3.1547 1.7943 1.6704.6966 3.4824.9967 5.2909.8762 1.8086-.1205 3.5636-.6582 5.1246-1.5702 1.5723-.9119 2.9143-2.1808 3.9358-3.6975l21.6421-32.2173c.672-1.0667.908-2.34601.663-3.57907s-.955-2.32779-1.985-3.06268c-.506-.35396-1.078-.60468-1.683-.73754-.604-.13287-1.23-.14522-1.839-.03634-.61.10888-1.192.33681-1.711.67051-.52.33369-.968.76647-1.317 1.2731-8.4312 12.56592-16.8871 25.11582-25.3673 37.64962z"/><path d="m55.7107 29.1428c-.0699.0298-.2495-.119-.1996-.1785l3.0138-4.5237c1.6965-2.5297 5.0596-3.611 7.0754-1.3392.509.5754.988 1.2301 1.3972 1.9344l6.6663 12.7277c.1823.3094.432.5742.7308.775.2987.2009.6389.3327.9956.3857.3493.0496.7086.0099 1.0479-.0992.1197-.0397.3792.2282.2994.3274l-2.7843 4.1466c-1.7065 2.5297-5.1095 3.5912-7.1054 1.2897-.4874-.5716-.9216-1.1858-1.2974-1.8353l-6.6862-12.7178c-.2045-.3469-.4936-.6369-.8408-.8432-.3471-.2064-.741-.3224-1.1451-.3373-.3992 0-.7984.0992-1.1577.2877z"/><path d="m53.8934 28.961.07-.0898 3.6291-5.4466c1.1197-1.6858 2.9793-2.7233 4.6989-2.5737.2999.02.6298-.4588.3699-.6284-.7698-.4988-1.6296-.9477-2.4094-1.2669-1.6884-.6818-3.5138-.9576-5.3288-.8051-1.8149.1525-3.5685.729-5.1188 1.6829-1.5696.964-2.8967 2.2745-3.879 3.8306l-12.1971 19.2128c-.6592 1.0863-.8784 2.3825-.6127 3.6245.2657 1.2419.9961 2.336 2.0423 3.0591.517.3497 1.0994.5919 1.7123.7121s1.2438.116 1.855-.0125 1.1902-.3786 1.7024-.7353.9471-.8128 1.2788-1.341l12.1971-19.2327z"/><path d="m31.9501 90.3473c-1.3804 0-2.5696-.1345-3.5677-.4105-.8707-.2441-1.6906-.642-2.421-1.1751-.5758-.4458-1.049-1.0104-1.3873-1.6553-.3384-.6449-.5339-1.3551-.5735-2.0823-.002-.0241.0011-.0483.0092-.0711.008-.0228.0209-.0436.0376-.061.0168-.0174.0371-.031.0595-.04s.0465-.013.0707-.0119h4.5799c.0779 0 .1487.0566.177.1345.1416.4247.4035.7999.7858 1.1113.4247.3398 1.168.5026 2.2298.5026 1.083 0 1.8617-.1416 2.3289-.4459.4884-.2974.7291-.6867.7291-1.1751 0-.1912-.0496-.361-.1557-.5097-.1536-.2064-.3657-.3618-.6088-.446-.2761-.1486-.6583-.2831-1.1468-.4176-.4884-.1274-1.1113-.2548-1.8758-.3823-.8928-.1369-1.7768-.326-2.6475-.5663-.7619-.2061-1.4911-.5182-2.1661-.9273-.5855-.3957-1.0743-.9183-1.4299-1.529-.3643-.7207-.5396-1.522-.5097-2.3289 0-.7362.1699-1.4299.5097-2.067.3564-.6562.8575-1.2227 1.4653-1.6564.6583-.4672 1.4441-.8283 2.3572-1.0831.9344-.2761 1.9821-.4106 3.1501-.4106 1.3166 0 2.4209.1558 3.3128.4743.8232.2666 1.5823.7004 2.2298 1.2742.5516.4789.9872 1.0767 1.2742 1.7484.2549.6017.4177 1.2034.4955 1.8193.0071.0991-.0707.1911-.1769.1911h-4.5729c-.0411-.0005-.0808-.0146-.1129-.0403-.032-.0257-.0546-.0613-.0641-.1013-.1232-.4588-.4038-.8598-.7928-1.1326-.464-.3296-1.024-.4964-1.5927-.4742-.9769 0-1.6565.1415-2.0387.4459-.354.2903-.538.6442-.538 1.0477 0 .4459.2973.7999.8919 1.0476.5946.2407 1.5361.4389 2.8315.6088.9203.1274 1.7839.3115 2.6192.5451.8211.2336 1.5431.5592 2.159.9839.6371.4035 1.1326.9203 1.5007 1.5574.3539.6229.538 1.3732.538 2.2652 0 1.6139-.6796 2.9306-2.0387 3.9499-1.3379.9981-3.3129 1.4936-5.9249 1.4936zm17.5129-.2194c-1.0619 0-1.9821-.092-2.7395-.2831-.7036-.1795-1.3509-.5324-1.883-1.0265-.5095-.5019-.8823-1.1257-1.083-1.8121-.2542-.9121-.3735-1.8566-.354-2.8032v-6.9585c.0001-.0457-.0176-.0897-.0493-.1227s-.0749-.0524-.1206-.0542h-1.7201c-.0469 0-.092-.0187-.1251-.0519-.0332-.0332-.0519-.0782-.0519-.1251v-3.6597c0-.0991.085-.177.177-.177h1.7201c.0991 0 .177-.0779.177-.177v-3.4686c0-.0991.0779-.1769.177-.1769h4.5516c.0991 0 .177.0778.177.1769v3.4686c0 .0991.0779.177.177.177h3.4969c.0991 0 .1769.0779.1769.177v3.6597c0 .0991-.0707.177-.1769.177h-3.4969c-.047 0-.092.0186-.1252.0518s-.0518.0782-.0518.1251v6.1586c0 .9627.1416 1.6422.446 2.0387.3185.4034.9202.6087 1.8121.6087.5734 0 1.1468-.0283 1.7202-.0708.1061-.0141.1911.0708.1911.1699v3.6598c0 .092-.0708.1698-.1557.1769-.354.0354-.7292.0567-1.1185.0779-.446.0425-1.0264.0637-1.7484.0637zm11.3826.2194c-1.9325 0-3.4049-.5521-4.4242-1.6564-1.0194-1.0972-1.529-2.7819-1.529-5.0259v-10.4341c0-.0991.0708-.177.1769-.177h4.5517c.092 0 .177.0779.177.177v9.6696c0 1.0972.2194 1.9396.6654 2.5129.4672.5734 1.2104.8566 2.2298.8566 1.1043 0 1.9113-.3186 2.4209-.9557.5411-.6861.8242-1.5404.7999-2.4138v-9.6696c0-.0991.0708-.177.177-.177h4.5516c.0921 0 .177.0779.177.177v16.5289c0 .0991-.0849.177-.177.177h-4.1764c-.0457-.0019-.0889-.0213-.1206-.0543s-.0494-.077-.0493-.1227v-1.4511c0-.177-.2619-.2549-.3752-.1133-.4538.55-1.0059 1.0109-1.6281 1.3591-1.0577.568-2.2476.8441-3.4474.7999zm19.771 0c-1.1043 0-2.1024-.1769-2.9943-.5379-.8791-.3731-1.663-.9392-2.2935-1.6565-.6742-.7902-1.1736-1.7142-1.4653-2.7111-.3601-1.2295-.5319-2.5063-.5097-3.7872v-.6371c0-2.7182.63-4.7852 1.883-6.2081 1.2741-1.444 3.0651-2.1661 5.3798-2.1661.9557 0 1.8618.2195 2.7112.6654.7079.3469 1.3096.8212 1.8192 1.4299.1133.1345.3469.0567.3469-.1203v-6.8027c0-.0991.0779-.177.177-.177h4.5516c.0991 0 .177.0779.177.177v21.9442c0 .0991-.0779.177-.177.177h-4.1764c-.0457-.0019-.089-.0213-.1206-.0543-.0317-.033-.0494-.077-.0493-.1227v-1.5007c0-.177-.2478-.2548-.354-.1133-.4412.5626-.9898 1.0318-1.6139 1.3804-1.006.546-2.1329.8308-3.2775.8282zm1.1822-4.0419c1.0406 0 1.9113-.3611 2.6121-1.0831.722-.722 1.083-1.7555 1.083-3.0934v-1.5927c0-1.2742-.361-2.2228-1.083-2.8599-.7076-.6638-1.6494-1.0202-2.6192-.991-1.0123 0-1.8405.361-2.4776 1.0831-.6158.7008-.9202 1.7838-.9202 3.2491v.6371c0 1.529.3115 2.6899.9486 3.4686.2908.3728.6638.6734 1.0898.8784.4261.2051.8937.309 1.3665.3038zm12.1118-13.0745c0-.0991.0778-.177.1769-.177h4.5517c.0991 0 .177.0779.177.177v16.5289c0 .0991-.0779.177-.177.177h-4.5587c-.047 0-.092-.0187-.1252-.0519-.0332-.0331-.0518-.0782-.0518-.1251v-16.5289zm2.4492-1.7697c-.7735.0461-1.5355-.2045-2.1307-.7008-.2423-.2414-.4326-.5299-.5592-.8476-.1266-.3178-.1869-.6581-.177-1 0-.7433.2478-1.3449.7362-1.8192.5864-.5144 1.3522-.7764 2.1307-.7291.9203 0 1.614.2406 2.1024.7291.2517.2297.4505.5113.5825.8255.132.3141.1941.6532.182.9937 0 .7433-.2548 1.3591-.7645 1.8476-.4884.4672-1.1892.7008-2.1024.7008zm13.2232 18.8861c-1.182 0-2.301-.1628-3.341-.5096-1.034-.3445-1.98-.9107-2.773-1.659-.792-.7483-1.411-1.6606-1.814-2.6732-.467-1.2291-.693-2.5365-.666-3.8509v-.6371c0-1.3803.22-2.5908.666-3.6314.415-.9967 1.046-1.8889 1.847-2.6121.786-.7008 1.699-1.2317 2.74-1.5927 1.04-.361 2.159-.545 3.348-.545s2.301.184 3.341.545c1.041.361 1.954.8919 2.74 1.5927.801.7232 1.432 1.6154 1.847 2.6121.446 1.0406.673 2.2511.673 3.6314v.6371c0 1.4441-.227 2.7183-.673 3.8225-.403 1.0126-1.022 1.925-1.814 2.6733-.793.7483-1.739 1.3145-2.773 1.659-1.04.361-2.152.545-3.341.545zm0-4.0773c1.154 0 2.032-.4106 2.647-1.2388.616-.8282.921-1.9538.921-3.3766v-.6371c0-1.2742-.305-2.3006-.921-3.0863-.309-.4002-.711-.7194-1.171-.9302s-.964-.307-1.469-.2803c-1.147 0-2.032.3964-2.647 1.2034-.65.8963-.975 1.9876-.921 3.0934v.6371c0 1.4653.305 2.5979.921 3.4049.31.4012.713.721 1.174.9319s.967.3065 1.473.2786z"/></g></svg>