<svg width="144" height="95" viewBox="0 0 144 95" fill="none" xmlns="http://www.w3.org/2000/svg"><path d="M75.0501 44.3636C73.3381 46.9126 69.9301 47.9786 67.9321 45.6586C69.1256 47.0365 70.6197 48.1218 72.2991 48.8306C73.9674 49.5336 75.777 49.8367 77.5833 49.7157C79.3896 49.5947 81.1425 49.0529 82.7021 48.1336C84.2789 47.2056 85.6231 45.9298 86.6321 44.4036L108.24 11.8946C108.914 10.8175 109.152 9.5241 108.906 8.27761C108.666 7.03753 107.956 5.93826 106.924 5.20961C106.42 4.85488 105.851 4.60364 105.25 4.47043C104.648 4.33723 104.026 4.32471 103.42 4.43361C102.19 4.65998 101.099 5.36298 100.385 6.38961C91.9644 19.0611 83.5194 31.7165 75.0501 44.3556V44.3636V44.3636Z" fill="url(#paint0_linear_524_1335)"/><path d="M53.9094 28.9094L57.5954 23.3494C59.2914 20.8004 62.6684 19.7094 64.6894 21.9974C65.2054 22.5834 65.6804 23.2354 66.0934 23.9514L74.7734 38.7784C74.9564 39.0934 75.2064 39.3624 75.5044 39.5644C75.8002 39.7668 76.1389 39.8978 76.4939 39.9473C76.8489 39.9967 77.2105 39.9632 77.5504 39.8494C77.8904 39.7354 78.2004 39.5454 78.4594 39.2914L75.0504 44.3634C73.3384 46.9124 69.9304 47.9784 67.9324 45.6584C67.4413 45.0833 67.0035 44.4647 66.6244 43.8104L57.9364 28.9914C57.7313 28.6374 57.4394 28.3414 57.0884 28.1314C56.741 27.9239 56.3456 27.8105 55.9411 27.8022C55.5366 27.794 55.1369 27.8912 54.7814 28.0844C54.4244 28.2784 54.1214 28.5624 53.9014 28.9104H53.9094V28.9094Z" fill="url(#paint1_linear_524_1335)"/><path d="M53.9724 28.8205L53.9094 28.9105L41.7094 48.1905C41.3705 48.7156 40.9313 49.1687 40.4171 49.5239C39.9028 49.8791 39.3235 50.1294 38.7124 50.2605C37.4874 50.5175 36.2124 50.2705 35.1644 49.5705C34.1087 48.8596 33.3718 47.7651 33.1104 46.5195C32.8425 45.2664 33.0663 43.9583 33.7354 42.8655L45.9354 23.5855C46.9174 22.0289 48.243 20.718 49.8104 19.7535C51.3603 18.7976 53.1131 18.2196 54.9275 18.066C56.7419 17.9125 58.567 18.1877 60.2554 18.8695C61.955 19.5564 63.4729 20.627 64.6904 21.9975C62.6684 19.7175 59.2914 20.8005 57.5954 23.3495L53.9724 28.8205V28.8205Z" fill="url(#paint2_linear_524_1335)"/><path d="M31.9501 90.3473C30.5697 90.3473 29.3805 90.2128 28.3824 89.9368C27.5117 89.6927 26.6918 89.2948 25.9614 88.7617C25.3856 88.3159 24.9124 87.7513 24.5741 87.1064C24.2357 86.4615 24.0402 85.7513 24.0006 85.0241C23.9986 85 24.0017 84.9758 24.0098 84.953C24.0178 84.9302 24.0307 84.9094 24.0474 84.892C24.0642 84.8746 24.0845 84.861 24.1069 84.852C24.1293 84.843 24.1534 84.839 24.1776 84.8401H28.7575C28.8354 84.8401 28.9062 84.8967 28.9345 84.9746C29.0761 85.3993 29.338 85.7745 29.7203 86.0859C30.145 86.4257 30.8883 86.5885 31.9501 86.5885C33.0331 86.5885 33.8118 86.4469 34.279 86.1426C34.7674 85.8452 35.0081 85.4559 35.0081 84.9675C35.0081 84.7763 34.9585 84.6065 34.8524 84.4578C34.6988 84.2514 34.4867 84.096 34.2436 84.0118C33.9675 83.8632 33.5853 83.7287 33.0968 83.5942C32.6084 83.4668 31.9855 83.3394 31.221 83.2119C30.3282 83.075 29.4442 82.8859 28.5735 82.6456C27.8116 82.4395 27.0824 82.1274 26.4074 81.7183C25.8219 81.3226 25.3331 80.8 24.9775 80.1893C24.6132 79.4686 24.4379 78.6673 24.4678 77.8604C24.4678 77.1242 24.6377 76.4305 24.9775 75.7934C25.3339 75.1372 25.835 74.5707 26.4428 74.137C27.1011 73.6698 27.8869 73.3087 28.8 73.0539C29.7344 72.7778 30.7821 72.6433 31.9501 72.6433C33.2667 72.6433 34.371 72.7991 35.2629 73.1176C36.0861 73.3842 36.8452 73.818 37.4927 74.3918C38.0443 74.8707 38.4799 75.4685 38.7669 76.1402C39.0218 76.7419 39.1846 77.3436 39.2624 77.9595C39.2695 78.0586 39.1917 78.1506 39.0855 78.1506H34.5126C34.4715 78.1501 34.4318 78.136 34.3997 78.1103C34.3677 78.0846 34.3451 78.049 34.3356 78.009C34.2124 77.5502 33.9318 77.1492 33.5428 76.8764C33.0788 76.5468 32.5188 76.38 31.9501 76.4022C30.9732 76.4022 30.2936 76.5437 29.9114 76.8481C29.5574 77.1384 29.3734 77.4923 29.3734 77.8958C29.3734 78.3417 29.6707 78.6957 30.2653 78.9434C30.8599 79.1841 31.8014 79.3823 33.0968 79.5522C34.0171 79.6796 34.8807 79.8637 35.716 80.0973C36.5371 80.3309 37.2591 80.6565 37.875 81.0812C38.5121 81.4847 39.0076 82.0015 39.3757 82.6386C39.7296 83.2615 39.9137 84.0118 39.9137 84.9038C39.9137 86.5177 39.2341 87.8344 37.875 88.8537C36.5371 89.8518 34.5621 90.3473 31.9501 90.3473V90.3473ZM49.463 90.1279C48.4011 90.1279 47.4809 90.0359 46.7235 89.8448C46.0199 89.6653 45.3726 89.3124 44.8405 88.8183C44.331 88.3164 43.9582 87.6926 43.7575 87.0062C43.5033 86.0941 43.384 85.1496 43.4035 84.203V77.2445C43.4036 77.1988 43.3859 77.1548 43.3542 77.1218C43.3225 77.0888 43.2793 77.0694 43.2336 77.0676H41.5135C41.4666 77.0676 41.4215 77.0489 41.3884 77.0157C41.3552 76.9825 41.3365 76.9375 41.3365 76.8906V73.2309C41.3365 73.1318 41.4215 73.0539 41.5135 73.0539H43.2336C43.3327 73.0539 43.4106 72.976 43.4106 72.8769V69.4083C43.4106 69.3092 43.4885 69.2314 43.5876 69.2314H48.1392C48.2383 69.2314 48.3162 69.3092 48.3162 69.4083V72.8769C48.3162 72.976 48.3941 73.0539 48.4932 73.0539H51.9901C52.0892 73.0539 52.167 73.1318 52.167 73.2309V76.8906C52.167 76.9897 52.0963 77.0676 51.9901 77.0676H48.4932C48.4462 77.0676 48.4012 77.0862 48.368 77.1194C48.3348 77.1526 48.3162 77.1976 48.3162 77.2445V83.4031C48.3162 84.3658 48.4578 85.0453 48.7622 85.4418C49.0807 85.8452 49.6824 86.0505 50.5743 86.0505C51.1477 86.0505 51.7211 86.0222 52.2945 85.9797C52.4006 85.9656 52.4856 86.0505 52.4856 86.1496V89.8094C52.4856 89.9014 52.4148 89.9792 52.3299 89.9863C51.9759 90.0217 51.6007 90.043 51.2114 90.0642C50.7654 90.1067 50.185 90.1279 49.463 90.1279V90.1279ZM60.8456 90.3473C58.9131 90.3473 57.4407 89.7952 56.4214 88.6909C55.402 87.5937 54.8924 85.909 54.8924 83.665V73.2309C54.8924 73.1318 54.9632 73.0539 55.0693 73.0539H59.621C59.713 73.0539 59.798 73.1318 59.798 73.2309V82.9005C59.798 83.9977 60.0174 84.8401 60.4634 85.4134C60.9306 85.9868 61.6738 86.27 62.6932 86.27C63.7975 86.27 64.6045 85.9514 65.1141 85.3143C65.6552 84.6282 65.9383 83.7739 65.914 82.9005V73.2309C65.914 73.1318 65.9848 73.0539 66.091 73.0539H70.6426C70.7347 73.0539 70.8196 73.1318 70.8196 73.2309V89.7598C70.8196 89.8589 70.7347 89.9368 70.6426 89.9368H66.4662C66.4205 89.9349 66.3773 89.9155 66.3456 89.8825C66.3139 89.8495 66.2962 89.8055 66.2963 89.7598V88.3087C66.2963 88.1317 66.0344 88.0538 65.9211 88.1954C65.4673 88.7454 64.9152 89.2063 64.293 89.5545C63.2353 90.1225 62.0454 90.3986 60.8456 90.3544V90.3473ZM80.6166 90.3473C79.5123 90.3473 78.5142 90.1704 77.6223 89.8094C76.7432 89.4363 75.9593 88.8702 75.3288 88.1529C74.6546 87.3627 74.1552 86.4387 73.8635 85.4418C73.5034 84.2123 73.3316 82.9355 73.3538 81.6546V81.0175C73.3538 78.2993 73.9838 76.2323 75.2368 74.8094C76.5109 73.3654 78.3019 72.6433 80.6166 72.6433C81.5723 72.6433 82.4784 72.8628 83.3278 73.3087C84.0357 73.6556 84.6374 74.1299 85.147 74.7386C85.2603 74.8731 85.4939 74.7953 85.4939 74.6183V67.8156C85.4939 67.7165 85.5718 67.6386 85.6709 67.6386H90.2225C90.3216 67.6386 90.3995 67.7165 90.3995 67.8156V89.7598C90.3995 89.8589 90.3216 89.9368 90.2225 89.9368H86.0461C86.0004 89.9349 85.9571 89.9155 85.9255 89.8825C85.8938 89.8495 85.8761 89.8055 85.8762 89.7598V88.2591C85.8762 88.0821 85.6284 88.0043 85.5222 88.1458C85.081 88.7084 84.5324 89.1776 83.9083 89.5262C82.9023 90.0722 81.7754 90.357 80.6308 90.3544L80.6166 90.3473ZM81.7988 86.3054C82.8394 86.3054 83.7101 85.9443 84.4109 85.2223C85.1329 84.5003 85.4939 83.4668 85.4939 82.1289V80.5362C85.4939 79.262 85.1329 78.3134 84.4109 77.6763C83.7033 77.0125 82.7615 76.6561 81.7917 76.6853C80.7794 76.6853 79.9512 77.0463 79.3141 77.7684C78.6983 78.4692 78.3939 79.5522 78.3939 81.0175V81.6546C78.3939 83.1836 78.7054 84.3445 79.3425 85.1232C79.6333 85.496 80.0063 85.7966 80.4323 86.0016C80.8584 86.2067 81.326 86.3106 81.7988 86.3054V86.3054ZM93.9106 73.2309C93.9106 73.1318 93.9884 73.0539 94.0875 73.0539H98.6392C98.7383 73.0539 98.8162 73.1318 98.8162 73.2309V89.7598C98.8162 89.8589 98.7383 89.9368 98.6392 89.9368H94.0805C94.0335 89.9368 93.9885 89.9181 93.9553 89.8849C93.9221 89.8518 93.9035 89.8067 93.9035 89.7598V73.2309H93.9106ZM96.3598 71.4612C95.5863 71.5073 94.8243 71.2567 94.2291 70.7604C93.9868 70.519 93.7965 70.2305 93.6699 69.9128C93.5433 69.595 93.483 69.2547 93.4929 68.9128C93.4929 68.1695 93.7407 67.5679 94.2291 67.0936C94.8155 66.5792 95.5813 66.3172 96.3598 66.3645C97.2801 66.3645 97.9738 66.6051 98.4622 67.0936C98.7139 67.3233 98.9127 67.6049 99.0447 67.9191C99.1767 68.2332 99.2388 68.5723 99.2267 68.9128C99.2267 69.6561 98.9719 70.2719 98.4622 70.7604C97.9738 71.2276 97.273 71.4612 96.3598 71.4612ZM109.583 90.3473C108.401 90.3473 107.282 90.1845 106.242 89.8377C105.208 89.4932 104.262 88.927 103.469 88.1787C102.677 87.4304 102.058 86.5181 101.655 85.5055C101.188 84.2764 100.962 82.969 100.989 81.6546V81.0175C100.989 79.6372 101.209 78.4267 101.655 77.3861C102.07 76.3894 102.701 75.4972 103.502 74.774C104.288 74.0732 105.201 73.5423 106.242 73.1813C107.282 72.8203 108.401 72.6363 109.59 72.6363C110.779 72.6363 111.891 72.8203 112.931 73.1813C113.972 73.5423 114.885 74.0732 115.671 74.774C116.472 75.4972 117.103 76.3894 117.518 77.3861C117.964 78.4267 118.191 79.6372 118.191 81.0175V81.6546C118.191 83.0987 117.964 84.3729 117.518 85.4771C117.115 86.4897 116.496 87.4021 115.704 88.1504C114.911 88.8987 113.965 89.4649 112.931 89.8094C111.891 90.1704 110.779 90.3544 109.59 90.3544L109.583 90.3473ZM109.583 86.27C110.737 86.27 111.615 85.8594 112.23 85.0312C112.846 84.203 113.151 83.0774 113.151 81.6546V81.0175C113.151 79.7433 112.846 78.7169 112.23 77.9312C111.921 77.531 111.519 77.2118 111.059 77.001C110.599 76.7902 110.095 76.694 109.59 76.7207C108.443 76.7207 107.558 77.1171 106.943 77.9241C106.293 78.8204 105.968 79.9117 106.022 81.0175V81.6546C106.022 83.1199 106.327 84.2525 106.943 85.0595C107.253 85.4607 107.656 85.7805 108.117 85.9914C108.578 86.2023 109.084 86.2979 109.59 86.27H109.583Z" fill="#2E3137"/><defs><linearGradient id="paint0_linear_524_1335" x1="88.466" y1="26.957" x2="88.466" y2="49.742" gradientUnits="userSpaceOnUse"><stop stop-color="#F46837"/><stop offset="1" stop-color="#DD5236"/></linearGradient><linearGradient id="paint1_linear_524_1335" x1="66.18" y1="20.747" x2="78.658" y2="40.701" gradientUnits="userSpaceOnUse"><stop stop-color="#7E51C2"/><stop offset=".223" stop-color="#945DD6"/><stop offset=".76" stop-color="#945DD6"/><stop offset="1" stop-color="#7E51C2"/></linearGradient><linearGradient id="paint2_linear_524_1335" x1="48.845" y1="34.147" x2="48.845" y2="50.359" gradientUnits="userSpaceOnUse"><stop stop-color="#13ADC7"/><stop offset="1" stop-color="#1497B8"/></linearGradient></defs></svg>