<svg fill="none" height="64" viewBox="0 0 226 64" width="226" xmlns="http://www.w3.org/2000/svg"><g fill="#2e3137"><path d="m46.0037 48.1741c-1.342 1.9404-3.7055 2.9883-5.6384 2.2897-.2704-.097-.5007.1261-.2704.2911.9014.7082 2.1232 1.3389 3.1547 1.756 1.6704.6819 3.4824.9756 5.2909.8576 1.8086-.1179 3.5636-.6442 5.1246-1.5367 1.5723-.8926 2.9143-2.1345 3.9359-3.6189l21.6422-31.5318c.6713-1.044.9083-2.2961.6629-3.5029-.2455-1.2068-.9549-2.2782-1.9849-2.9975-.5059-.34643-1.0779-.59181-1.6827-.72185s-1.2302-.14213-1.8399-.03557c-.6096.10657-1.1913.32965-1.711.65622-.5197.3266-.9672.7502-1.3162 1.246-8.4315 12.2986-16.8875 24.5815-25.3677 36.8486z"/><path d="m26.7107 33.6071c-.0699.0291-.2495-.1165-.1996-.1748l3.0138-4.4273c1.6965-2.4759 5.0596-3.5342 7.0755-1.3108.5089.5632.9879 1.204 1.3971 1.8933l6.6663 12.4569c.1823.3028.432.5619.7308.7585.2987.1966.639.3256.9956.3775.3493.0485.7086.0097 1.0479-.0971.1197-.0388.3792.2233.2994.3204l-2.7843 4.0584c-1.7065 2.4759-5.1095 3.5148-7.1054 1.2622-.4873-.5593-.9216-1.1605-1.2973-1.7962l-6.6863-12.4472c-.2045-.3395-.4936-.6233-.8408-.8253-.3471-.2019-.741-.3155-1.1451-.3301-.3992 0-.7984.0971-1.1577.2816z"/><path d="m24.8934 33.4291.07-.0879 3.6291-5.3307c1.1198-1.65 2.9793-2.6654 4.6989-2.5189.3.0195.6299-.4491.3699-.6151-.7698-.4882-1.6296-.9275-2.4094-1.2399-1.6883-.6673-3.5138-.9373-5.3288-.788-1.8149.1492-3.5684.7135-5.1187 1.6471-1.5697.9435-2.8968 2.2261-3.8791 3.7491l-12.19715 18.804c-.6592 1.0632-.87831 2.3318-.61266 3.5474.26566 1.2155.99608 2.2862 2.04233 2.9939.51701.3424 1.09935.5794 1.71226.6971.61291.1176 1.24381.1134 1.85503-.0123.61119-.1258 1.19019-.3705 1.70239-.7197.5122-.3491.9471-.7955 1.2788-1.3124l12.1971-18.8235z"/><path d="m106.6 47.5061c-1.84 0-3.426-.1755-4.757-.5358-1.161-.3185-2.2539-.8378-3.2278-1.5334-.7678-.5818-1.3987-1.3186-1.8498-2.1602-.4511-.8415-.7119-1.7683-.7646-2.7173-.0027-.0314.0015-.063.0122-.0927.0108-.0298.0279-.0569.0502-.0796.0224-.0228.0494-.0406.0793-.0523s.0621-.017.0943-.0155h6.1062c.104 0 .199.0739.236.1755.189.5542.538 1.0438 1.048 1.4503.566.4434 1.557.6558 2.973.6558 1.444 0 2.482-.1847 3.105-.5819.652-.388.972-.8961.972-1.5335 0-.2494-.066-.4711-.207-.6651-.205-.2693-.488-.4721-.812-.5819-.368-.194-.878-.3695-1.529-.545-.651-.1663-1.482-.3326-2.501-.4989-1.19-.1786-2.369-.4254-3.53-.739-1.016-.2689-1.988-.6763-2.8881-1.2101-.7807-.5164-1.4324-1.1984-1.9066-1.9953-.4856-.9405-.7195-1.9861-.6796-3.0392 0-.9607.2266-1.8659.6796-2.6973.4752-.8563 1.1433-1.5955 1.9537-2.1616.878-.6097 1.925-1.0808 3.143-1.4134 1.246-.3602 2.643-.5357 4.2-.5357 1.756 0 3.228.2032 4.417.6189 1.098.3478 2.11.9139 2.973 1.6627.736.625 1.317 1.4052 1.699 2.2817.34.7852.557 1.5704.661 2.3741.009.1293-.094.2494-.236.2494h-6.097c-.055-.0006-.108-.0192-.151-.0526-.042-.0335-.073-.08-.085-.1322-.164-.5988-.539-1.122-1.057-1.478-.619-.4302-1.366-.6478-2.124-.6189-1.302 0-2.208.1848-2.718.582-.472.3787-.717.8406-.717 1.3671 0 .582.396 1.0439 1.189 1.3672.793.3141 2.048.5727 3.775.7944 1.227.1663 2.379.4065 3.492.7113 1.095.3048 2.058.7298 2.879 1.284.849.5266 1.51 1.2009 2.001 2.0323.472.8129.717 1.7921.717 2.956 0 2.1062-.906 3.8243-2.718 5.1546-1.784 1.3024-4.417 1.9491-7.9 1.9491zm23.351-.2864c-1.416 0-2.643-.1201-3.653-.3695-.938-.2342-1.801-.6947-2.511-1.3394-.679-.655-1.176-1.469-1.444-2.3648-.339-1.1903-.498-2.4227-.472-3.6581v-9.0805c0-.0597-.023-.1171-.065-.1601-.043-.0431-.1-.0685-.161-.0709h-2.294c-.062 0-.122-.0243-.167-.0676-.044-.0433-.069-.1021-.069-.1633v-4.7758c0-.1293.114-.231.236-.231h2.294c.132 0 .236-.1016.236-.2309v-4.5264c0-.1293.104-.2309.236-.2309h6.069c.132 0 .236.1016.236.2309v4.5264c0 .1293.103.2309.236.2309h4.662c.132 0 .236.1017.236.231v4.7758c0 .1293-.094.2309-.236.2309h-4.662c-.063 0-.123.0244-.167.0677-.045.0433-.069.102-.069.1633v8.0366c0 1.2563.188 2.1432.594 2.6605.425.5265 1.227.7944 2.416.7944.765 0 1.529-.037 2.294-.0924.142-.0185.255.0924.255.2217v4.7758c0 .1201-.095.2217-.208.231-.472.0461-.972.0739-1.491.1016-.595.0554-1.369.0831-2.331.0831zm15.176.2864c-2.576 0-4.539-.7206-5.898-2.1616-1.36-1.4318-2.039-3.6304-2.039-6.5587v-13.6161c0-.1293.094-.231.236-.231h6.069c.122 0 .236.1017.236.231v12.6185c0 1.4318.292 2.5311.887 3.2793.623.7482 1.614 1.1177 2.973 1.1177 1.472 0 2.548-.4156 3.228-1.247.721-.8954 1.099-2.0102 1.066-3.15v-12.6185c0-.1293.095-.231.236-.231h6.069c.123 0 .236.1017.236.231v21.5697c0 .1293-.113.2309-.236.2309h-5.568c-.061-.0024-.119-.0278-.161-.0708-.042-.0431-.066-.1005-.066-.1601v-1.8937c0-.231-.349-.3326-.5-.1478-.605.7177-1.341 1.3191-2.171 1.7736-1.41.7412-2.997 1.1015-4.597 1.0438zm26.362 0c-1.473 0-2.803-.231-3.993-.7021-1.172-.4868-2.217-1.2256-3.058-2.1616-.899-1.0312-1.564-2.2369-1.953-3.5379-.48-1.6044-.71-3.2706-.68-4.9421v-.8314c0-3.5472.84-6.2446 2.511-8.1013 1.699-1.8845 4.087-2.8267 7.173-2.8267 1.274 0 2.482.2863 3.615.8683.944.4526 1.746 1.0716 2.425 1.866.151.1755.463.0739.463-.1571v-8.8772c0-.1294.104-.231.236-.231h6.069c.132 0 .236.1016.236.231v28.6364c0 .1293-.104.2309-.236.2309h-5.569c-.061-.0024-.118-.0278-.161-.0708-.042-.0431-.065-.1005-.065-.1601v-1.9584c0-.2309-.331-.3326-.472-.1478-.589.7341-1.32 1.3464-2.152 1.8013-1.342.7126-2.844 1.0842-4.37 1.0808zm1.576-5.2747c1.387 0 2.548-.4711 3.483-1.4133.963-.9422 1.444-2.2909 1.444-4.0368v-2.0785c0-1.6627-.481-2.9006-1.444-3.7319-.944-.8663-2.199-1.3314-3.492-1.2933-1.35 0-2.454.4711-3.304 1.4134-.821.9145-1.227 2.3278-1.227 4.24v.8314c0 1.9953.415 3.5102 1.265 4.5264.388.4864.885.8787 1.453 1.1463s1.192.4032 1.822.3963zm16.149-17.0617c0-.1293.104-.231.236-.231h6.069c.132 0 .236.1017.236.231v21.5697c0 .1293-.104.2309-.236.2309h-6.078c-.063 0-.123-.0243-.167-.0676-.044-.0434-.069-.1021-.069-.1633v-21.5697zm3.266-2.3094c-1.032.0602-2.048-.2669-2.841-.9145-.323-.3151-.577-.6915-.746-1.1061-.169-.4147-.249-.8588-.236-1.3049 0-.97.331-1.7552.982-2.3741.782-.6712 1.803-1.0132 2.841-.9514 1.227 0 2.152.314 2.803.9514.336.2998.601.6673.777 1.0773.176.4099.258.8524.242 1.2968 0 .9699-.339 1.7736-1.019 2.411-.651.6097-1.586.9145-2.803.9145zm17.631 24.6458c-1.577 0-3.068-.2125-4.455-.6651-1.379-.4496-2.641-1.1884-3.697-2.1649s-1.882-2.1671-2.419-3.4885c-.623-1.6038-.924-3.31-.888-5.0252v-.8314c0-1.8013.293-3.381.888-4.7389.553-1.3007 1.394-2.4649 2.463-3.4086 1.048-.9145 2.265-1.6074 3.653-2.0785 1.387-.4711 2.878-.7113 4.464-.7113s3.068.2402 4.455.7113 2.605 1.164 3.653 2.0785c1.068.9437 1.91 2.1079 2.463 3.4086.595 1.3579.897 2.9376.897 4.7389v.8314c0 1.8844-.302 3.5472-.897 4.9882-.537 1.3214-1.363 2.512-2.419 3.4885-1.057.9765-2.318 1.7154-3.697 2.1649-1.387.4711-2.869.7113-4.455.7113zm0-5.3209c1.538 0 2.708-.5357 3.53-1.6165.821-1.0808 1.227-2.5496 1.227-4.4063v-.8314c0-1.6628-.406-3.0022-1.227-4.0276-.413-.5222-.949-.9387-1.562-1.2139-.613-.2751-1.285-.4006-1.959-.3657-1.529 0-2.709.5173-3.53 1.5704-.866 1.1696-1.299 2.5937-1.227 4.0368v.8314c0 1.9121.406 3.3901 1.227 4.4432.414.5236.951.9409 1.566 1.2161s1.289.3999 1.964.3635z"/></g></svg>