<svg width="226" height="64" viewBox="0 0 226 64" fill="none" xmlns="http://www.w3.org/2000/svg"><path d="M46.0501 48.5041C44.3381 50.9989 40.9301 52.0422 38.9321 49.7716C40.1256 51.1202 41.6197 52.1823 43.2991 52.8761C44.9674 53.5641 46.777 53.8608 48.5833 53.7423C50.3896 53.6239 52.1425 53.0936 53.7021 52.1939C55.2789 51.2856 56.6231 50.037 57.6321 48.5433L79.2401 16.7259C79.9141 15.6718 80.1522 14.4059 79.9061 13.1859C79.666 11.9722 78.9559 10.8963 77.9241 10.1832C77.4205 9.836 76.8514 9.5901 76.2499 9.45973C75.6484 9.32936 75.0265 9.31711 74.4201 9.42369C73.1901 9.64524 72.0994 10.3333 71.3851 11.3381C62.9644 23.74 54.5194 36.1261 46.0501 48.4963V48.5041V48.5041Z" fill="url(#paint0_linear_524_403)"/><path d="M24.9094 33.3787L28.5954 27.937C30.2914 25.4422 33.6684 24.3744 35.6894 26.6137C36.2054 27.1873 36.6804 27.8254 37.0934 28.5262L45.7734 43.0377C45.9564 43.346 46.2064 43.6093 46.5044 43.807C46.8002 44.0051 47.1389 44.1333 47.4939 44.1817C47.8489 44.2301 48.2105 44.1973 48.5504 44.0859C48.8904 43.9743 49.2004 43.7884 49.4594 43.5398L46.0504 48.5039C44.3384 50.9986 40.9304 52.0419 38.9324 49.7713C38.4413 49.2084 38.0035 48.603 37.6244 47.9626L28.9364 33.4589C28.7313 33.1125 28.4394 32.8228 28.0884 32.6172C27.741 32.4142 27.3456 32.3032 26.9411 32.2951C26.5366 32.287 26.1369 32.3822 25.7814 32.5712C25.4244 32.7611 25.1214 33.0391 24.9014 33.3797H24.9094V33.3787Z" fill="url(#paint1_linear_524_403)"/><path d="M24.9724 33.2916L24.9094 33.3796L12.7094 52.2494C12.3705 52.7634 11.9313 53.2069 11.4171 53.5545C10.9028 53.9022 10.3235 54.1471 9.71242 54.2754C8.48742 54.5269 7.21242 54.2852 6.16442 53.6001C5.10866 52.9044 4.37177 51.8331 4.11042 50.614C3.84255 49.3876 4.06629 48.1073 4.73542 47.0377L16.9354 28.1679C17.9174 26.6445 19.243 25.3615 20.8104 24.4175C22.3603 23.482 24.1131 22.9163 25.9275 22.766C27.7419 22.6157 29.567 22.885 31.2554 23.5523C32.955 24.2247 34.4729 25.2724 35.6904 26.6137C33.6684 24.3822 30.2914 25.4422 28.5954 27.937L24.9724 33.2916V33.2916Z" fill="url(#paint2_linear_524_403)"/><path d="M106.6 47.5061C104.76 47.5061 103.174 47.3306 101.843 46.9703C100.682 46.6518 99.5891 46.1325 98.6152 45.4369C97.8474 44.8551 97.2165 44.1183 96.7654 43.2767C96.3143 42.4352 96.0535 41.5084 96.0008 40.5594C95.9981 40.528 96.0023 40.4964 96.013 40.4667C96.0238 40.4369 96.0409 40.4098 96.0632 40.3871C96.0856 40.3643 96.1126 40.3465 96.1425 40.3348C96.1724 40.3231 96.2046 40.3178 96.2368 40.3193H102.343C102.447 40.3193 102.542 40.3932 102.579 40.4948C102.768 41.049 103.117 41.5386 103.627 41.9451C104.193 42.3885 105.184 42.6009 106.6 42.6009C108.044 42.6009 109.082 42.4162 109.705 42.019C110.357 41.631 110.677 41.1229 110.677 40.4855C110.677 40.2361 110.611 40.0144 110.47 39.8204C110.265 39.5511 109.982 39.3483 109.658 39.2385C109.29 39.0445 108.78 38.869 108.129 38.6935C107.478 38.5272 106.647 38.3609 105.628 38.1946C104.438 38.016 103.259 37.7692 102.098 37.4556C101.082 37.1867 100.11 36.7793 99.2099 36.2455C98.4292 35.7291 97.7775 35.0471 97.3033 34.2502C96.8177 33.3097 96.5838 32.2641 96.6237 31.211C96.6237 30.2503 96.8503 29.3451 97.3033 28.5137C97.7785 27.6574 98.4466 26.9182 99.257 26.3521C100.135 25.7424 101.182 25.2713 102.4 24.9387C103.646 24.5785 105.043 24.403 106.6 24.403C108.356 24.403 109.828 24.6062 111.017 25.0219C112.115 25.3697 113.127 25.9358 113.99 26.6846C114.726 27.3096 115.307 28.0898 115.689 28.9663C116.029 29.7515 116.246 30.5367 116.35 31.3404C116.359 31.4697 116.256 31.5898 116.114 31.5898H110.017C109.962 31.5892 109.909 31.5706 109.866 31.5372C109.824 31.5037 109.793 31.4572 109.781 31.405C109.617 30.8062 109.242 30.283 108.724 29.927C108.105 29.4968 107.358 29.2792 106.6 29.3081C105.298 29.3081 104.392 29.4929 103.882 29.8901C103.41 30.2688 103.165 30.7307 103.165 31.2572C103.165 31.8392 103.561 32.3011 104.354 32.6244C105.147 32.9385 106.402 33.1971 108.129 33.4188C109.356 33.5851 110.508 33.8253 111.621 34.1301C112.716 34.4349 113.679 34.8599 114.5 35.4141C115.349 35.9407 116.01 36.615 116.501 37.4464C116.973 38.2593 117.218 39.2385 117.218 40.4024C117.218 42.5086 116.312 44.2267 114.5 45.557C112.716 46.8594 110.083 47.5061 106.6 47.5061V47.5061ZM129.951 47.2197C128.535 47.2197 127.308 47.0996 126.298 46.8502C125.36 46.616 124.497 46.1555 123.787 45.5108C123.108 44.8558 122.611 44.0418 122.343 43.146C122.004 41.9557 121.845 40.7233 121.871 39.4879V30.4074C121.871 30.3477 121.848 30.2903 121.806 30.2473C121.763 30.2042 121.706 30.1788 121.645 30.1764H119.351C119.289 30.1764 119.229 30.1521 119.184 30.1088C119.14 30.0655 119.115 30.0067 119.115 29.9455V25.1697C119.115 25.0404 119.229 24.9387 119.351 24.9387H121.645C121.777 24.9387 121.881 24.8371 121.881 24.7078V20.1814C121.881 20.0521 121.985 19.9505 122.117 19.9505H128.186C128.318 19.9505 128.422 20.0521 128.422 20.1814V24.7078C128.422 24.8371 128.525 24.9387 128.658 24.9387H133.32C133.452 24.9387 133.556 25.0404 133.556 25.1697V29.9455C133.556 30.0748 133.462 30.1764 133.32 30.1764H128.658C128.595 30.1764 128.535 30.2008 128.491 30.2441C128.446 30.2874 128.422 30.3461 128.422 30.4074V38.444C128.422 39.7003 128.61 40.5872 129.016 41.1045C129.441 41.631 130.243 41.8989 131.432 41.8989C132.197 41.8989 132.961 41.8619 133.726 41.8065C133.868 41.788 133.981 41.8989 133.981 42.0282V46.804C133.981 46.9241 133.886 47.0257 133.773 47.035C133.301 47.0811 132.801 47.1089 132.282 47.1366C131.687 47.192 130.913 47.2197 129.951 47.2197V47.2197ZM145.127 47.5061C142.551 47.5061 140.588 46.7855 139.229 45.3445C137.869 43.9127 137.19 41.7141 137.19 38.7858V25.1697C137.19 25.0404 137.284 24.9387 137.426 24.9387H143.495C143.617 24.9387 143.731 25.0404 143.731 25.1697V37.7882C143.731 39.22 144.023 40.3193 144.618 41.0675C145.241 41.8157 146.232 42.1852 147.591 42.1852C149.063 42.1852 150.139 41.7696 150.819 40.9382C151.54 40.0428 151.918 38.928 151.885 37.7882V25.1697C151.885 25.0404 151.98 24.9387 152.121 24.9387H158.19C158.313 24.9387 158.426 25.0404 158.426 25.1697V46.7394C158.426 46.8687 158.313 46.9703 158.19 46.9703H152.622C152.561 46.9679 152.503 46.9425 152.461 46.8995C152.419 46.8564 152.395 46.799 152.395 46.7394V44.8457C152.395 44.6147 152.046 44.5131 151.895 44.6979C151.29 45.4156 150.554 46.017 149.724 46.4715C148.314 47.2127 146.727 47.573 145.127 47.5153V47.5061ZM171.489 47.5061C170.016 47.5061 168.686 47.2751 167.496 46.804C166.324 46.3172 165.279 45.5784 164.438 44.6424C163.539 43.6112 162.874 42.4055 162.485 41.1045C162.005 39.5001 161.775 37.8339 161.805 36.1624V35.331C161.805 31.7838 162.645 29.0864 164.316 27.2297C166.015 25.3452 168.403 24.403 171.489 24.403C172.763 24.403 173.971 24.6893 175.104 25.2713C176.048 25.7239 176.85 26.3429 177.529 27.1373C177.68 27.3128 177.992 27.2112 177.992 26.9802V18.103C177.992 17.9736 178.096 17.872 178.228 17.872H184.297C184.429 17.872 184.533 17.9736 184.533 18.103V46.7394C184.533 46.8687 184.429 46.9703 184.297 46.9703H178.728C178.667 46.9679 178.61 46.9425 178.567 46.8995C178.525 46.8564 178.502 46.799 178.502 46.7394V44.781C178.502 44.5501 178.171 44.4484 178.03 44.6332C177.441 45.3673 176.71 45.9796 175.878 46.4345C174.536 47.1471 173.034 47.5187 171.508 47.5153L171.489 47.5061ZM173.065 42.2314C174.452 42.2314 175.613 41.7603 176.548 40.8181C177.511 39.8759 177.992 38.5272 177.992 36.7813V34.7028C177.992 33.0401 177.511 31.8022 176.548 30.9709C175.604 30.1046 174.349 29.6395 173.056 29.6776C171.706 29.6776 170.602 30.1487 169.752 31.091C168.931 32.0055 168.525 33.4188 168.525 35.331V36.1624C168.525 38.1577 168.94 39.6726 169.79 40.6888C170.178 41.1752 170.675 41.5675 171.243 41.8351C171.811 42.1027 172.435 42.2383 173.065 42.2314V42.2314ZM189.214 25.1697C189.214 25.0404 189.318 24.9387 189.45 24.9387H195.519C195.651 24.9387 195.755 25.0404 195.755 25.1697V46.7394C195.755 46.8687 195.651 46.9703 195.519 46.9703H189.441C189.378 46.9703 189.318 46.946 189.274 46.9027C189.23 46.8593 189.205 46.8006 189.205 46.7394V25.1697H189.214ZM192.48 22.8603C191.448 22.9205 190.432 22.5934 189.639 21.9458C189.316 21.6307 189.062 21.2543 188.893 20.8397C188.724 20.425 188.644 19.9809 188.657 19.5348C188.657 18.5648 188.988 17.7796 189.639 17.1607C190.421 16.4895 191.442 16.1475 192.48 16.2093C193.707 16.2093 194.632 16.5233 195.283 17.1607C195.619 17.4605 195.884 17.828 196.06 18.238C196.236 18.6479 196.318 19.0904 196.302 19.5348C196.302 20.5047 195.963 21.3084 195.283 21.9458C194.632 22.5555 193.697 22.8603 192.48 22.8603ZM210.111 47.5061C208.534 47.5061 207.043 47.2936 205.656 46.841C204.277 46.3914 203.015 45.6526 201.959 44.6761C200.903 43.6996 200.077 42.509 199.54 41.1876C198.917 39.5838 198.616 37.8776 198.652 36.1624V35.331C198.652 33.5297 198.945 31.95 199.54 30.5921C200.093 29.2914 200.934 28.1272 202.003 27.1835C203.051 26.269 204.268 25.5761 205.656 25.105C207.043 24.6339 208.534 24.3937 210.12 24.3937C211.706 24.3937 213.188 24.6339 214.575 25.105C215.962 25.5761 217.18 26.269 218.228 27.1835C219.296 28.1272 220.138 29.2914 220.691 30.5921C221.286 31.95 221.588 33.5297 221.588 35.331V36.1624C221.588 38.0468 221.286 39.7096 220.691 41.1506C220.154 42.472 219.328 43.6626 218.272 44.6391C217.215 45.6156 215.954 46.3545 214.575 46.804C213.188 47.2751 211.706 47.5153 210.12 47.5153L210.111 47.5061ZM210.111 42.1852C211.649 42.1852 212.819 41.6495 213.641 40.5687C214.462 39.4879 214.868 38.0191 214.868 36.1624V35.331C214.868 33.6682 214.462 32.3288 213.641 31.3034C213.228 30.7812 212.692 30.3647 212.079 30.0895C211.466 29.8144 210.794 29.6889 210.12 29.7238C208.591 29.7238 207.411 30.2411 206.59 31.2942C205.724 32.4638 205.291 33.8879 205.363 35.331V36.1624C205.363 38.0745 205.769 39.5525 206.59 40.6056C207.004 41.1292 207.541 41.5465 208.156 41.8217C208.771 42.0969 209.445 42.2216 210.12 42.1852H210.111Z" fill="#2E3137"/><defs><linearGradient id="paint0_linear_524_403" x1="59.466" y1="31.468" x2="59.466" y2="53.768" gradientUnits="userSpaceOnUse"><stop stop-color="#F46837"/><stop offset="1" stop-color="#DD5236"/></linearGradient><linearGradient id="paint1_linear_524_403" x1="37.18" y1="25.39" x2="49.276" y2="45.154" gradientUnits="userSpaceOnUse"><stop stop-color="#7E51C2"/><stop offset=".223" stop-color="#945DD6"/><stop offset=".76" stop-color="#945DD6"/><stop offset="1" stop-color="#7E51C2"/></linearGradient><linearGradient id="paint2_linear_524_403" x1="19.845" y1="38.504" x2="19.845" y2="54.372" gradientUnits="userSpaceOnUse"><stop stop-color="#13ADC7"/><stop offset="1" stop-color="#1497B8"/></linearGradient></defs></svg>