<svg width="226" height="64" viewBox="0 0 226 64" fill="none" xmlns="http://www.w3.org/2000/svg"><path d="M46.0037 48.1741C44.6617 50.1145 42.2982 51.1624 40.3653 50.4638C40.0949 50.3668 39.8646 50.5899 40.0949 50.7549C40.9963 51.4631 42.2181 52.0938 43.2496 52.5109C44.92 53.1928 46.732 53.4865 48.5405 53.3685C50.3491 53.2506 52.1041 52.7243 53.6651 51.8318C55.2374 50.9392 56.5794 49.6973 57.601 48.2129L79.2432 16.6811C79.9145 15.6371 80.1515 14.385 79.9061 13.1782C79.6606 11.9714 78.9512 10.9 77.9212 10.1807C77.4153 9.83427 76.8433 9.58889 76.2385 9.45885C75.6337 9.32881 75.0083 9.31672 74.3986 9.42328C73.789 9.52985 73.2073 9.75293 72.6876 10.0795C72.1679 10.4061 71.7204 10.8297 71.3714 11.3255C62.9399 23.6241 54.4839 35.907 46.0037 48.1741V48.1741Z" fill="#fff"/><path d="M26.7107 33.6071C26.6408 33.6362 26.4612 33.4906 26.5111 33.4323L29.5249 29.005C31.2214 26.5291 34.5845 25.4708 36.6004 27.6942C37.1093 28.2574 37.5883 28.8982 37.9975 29.5875L44.6638 42.0444C44.8461 42.3472 45.0958 42.6063 45.3946 42.8029C45.6933 42.9995 46.0336 43.1285 46.3902 43.1804C46.7395 43.2289 47.0988 43.1901 47.4381 43.0833C47.5578 43.0445 47.8173 43.3066 47.7375 43.4037L44.9532 47.4621C43.2467 49.938 39.8437 50.9769 37.8478 48.7243C37.3605 48.165 36.9262 47.5638 36.5505 46.9281L29.8642 34.4809C29.6597 34.1414 29.3706 33.8576 29.0234 33.6556C28.6763 33.4537 28.2824 33.3401 27.8783 33.3255C27.4791 33.3255 27.0799 33.4226 26.7206 33.6071H26.7107Z" fill="#fff"/><path d="M24.8934 33.4291L24.9634 33.3412L28.5925 28.0105C29.7123 26.3605 31.5718 25.3451 33.2914 25.4916C33.5914 25.5111 33.9213 25.0425 33.6613 24.8765C32.8915 24.3883 32.0317 23.949 31.2519 23.6366C29.5636 22.9693 27.7381 22.6993 25.9231 22.8486C24.1082 22.9978 22.3547 23.5621 20.8044 24.4957C19.2347 25.4392 17.9076 26.7218 16.9253 28.2448L4.72815 47.0488C4.06895 48.112 3.84984 49.3806 4.11549 50.5962C4.38115 51.8117 5.11157 52.8824 6.15782 53.5901C6.67483 53.9325 7.25717 54.1695 7.87008 54.2872C8.48299 54.4048 9.11389 54.4006 9.72511 54.2749C10.3363 54.1491 10.9153 53.9044 11.4275 53.5552C11.9397 53.2061 12.3746 52.7597 12.7063 52.2428L24.9034 33.4193L24.8934 33.4291Z" fill="#fff"/><path d="M106.6 47.5061C104.76 47.5061 103.174 47.3306 101.843 46.9703C100.682 46.6518 99.5891 46.1325 98.6152 45.4369C97.8474 44.8551 97.2165 44.1183 96.7654 43.2767C96.3143 42.4352 96.0535 41.5084 96.0008 40.5594C95.9981 40.528 96.0023 40.4964 96.013 40.4667C96.0238 40.4369 96.0409 40.4098 96.0632 40.3871C96.0856 40.3643 96.1126 40.3465 96.1425 40.3348C96.1724 40.3231 96.2046 40.3178 96.2368 40.3193H102.343C102.447 40.3193 102.542 40.3932 102.579 40.4948C102.768 41.049 103.117 41.5386 103.627 41.9451C104.193 42.3885 105.184 42.6009 106.6 42.6009C108.044 42.6009 109.082 42.4162 109.705 42.019C110.357 41.631 110.677 41.1229 110.677 40.4855C110.677 40.2361 110.611 40.0144 110.47 39.8204C110.265 39.5511 109.982 39.3483 109.658 39.2385C109.29 39.0445 108.78 38.869 108.129 38.6935C107.478 38.5272 106.647 38.3609 105.628 38.1946C104.438 38.016 103.259 37.7692 102.098 37.4556C101.082 37.1867 100.11 36.7793 99.2099 36.2455C98.4292 35.7291 97.7775 35.0471 97.3033 34.2502C96.8177 33.3097 96.5838 32.2641 96.6237 31.211C96.6237 30.2503 96.8503 29.3451 97.3033 28.5137C97.7785 27.6574 98.4466 26.9182 99.257 26.3521C100.135 25.7424 101.182 25.2713 102.4 24.9387C103.646 24.5785 105.043 24.403 106.6 24.403C108.356 24.403 109.828 24.6062 111.017 25.0219C112.115 25.3697 113.127 25.9358 113.99 26.6846C114.726 27.3096 115.307 28.0898 115.689 28.9663C116.029 29.7515 116.246 30.5367 116.35 31.3404C116.359 31.4697 116.256 31.5898 116.114 31.5898H110.017C109.962 31.5892 109.909 31.5706 109.866 31.5372C109.824 31.5037 109.793 31.4572 109.781 31.405C109.617 30.8062 109.242 30.283 108.724 29.927C108.105 29.4968 107.358 29.2792 106.6 29.3081C105.298 29.3081 104.392 29.4929 103.882 29.8901C103.41 30.2688 103.165 30.7307 103.165 31.2572C103.165 31.8392 103.561 32.3011 104.354 32.6244C105.147 32.9385 106.402 33.1971 108.129 33.4188C109.356 33.5851 110.508 33.8253 111.621 34.1301C112.716 34.4349 113.679 34.8599 114.5 35.4141C115.349 35.9407 116.01 36.615 116.501 37.4464C116.973 38.2593 117.218 39.2385 117.218 40.4024C117.218 42.5086 116.312 44.2267 114.5 45.557C112.716 46.8594 110.083 47.5061 106.6 47.5061V47.5061ZM129.951 47.2197C128.535 47.2197 127.308 47.0996 126.298 46.8502C125.36 46.616 124.497 46.1555 123.787 45.5108C123.108 44.8558 122.611 44.0418 122.343 43.146C122.004 41.9557 121.845 40.7233 121.871 39.4879V30.4074C121.871 30.3477 121.848 30.2903 121.806 30.2473C121.763 30.2042 121.706 30.1788 121.645 30.1764H119.351C119.289 30.1764 119.229 30.1521 119.184 30.1088C119.14 30.0655 119.115 30.0067 119.115 29.9455V25.1697C119.115 25.0404 119.229 24.9387 119.351 24.9387H121.645C121.777 24.9387 121.881 24.8371 121.881 24.7078V20.1814C121.881 20.0521 121.985 19.9505 122.117 19.9505H128.186C128.318 19.9505 128.422 20.0521 128.422 20.1814V24.7078C128.422 24.8371 128.525 24.9387 128.658 24.9387H133.32C133.452 24.9387 133.556 25.0404 133.556 25.1697V29.9455C133.556 30.0748 133.462 30.1764 133.32 30.1764H128.658C128.595 30.1764 128.535 30.2008 128.491 30.2441C128.446 30.2874 128.422 30.3461 128.422 30.4074V38.444C128.422 39.7003 128.61 40.5872 129.016 41.1045C129.441 41.631 130.243 41.8989 131.432 41.8989C132.197 41.8989 132.961 41.8619 133.726 41.8065C133.868 41.788 133.981 41.8989 133.981 42.0282V46.804C133.981 46.9241 133.886 47.0257 133.773 47.035C133.301 47.0811 132.801 47.1089 132.282 47.1366C131.687 47.192 130.913 47.2197 129.951 47.2197V47.2197ZM145.127 47.5061C142.551 47.5061 140.588 46.7855 139.229 45.3445C137.869 43.9127 137.19 41.7141 137.19 38.7858V25.1697C137.19 25.0404 137.284 24.9387 137.426 24.9387H143.495C143.617 24.9387 143.731 25.0404 143.731 25.1697V37.7882C143.731 39.22 144.023 40.3193 144.618 41.0675C145.241 41.8157 146.232 42.1852 147.591 42.1852C149.063 42.1852 150.139 41.7696 150.819 40.9382C151.54 40.0428 151.918 38.928 151.885 37.7882V25.1697C151.885 25.0404 151.98 24.9387 152.121 24.9387H158.19C158.313 24.9387 158.426 25.0404 158.426 25.1697V46.7394C158.426 46.8687 158.313 46.9703 158.19 46.9703H152.622C152.561 46.9679 152.503 46.9425 152.461 46.8995C152.419 46.8564 152.395 46.799 152.395 46.7394V44.8457C152.395 44.6147 152.046 44.5131 151.895 44.6979C151.29 45.4156 150.554 46.017 149.724 46.4715C148.314 47.2127 146.727 47.573 145.127 47.5153V47.5061ZM171.489 47.5061C170.016 47.5061 168.686 47.2751 167.496 46.804C166.324 46.3172 165.279 45.5784 164.438 44.6424C163.539 43.6112 162.874 42.4055 162.485 41.1045C162.005 39.5001 161.775 37.8339 161.805 36.1624V35.331C161.805 31.7838 162.645 29.0864 164.316 27.2297C166.015 25.3452 168.403 24.403 171.489 24.403C172.763 24.403 173.971 24.6893 175.104 25.2713C176.048 25.7239 176.85 26.3429 177.529 27.1373C177.68 27.3128 177.992 27.2112 177.992 26.9802V18.103C177.992 17.9736 178.096 17.872 178.228 17.872H184.297C184.429 17.872 184.533 17.9736 184.533 18.103V46.7394C184.533 46.8687 184.429 46.9703 184.297 46.9703H178.728C178.667 46.9679 178.61 46.9425 178.567 46.8995C178.525 46.8564 178.502 46.799 178.502 46.7394V44.781C178.502 44.5501 178.171 44.4484 178.03 44.6332C177.441 45.3673 176.71 45.9796 175.878 46.4345C174.536 47.1471 173.034 47.5187 171.508 47.5153L171.489 47.5061ZM173.065 42.2314C174.452 42.2314 175.613 41.7603 176.548 40.8181C177.511 39.8759 177.992 38.5272 177.992 36.7813V34.7028C177.992 33.0401 177.511 31.8022 176.548 30.9709C175.604 30.1046 174.349 29.6395 173.056 29.6776C171.706 29.6776 170.602 30.1487 169.752 31.091C168.931 32.0055 168.525 33.4188 168.525 35.331V36.1624C168.525 38.1577 168.94 39.6726 169.79 40.6888C170.178 41.1752 170.675 41.5675 171.243 41.8351C171.811 42.1027 172.435 42.2383 173.065 42.2314V42.2314ZM189.214 25.1697C189.214 25.0404 189.318 24.9387 189.45 24.9387H195.519C195.651 24.9387 195.755 25.0404 195.755 25.1697V46.7394C195.755 46.8687 195.651 46.9703 195.519 46.9703H189.441C189.378 46.9703 189.318 46.946 189.274 46.9027C189.23 46.8593 189.205 46.8006 189.205 46.7394V25.1697H189.214ZM192.48 22.8603C191.448 22.9205 190.432 22.5934 189.639 21.9458C189.316 21.6307 189.062 21.2543 188.893 20.8397C188.724 20.425 188.644 19.9809 188.657 19.5348C188.657 18.5648 188.988 17.7796 189.639 17.1607C190.421 16.4895 191.442 16.1475 192.48 16.2093C193.707 16.2093 194.632 16.5233 195.283 17.1607C195.619 17.4605 195.884 17.828 196.06 18.238C196.236 18.6479 196.318 19.0904 196.302 19.5348C196.302 20.5047 195.963 21.3084 195.283 21.9458C194.632 22.5555 193.697 22.8603 192.48 22.8603ZM210.111 47.5061C208.534 47.5061 207.043 47.2936 205.656 46.841C204.277 46.3914 203.015 45.6526 201.959 44.6761C200.903 43.6996 200.077 42.509 199.54 41.1876C198.917 39.5838 198.616 37.8776 198.652 36.1624V35.331C198.652 33.5297 198.945 31.95 199.54 30.5921C200.093 29.2914 200.934 28.1272 202.003 27.1835C203.051 26.269 204.268 25.5761 205.656 25.105C207.043 24.6339 208.534 24.3937 210.12 24.3937C211.706 24.3937 213.188 24.6339 214.575 25.105C215.962 25.5761 217.18 26.269 218.228 27.1835C219.296 28.1272 220.138 29.2914 220.691 30.5921C221.286 31.95 221.588 33.5297 221.588 35.331V36.1624C221.588 38.0468 221.286 39.7096 220.691 41.1506C220.154 42.472 219.328 43.6626 218.272 44.6391C217.215 45.6156 215.954 46.3545 214.575 46.804C213.188 47.2751 211.706 47.5153 210.12 47.5153L210.111 47.5061ZM210.111 42.1852C211.649 42.1852 212.819 41.6495 213.641 40.5687C214.462 39.4879 214.868 38.0191 214.868 36.1624V35.331C214.868 33.6682 214.462 32.3288 213.641 31.3034C213.228 30.7812 212.692 30.3647 212.079 30.0895C211.466 29.8144 210.794 29.6889 210.12 29.7238C208.591 29.7238 207.411 30.2411 206.59 31.2942C205.724 32.4638 205.291 33.8879 205.363 35.331V36.1624C205.363 38.0745 205.769 39.5525 206.59 40.6056C207.004 41.1292 207.541 41.5465 208.156 41.8217C208.771 42.0969 209.445 42.2216 210.12 42.1852H210.111Z" fill="#fff"/></svg>