<svg width="80" height="80" viewBox="0 0 80 80" fill="none" xmlns="http://www.w3.org/2000/svg"><path d="M29.3911 18.208C29.633 18.3047 29.8555 18.4596 30.0394 18.6434L34.3061 22.9109L34.3255 22.9012L40.0145 28.6105L51.3828 40L57.0911 34.3004L35.7187 12.9438C33.832 11.0588 31.2742 10 28.6074 10C25.9406 10 23.3829 11.0588 21.4962 12.9438L12.9434 21.4981C11.0587 23.3851 10 25.9432 10 28.6105C10 31.2777 11.0587 33.8359 12.9434 35.7229L17.2295 40L22.9184 34.3004L18.6614 30.0426C18.4733 29.8556 18.324 29.6332 18.2222 29.3882C18.1203 29.1433 18.0679 28.8806 18.0679 28.6153C18.0679 28.35 18.1203 28.0873 18.2222 27.8424C18.324 27.5974 18.4733 27.375 18.6614 27.188L27.1949 18.6434C27.4767 18.3615 27.8359 18.1695 28.2269 18.092C28.6179 18.0145 29.0231 18.0549 29.3911 18.208V18.208Z" fill="url(#paint0_linear_524_572)"/><path d="M49.9702 61.3566L45.7131 57.0988H45.6841L39.9951 51.3992H40.0048L28.6171 40L22.9185 45.7093L44.2812 67.0562C46.1679 68.9412 48.7257 70 51.3925 70C54.0593 70 56.617 68.9412 58.5037 67.0562L67.0565 58.5019C68.9412 56.6149 69.9999 54.0568 69.9999 51.3895C69.9999 48.7223 68.9412 46.1641 67.0565 44.2771L62.7801 40L57.0911 45.7093L61.3482 49.967C61.7251 50.3444 61.9369 50.8561 61.9369 51.3895C61.9369 51.923 61.7251 52.4346 61.3482 52.812L52.8147 61.3566C52.4374 61.7336 51.9258 61.9453 51.3925 61.9453C50.8591 61.9453 50.3475 61.7336 49.9702 61.3566V61.3566Z" fill="url(#paint1_linear_524_572)"/><path fill-rule="evenodd" clip-rule="evenodd" d="M61.803 29.3653C61.6966 29.6169 61.5515 29.8297 61.3773 30.0136L39.9952 51.3992L45.6842 57.0988L67.0469 35.7229C68.9317 33.8359 69.9903 31.2777 69.9903 28.6105C69.9903 25.9432 68.9317 23.3851 67.0469 21.4981L58.5038 12.9438C56.6171 11.0588 54.0593 10 51.3925 10C48.7257 10 46.168 11.0588 44.2813 12.9438L40.0049 17.1919L45.7035 22.8915L49.9606 18.6338C50.338 18.2568 50.8495 18.045 51.3829 18.045C51.9162 18.045 52.4278 18.2568 52.8051 18.6338L61.3386 27.1686C61.6222 27.4494 61.8159 27.8081 61.8951 28.1993C61.9744 28.5904 61.9356 28.9962 61.7837 29.3653H61.7933H61.803ZM30.0491 61.3372L34.3062 57.0794L40.0145 62.779L35.7285 67.0368C33.8417 68.9218 31.284 69.9806 28.6172 69.9806C25.9504 69.9806 23.3927 68.9218 21.506 67.0368L12.9531 58.4922C11.0684 56.6052 10.0098 54.0471 10.0098 51.3798C10.0098 48.7126 11.0684 46.1545 12.9531 44.2674L34.3352 22.8818L40.0145 28.5911L18.6615 49.9477C18.4734 50.1347 18.3241 50.3571 18.2222 50.6021C18.1204 50.847 18.0679 51.1097 18.0679 51.375C18.0679 51.6403 18.1204 51.903 18.2222 52.1479C18.3241 52.3929 18.4734 52.6153 18.6615 52.8023L27.2046 61.3372C27.582 61.7142 28.0935 61.926 28.6269 61.926C29.1602 61.926 29.6718 61.7142 30.0491 61.3372V61.3372Z" fill="url(#paint2_linear_524_572)"/><defs><linearGradient id="paint0_linear_524_572" x1="24.476" y1="33.033" x2="52.868" y2="61.429" gradientUnits="userSpaceOnUse"><stop stop-color="#13ADC7"/><stop offset="1" stop-color="#945DD6"/></linearGradient><linearGradient id="paint1_linear_524_572" x1="24.476" y1="33.033" x2="52.868" y2="61.429" gradientUnits="userSpaceOnUse"><stop stop-color="#13ADC7"/><stop offset="1" stop-color="#945DD6"/></linearGradient><linearGradient id="paint2_linear_524_572" x1="51.247" y1="27.681" x2="22.324" y2="56.601" gradientUnits="userSpaceOnUse"><stop stop-color="#F46837"/><stop offset="1" stop-color="#945DD6"/></linearGradient></defs></svg>