<svg width="160" height="160" viewBox="0 0 160 160" fill="none" xmlns="http://www.w3.org/2000/svg"><path d="M124.173 59.357c.377-.376.665-.819.886-1.328h-.022a4.16 4.16 0 0 0-.908-4.54L106.48 35.84a4.16 4.16 0 0 0-5.89 0l-5.377 5.377a2 2 0 0 1-2.829 0l-8.947-8.947a2 2 0 0 1 .004-2.833l5.39-5.355a20.815 20.815 0 0 1 29.408 0l17.671 17.67a20.817 20.817 0 0 1 0 29.408l-40.762 40.762a2 2 0 0 1-2.83-.001l-8.933-8.95a2 2 0 0 1 .001-2.827l40.787-40.787zm-59.37 59.37l-5.38 5.38a4.155 4.155 0 0 1-2.944 1.221 4.154 4.154 0 0 1-2.946-1.221l-17.648-17.649a4.171 4.171 0 0 1-1.221-2.945 4.163 4.163 0 0 1 1.22-2.945l40.723-40.744a2 2 0 0 0 .002-2.826l-8.914-8.947a2 2 0 0 0-2.83-.003L24.082 88.809a20.816 20.816 0 0 0 0 29.407l17.67 17.672a20.817 20.817 0 0 0 29.408 0l5.432-5.397a2 2 0 0 0 .002-2.836l-8.965-8.931a2 2 0 0 0-2.826.003z" fill="#fff"/><path d="M59.409 35.87a4.161 4.161 0 0 0-5.89 0l-17.65 17.648a4.165 4.165 0 0 0 0 5.89l5.401 5.401a2 2 0 0 1 .001 2.827l-8.932 8.95a2 2 0 0 1-2.83.001l-5.42-5.42a20.815 20.815 0 0 1 0-29.407l17.67-17.671a20.816 20.816 0 0 1 29.408 0l40.741 40.719a2 2 0 0 1 0 2.829l-8.952 8.952a2 2 0 0 1-2.828 0l-40.72-40.72zm.469 47.547l40.719 40.719a4.17 4.17 0 0 0 4.539.904 4.16 4.16 0 0 0 1.351-.904l17.649-17.649a4.16 4.16 0 0 0 0-5.89l-5.4-5.4a2 2 0 0 1-.002-2.828l8.933-8.95a2 2 0 0 1 2.83 0l5.42 5.42a20.818 20.818 0 0 1 0 29.407l-17.671 17.671a20.818 20.818 0 0 1-29.408 0l-40.74-40.72a2 2 0 0 1 0-2.828l8.952-8.952a2 2 0 0 1 2.828 0z" fill="#fff"/></svg>