<svg width="80" height="80" viewBox="0 0 80 80" fill="none" xmlns="http://www.w3.org/2000/svg"><path d="M61.8058 29.3621C61.6993 29.6137 61.5541 29.8266 61.38 30.0104V30.0007L41.6379 49.7381C41.5471 49.828 41.4752 49.935 41.426 50.0529C41.3769 50.1708 41.3516 50.2973 41.3516 50.425C41.3516 50.5527 41.3769 50.6792 41.426 50.7971C41.4752 50.915 41.5471 51.022 41.6379 51.1119L45.9637 55.4367C46.145 55.6169 46.3903 55.7181 46.646 55.7181C46.9016 55.7181 47.1469 55.6169 47.3282 55.4367L67.051 35.7187C68.9361 33.832 69.995 31.2743 69.995 28.6075C69.995 25.9407 68.9361 23.3829 67.051 21.4962L58.5057 12.9434C56.6186 11.0587 54.0602 10 51.3928 10C48.7253 10 46.167 11.0587 44.2798 12.9434L41.6669 15.5363C41.4866 15.7176 41.3855 15.9628 41.3855 16.2184C41.3855 16.474 41.4866 16.7192 41.6669 16.9005L45.9927 21.235C46.0827 21.3257 46.1897 21.3977 46.3077 21.4468C46.4256 21.4959 46.5521 21.5212 46.6798 21.5212C46.8076 21.5212 46.9341 21.4959 47.052 21.4468C47.1699 21.3977 47.277 21.3257 47.3669 21.235L49.9605 18.6324C50.1476 18.4443 50.37 18.295 50.615 18.1931C50.8599 18.0913 51.1226 18.0388 51.3879 18.0388C51.6532 18.0388 51.9159 18.0913 52.1609 18.1931C52.4059 18.295 52.6283 18.4443 52.8154 18.6324L61.3509 27.1659C61.6345 27.4466 61.8283 27.8053 61.9076 28.1963C61.9868 28.5874 61.948 28.9932 61.7961 29.3621H61.8058ZM30.0442 61.3386L32.6475 58.7263H32.6571C32.838 58.549 33.0813 58.4497 33.3346 58.4497C33.5879 58.4497 33.8311 58.549 34.012 58.7263L38.3572 63.0511C38.5374 63.2324 38.6386 63.4776 38.6386 63.7332C38.6386 63.9888 38.5374 64.234 38.3572 64.4153L35.7249 67.0276C33.8377 68.9123 31.2794 69.971 28.6119 69.971C25.9445 69.971 23.3861 68.9123 21.499 67.0276L12.9441 58.4748C11.0589 56.588 10 54.0303 10 51.3635C10 48.6967 11.0589 46.139 12.9441 44.2522L32.6765 24.5439C32.7665 24.4532 32.8735 24.3812 32.9914 24.3321C33.1093 24.283 33.2358 24.2577 33.3636 24.2577C33.4913 24.2577 33.6178 24.283 33.7358 24.3321C33.8537 24.3812 33.9607 24.4532 34.0507 24.5439L38.3572 28.8687C38.5374 29.05 38.6386 29.2952 38.6386 29.5508C38.6386 29.8064 38.5374 30.0516 38.3572 30.2329L18.6538 49.9412C18.4657 50.1283 18.3163 50.3506 18.2145 50.5955C18.1126 50.8405 18.0601 51.1031 18.0601 51.3683C18.0601 51.6336 18.1126 51.8962 18.2145 52.1411C18.3163 52.386 18.4657 52.6084 18.6538 52.7954L27.199 61.3386C27.5765 61.7155 28.0881 61.9273 28.6216 61.9273C29.1551 61.9273 29.6668 61.7155 30.0442 61.3386V61.3386Z" fill="#fff"/><path d="M28.612 18.0519C29.1442 18.0519 29.6572 18.2647 30.0346 18.642L49.738 38.3407C49.8279 38.4314 49.935 38.5034 50.0529 38.5525C50.1708 38.6016 50.2973 38.6269 50.4251 38.6269C50.5528 38.6269 50.6793 38.6016 50.7972 38.5525C50.9152 38.5034 51.0222 38.4314 51.1122 38.3407L55.438 34.0159C55.5287 33.926 55.6007 33.8189 55.6498 33.701C55.699 33.5831 55.7243 33.4567 55.7243 33.329C55.7243 33.2012 55.699 33.0748 55.6498 32.9569C55.6007 32.839 55.5287 32.732 55.438 32.642L35.7249 12.9434C33.8378 11.0587 31.2794 10 28.612 10C25.9445 10 23.3862 11.0587 21.499 12.9434L12.9538 21.4962C12.0189 22.4306 11.2773 23.54 10.7713 24.761C10.2653 25.982 10.0049 27.2907 10.0049 28.6123C10.0049 29.934 10.2653 31.2426 10.7713 32.4636C11.2773 33.6846 12.0189 34.794 12.9538 35.7284L15.5667 38.3407C15.6567 38.4314 15.7637 38.5034 15.8816 38.5525C15.9996 38.6016 16.1261 38.6269 16.2538 38.6269C16.3816 38.6269 16.5081 38.6016 16.626 38.5525C16.7439 38.5034 16.851 38.4314 16.9409 38.3407L21.2571 34.0159C21.3478 33.926 21.4198 33.8189 21.4689 33.701C21.518 33.5831 21.5433 33.4567 21.5433 33.329C21.5433 33.2012 21.518 33.0748 21.4689 32.9569C21.4198 32.839 21.3478 32.732 21.2571 32.642L18.6442 30.0297C18.2671 29.6524 18.0553 29.1408 18.0553 28.6075C18.0553 28.0741 18.2671 27.5626 18.6442 27.1852L27.1894 18.642C27.5668 18.2647 28.0797 18.0615 28.612 18.0615V18.0519ZM49.9702 61.358L30.2668 41.6399V41.6496C30.1769 41.5589 30.0698 41.487 29.9519 41.4378C29.834 41.3887 29.7075 41.3634 29.5797 41.3634C29.452 41.3634 29.3255 41.3887 29.2076 41.4378C29.0896 41.487 28.9826 41.5589 28.8926 41.6496L24.5668 45.9744C24.4761 46.0644 24.4041 46.1714 24.355 46.2893C24.3058 46.4072 24.2805 46.5336 24.2805 46.6614C24.2805 46.7891 24.3058 46.9155 24.355 47.0334C24.4041 47.1513 24.4761 47.2584 24.5668 47.3483L44.2799 67.0566C46.167 68.9413 48.7254 70 51.3928 70C54.0603 70 56.6186 68.9413 58.5058 67.0566L67.051 58.5038C67.9859 57.5694 68.7275 56.46 69.2335 55.239C69.7395 54.018 69.9999 52.7093 69.9999 51.3877C69.9999 50.0661 69.7395 48.7574 69.2335 47.5364C68.7275 46.3154 67.9859 45.206 67.051 44.2716L64.4381 41.6593C64.3481 41.5686 64.2411 41.4966 64.1232 41.4475C64.0052 41.3984 63.8787 41.3731 63.751 41.3731C63.6232 41.3731 63.4967 41.3984 63.3788 41.4475C63.2609 41.4966 63.1538 41.5686 63.0639 41.6593L58.7477 45.9841C58.657 46.074 58.585 46.181 58.5359 46.299C58.4868 46.4169 58.4615 46.5433 58.4615 46.671C58.4615 46.7988 58.4868 46.9252 58.5359 47.0431C58.585 47.161 58.657 47.268 58.7477 47.358L61.3606 49.9703C61.7377 50.3476 61.9495 50.8592 61.9495 51.3925C61.9495 51.9259 61.7377 52.4374 61.3606 52.8148L52.8154 61.358C52.438 61.7349 51.9263 61.9466 51.3928 61.9466C50.8593 61.9466 50.3477 61.7349 49.9702 61.358V61.358Z" fill="#fff"/></svg>