<svg width="252" height="64" viewBox="0 0 252 64" fill="none" xmlns="http://www.w3.org/2000/svg"><path d="M23.3911 10.5669C23.633 10.6636 23.8555 10.8185 24.0394 11.0023L28.3061 15.2698L28.3255 15.2601L34.0145 20.9694L45.3828 32.3589L51.0911 26.6593L29.7187 5.30272C27.832 3.41771 25.2742 2.35889 22.6074 2.35889C19.9406 2.35889 17.3829 3.41771 15.4962 5.30272L6.94336 13.857C5.05865 15.744 4 18.3021 4 20.9694C4 23.6366 5.05865 26.1947 6.94336 28.0818L11.2295 32.3589L16.9184 26.6593L12.6614 22.4015C12.4733 22.2145 12.324 21.9921 12.2222 21.7471C12.1203 21.5022 12.0679 21.2395 12.0679 20.9742C12.0679 20.7089 12.1203 20.4462 12.2222 20.2013C12.324 19.9563 12.4733 19.7339 12.6614 19.5469L21.1949 11.0023C21.4767 10.7204 21.8359 10.5284 22.2269 10.4509C22.6179 10.3734 23.0231 10.4137 23.3911 10.5669V10.5669Z" fill="url(#paint0_linear_524_401)"/><path d="M43.9702 53.7154L39.7131 49.4577H39.6841L33.9951 43.7581H34.0048L22.6171 32.3589L16.9185 38.0682L38.2812 59.415C40.1679 61.3001 42.7257 62.3589 45.3925 62.3589C48.0593 62.3589 50.617 61.3001 52.5037 59.415L61.0565 50.8608C62.9412 48.9738 63.9999 46.4156 63.9999 43.7484C63.9999 41.0812 62.9412 38.523 61.0565 36.636L56.7801 32.3589L51.0911 38.0682L55.3482 42.3259C55.7251 42.7033 55.9369 43.215 55.9369 43.7484C55.9369 44.2819 55.7251 44.7935 55.3482 45.1709L46.8147 53.7154C46.4374 54.0924 45.9258 54.3042 45.3925 54.3042C44.8591 54.3042 44.3475 54.0924 43.9702 53.7154V53.7154Z" fill="url(#paint1_linear_524_401)"/><path fill-rule="evenodd" clip-rule="evenodd" d="M55.803 21.7241C55.6966 21.9757 55.5515 22.1886 55.3773 22.3725L33.9952 43.7581L39.6842 49.4577L61.0469 28.0818C62.9317 26.1947 63.9903 23.6366 63.9903 20.9694C63.9903 18.3021 62.9317 15.744 61.0469 13.857L52.5038 5.30272C50.6171 3.41771 48.0593 2.35889 45.3925 2.35889C42.7257 2.35889 40.168 3.41771 38.2813 5.30272L34.0049 9.55081L39.7035 15.2504L43.9606 10.9926C44.338 10.6156 44.8495 10.4039 45.3829 10.4039C45.9162 10.4039 46.4278 10.6156 46.8051 10.9926L55.3386 19.5275C55.6222 19.8083 55.8159 20.167 55.8951 20.5581C55.9744 20.9493 55.9356 21.3551 55.7837 21.7241H55.7933H55.803ZM24.0491 53.6961L28.3062 49.4383L34.0145 55.1379L29.7285 59.3957C27.8417 61.2807 25.284 62.3395 22.6172 62.3395C19.9504 62.3395 17.3927 61.2807 15.506 59.3957L6.95312 50.8511C5.06842 48.9641 4.00977 46.406 4.00977 43.7387C4.00977 41.0715 5.06842 38.5133 6.95312 36.6263L28.3352 15.2407L34.0145 20.95L12.6615 42.3066C12.4734 42.4936 12.3241 42.716 12.2222 42.961C12.1204 43.2059 12.0679 43.4686 12.0679 43.7339C12.0679 43.9992 12.1204 44.2618 12.2222 44.5068C12.3241 44.7518 12.4734 44.9741 12.6615 45.1612L21.2046 53.6961C21.582 54.0731 22.0935 54.2848 22.6269 54.2848C23.1602 54.2848 23.6718 54.0731 24.0491 53.6961V53.6961Z" fill="url(#paint2_linear_524_401)"/><path d="M80.5488 25.5212C80.5488 25.3891 80.662 25.2852 80.7942 25.2852H86.8531C86.9852 25.2852 87.089 25.3891 87.089 25.5212V47.558C87.089 47.6901 86.9947 47.7939 86.8531 47.7939H80.7942C80.7624 47.7952 80.7307 47.79 80.701 47.7787C80.6712 47.7675 80.6441 47.7503 80.6212 47.7282C80.5983 47.7062 80.58 47.6798 80.5676 47.6505C80.5551 47.6212 80.5487 47.5898 80.5488 47.558V25.5212ZM83.8236 23.1618C82.7923 23.2233 81.7764 22.8891 80.9829 22.2275C80.6599 21.9056 80.4061 21.521 80.2373 21.0974C80.0685 20.6738 79.9882 20.2201 80.0014 19.7642C80.0014 18.7733 80.3223 17.9711 80.9735 17.3388C81.7576 16.6506 82.7824 16.3011 83.8236 16.3667C85.0411 16.3667 85.9754 16.6876 86.6266 17.3388C86.9622 17.645 87.2271 18.0205 87.4031 18.4393C87.5791 18.8582 87.6619 19.3102 87.6459 19.7642C87.6459 20.7552 87.3061 21.5763 86.6266 22.2275C85.9754 22.8503 85.0411 23.1618 83.8236 23.1618V23.1618ZM101.33 48.0487C99.9147 48.0487 98.7067 47.926 97.6875 47.6712C96.7495 47.4319 95.8864 46.9615 95.1771 46.3028C94.4978 45.6336 94.0007 44.802 93.7331 43.8868C93.3942 42.6707 93.2352 41.4116 93.2612 40.1495V30.8723C93.2613 30.8113 93.2377 30.7527 93.1955 30.7087C93.1533 30.6647 93.0957 30.6388 93.0347 30.6364H90.7414C90.6788 30.6364 90.6188 30.6115 90.5746 30.5673C90.5303 30.523 90.5054 30.463 90.5054 30.4004V25.5212C90.5054 25.3891 90.6187 25.2852 90.7414 25.2852H93.0347C93.1669 25.2852 93.2707 25.1814 93.2707 25.0493V20.4249C93.2707 20.2927 93.3745 20.1889 93.5066 20.1889H99.575C99.7071 20.1889 99.8109 20.2927 99.8109 20.4249V25.0493C99.8109 25.1814 99.9147 25.2852 100.047 25.2852H104.709C104.841 25.2852 104.945 25.3891 104.945 25.5212V30.4004C104.945 30.5325 104.851 30.6364 104.709 30.6364H100.047C99.9843 30.6364 99.9243 30.6612 99.88 30.7055C99.8358 30.7497 99.8109 30.8097 99.8109 30.8723V39.083C99.8109 40.3665 99.9997 41.2725 100.405 41.801C100.83 42.339 101.632 42.6127 102.822 42.6127C103.586 42.6127 104.35 42.5749 105.115 42.5183C105.256 42.4994 105.37 42.6127 105.37 42.7448V47.624C105.37 47.7467 105.275 47.8505 105.162 47.86C104.69 47.9072 104.19 47.9355 103.671 47.9638C103.076 48.0204 102.302 48.0487 101.34 48.0487H101.33ZM119.62 48.3413C118.053 48.3517 116.494 48.1225 114.996 47.6618C113.611 47.2073 112.342 46.4546 111.278 45.4567C110.215 44.4588 109.384 43.2399 108.843 41.886C108.214 40.2487 107.906 38.5056 107.937 36.7519V35.9025C107.937 34.0339 108.22 32.4106 108.786 31.0233C109.381 29.636 110.173 28.4751 111.164 27.5314C112.193 26.5938 113.409 25.886 114.732 25.4551C116.119 24.9738 117.61 24.7284 119.196 24.7284C122.905 24.7284 125.708 25.7005 127.595 27.6258C129.502 29.5133 130.445 32.2785 130.445 35.9025V38.0071C130.445 38.1298 130.342 38.2431 130.209 38.2431H114.892C114.861 38.2417 114.83 38.2469 114.8 38.2583C114.771 38.2697 114.745 38.287 114.722 38.3092C114.7 38.3314 114.683 38.3579 114.672 38.3872C114.66 38.4164 114.655 38.4477 114.656 38.479C114.686 39.1717 114.843 39.8531 115.119 40.4892C115.375 41.0424 115.74 41.5382 116.193 41.9469C116.645 42.3555 117.175 42.6687 117.752 42.8675C118.346 43.0374 118.969 43.1223 119.62 43.1223C120.866 43.1223 121.838 42.9336 122.546 42.5655C123.159 42.2694 123.65 41.7688 123.933 41.1499C123.971 41.0555 124.056 40.9989 124.16 40.9989H129.738C129.889 40.9989 130.002 41.131 129.964 41.282C129.788 42.3304 129.405 43.3333 128.838 44.2325C128.271 45.1317 127.531 45.9092 126.661 46.5199C124.887 47.7373 122.537 48.3413 119.62 48.3413ZM119.403 29.9097C118.809 29.9097 118.233 29.9852 117.667 30.1267C117.129 30.2683 116.629 30.5042 116.176 30.8534C115.739 31.1811 115.378 31.5997 115.119 32.0803C114.876 32.5893 114.735 33.1407 114.703 33.7036C114.694 33.8357 114.798 33.949 114.939 33.949H123.801C123.924 33.949 124.037 33.8451 124.028 33.713C124.026 33.1201 123.897 32.5344 123.65 31.9954C123.414 31.5105 123.064 31.0897 122.631 30.7685C122.207 30.4431 121.712 30.2232 121.187 30.1267C120.603 29.9847 120.004 29.915 119.403 29.9191V29.9097ZM133.833 25.5212C133.833 25.3891 133.947 25.2852 134.069 25.2852H139.638C139.76 25.2852 139.864 25.3891 139.864 25.5212V27.2671C139.864 27.5219 140.27 27.6258 140.43 27.4276C140.487 27.3332 140.562 27.2388 140.629 27.1539C141.006 26.7292 141.421 26.3328 141.903 25.9647C142.934 25.1593 144.208 24.7268 145.517 24.7379C146.1 24.7244 146.681 24.7943 147.244 24.9455C147.358 24.9738 147.433 25.0682 147.433 25.172V30.2211C147.433 30.4099 147.216 30.542 147.037 30.4854C146.267 30.2646 145.469 30.1565 144.668 30.1645C143.158 30.1645 142.073 30.608 141.393 31.4857C140.7 32.4021 140.341 33.5274 140.374 34.6757V47.558C140.374 47.6901 140.279 47.7939 140.138 47.7939H134.079C134.016 47.7939 133.956 47.7691 133.912 47.7248C133.868 47.6806 133.843 47.6206 133.843 47.558V25.5212H133.833ZM156.767 48.3413C155.654 48.3605 154.547 48.175 153.501 47.7939C152.62 47.4601 151.812 46.9567 151.123 46.3122C150.477 45.6705 149.969 44.9028 149.632 44.0566C149.286 43.1466 149.113 42.18 149.122 41.2065C149.122 38.9698 149.802 37.2616 151.161 36.0724C152.548 34.8833 154.634 34.2887 157.409 34.2887H163.581C163.713 34.2887 163.817 34.1849 163.817 34.0528V33.3544C163.817 31.9954 163.496 31.0611 162.845 30.5514C162.074 29.9763 161.124 29.6921 160.164 29.7492C159.089 29.7492 158.296 29.9191 157.786 30.2589C157.333 30.5609 157.059 31.0233 156.965 31.6462C156.958 31.7062 156.929 31.7616 156.884 31.8017C156.839 31.8417 156.78 31.8637 156.72 31.8632H150.651C150.619 31.8647 150.587 31.8593 150.557 31.8473C150.527 31.8354 150.5 31.8172 150.478 31.794C150.455 31.7707 150.438 31.743 150.428 31.7127C150.417 31.6823 150.413 31.65 150.415 31.6179C150.487 30.6715 150.762 29.7517 151.221 28.9212C151.681 28.0906 152.313 27.3687 153.077 26.8047C153.926 26.1629 154.964 25.6533 156.172 25.2852C157.399 24.9172 158.796 24.7379 160.381 24.7379C161.854 24.7379 163.194 24.9077 164.411 25.2475C165.581 25.5184 166.672 26.0544 167.601 26.8141C168.507 27.5606 169.209 28.5251 169.64 29.6171C170.112 30.7496 170.357 32.1369 170.357 33.7791V42.0653C170.327 43.8948 170.428 45.724 170.659 47.5391C170.687 47.6712 170.574 47.7939 170.433 47.7939H164.713C164.655 47.7943 164.599 47.7734 164.556 47.7351C164.512 47.6968 164.484 47.6438 164.477 47.5863C164.43 47.1899 164.383 46.8313 164.326 46.5199L164.298 45.8687C164.298 45.6422 163.987 45.5383 163.826 45.6988C163.138 46.4183 162.33 47.0123 161.438 47.4542C159.971 48.1073 158.372 48.4141 156.767 48.3507V48.3413ZM158.89 43.7546C160.159 43.8018 161.402 43.3821 162.382 42.5749C163.335 41.7822 163.817 40.6874 163.817 39.3001V38.6017C163.817 38.5391 163.792 38.4791 163.748 38.4349C163.703 38.3906 163.643 38.3658 163.581 38.3658H158.673C157.72 38.3658 156.993 38.6206 156.512 39.1302C156.068 39.6174 155.825 40.2548 155.833 40.9139C155.833 41.735 156.059 42.4145 156.512 42.9524C156.993 43.4904 157.786 43.7546 158.89 43.7546V43.7546ZM183.957 48.0487C182.541 48.0487 181.314 47.926 180.304 47.6712C179.366 47.4319 178.503 46.9615 177.794 46.3028C177.115 45.6336 176.618 44.802 176.35 43.8868C176.011 42.6707 175.852 41.4116 175.878 40.1495V30.8723C175.878 30.8113 175.855 30.7527 175.812 30.7087C175.77 30.6647 175.712 30.6388 175.652 30.6364H173.358C173.296 30.6364 173.236 30.6115 173.191 30.5673C173.147 30.523 173.122 30.463 173.122 30.4004V25.5212C173.122 25.3891 173.226 25.2852 173.358 25.2852H175.652C175.784 25.2852 175.887 25.1814 175.887 25.0493V20.4249C175.887 20.2927 175.991 20.1889 176.123 20.1889H182.192C182.324 20.1889 182.428 20.2927 182.428 20.4249V25.0493C182.428 25.1814 182.532 25.2852 182.664 25.2852H187.326C187.458 25.2852 187.562 25.3891 187.562 25.5212V30.4004C187.562 30.5325 187.467 30.6364 187.326 30.6364H182.664C182.601 30.6364 182.541 30.6612 182.497 30.7055C182.453 30.7497 182.428 30.8097 182.428 30.8723V39.083C182.428 40.3665 182.616 41.2725 183.022 41.801C183.447 42.339 184.249 42.6127 185.438 42.6127C186.203 42.6127 186.967 42.5749 187.732 42.5183C187.864 42.4994 187.986 42.6127 187.986 42.7448V47.624C187.986 47.7467 187.892 47.8505 187.779 47.86C187.307 47.9072 186.807 47.9355 186.288 47.9638C185.693 48.0204 184.919 48.0487 183.957 48.0487V48.0487ZM191.828 25.5212C191.828 25.3891 191.931 25.2852 192.064 25.2852H198.132C198.264 25.2852 198.368 25.3891 198.368 25.5212V47.558C198.368 47.6901 198.264 47.7939 198.132 47.7939H192.064C192.001 47.7939 191.941 47.7691 191.897 47.7248C191.852 47.6806 191.828 47.6206 191.828 47.558V25.5212V25.5212ZM195.102 23.1618C194.068 23.2257 193.048 22.8914 192.252 22.2275C191.931 21.9048 191.679 21.5199 191.512 21.0963C191.345 20.6727 191.266 20.2194 191.28 19.7642C191.28 18.7733 191.601 17.9711 192.252 17.3388C193.036 16.6506 194.061 16.3011 195.102 16.3667C196.32 16.3667 197.254 16.6876 197.905 17.3388C198.239 17.6459 198.502 18.0218 198.677 18.4406C198.851 18.8593 198.932 19.311 198.915 19.7642C198.915 20.7552 198.575 21.5763 197.896 22.2275C197.245 22.8503 196.32 23.1618 195.093 23.1618H195.102ZM200.548 25.6156C200.532 25.5796 200.526 25.5403 200.529 25.5012C200.532 25.4621 200.545 25.4244 200.567 25.3916C200.589 25.3588 200.618 25.3319 200.653 25.3133C200.687 25.2948 200.726 25.2851 200.765 25.2852H207.466C207.57 25.2852 207.654 25.3419 207.692 25.4362L213.091 39.6681C213.175 39.8758 213.468 39.8663 213.534 39.6681L218.451 25.4457C218.489 25.3513 218.574 25.2852 218.678 25.2852H224.699C224.869 25.2852 224.982 25.4551 224.925 25.6061L216.488 47.6429C216.471 47.6884 216.439 47.7273 216.399 47.7544C216.358 47.7814 216.31 47.7952 216.262 47.7939H210.042C209.948 47.7939 209.853 47.7373 209.825 47.6524L200.548 25.6156V25.6156ZM236.637 48.3413C235.07 48.3517 233.511 48.1225 232.013 47.6618C230.626 47.2085 229.355 46.4563 228.29 45.4583C227.225 44.4604 226.392 43.2409 225.85 41.886C225.224 40.2481 224.92 38.505 224.954 36.7519V35.9025C224.954 34.0339 225.237 32.4106 225.803 31.0233C226.398 29.636 227.19 28.4751 228.181 27.5314C229.209 26.5938 230.426 25.886 231.749 25.4551C233.136 24.9738 234.627 24.7284 236.213 24.7284C239.922 24.7284 242.725 25.7005 244.612 27.6258C246.519 29.5133 247.462 32.2785 247.462 35.9025V38.0071C247.462 38.1298 247.358 38.2431 247.226 38.2431H231.909C231.847 38.2431 231.786 38.2679 231.742 38.3122C231.698 38.3564 231.673 38.4164 231.673 38.479C231.72 39.2529 231.881 39.923 232.136 40.4892C232.392 41.0424 232.757 41.5382 233.21 41.9469C233.662 42.3555 234.192 42.6687 234.769 42.8675C235.363 43.0374 235.986 43.1223 236.637 43.1223C237.883 43.1223 238.855 42.9336 239.563 42.5655C240.176 42.2694 240.667 41.7688 240.95 41.1499C240.988 41.0555 241.073 40.9989 241.177 40.9989H246.754C246.905 40.9989 247.019 41.131 246.99 41.282C246.814 42.3304 246.432 43.3333 245.865 44.2325C245.298 45.1317 244.557 45.9092 243.687 46.5199C241.894 47.7373 239.554 48.3413 236.637 48.3413V48.3413ZM236.42 29.9097C235.826 29.9097 235.25 29.9852 234.684 30.1267C234.146 30.2683 233.646 30.5042 233.193 30.8534C232.756 31.1811 232.395 31.5997 232.136 32.0803C231.894 32.5895 231.753 33.1407 231.72 33.7036C231.72 33.8357 231.815 33.949 231.956 33.949H240.818C240.941 33.949 241.054 33.8451 241.045 33.713C241.044 33.12 240.915 32.5342 240.667 31.9954C240.431 31.5105 240.081 31.0897 239.648 30.7685C239.224 30.4431 238.729 30.2232 238.204 30.1267C237.62 29.9847 237.021 29.915 236.42 29.9191V29.9097Z" fill="#2E3137"/><defs><linearGradient id="paint0_linear_524_401" x1="18.476" y1="25.392" x2="46.868" y2="53.788" gradientUnits="userSpaceOnUse"><stop stop-color="#13ADC7"/><stop offset="1" stop-color="#945DD6"/></linearGradient><linearGradient id="paint1_linear_524_401" x1="18.476" y1="25.392" x2="46.868" y2="53.788" gradientUnits="userSpaceOnUse"><stop stop-color="#13ADC7"/><stop offset="1" stop-color="#945DD6"/></linearGradient><linearGradient id="paint2_linear_524_401" x1="45.247" y1="20.04" x2="16.324" y2="48.959" gradientUnits="userSpaceOnUse"><stop stop-color="#F46837"/><stop offset="1" stop-color="#945DD6"/></linearGradient></defs></svg>