<svg width="144" height="109" viewBox="0 0 144 109" fill="none" xmlns="http://www.w3.org/2000/svg"><path d="M93.8058 23.721C93.6993 23.9726 93.5541 24.1854 93.38 24.3693V24.3596L73.6379 44.097C73.5471 44.1869 73.4752 44.2939 73.426 44.4118C73.3769 44.5297 73.3516 44.6562 73.3516 44.7839C73.3516 44.9116 73.3769 45.0381 73.426 45.156C73.4752 45.2739 73.5471 45.3809 73.6379 45.4708L77.9637 49.7956C78.145 49.9758 78.3903 50.077 78.646 50.077C78.9016 50.077 79.1469 49.9758 79.3282 49.7956L99.051 30.0776C100.936 28.1909 101.995 25.6332 101.995 22.9664C101.995 20.2996 100.936 17.7418 99.051 15.8551L90.5057 7.30225C88.6186 5.41754 86.0602 4.35889 83.3928 4.35889C80.7253 4.35889 78.167 5.41754 76.2798 7.30225L73.6669 9.8952C73.4866 10.0765 73.3855 10.3217 73.3855 10.5773C73.3855 10.8329 73.4866 11.0781 73.6669 11.2594L77.9927 15.5939C78.0827 15.6846 78.1897 15.7565 78.3077 15.8057C78.4256 15.8548 78.5521 15.8801 78.6798 15.8801C78.8076 15.8801 78.9341 15.8548 79.052 15.8057C79.1699 15.7565 79.277 15.6846 79.3669 15.5939L81.9605 12.9913C82.1476 12.8032 82.37 12.6539 82.615 12.552C82.8599 12.4502 83.1226 12.3977 83.3879 12.3977C83.6532 12.3977 83.9159 12.4502 84.1609 12.552C84.4059 12.6539 84.6283 12.8032 84.8154 12.9913L93.3509 21.5248C93.6345 21.8055 93.8283 22.1642 93.9076 22.5552C93.9868 22.9463 93.948 23.3521 93.7961 23.721H93.8058ZM62.0442 55.6975L64.6475 53.0852H64.6571C64.838 52.9079 65.0813 52.8086 65.3346 52.8086C65.5879 52.8086 65.8311 52.9079 66.012 53.0852L70.3572 57.41C70.5374 57.5913 70.6386 57.8365 70.6386 58.0921C70.6386 58.3477 70.5374 58.5929 70.3572 58.7742L67.7249 61.3865C65.8377 63.2712 63.2794 64.3299 60.6119 64.3299C57.9445 64.3299 55.3861 63.2712 53.499 61.3865L44.9441 52.8336C43.0589 50.9469 42 48.3892 42 45.7224C42 43.0556 43.0589 40.4978 44.9441 38.6111L64.6765 18.9028C64.7665 18.8121 64.8735 18.7401 64.9914 18.691C65.1093 18.6419 65.2358 18.6166 65.3636 18.6166C65.4913 18.6166 65.6178 18.6419 65.7358 18.691C65.8537 18.7401 65.9607 18.8121 66.0507 18.9028L70.3572 23.2276C70.5374 23.4089 70.6386 23.6541 70.6386 23.9097C70.6386 24.1653 70.5374 24.4105 70.3572 24.5918L50.6538 44.3001C50.4657 44.4872 50.3163 44.7095 50.2145 44.9544C50.1126 45.1993 50.0601 45.462 50.0601 45.7272C50.0601 45.9925 50.1126 46.2551 50.2145 46.5C50.3163 46.7449 50.4657 46.9673 50.6538 47.1543L59.199 55.6975C59.5765 56.0744 60.0881 56.2862 60.6216 56.2862C61.1551 56.2862 61.6668 56.0744 62.0442 55.6975V55.6975Z" fill="#2E3137"/><path d="M60.612 12.4107C61.1442 12.4107 61.6572 12.6236 62.0346 13.0009L81.738 32.6996C81.8279 32.7903 81.935 32.8623 82.0529 32.9114C82.1708 32.9605 82.2973 32.9858 82.4251 32.9858C82.5528 32.9858 82.6793 32.9605 82.7972 32.9114C82.9152 32.8623 83.0222 32.7903 83.1122 32.6996L87.438 28.3748C87.5287 28.2848 87.6007 28.1778 87.6498 28.0599C87.699 27.942 87.7243 27.8156 87.7243 27.6879C87.7243 27.5601 87.699 27.4337 87.6498 27.3158C87.6007 27.1979 87.5287 27.0909 87.438 27.0009L67.7249 7.30225C65.8378 5.41754 63.2794 4.35889 60.612 4.35889C57.9445 4.35889 55.3862 5.41754 53.499 7.30225L44.9538 15.8551C44.0189 16.7895 43.2773 17.8989 42.7713 19.1199C42.2653 20.3409 42.0049 21.6496 42.0049 22.9712C42.0049 24.2928 42.2653 25.6015 42.7713 26.8225C43.2773 28.0435 44.0189 29.1529 44.9538 30.0873L47.5667 32.6996C47.6567 32.7903 47.7637 32.8623 47.8816 32.9114C47.9996 32.9605 48.1261 32.9858 48.2538 32.9858C48.3816 32.9858 48.5081 32.9605 48.626 32.9114C48.7439 32.8623 48.851 32.7903 48.9409 32.6996L53.2571 28.3748C53.3478 28.2848 53.4198 28.1778 53.4689 28.0599C53.518 27.942 53.5433 27.8156 53.5433 27.6879C53.5433 27.5601 53.518 27.4337 53.4689 27.3158C53.4198 27.1979 53.3478 27.0909 53.2571 27.0009L50.6442 24.3886C50.2671 24.0113 50.0553 23.4997 50.0553 22.9664C50.0553 22.433 50.2671 21.9215 50.6442 21.5441L59.1894 13.0009C59.5668 12.6236 60.0797 12.4204 60.612 12.4204V12.4107ZM81.9702 55.7168L62.2668 35.9988V36.0085C62.1769 35.9178 62.0698 35.8458 61.9519 35.7967C61.834 35.7476 61.7075 35.7223 61.5797 35.7223C61.452 35.7223 61.3255 35.7476 61.2076 35.7967C61.0896 35.8458 60.9826 35.9178 60.8926 36.0085L56.5668 40.3333C56.4761 40.4233 56.4041 40.5303 56.355 40.6482C56.3058 40.7661 56.2805 40.8925 56.2805 41.0202C56.2805 41.148 56.3058 41.2744 56.355 41.3923C56.4041 41.5102 56.4761 41.6172 56.5668 41.7072L76.2799 61.4155C78.167 63.3002 80.7254 64.3589 83.3928 64.3589C86.0603 64.3589 88.6186 63.3002 90.5058 61.4155L99.051 52.8627C99.9859 51.9283 100.728 50.8189 101.234 49.5979C101.739 48.3769 102 47.0682 102 45.7466C102 44.4249 101.739 43.1162 101.234 41.8953C100.728 40.6743 99.9859 39.5649 99.051 38.6305L96.4381 36.0182C96.3481 35.9275 96.2411 35.8555 96.1232 35.8064C96.0052 35.7573 95.8787 35.732 95.751 35.732C95.6232 35.732 95.4967 35.7573 95.3788 35.8064C95.2609 35.8555 95.1538 35.9275 95.0639 36.0182L90.7477 40.343C90.657 40.4329 90.585 40.5399 90.5359 40.6578C90.4868 40.7757 90.4615 40.9022 90.4615 41.0299C90.4615 41.1576 90.4868 41.2841 90.5359 41.402C90.585 41.5199 90.657 41.6269 90.7477 41.7169L93.3606 44.3292C93.7377 44.7065 93.9495 45.218 93.9495 45.7514C93.9495 46.2848 93.7377 46.7963 93.3606 47.1737L84.8154 55.7168C84.438 56.0938 83.9263 56.3055 83.3928 56.3055C82.8593 56.3055 82.3477 56.0938 81.9702 55.7168V55.7168Z" fill="#2E3137"/><path d="M9.41158 87.2306C9.41158 87.1315 9.49652 87.0536 9.59561 87.0536H14.1398C14.2389 87.0536 14.3168 87.1315 14.3168 87.2306V103.758C14.3168 103.857 14.246 103.935 14.1398 103.935H9.59561C9.57179 103.936 9.54801 103.932 9.52572 103.924C9.50343 103.915 9.48308 103.902 9.46589 103.886C9.4487 103.869 9.43503 103.85 9.42569 103.828C9.41636 103.806 9.41156 103.782 9.41158 103.758V87.2306ZM11.8677 85.4611C11.0942 85.5072 10.3323 85.2566 9.73718 84.7603C9.49489 84.5189 9.30459 84.2305 9.17799 83.9128C9.05139 83.595 8.99117 83.2548 9.00104 82.9129C9.00104 82.1697 9.2417 81.568 9.7301 81.0938C10.3182 80.5777 11.0868 80.3155 11.8677 80.3647C12.7808 80.3647 13.4815 80.6054 13.9699 81.0938C14.2216 81.3235 14.4203 81.6051 14.5523 81.9192C14.6843 82.2333 14.7465 82.5724 14.7344 82.9129C14.7344 83.6561 14.4796 84.2719 13.9699 84.7603C13.4815 85.2275 12.7808 85.4611 11.8677 85.4611V85.4611ZM24.9978 104.126C23.9361 104.126 23.03 104.034 22.2656 103.843C21.5621 103.664 20.9148 103.311 20.3828 102.817C19.8733 102.315 19.5006 101.691 19.2998 101.005C19.0457 100.093 18.9264 99.1484 18.9459 98.2018V91.2439C18.946 91.1982 18.9283 91.1542 18.8966 91.1213C18.8649 91.0883 18.8217 91.0688 18.776 91.067H17.056C17.0091 91.067 16.9641 91.0483 16.9309 91.0152C16.8977 90.982 16.8791 90.937 16.8791 90.89V87.2306C16.8791 87.1315 16.964 87.0536 17.056 87.0536H18.776C18.8751 87.0536 18.953 86.9758 18.953 86.8767V83.4084C18.953 83.3093 19.0309 83.2314 19.13 83.2314H23.6812C23.7803 83.2314 23.8582 83.3093 23.8582 83.4084V86.8767C23.8582 86.9758 23.9361 87.0536 24.0351 87.0536H27.5318C27.6309 87.0536 27.7087 87.1315 27.7087 87.2306V90.89C27.7087 90.9891 27.638 91.067 27.5318 91.067H24.0351C23.9882 91.067 23.9432 91.0856 23.91 91.1188C23.8768 91.152 23.8582 91.197 23.8582 91.2439V97.402C23.8582 98.3646 23.9998 99.0441 24.3041 99.4405C24.6226 99.844 25.2243 100.049 26.1161 100.049C26.6895 100.049 27.2628 100.021 27.8361 99.9785C27.9423 99.9643 28.0273 100.049 28.0273 100.148V103.808C28.0273 103.9 27.9565 103.978 27.8715 103.985C27.5176 104.02 27.1425 104.041 26.7532 104.063C26.3073 104.105 25.7268 104.126 25.0049 104.126H24.9978ZM38.7153 104.346C37.54 104.353 36.3704 104.182 35.247 103.836C34.2079 103.495 33.2562 102.931 32.4589 102.182C31.6615 101.434 31.0379 100.52 30.632 99.5042C30.1604 98.2762 29.9297 96.9689 29.9525 95.6537V95.0166C29.9525 93.6151 30.1649 92.3977 30.5896 91.3572C31.0355 90.3167 31.6301 89.4461 32.3733 88.7383C33.1444 88.0351 34.0565 87.5042 35.0488 87.1811C36.0893 86.8201 37.2077 86.636 38.3968 86.636C41.1786 86.636 43.2808 87.3651 44.6964 88.809C46.1262 90.2247 46.834 92.2986 46.834 95.0166V96.5951C46.834 96.6871 46.7562 96.772 46.6571 96.772H35.1692C35.1457 96.771 35.1222 96.7749 35.1003 96.7835C35.0784 96.792 35.0584 96.805 35.0418 96.8216C35.0252 96.8383 35.0122 96.8582 35.0036 96.8801C34.9951 96.902 34.9912 96.9255 34.9922 96.949C35.0145 97.4685 35.1321 97.9796 35.339 98.4566C35.5312 98.8715 35.8052 99.2434 36.1446 99.5499C36.4839 99.8564 36.8816 100.091 37.3139 100.24C37.7598 100.368 38.2269 100.431 38.7153 100.431C39.6497 100.431 40.3787 100.29 40.9096 100.014C41.3694 99.7918 41.7374 99.4163 41.9501 98.9521C41.9784 98.8813 42.0421 98.8389 42.12 98.8389H46.3032C46.4164 98.8389 46.5014 98.938 46.4731 99.0512C46.341 99.8375 46.054 100.59 45.6287 101.264C45.2034 101.938 44.6483 102.522 43.9957 102.98C42.665 103.893 40.9025 104.346 38.7153 104.346ZM38.5525 90.522C38.1066 90.522 37.6748 90.5786 37.2502 90.6848C36.8467 90.7909 36.4716 90.9679 36.1318 91.2298C35.8041 91.4756 35.5336 91.7895 35.339 92.15C35.1572 92.5317 35.0514 92.9452 35.0276 93.3674C35.0205 93.4665 35.0984 93.5514 35.2046 93.5514H41.851C41.943 93.5514 42.0279 93.4736 42.0209 93.3745C42.0195 92.9298 41.923 92.4905 41.7377 92.0863C41.5605 91.7226 41.2983 91.407 40.9733 91.1661C40.6556 90.9221 40.2844 90.7571 39.8903 90.6848C39.4525 90.5783 39.0032 90.526 38.5525 90.529V90.522ZM49.3751 87.2306C49.3751 87.1315 49.4601 87.0536 49.5521 87.0536H53.7282C53.8202 87.0536 53.8981 87.1315 53.8981 87.2306V88.5401C53.8981 88.7312 54.2024 88.809 54.3228 88.6604C54.3652 88.5896 54.4219 88.5188 54.4714 88.4551C54.7545 88.1366 55.066 87.8393 55.427 87.5633C56.2008 86.9592 57.1563 86.6349 58.1379 86.6431C58.5749 86.633 59.0111 86.6855 59.4332 86.7988C59.5182 86.8201 59.5748 86.8909 59.5748 86.9687V90.7556C59.5748 90.8971 59.412 90.9962 59.2775 90.9537C58.7 90.7882 58.1016 90.7071 57.5009 90.7131C56.3684 90.7131 55.5544 91.0458 55.0448 91.704C54.5252 92.3913 54.2555 93.2352 54.2803 94.0965V103.758C54.2803 103.857 54.2095 103.935 54.1034 103.935H49.5592C49.5122 103.935 49.4672 103.917 49.434 103.883C49.4008 103.85 49.3822 103.805 49.3822 103.758V87.2306H49.3751ZM66.5751 104.346C65.7405 104.36 64.9104 104.221 64.1261 103.935C63.4647 103.685 62.8587 103.307 62.3424 102.824C61.8576 102.343 61.4769 101.767 61.224 101.132C60.9646 100.45 60.8349 99.7247 60.8418 98.9946C60.8418 97.317 61.3514 96.0359 62.3707 95.144C63.4112 94.2522 64.9755 93.8063 67.0565 93.8063H71.6856C71.7847 93.8063 71.8626 93.7284 71.8626 93.6293V93.1055C71.8626 92.0863 71.6219 91.3855 71.1335 91.0033C70.5554 90.5719 69.8434 90.3588 69.1233 90.4016C68.3164 90.4016 67.7218 90.529 67.3396 90.7839C66.9998 91.0104 66.7946 91.3572 66.7238 91.8244C66.7186 91.8694 66.6969 91.9109 66.6629 91.941C66.629 91.971 66.5851 91.9875 66.5398 91.9872H61.9885C61.9643 91.9883 61.9402 91.9842 61.9178 91.9752C61.8954 91.9663 61.8751 91.9526 61.8583 91.9352C61.8416 91.9178 61.8288 91.897 61.8207 91.8742C61.8126 91.8514 61.8095 91.8272 61.8115 91.8031C61.8654 91.0934 62.0716 90.4035 62.416 89.7806C62.7605 89.1577 63.2351 88.6163 63.8076 88.1932C64.4446 87.7119 65.2232 87.3297 66.1292 87.0536C67.0494 86.7776 68.097 86.6431 69.2861 86.6431C70.3903 86.6431 71.3954 86.7705 72.3085 87.0253C73.1855 87.2285 74.004 87.6305 74.7009 88.2003C75.3805 88.7602 75.9066 89.4836 76.2298 90.3025C76.5837 91.1519 76.7678 92.1924 76.7678 93.424V99.6387C76.7453 101.011 76.821 102.383 76.9943 103.744C77.0155 103.843 76.9306 103.935 76.8244 103.935H72.535C72.4915 103.935 72.4495 103.92 72.4168 103.891C72.3842 103.862 72.3633 103.823 72.358 103.779C72.3227 103.482 72.2873 103.213 72.2448 102.98L72.2236 102.491C72.2236 102.321 71.99 102.243 71.8696 102.364C71.3538 102.903 70.7478 103.349 70.0789 103.68C68.978 104.17 67.7792 104.4 66.5751 104.353V104.346ZM68.1677 100.906C69.1196 100.941 70.0513 100.626 70.7867 100.021C71.5016 99.4264 71.8626 98.6053 71.8626 97.5648V97.041C71.8626 96.9941 71.8439 96.9491 71.8107 96.9159C71.7776 96.8827 71.7325 96.864 71.6856 96.864H68.0049C67.29 96.864 66.745 97.0552 66.384 97.4374C66.051 97.8028 65.8689 98.2808 65.8744 98.7752C65.8744 99.391 66.0443 99.9006 66.384 100.304C66.745 100.708 67.3396 100.906 68.1677 100.906V100.906ZM86.9675 104.126C85.9057 104.126 84.9856 104.034 84.2282 103.843C83.5247 103.664 82.8774 103.311 82.3454 102.817C81.8359 102.315 81.4631 101.691 81.2624 101.005C81.0082 100.093 80.889 99.1484 80.9085 98.2018V91.2439C80.9085 91.1982 80.8909 91.1542 80.8592 91.1213C80.8275 91.0883 80.7843 91.0688 80.7386 91.067H79.0186C78.9717 91.067 78.9267 91.0483 78.8935 91.0152C78.8603 90.982 78.8417 90.937 78.8417 90.89V87.2306C78.8417 87.1315 78.9195 87.0536 79.0186 87.0536H80.7386C80.8377 87.0536 80.9156 86.9758 80.9156 86.8767V83.4084C80.9156 83.3093 80.9934 83.2314 81.0925 83.2314H85.6438C85.7429 83.2314 85.8208 83.3093 85.8208 83.4084V86.8767C85.8208 86.9758 85.8986 87.0536 85.9977 87.0536H89.4944C89.5935 87.0536 89.6713 87.1315 89.6713 87.2306V90.89C89.6713 90.9891 89.6005 91.067 89.4944 91.067H85.9977C85.9508 91.067 85.9058 91.0856 85.8726 91.1188C85.8394 91.152 85.8208 91.197 85.8208 91.2439V97.402C85.8208 98.3646 85.9624 99.0441 86.2667 99.4405C86.5852 99.844 87.1869 100.049 88.0787 100.049C88.6521 100.049 89.2254 100.021 89.7987 99.9785C89.8978 99.9643 89.9898 100.049 89.9898 100.148V103.808C89.9898 103.9 89.9191 103.978 89.8341 103.985C89.4802 104.02 89.1051 104.041 88.7158 104.063C88.2698 104.105 87.6894 104.126 86.9675 104.126V104.126ZM92.8707 87.2306C92.8707 87.1315 92.9485 87.0536 93.0476 87.0536H97.5989C97.698 87.0536 97.7759 87.1315 97.7759 87.2306V103.758C97.7759 103.857 97.698 103.935 97.5989 103.935H93.0476C93.0007 103.935 92.9557 103.917 92.9225 103.883C92.8893 103.85 92.8707 103.805 92.8707 103.758V87.2306V87.2306ZM95.3268 85.4611C94.5509 85.509 93.7861 85.2583 93.1892 84.7603C92.9482 84.5183 92.7592 84.2296 92.6338 83.9119C92.5084 83.5942 92.4493 83.2543 92.4601 82.9129C92.4601 82.1697 92.7008 81.568 93.1892 81.0938C93.7773 80.5777 94.5459 80.3155 95.3268 80.3647C96.2399 80.3647 96.9406 80.6054 97.429 81.0938C97.6794 81.3241 97.8768 81.6061 98.0076 81.9201C98.1384 82.2342 98.1994 82.5729 98.1864 82.9129C98.1864 83.6561 97.9316 84.2719 97.422 84.7603C96.9336 85.2275 96.2399 85.4611 95.3197 85.4611H95.3268ZM99.4109 87.3014C99.3992 87.2744 99.3943 87.2449 99.3968 87.2156C99.3993 87.1863 99.4091 87.158 99.4252 87.1334C99.4414 87.1088 99.4634 87.0886 99.4894 87.0747C99.5153 87.0608 99.5443 87.0535 99.5737 87.0536H104.599C104.677 87.0536 104.741 87.0961 104.769 87.1669L108.818 97.8408C108.882 97.9966 109.101 97.9895 109.151 97.8408L112.838 87.174C112.867 87.1032 112.93 87.0536 113.008 87.0536H117.524C117.651 87.0536 117.736 87.1811 117.694 87.2943L111.366 103.822C111.353 103.856 111.329 103.885 111.299 103.906C111.269 103.926 111.233 103.936 111.196 103.935H106.532C106.461 103.935 106.39 103.893 106.369 103.829L99.4109 87.3014V87.3014ZM126.478 104.346C125.303 104.353 124.133 104.182 123.01 103.836C121.969 103.496 121.016 102.932 120.218 102.183C119.419 101.435 118.794 100.52 118.388 99.5042C117.918 98.2758 117.69 96.9684 117.715 95.6537V95.0166C117.715 93.6151 117.928 92.3977 118.352 91.3572C118.798 90.3167 119.393 89.4461 120.136 88.7383C120.907 88.0351 121.819 87.5042 122.811 87.1811C123.852 86.8201 124.97 86.636 126.159 86.636C128.941 86.636 131.043 87.3651 132.459 88.809C133.889 90.2247 134.597 92.2986 134.597 95.0166V96.5951C134.597 96.6871 134.519 96.772 134.42 96.772H122.932C122.885 96.772 122.84 96.7907 122.807 96.8239C122.773 96.857 122.755 96.902 122.755 96.949C122.79 97.5294 122.911 98.0319 123.102 98.4566C123.294 98.8715 123.568 99.2434 123.907 99.5499C124.247 99.8564 124.644 100.091 125.077 100.24C125.522 100.368 125.99 100.431 126.478 100.431C127.412 100.431 128.141 100.29 128.672 100.014C129.132 99.7918 129.5 99.4163 129.713 98.9521C129.741 98.8813 129.805 98.8389 129.883 98.8389H134.066C134.179 98.8389 134.264 98.938 134.243 99.0512C134.111 99.8375 133.824 100.59 133.398 101.264C132.973 101.938 132.418 102.522 131.765 102.98C130.421 103.893 128.665 104.346 126.478 104.346V104.346ZM126.315 90.522C125.869 90.522 125.437 90.5786 125.013 90.6848C124.609 90.7909 124.234 90.9679 123.894 91.2298C123.567 91.4756 123.296 91.7895 123.102 92.15C122.92 92.5318 122.814 92.9453 122.79 93.3674C122.79 93.4665 122.861 93.5514 122.967 93.5514H129.614C129.706 93.5514 129.791 93.4736 129.784 93.3745C129.783 92.9297 129.686 92.4904 129.5 92.0863C129.323 91.7226 129.061 91.407 128.736 91.1661C128.418 90.9221 128.047 90.7571 127.653 90.6848C127.215 90.5783 126.766 90.526 126.315 90.529V90.522Z" fill="#2E3137"/></svg>