<svg width="540" height="128" viewBox="0 0 540 128" fill="none" xmlns="http://www.w3.org/2000/svg"><g clip-path="url(#clip0)"><path d="M45.473 21.871c.473.196.903.483 1.264.846l8.245 8.244.041-.02 11 11.02-.02.02 22.02 22.021 11.021-11.02-41.307-41.286a19.472 19.472 0 0 0-27.51 0l-16.531 16.53a19.473 19.473 0 0 0 0 27.511l8.266 8.265 11-11.02-8.245-8.245a3.893 3.893 0 0 1 0-5.51l16.51-16.51a3.891 3.891 0 0 1 4.246-.846z" fill="url(#paint0_linear)"/><path d="M85.268 105.288l-8.245-8.244-.041.02-11-11.02.02-.021-22.02-22.02-11.02 11.02 41.306 41.286a19.473 19.473 0 0 0 27.51 0l16.531-16.53a19.47 19.47 0 0 0 0-27.511l-8.265-8.266-11 11.021 8.245 8.245a3.896 3.896 0 0 1 0 5.51l-16.51 16.51a3.898 3.898 0 0 1-2.756 1.142 3.893 3.893 0 0 1-2.755-1.142z" fill="url(#paint1_linear)"/><path fill-rule="evenodd" clip-rule="evenodd" d="M108.152 43.446c-.207.476-.476.89-.829 1.243L65.975 86.037l11 11.02 41.328-41.327a19.473 19.473 0 0 0 0-27.51l-16.531-16.53a19.474 19.474 0 0 0-27.51 0l-8.245 8.202 11.02 11.021 8.224-8.224a3.891 3.891 0 0 1 4.247-.845c.473.196.902.483 1.264.845l16.51 16.51a3.893 3.893 0 0 1 .849 4.247h.021zm-61.4 61.815l8.223-8.224 11.042 11-8.286 8.245a19.473 19.473 0 0 1-27.51 0L13.688 99.751a19.472 19.472 0 0 1 0-27.51l41.349-41.328 10.979 11.02L24.73 83.24a3.893 3.893 0 0 0 0 5.51l16.51 16.511a3.894 3.894 0 0 0 5.51 0z" fill="url(#paint2_linear)"/></g><g clip-path="url(#clip1)"><path d="M165.174 42.964h13.903v47.862h-13.903V42.964zm6.951-4.515c-2.588 0-4.604-.662-6.049-1.987-1.384-1.384-2.076-3.13-2.076-5.237 0-2.108.692-3.823 2.076-5.148 1.445-1.385 3.461-2.077 6.049-2.077 2.588 0 4.574.692 5.959 2.077 1.444 1.325 2.166 3.04 2.166 5.148 0 2.107-.722 3.853-2.166 5.237-1.385 1.325-3.371 1.987-5.959 1.987zm37.233 52.919c-3.01 0-5.598-.27-7.764-.813-2.167-.602-3.942-1.565-5.327-2.89-1.384-1.324-2.407-3.04-3.069-5.147-.662-2.167-.993-4.816-.993-7.947V54.343h-5.869V42.964h5.869V32.128h13.903v10.836h10.924v11.379h-10.924v17.97c0 2.71.421 4.636 1.264 5.78.902 1.144 2.618 1.716 5.146 1.716 1.805 0 3.611-.09 5.416-.271v11.379c-1.143.12-2.347.21-3.611.27-1.264.12-2.919.181-4.965.181zm38.855.632c-3.491 0-6.771-.481-9.84-1.445-3.01-1.023-5.628-2.558-7.855-4.605-2.226-2.047-3.972-4.606-5.236-7.676-1.264-3.13-1.896-6.773-1.896-10.927V65.54c0-3.974.602-7.435 1.806-10.385 1.264-2.95 2.949-5.419 5.056-7.405 2.166-1.987 4.694-3.462 7.583-4.425 2.949-1.024 6.109-1.536 9.479-1.536 7.885 0 13.843 2.047 17.876 6.141 4.032 4.034 6.049 9.904 6.049 17.61v4.966h-33.584c.06 1.867.391 3.462.993 4.787.602 1.264 1.384 2.318 2.347 3.16a9.812 9.812 0 0 0 3.25 1.897c1.264.36 2.588.542 3.972.542 2.648 0 4.725-.392 6.23-1.174 1.564-.843 2.588-1.957 3.069-3.342h12.82c-.963 5.238-3.341 9.151-7.132 11.74-3.792 2.589-8.788 3.883-14.987 3.883zm-.451-39.192c-1.264 0-2.498.15-3.702.451a9.068 9.068 0 0 0-3.159 1.535c-.903.663-1.655 1.536-2.257 2.62-.542 1.083-.843 2.407-.903 3.973h19.861c0-1.686-.27-3.07-.812-4.154s-1.264-1.957-2.167-2.62c-.842-.662-1.866-1.113-3.069-1.354a15.581 15.581 0 0 0-3.792-.451zm30.681-9.844h12.82v6.502c.361-.782.902-1.625 1.625-2.528a18.158 18.158 0 0 1 2.708-2.529 13.55 13.55 0 0 1 3.431-1.896c1.324-.482 2.738-.723 4.243-.723 1.023 0 1.835.06 2.437.18.602.121 1.144.242 1.625.362v12.01c-.301-.18-.993-.39-2.076-.631-1.083-.241-2.347-.362-3.792-.362-3.19 0-5.507.934-6.951 2.8-1.445 1.866-2.167 4.124-2.167 6.773v27.904h-13.903V42.964zM327.194 92c-2.588 0-4.905-.391-6.952-1.174-1.986-.782-3.671-1.836-5.055-3.16a14.106 14.106 0 0 1-3.16-4.787c-.722-1.866-1.083-3.883-1.083-6.05 0-4.756 1.444-8.399 4.333-10.927 2.949-2.529 7.373-3.793 13.271-3.793h13.632v-1.987c0-2.89-.692-4.876-2.076-5.96-1.384-1.144-3.28-1.716-5.688-1.716-2.287 0-3.972.362-5.055 1.084-1.084.722-1.686 1.866-1.806 3.432h-13.903c.12-2.168.662-4.154 1.625-5.96.963-1.867 2.317-3.462 4.063-4.787 1.805-1.384 4.002-2.468 6.59-3.25 2.588-.783 5.567-1.175 8.938-1.175 3.129 0 5.988.361 8.576 1.084 2.648.662 4.905 1.776 6.771 3.341 1.866 1.505 3.31 3.492 4.334 5.96 1.023 2.409 1.534 5.358 1.534 8.85v17.61c0 2.528.061 4.756.181 6.682.12 1.867.301 3.703.542 5.51h-13.181a80.458 80.458 0 0 0-.361-2.71 38.733 38.733 0 0 1-.091-2.89c-1.444 1.927-3.46 3.552-6.048 4.877-2.528 1.264-5.838 1.896-9.931 1.896zm4.514-9.753c2.949 0 5.417-.843 7.403-2.528 2.046-1.686 3.069-4.004 3.069-6.954v-1.987h-10.924c-2.046 0-3.581.542-4.604 1.626-.963 1.084-1.444 2.348-1.444 3.793 0 1.746.481 3.19 1.444 4.334 1.023 1.144 2.709 1.716 5.056 1.716zm53.272 9.121c-3.009 0-5.597-.27-7.764-.813-2.167-.602-3.942-1.565-5.327-2.89-1.384-1.324-2.407-3.04-3.069-5.147-.662-2.167-.993-4.816-.993-7.947V54.343h-5.868V42.964h5.868V32.128h13.903v10.836h10.924v11.379H381.73v17.97c0 2.71.421 4.636 1.264 5.78.903 1.144 2.618 1.716 5.146 1.716 1.805 0 3.611-.09 5.417-.271v11.379c-1.144.12-2.348.21-3.612.27-1.264.12-2.919.181-4.965.181zm16.737-48.404h13.903v47.862h-13.903V42.964zm6.951-4.515c-2.588 0-4.604-.662-6.048-1.987-1.385-1.384-2.077-3.13-2.077-5.237 0-2.108.692-3.823 2.077-5.148 1.444-1.385 3.46-2.077 6.048-2.077 2.589 0 4.575.692 5.959 2.077 1.444 1.325 2.167 3.04 2.167 5.148 0 2.107-.723 3.853-2.167 5.237-1.384 1.325-3.37 1.987-5.959 1.987zm13.309 4.515h15.347l12.098 31.878 11.014-31.878h13.903l-18.327 47.862h-13.903l-20.132-47.862zM500.979 92c-3.491 0-6.771-.481-9.841-1.445-3.009-1.023-5.627-2.558-7.854-4.605-2.227-2.047-3.972-4.606-5.236-7.676-1.264-3.13-1.896-6.773-1.896-10.927V65.54c0-3.974.602-7.435 1.805-10.385 1.264-2.95 2.95-5.419 5.056-7.405 2.167-1.987 4.695-3.462 7.584-4.425 2.949-1.024 6.108-1.536 9.479-1.536 7.884 0 13.843 2.047 17.875 6.141 4.033 4.034 6.049 9.904 6.049 17.61v4.966h-33.584c.06 1.867.391 3.462.993 4.787.602 1.264 1.384 2.318 2.347 3.16a9.822 9.822 0 0 0 3.25 1.897c1.264.36 2.588.542 3.973.542 2.648 0 4.724-.392 6.229-1.174 1.565-.843 2.588-1.957 3.07-3.342h12.819c-.963 5.238-3.34 9.151-7.132 11.74-3.792 2.589-8.787 3.883-14.986 3.883zm-.452-39.192c-1.264 0-2.497.15-3.701.451a9.064 9.064 0 0 0-3.16 1.535c-.903.663-1.655 1.536-2.257 2.62-.542 1.083-.843 2.407-.903 3.973h19.862c0-1.686-.271-3.07-.813-4.154-.541-1.084-1.264-1.957-2.166-2.62-.843-.662-1.866-1.113-3.07-1.354a15.581 15.581 0 0 0-3.792-.451z" fill="#2E3137"/></g><defs><linearGradient id="paint0_linear" x1="35.965" y1="50.537" x2="90.861" y2="105.434" gradientUnits="userSpaceOnUse"><stop stop-color="#13ADC7"/><stop offset="1" stop-color="#945DD6"/></linearGradient><linearGradient id="paint1_linear" x1="35.965" y1="50.537" x2="90.861" y2="105.434" gradientUnits="userSpaceOnUse"><stop stop-color="#13ADC7"/><stop offset="1" stop-color="#945DD6"/></linearGradient><linearGradient id="paint2_linear" x1="87.74" y1="40.18" x2="31.823" y2="96.097" gradientUnits="userSpaceOnUse"><stop stop-color="#F46837"/><stop offset="1" stop-color="#945DD6"/></linearGradient><clipPath id="clip0"><path fill="#fff" transform="translate(8 6)" d="M0 0H116V116H0z"/></clipPath><clipPath id="clip1"><path fill="#fff" transform="translate(164 24)" d="M0 0H360V80H0z"/></clipPath></defs></svg>