<svg width="160" height="128" viewBox="0 0 160 128" fill="none" xmlns="http://www.w3.org/2000/svg">
<path d="M127.345 16.5015C125.052 8.13918 114.591 5.18906 108.184 11.0985L82.4801 34.8083C79.9267 37.1635 75.9663 37.1635 73.413 34.8083L47.7089 11.0985C41.3025 5.18908 30.8407 8.13915 28.5481 16.5015L17.7565 55.8648C11.8482 77.416 21.1894 100.22 40.5981 111.626C49.3822 116.788 59.3382 119.654 69.5301 119.971C69.8153 119.979 70.0502 119.752 70.0502 119.47C70.0502 119.289 70.148 119.123 70.3064 119.033L81.3159 112.811C81.5594 112.673 81.8207 112.569 82.0887 112.487C87.2658 110.902 90.8225 106.16 90.8225 100.768C90.8225 100.19 90.2946 99.7519 89.7161 99.8367C87.7254 100.128 85.7089 100.276 83.6824 100.276H71.4239C64.1594 100.276 57.0294 98.3393 50.7841 94.6692C39.0741 87.7877 33.4382 74.0293 37.0029 61.0266L42.7448 40.0827C43.3998 37.6935 46.3889 36.8506 48.2193 38.539L59.8123 49.2326C70.0257 58.6535 85.8674 58.6535 96.0808 49.2325L107.674 38.539C109.504 36.8506 112.493 37.6935 113.148 40.0827L118.688 60.2906C119.03 61.535 119.288 62.7861 119.467 64.0374C119.67 65.4591 120.68 66.6499 122.044 67.1409C125.686 68.4519 128.903 70.637 131.437 73.4397C133.718 75.963 139.278 75.6822 139.551 72.3083C140.009 66.6496 139.502 60.8465 137.935 55.1288L127.345 16.5015Z" fill="url(#paint0_linear_509_674)"/>
<path d="M97.4701 88.7708C97.4701 81.9813 103.945 75.6218 112.426 75.6218C118.822 75.6218 124.059 80.6465 124.059 87.949C124.059 95.2515 118.822 100.276 112.426 100.276C106.919 100.276 102.455 104.692 102.455 110.138C102.455 115.585 106.919 120 112.426 120C130.809 120 144 105.156 144 87.949C144 70.7422 130.809 55.8982 112.426 55.8982C94.9537 55.8982 77.5287 69.1905 77.5287 88.7708V95.3453C77.5287 95.3551 77.5286 95.3649 77.5286 95.3746L77.5287 106.851C77.5287 112.695 73.6747 117.648 68.3436 119.36C67.97 119.48 67.9959 120 68.3887 120H72.5433C86.31 120 97.4701 108.962 97.4701 95.3453V88.7708Z" fill="url(#paint1_linear_509_674)"/>
<defs>
<linearGradient id="paint0_linear_509_674" x1="66.7266" y1="109.29" x2="37.3146" y2="58.0638" gradientUnits="userSpaceOnUse">
<stop stop-color="#7E51C2"/>
<stop offset="0.176285" stop-color="#945DD6"/>
<stop offset="1" stop-color="#13ADC7"/>
</linearGradient>
<linearGradient id="paint1_linear_509_674" x1="81.92" y1="92" x2="94.5319" y2="106.797" gradientUnits="userSpaceOnUse">
<stop stop-color="#F46837"/>
<stop offset="1" stop-color="#DD5236"/>
</linearGradient>
</defs>
</svg>
