<svg width="160" height="160" viewBox="0 0 160 160" fill="none" xmlns="http://www.w3.org/2000/svg"><path d="M127.345 32.5015C125.052 24.1392 114.591 21.1891 108.184 27.0985L82.4801 50.8083C79.9267 53.1635 75.9663 53.1635 73.413 50.8083L47.7089 27.0985C41.3025 21.1891 30.8407 24.1391 28.5481 32.5015L17.7565 71.8648C11.8482 93.416 21.1894 116.22 40.5981 127.626C49.3822 132.788 59.3382 135.654 69.5301 135.971C69.8153 135.979 70.0502 135.752 70.0502 135.47C70.0502 135.289 70.148 135.123 70.3064 135.033L81.3159 128.811C81.5594 128.673 81.8207 128.569 82.0887 128.487C87.2658 126.902 90.8225 122.16 90.8225 116.768C90.8225 116.19 90.2946 115.752 89.7161 115.837C87.7254 116.128 85.7089 116.276 83.6824 116.276H71.4239C64.1594 116.276 57.0294 114.339 50.7841 110.669C39.0741 103.788 33.4382 90.0293 37.0029 77.0266L42.7448 56.0827C43.3998 53.6935 46.3889 52.8506 48.2193 54.539L59.8123 65.2326C70.0257 74.6535 85.8674 74.6535 96.0808 65.2326L107.674 54.539C109.504 52.8506 112.493 53.6935 113.148 56.0827L118.688 76.2907C119.03 77.5351 119.288 78.7861 119.467 80.0374C119.67 81.4591 120.68 82.65 122.044 83.141C125.686 84.4519 128.903 86.637 131.437 89.4397C133.718 91.963 139.278 91.6822 139.551 88.3083C140.009 82.6496 139.502 76.8465 137.935 71.1288L127.345 32.5015Z" fill="url(#paint0_linear_509_686)"/><path d="M97.4701 104.771C97.4701 97.9813 103.945 91.6218 112.426 91.6218C118.822 91.6218 124.059 96.6465 124.059 103.949C124.059 111.251 118.822 116.276 112.426 116.276C106.919 116.276 102.455 120.692 102.455 126.138C102.455 131.585 106.919 136 112.426 136C130.809 136 144 121.156 144 103.949C144 86.7422 130.809 71.8982 112.426 71.8982C94.9537 71.8982 77.5287 85.1905 77.5287 104.771V111.345C77.5287 111.355 77.5286 111.365 77.5286 111.375L77.5287 122.851C77.5287 128.695 73.6747 133.648 68.3436 135.36C67.97 135.48 67.9959 136 68.3887 136H72.5433C86.31 136 97.4701 124.962 97.4701 111.345V104.771Z" fill="url(#paint1_linear_509_686)"/><defs><linearGradient id="paint0_linear_509_686" x1="66.727" y1="125.29" x2="37.315" y2="74.064" gradientUnits="userSpaceOnUse"><stop stop-color="#7E51C2"/><stop offset=".176" stop-color="#945DD6"/><stop offset="1" stop-color="#13ADC7"/></linearGradient><linearGradient id="paint1_linear_509_686" x1="81.92" y1="108" x2="94.532" y2="122.797" gradientUnits="userSpaceOnUse"><stop stop-color="#F46837"/><stop offset="1" stop-color="#DD5236"/></linearGradient></defs></svg>